<svg xmlns="http://www.w3.org/2000/svg" id="Layer_1" data-name="Layer 1" viewBox="0 0 500 500"><defs><style>.cls-1{fill:#1597b7;}</style></defs><path class="cls-1" d="M260.39,250a37.45,37.45,0,1,1,37.44,37.7A37.56,37.56,0,0,1,260.39,250m24.43,0a13,13,0,1,0,13-13.11,13.06,13.06,0,0,0-13,13.11"></path><path class="cls-1" d="M375.73,286.07H352.22V239H338.31V223c8.45-.42,14.9-3.56,16.27-9.43h21.15Z"></path><path class="cls-1" d="M251,286.07H227.46V239h-13.9V223c8.44-.42,14.89-3.56,16.26-9.43H251Z"></path><path class="cls-1" d="M158.5,244.32l1.17-3.33,1.16,3.33,4.09,11.29H154.67Zm-6.68-30.63-27.55,72.44h19.46L149,271h21.3l5.29,15.09h19.83L168.1,213.69Z"></path><path class="cls-1" d="M193.27,257.91a13,13,0,1,0,13-13.11,13.07,13.07,0,0,0-13,13.11"></path></svg>