<svg xmlns="http://www.w3.org/2000/svg" id="Layer_1" data-name="Layer 1" viewBox="0 0 500 500"><defs><style>.cls-1,.cls-2{fill:#fff;}.cls-2,.cls-3,.cls-4{fill-rule:evenodd;}.cls-3,.cls-5{fill:#ff8189;}.cls-4,.cls-7{fill:#743e2a;}.cls-6{fill:#ffb8b8;}</style></defs><path class="cls-1" d="M283.76,358.26a9.93,9.93,0,0,1-6.3-2.3l-1-.82-1.74.43-.64,0h-.89l-.57.31a5.93,5.93,0,0,1-1.36.57l-.65.17h-.84a5.62,5.62,0,0,1-5.54-5.09l-.25-2.48-6.33.48-2.56-.57-2.71,1.1-.76.15-4.26.89-5.19-.64-2.62-.84-3,.7-4.77.19-5.32-1.29L224.2,348l-2.51.17-.79,0-1.26-.14-3.57-.41-3.9-1.68-.91-.42-.71-.5-1.42-1-2.95-.23-.75-.2-4.24-1-1.26-.81-3.21-2.12-1.9-1.83-2.62-.48-.93-.4-4-1.74-4.2-3.69-1.31-1.91-2.82-1-4.41-2.92-3.26-3.84-1.33-2.39L167.32,318l-3.91-3.46-.68-1.12-2.22-3.49-.7-2.34-2.15-1.67-3.49-3.85-2.23-5.32-.35-2.18L150,292.72l-.5-.61-.5-.73-2.09-3.13-1.5-5.61,0-2.5-1.73-2.37-.41-1-1.07-2.66-.44-1.12-.61-5.18.33-2.55-1.37-3-.32-1.3-.88-3.37,0-1.32.18-4,.71-2.55-.86-2.59-.1-.91-.55-4.25,1.17-5.75,1-2L140,231.1l.42-5.06,1.69-5,1.47-2.1-.06-2.86.88-4.29.16-.8,2.54-4.73,1.71-1.88.39-3,1.87-4.89,3.15-4.17,2-1.65,1-3,2.35-4.42,3.17-3,.64-.57,2.24-1.46,1.24-2.55.46-.63,2.56-3.47,4.67-3.35,2.16-.81,1.7-2.41,3.58-3.64,5-2.44,2.34-.57,1.89-2.13,4.33-3.06,5.32-1.73,2.25-.14,2.57-1.89,4.24-2.18,2.06-.38,3.4-.65,1.69.13,2.69-1.57,4.78-1.42,5.2-.2,1.56.35,2.32-.93,5.06-.84,5.27.66,1.36.51,1.34-.4,5.3-.21,5,1.23,2.26,1.13,2.94-.33,5.07.41,5.12,2.1,2,1.46,2.7,0,1.16.3,4.3,1.09,4.47,2.8,1.71,1.66,2.78.55,1.2.45,3.68,1.39,4.33,3.67L302.1,162l2.83,1,4.19,2.54,3.66,3.85,1.37,2.46,2.59,1.35,3.95,3.27,3.18,4.76.67,2.14,2.44,1.89,1.86,2.05,1.54,1.73.95,2.11,1.24,2.8.47,2.33,2.24,2.27L338,203l1.44,5.06,2.51-.78a6.18,6.18,0,0,1,1.83-.33,5.79,5.79,0,0,1,4.95,2.79,5.56,5.56,0,0,1,.6,1.33l.2.63.47.46a6.19,6.19,0,0,1,1,1.15,6,6,0,0,1,.75,2.06l.35,1.85,1.88.22a5.74,5.74,0,0,1,4.89,4.35,5.91,5.91,0,0,1-.08,2.67l-.28,1.07.58.93a10,10,0,0,1,1.45,3.95,11,11,0,0,1-.33,4.51l-.32,1.12.63,1a5.52,5.52,0,0,1,.92,2.59,6,6,0,0,1-.28,2.23l-.31.93.38.9a5.57,5.57,0,0,1,.46,2.12,5.8,5.8,0,0,1-.62,2.55l-.52,1.08.49,1.09a5.29,5.29,0,0,1-.22,5.05l-.59,1.06.45,1.13a5.49,5.49,0,0,1,.36,2.86,5.36,5.36,0,0,1-.3,1.21l-.19.51,0,.54a10.5,10.5,0,0,1-.1,2.09,10.1,10.1,0,0,1-2.23,5l-1,1.19.6,1.43a5.75,5.75,0,0,1,.31,3.55,5.62,5.62,0,0,1-4.87,4.23l-5.75.64,4.34,3.82a5.59,5.59,0,0,1-.2,8.66l-1.06.83.09,1.35a5.6,5.6,0,0,1-.49,2.67,5.91,5.91,0,0,1-1.46,1.93l-.77.68-.09,1a5.64,5.64,0,0,1-.62,2.12l-.08.14a5.42,5.42,0,0,1-1.4,1.64l-.79.64-.14,1a5.62,5.62,0,0,1-.87,2.36,5.46,5.46,0,0,1-2,1.8l-1.18.65-.14,1.34a5.7,5.7,0,0,1-.89,2.53,5.83,5.83,0,0,1-1.89,1.77l-.91.54-.27,1a5.56,5.56,0,0,1-1.13,2.25,5.46,5.46,0,0,1-.89.84l-.44.33-.26.48a11.13,11.13,0,0,1-1.23,1.76,10.17,10.17,0,0,1-5,3.16l-2.21.6.34,2.26a10.65,10.65,0,0,1-1.18,7,5.72,5.72,0,0,1-1.24,1.62,5.62,5.62,0,0,1-3.8,1.48,5.43,5.43,0,0,1-1.87-.37l-1-.36-1,.49a5.4,5.4,0,0,1-1.65.54l-1.34.2-.59,1.22a5.6,5.6,0,0,1-1.71,2.07,5.67,5.67,0,0,1-3.38,1.12l-1.49,0-.8,1.28a9.55,9.55,0,0,1-3.46,3.37,9.73,9.73,0,0,1-4.61,1.26h-1.68l-.74,1.27a5.59,5.59,0,0,1-2.66,2.37,5.86,5.86,0,0,1-1.2.35l-.54.09-.45.31a10,10,0,0,1-1.88,1A10.26,10.26,0,0,1,283.76,358.26Z"></path><polygon class="cls-2" points="232.28 345.38 231.76 345.26 230.98 345.06 229.56 344.72 228.82 344.54 228.34 344.43 227.91 344.19 227.25 343.83 226.12 343.2 225.7 342.98 225.41 342.81 225.16 342.62 225.12 342.58 224.65 342.73 224.21 342.86 223.76 342.89 223.08 342.93 221.93 343.01 221.39 343.05 221.07 343.06 220.75 343.03 220.23 342.97 218.75 342.79 217.96 342.7 217.39 342.64 216.87 342.41 216.12 342.08 214.8 341.51 214.19 341.25 213.82 341.08 213.5 340.86 212.99 340.48 211.98 339.76 211.51 339.42 211.2 339.19 210.93 338.89 210.86 338.81 210.52 338.85 210.01 338.89 209.68 338.93 209.35 338.9 208.84 338.86 207.75 338.77 207.3 338.73 207 338.71 206.72 338.63 206.28 338.53 204.84 338.18 203.89 337.94 203.26 337.79 202.72 337.43 201.91 336.89 200.7 336.11 200.23 335.8 199.94 335.6 199.68 335.36 199.28 334.97 198.36 334.08 197.93 333.65 197.63 333.36 197.41 333.02 197.35 332.94 196.83 332.9 196.55 332.88 196.37 332.86 196.19 332.83 195.92 332.78 194.76 332.56 194.12 332.45 193.71 332.37 193.33 332.2 192.73 331.96 191.39 331.38 190.53 331.01 189.98 330.78 189.53 330.38 188.84 329.76 187.75 328.81 187.24 328.35 186.89 328.04 186.63 327.66 186.24 327.1 185.51 326.06 185.27 325.71 185.12 325.48 184.99 325.22 184.94 325.12 184.67 325.07 184.28 324.99 184.01 324.94 183.76 324.85 183.38 324.72 182.31 324.33 181.65 324.1 181.22 323.94 180.84 323.69 180.26 323.31 179.05 322.51 178.37 322.07 177.93 321.77 177.59 321.38 177.06 320.75 176.09 319.62 175.7 319.16 175.47 318.89 175.29 318.56 175.01 318.06 174.41 316.97 174.1 316.4 173.89 316.03 173.77 315.61 173.73 315.5 173.27 315.34 172.96 315.24 172.67 315.08 172.23 314.84 171.23 314.3 170.66 313.99 170.28 313.78 169.95 313.49 169.47 313.06 168.39 312.11 167.78 311.56 167.38 311.2 167.09 310.74 166.66 310.06 165.88 308.83 165.49 308.2 165.21 307.77 165.07 307.28 164.85 306.56 164.48 305.38 164.37 304.99 164.28 304.71 164.24 304.43 164.22 304.33 163.82 304.11 163.48 303.91 163.27 303.79 163.08 303.64 162.78 303.41 161.84 302.68 161.44 302.38 161.16 302.16 160.92 301.9 160.57 301.51 159.62 300.46 158.98 299.74 158.55 299.27 158.3 298.67 157.93 297.78 157.35 296.41 157.07 295.76 156.89 295.33 156.82 294.88 156.71 294.18 156.52 292.94 156.44 292.45 156.39 292.12 156.4 291.88 156.2 291.74 155.69 291.36 155.35 291.09 155.08 290.77 154.67 290.29 153.93 289.41 153.72 289.15 153.59 289 153.47 288.82 153.29 288.56 152.52 287.39 152.01 286.62 151.66 286.11 151.5 285.51 151.26 284.61 150.85 283.12 150.67 282.43 150.54 281.96 150.54 281.49 150.53 280.77 150.51 279.56 150.51 279.1 150.51 278.83 150.55 278.56 150.57 278.34 150.27 278 150.06 277.78 149.91 277.62 149.77 277.44 149.58 277.18 148.92 276.27 148.48 275.69 148.2 275.3 148.02 274.85 147.75 274.18 147.22 272.86 146.93 272.16 146.75 271.68 146.69 271.18 146.6 270.42 146.43 268.96 146.35 268.26 146.3 267.81 146.36 267.35 146.45 266.66 146.62 265.4 146.67 264.88 146.72 264.53 146.83 264.19 146.85 264.14 146.54 263.74 146.25 263.38 146.07 262.97 145.79 262.35 145.3 261.27 145.09 260.82 144.95 260.5 144.87 260.17 144.75 259.7 144.4 258.39 144.19 257.57 144.05 257.01 144.07 256.43 144.11 255.58 144.17 254.13 144.2 253.49 144.22 253.06 144.34 252.63 144.51 252 144.83 250.83 144.96 250.38 145.03 250.1 145.15 249.85 145.31 249.5 145.1 249.06 144.94 248.71 144.84 248.51 144.77 248.3 144.66 247.96 144.29 246.82 144.12 246.3 144.01 245.96 143.96 245.59 143.89 245.06 143.72 243.65 143.6 242.73 143.52 242.11 143.65 241.51 143.83 240.59 144.13 239.12 144.28 238.38 144.37 237.89 144.6 237.44 144.94 236.77 145.48 235.65 145.69 235.26 145.82 234.99 145.95 234.79 145.77 234.15 145.7 233.92 145.64 233.7 145.6 233.47 145.55 233.18 145.35 232.08 145.23 231.36 145.15 230.88 145.19 230.4 145.25 229.66 145.36 228.23 145.42 227.54 145.46 227.08 145.6 226.64 145.83 225.98 146.28 224.62 146.54 223.86 146.71 223.36 147.01 222.92 147.47 222.27 148.18 221.22 148.43 220.88 148.59 220.64 148.79 220.43 148.85 220.35 148.81 220.09 148.75 219.7 148.7 219.44 148.69 219.18 148.68 218.77 148.66 217.62 148.64 216.98 148.63 216.56 148.72 216.15 148.85 215.52 149.14 214.1 149.31 213.28 149.41 212.73 149.68 212.24 150.08 211.5 150.76 210.23 151.09 209.62 151.3 209.22 151.61 208.87 152.08 208.36 152.9 207.44 153.24 207.07 153.46 206.82 153.72 206.61 153.81 206.55 153.79 206.05 153.78 205.72 153.82 205.4 153.88 204.91 154.04 203.75 154.13 203.08 154.19 202.65 154.34 202.23 154.58 201.61 155.1 200.26 155.39 199.51 155.58 199 155.91 198.57 156.4 197.93 157.3 196.73 157.67 196.24 157.93 195.89 158.26 195.61 158.74 195.21 159.66 194.43 160.2 193.97 160.55 193.67 160.83 193.54 160.87 193.22 160.95 192.69 161 192.32 161.13 191.97 161.31 191.45 161.69 190.4 161.82 190 161.92 189.73 162.06 189.47 162.26 189.09 162.94 187.81 163.37 187 163.67 186.45 164.12 186.03 164.79 185.39 165.85 184.38 166.25 184 166.51 183.76 166.8 183.57 167.26 183.28 168.3 182.61 168.87 182.24 169.25 182 169.67 181.86 169.73 181.83 169.9 181.35 170.02 180.97 170.09 180.74 170.2 180.52 170.36 180.17 170.86 179.14 171.09 178.67 171.25 178.35 171.46 178.06 171.77 177.64 172.61 176.5 173.14 175.78 173.5 175.29 173.98 174.95 174.72 174.42 175.95 173.54 176.56 173.09 176.97 172.81 177.44 172.63 178.14 172.36 179.28 171.93 179.67 171.79 179.96 171.68 180.24 171.62 180.38 171.34 180.6 170.88 180.74 170.58 180.92 170.31 181.21 169.91 181.87 168.98 182.14 168.59 182.32 168.33 182.54 168.11 182.87 167.78 183.88 166.75 184.56 166.07 185.01 165.61 185.6 165.32 186.47 164.9 187.81 164.25 188.35 163.98 188.73 163.8 189.13 163.7 189.72 163.56 190.95 163.26 191.51 163.13 191.89 163.03 192.24 163.02 192.42 162.75 192.64 162.44 192.77 162.24 192.93 162.06 193.17 161.79 193.94 160.92 194.37 160.44 194.67 160.1 195.03 159.85 195.56 159.47 196.73 158.64 197.44 158.14 197.9 157.81 198.45 157.64 199.27 157.37 200.7 156.91 201.39 156.68 201.86 156.53 202.34 156.5 203.07 156.46 204.29 156.38 204.71 156.36 204.97 156.34 205.23 156.37 205.32 156.37 205.53 156.15 205.91 155.74 206.16 155.46 206.46 155.24 206.91 154.91 207.83 154.24 208.19 153.97 208.44 153.78 208.72 153.64 209.12 153.43 210.4 152.78 211.11 152.41 211.61 152.15 212.16 152.05 212.96 151.9 214.41 151.62 215.17 151.47 215.68 151.38 216.2 151.42 216.97 151.48 218.18 151.58 218.51 151.61 218.76 151.41 219.04 151.2 219.22 151.06 219.42 150.93 219.72 150.75 220.77 150.14 221.39 149.77 221.79 149.53 222.24 149.4 222.91 149.2 224.25 148.8 224.95 148.59 225.41 148.45 225.9 148.43 226.63 148.4 228.08 148.35 228.81 148.32 229.31 148.3 229.8 148.41 230.53 148.58 231.73 148.85 231.89 148.88 232.09 148.78 232.34 148.65 232.52 148.55 232.71 148.48 232.99 148.37 234.06 147.93 234.65 147.69 235.04 147.54 235.45 147.47 236.07 147.37 237.47 147.14 238.28 147 238.82 146.91 239.36 146.98 240.17 147.08 241.61 147.26 242.29 147.34 242.74 147.4 243.16 147.56 243.8 147.8 244.97 148.24 245.16 148.31 245.33 148.26 246.38 147.95 247.07 147.74 247.53 147.6 248 147.59 248.71 147.56 250.11 147.5 250.92 147.47 251.45 147.44 251.97 147.57 252.75 147.76 254.17 148.11 254.78 148.26 255.2 148.36 255.58 148.55 256.15 148.84 257.25 149.39 257.87 149.69 258.28 149.9 258.48 150.06 258.96 149.91 259.29 149.81 259.64 149.78 260.16 149.71 261.32 149.58 261.88 149.51 262.26 149.47 262.64 149.5 263.2 149.54 264.57 149.66 265.46 149.73 266.05 149.78 266.6 150 267.42 150.34 268.82 150.91 269.45 151.17 269.88 151.35 270.26 151.63 270.81 152.03 271.78 152.75 272.17 153.03 272.38 153.19 272.56 153.38 272.71 153.52 273.32 153.47 273.57 153.44 273.68 153.44 273.78 153.43 274 153.43 275.19 153.41 275.95 153.39 276.45 153.39 276.93 153.51 277.67 153.69 279.04 154.04 279.92 154.26 280.5 154.41 281 154.73 281.77 155.21 283.04 156.01 283.52 156.3 283.86 156.52 284.14 156.79 284.56 157.21 285.43 158.03 285.81 158.41 286.04 158.62 286.22 158.87 286.35 159.06 286.6 159.06 287.07 159.07 287.4 159.07 287.73 159.13 288.21 159.23 289.29 159.44 289.8 159.54 290.1 159.6 290.4 159.71 290.86 159.88 292.2 160.4 293.12 160.74 293.73 160.97 294.24 161.4 294.99 162.04 296.12 163 296.62 163.42 296.94 163.7 297.2 164.04 297.6 164.57 298.34 165.57 298.57 165.89 298.71 166.08 298.83 166.29 298.96 166.53 299.57 166.67 299.94 166.74 300.16 166.79 300.38 166.87 300.73 166.99 301.81 167.37 302.38 167.57 302.76 167.7 303.1 167.91 303.62 168.22 304.83 168.96 305.47 169.34 305.89 169.6 306.25 169.97 306.77 170.52 307.79 171.6 308.29 172.13 308.62 172.47 308.85 172.88 309.2 173.52 309.81 174.62 310.06 175.07 310.21 175.35 310.32 175.66 310.39 175.86 310.6 175.93 311.04 176.07 311.32 176.17 311.59 176.31 311.99 176.52 313.01 177.06 313.55 177.34 313.91 177.53 314.22 177.78 314.69 178.17 315.77 179.06 316.42 179.61 316.84 179.95 317.13 180.4 317.6 181.08 318.42 182.31 318.89 183.02 319.2 183.48 319.37 184.01 319.62 184.82 319.98 185.99 320.06 186.25 320.12 186.44 320.15 186.63 320.19 186.78 320.34 186.85 320.84 187.1 321.17 187.27 321.46 187.49 321.9 187.83 322.83 188.55 323.24 188.87 323.51 189.08 323.74 189.33 324.08 189.72 325.04 190.77 325.65 191.46 326.04 191.9 326.29 192.44 326.65 193.26 327.25 194.6 327.5 195.17 327.67 195.55 327.75 195.97 327.87 196.58 328.12 197.81 328.21 198.26 328.28 198.57 328.29 198.89 328.29 199.06 328.34 199.09 328.79 199.4 329.08 199.6 329.33 199.85 329.71 200.24 330.52 201.06 330.96 201.5 331.25 201.8 331.47 202.14 331.81 202.67 332.58 203.9 333.02 204.6 333.3 205.06 333.45 205.58 333.67 206.37 334.08 207.79 334.24 208.38 334.35 208.77 334.37 209.17 334.42 209.78 334.49 210.99 334.53 211.57 334.55 211.96 334.5 212.35 334.48 212.46 334.71 212.69 335.02 212.99 335.24 213.21 335.43 213.46 335.69 213.83 336.36 214.74 336.68 215.19 336.91 215.5 337.07 215.84 337.3 216.35 337.88 217.59 338.27 218.42 338.53 218.98 338.6 219.59 338.71 220.5 338.89 221.96 338.95 222.53 339 222.91 338.96 223.3 338.92 223.87 338.81 225.13 338.75 225.78 338.72 226.22 338.59 226.62 338.64 226.69 338.91 227.03 339.09 227.27 339.24 227.54 339.45 227.93 340.01 228.96 340.34 229.57 340.57 229.98 340.69 230.43 340.86 231.11 341.22 232.48 341.4 233.22 341.52 233.69 341.52 234.18 341.51 234.92 341.5 236.43 341.5 237.17 341.49 237.67 341.36 238.15 341.17 238.86 340.85 240.05 340.71 240.52 340.63 240.84 340.48 241.14 340.47 241.17 340.58 241.37 340.83 241.83 340.99 242.13 341.09 242.46 341.25 242.94 341.62 244.07 341.78 244.58 341.89 244.92 341.94 245.29 342 245.83 342.18 247.24 342.29 248.04 342.34 248.58 342.26 249.12 342.13 249.91 341.9 251.33 341.8 252.01 341.72 252.47 341.54 252.89 341.27 253.53 340.77 254.71 340.57 255.17 340.44 255.47 340.27 255.74 340.18 255.89 340.41 256.71 340.5 257.02 340.54 257.18 340.58 257.36 340.63 257.66 340.83 258.83 340.91 259.29 340.97 259.61 340.97 259.94 340.97 260.42 340.98 261.81 340.98 262.71 340.99 263.33 340.79 263.92 340.51 264.79 340.05 266.19 339.83 266.88 339.67 267.34 339.42 267.75 339.02 268.36 338.35 269.41 338.08 269.83 337.9 270.13 337.66 270.39 337.64 270.4 337.7 270.71 337.75 271 337.8 271.24 337.81 271.49 337.82 271.79 337.91 272.88 337.97 273.67 338.01 274.21 337.9 274.74 337.73 275.51 337.44 276.93 337.29 277.63 337.2 278.09 336.99 278.51 336.68 279.15 336.05 280.44 335.72 281.09 335.52 281.51 335.23 281.86 334.77 282.41 333.93 283.39 333.55 283.84 333.3 284.13 333 284.36 332.99 284.37 333 284.55 333.02 285.07 333.03 285.4 332.99 285.71 332.92 286.21 332.77 287.37 332.7 287.93 332.64 288.29 332.53 288.63 332.35 289.16 331.88 290.54 331.63 291.3 331.45 291.82 331.12 292.28 330.64 292.96 329.8 294.16 329.37 294.76 329.09 295.15 328.73 295.46 328.18 295.92 327.25 296.7 326.91 296.99 326.67 297.2 326.4 297.36 326.31 297.42 326.22 297.98 326.16 298.4 326.12 298.65 326.06 298.89 325.94 299.27 325.62 300.41 325.46 300.92 325.37 301.25 325.21 301.57 324.97 302.04 324.35 303.27 323.98 304.01 323.73 304.5 323.35 304.9 322.78 305.5 321.77 306.57 321.23 307.14 320.88 307.52 320.43 307.79 319.76 308.2 318.66 308.86 318.34 309.05 318.12 309.18 317.88 309.28 317.72 309.36 317.43 310.23 317.36 310.42 317.33 310.51 317.29 310.6 317.22 310.77 316.79 311.84 316.52 312.47 316.35 312.91 316.07 313.29 315.66 313.84 314.82 314.99 314.33 315.67 314 316.12 313.55 316.46 312.87 316.97 311.68 317.86 311.14 318.27 310.77 318.55 310.34 318.73 309.71 319 308.57 319.48 308.17 319.66 307.93 319.76 307.67 319.83 307.43 319.89 307.09 320.56 307 320.75 306.93 320.91 306.83 321.06 306.71 321.26 306.12 322.24 305.76 322.82 305.52 323.21 305.2 323.54 304.71 324.02 303.71 325.03 303.14 325.6 302.77 325.97 302.31 326.23 301.62 326.61 300.35 327.32 299.69 327.69 299.23 327.95 298.73 328.07 297.98 328.25 296.73 328.56 296.35 328.65 296.07 328.73 295.78 328.75 295.68 328.76 295.47 329.07 295.23 329.44 295.08 329.67 294.9 329.87 294.62 330.19 293.85 331.07 293.41 331.56 293.13 331.87 292.79 332.12 292.26 332.5 291.08 333.34 290.49 333.76 290.09 334.06 289.63 334.23 288.94 334.48 287.57 335.01 286.89 335.27 286.44 335.44 285.95 335.5 285.22 335.58 283.98 335.71 283.44 335.76 283.08 335.8 282.73 335.77 282.69 335.77 282.41 336.12 282.2 336.37 281.94 336.59 281.55 336.92 280.62 337.72 280.17 338.1 279.87 338.36 279.51 338.56 278.98 338.84 277.76 339.5 276.99 339.92 276.47 340.2 275.89 340.31 275.02 340.47 273.56 340.75 272.79 340.9 272.29 340.99 271.78 340.95 271.01 340.88 269.8 340.79 269.49 340.76 269.29 340.74 269.1 340.71 268.91 340.67 268.32 341.13 268.11 341.3 267.97 341.4 267.82 341.5 267.59 341.64 266.61 342.26 266.05 342.62 265.67 342.86 265.24 343 264.6 343.22 263.24 343.68 262.56 343.92 262.09 344.08 261.6 344.11 260.88 344.16 259.43 344.27 258.59 344.34 258.01 344.38 257.45 344.26 256.63 344.07 255.44 343.8 255.06 343.72 254.78 343.65 254.51 343.55 254.44 343.52 254.39 343.56 253.93 343.86 253.61 344.06 253.26 344.2 252.75 344.4 251.66 344.84 251.21 345.02 250.9 345.15 250.56 345.22 250.06 345.33 248.64 345.61 247.75 345.8 247.14 345.93 246.51 345.85 245.6 345.74 244.15 345.56 243.59 345.5 243.25 345.45 242.92 345.35 242.39 345.18 241.16 344.78 240.53 344.57 240.12 344.44 239.75 344.22 239.68 344.17 239.49 344.25 239.02 344.45 238.69 344.59 238.35 344.67 237.84 344.78 236.74 345.04 236.22 345.16 235.88 345.24 235.53 345.25 235.01 345.27 233.61 345.33 232.81 345.36 232.28 345.38 232.28 345.38"></polygon><polygon class="cls-3" points="232.65 341.57 231.88 341.38 230.46 341.03 229.73 340.86 229.06 340.49 227.95 339.88 227.53 339.65 227.15 339.34 226.33 338.69 226.13 338.53 225.93 338.34 225.93 338.33 225.18 338.59 224.17 338.9 223.52 339.1 222.85 339.15 221.69 339.22 221.16 339.26 220.64 339.2 219.22 339.02 218.39 338.93 217.63 338.6 216.29 338.02 215.71 337.77 215.2 337.4 214.22 336.69 213.74 336.35 213.35 335.92 212.66 335.16 212.51 335 212.37 334.81 212.34 334.77 211.71 334.89 211.44 334.95 211.16 334.97 210.16 335.07 209.66 335.12 209.16 335.07 208.06 334.99 207.61 334.95 207.16 334.84 205.75 334.5 204.8 334.26 203.99 333.73 202.78 332.93 202.32 332.63 201.93 332.25 201.01 331.36 200.58 330.94 200.24 330.42 199.67 329.56 199.55 329.38 199.44 329.18 199.43 329.16 198.85 329.2 198.46 329.22 198.06 329.19 197.14 329.11 196.85 329.09 196.58 329.04 195.44 328.83 194.81 328.72 194.22 328.46 192.88 327.89 192.04 327.53 191.35 326.92 190.26 325.96 189.75 325.51 189.36 324.94 188.64 323.89 188.39 323.55 188.22 323.17 187.77 322.27 187.59 321.92 187.51 321.66 186.99 321.62 186.66 321.59 186.33 321.53 185.42 321.35 185.03 321.26 184.64 321.13 183.57 320.75 182.92 320.52 182.34 320.14 181.14 319.35 180.46 318.9 179.93 318.28 178.98 317.16 178.61 316.72 178.33 316.22 177.73 315.13 177.42 314.57 177.23 313.95 176.96 313 176.89 312.71 176.85 312.51 176.8 312.5 176.01 312.26 175.93 312.24 175.85 312.21 174.96 311.9 174.48 311.74 174.04 311.5 173.04 310.96 172.48 310.66 171.99 310.23 170.91 309.27 170.3 308.73 169.87 308.04 169.1 306.81 168.7 306.17 168.47 305.45 168.12 304.27 167.99 303.87 167.93 303.45 167.78 302.44 167.74 302.17 167.72 301.88 167.72 301.88 167.64 301.84 166.91 301.49 166.72 301.4 166.54 301.29 165.72 300.81 165.38 300.62 165.08 300.39 164.16 299.68 163.75 299.36 163.4 298.98 162.44 297.92 161.79 297.2 161.43 296.32 160.85 294.94 160.57 294.29 160.47 293.6 160.28 292.37 160.2 291.87 160.21 291.37 160.23 290.39 160.23 290.22 160.25 290.05 160.26 289.92 159.88 289.7 159.55 289.52 159.27 289.29 158.49 288.71 157.98 288.32 157.57 287.84 156.84 286.96 156.63 286.72 156.45 286.45 155.68 285.29 155.16 284.52 154.92 283.62 154.52 282.13 154.33 281.44 154.32 280.72 154.31 279.51 154.31 279.08 154.37 278.65 154.5 277.68 154.56 277.28 154.64 276.97 154.34 276.73 153.99 276.45 153.69 276.12 153.05 275.43 152.84 275.2 152.65 274.94 151.97 274.03 151.54 273.44 151.27 272.76 150.75 271.45 150.46 270.74 150.37 269.99 150.2 268.52 150.13 267.83 150.21 267.14 150.38 265.88 150.44 265.36 150.6 264.86 150.91 263.91 151 263.6 151.11 263.38 150.66 262.85 150.58 262.76 150.52 262.68 149.94 261.93 149.53 261.4 149.25 260.79 148.75 259.7 148.56 259.26 148.43 258.79 148.08 257.42 147.86 256.6 147.9 255.75 147.96 254.3 147.99 253.65 148.16 253.03 148.49 251.84 148.61 251.42 148.79 251.02 149.22 250.07 149.4 249.69 149.59 249.38 149.38 249.06 149.12 248.69 148.93 248.27 148.53 247.43 148.38 247.11 148.27 246.77 147.9 245.64 147.73 245.13 147.66 244.59 147.49 243.18 147.37 242.25 147.56 241.34 147.85 239.87 148 239.13 148.34 238.46 148.89 237.34 149.09 236.93 149.35 236.56 149.94 235.75 150.03 235.62 150.13 235.5 150.22 235.39 149.95 234.79 149.8 234.44 149.69 234.07 149.42 233.13 149.34 232.84 149.29 232.54 149.1 231.43 148.97 230.71 149.03 229.97 149.15 228.54 149.2 227.84 149.42 227.18 149.88 225.84 150.14 225.08 150.59 224.42 151.31 223.38 151.54 223.03 151.84 222.73 152.53 221.98 152.76 221.73 152.94 221.58 152.9 221.36 152.74 220.54 152.72 220.47 152.71 220.41 152.55 219.46 152.49 219.06 152.47 218.64 152.45 217.55 152.44 216.91 152.56 216.28 152.85 214.85 153.02 214.03 153.42 213.3 154.1 212.03 154.43 211.41 154.89 210.9 155.72 209.98 156.06 209.61 156.45 209.3 157.26 208.68 157.47 208.51 157.7 208.36 157.7 208.25 157.65 207.43 157.6 206.39 157.58 205.89 157.64 205.4 157.8 204.25 157.89 203.59 158.13 202.97 158.64 201.62 158.93 200.87 159.42 200.22 160.33 199.02 160.7 198.51 161.18 198.11 162.12 197.32 162.65 196.87 163.28 196.56 164.18 196.11 164.3 196.06 164.41 196 164.42 196 164.43 195.47 164.43 195.08 164.49 194.69 164.62 193.78 164.71 193.24 164.89 192.73 165.26 191.66 165.41 191.26 165.61 190.87 166.29 189.6 166.73 188.78 167.4 188.14 168.47 187.13 168.86 186.76 169.31 186.47 170.35 185.81 170.92 185.44 171.56 185.22 172.51 184.89 172.71 184.82 172.91 184.77 172.92 184.76 172.98 184.34 173.06 183.91 173.19 183.48 173.51 182.52 173.63 182.15 173.79 181.8 174.28 180.8 174.51 180.32 174.82 179.9 175.67 178.75 176.2 178.03 176.93 177.5 178.16 176.62 178.77 176.18 179.48 175.92 180.62 175.49 181.02 175.33 181.45 175.25 182.45 175.04 182.71 174.98 182.96 174.96 183 174.95 183.09 174.63 183.22 174.23 183.39 173.84 183.81 172.95 184.02 172.5 184.31 172.09 184.97 171.17 185.24 170.78 185.57 170.44 186.58 169.43 187.26 168.74 188.14 168.31 189.47 167.66 190.01 167.4 190.61 167.25 191.85 166.95 192.42 166.81 193 166.79 193.99 166.76 194.13 166.75 194.26 166.76 194.41 166.76 194.72 166.18 194.87 165.91 195.04 165.65 195.56 164.88 195.77 164.58 196.01 164.3 196.78 163.44 197.22 162.95 197.75 162.57 198.92 161.75 199.63 161.25 200.45 160.98 201.87 160.52 202.57 160.29 203.29 160.25 204.52 160.17 204.92 160.15 205.32 160.19 206.35 160.27 206.73 160.3 206.97 160.35 207.3 159.89 207.48 159.64 207.69 159.41 208.33 158.71 208.7 158.3 209.16 157.97 210.08 157.29 210.45 157.01 210.86 156.81 212.13 156.16 212.85 155.78 213.65 155.63 215.13 155.35 215.89 155.21 216.66 155.27 217.87 155.37 218.35 155.41 218.83 155.53 219.56 155.72 219.75 155.51 220.03 155.23 220.35 154.99 221.09 154.41 221.37 154.19 221.67 154.01 222.71 153.4 223.31 153.04 223.98 152.84 225.35 152.44 226.04 152.23 226.76 152.2 228.22 152.15 228.96 152.12 229.69 152.28 230.89 152.56 231.33 152.65 231.75 152.83 232.29 153.04 232.43 152.94 232.71 152.75 233.02 152.58 233.86 152.14 234.13 152 234.4 151.89 235.48 151.45 236.06 151.22 236.68 151.12 238.09 150.88 238.9 150.75 239.71 150.85 241.15 151.03 241.82 151.11 242.46 151.35 243.64 151.79 244.13 151.98 244.59 152.26 244.93 152.47 245.07 152.41 245.91 152.07 246.16 151.97 246.4 151.9 247.47 151.59 248.15 151.38 248.87 151.35 250.26 151.29 251.07 151.26 251.84 151.45 253.27 151.8 253.88 151.95 254.45 152.23 255.56 152.79 256.17 153.09 256.7 153.53 257.46 154.17 257.51 154.22 257.56 154.26 257.65 154.34 257.66 154.33 258.44 154.05 258.56 154.01 258.69 153.97 259.58 153.7 260.08 153.54 260.6 153.48 261.76 153.34 262.33 153.28 262.89 153.33 264.27 153.44 265.15 153.51 265.97 153.85 267.37 154.42 268.01 154.69 268.57 155.09 269.55 155.81 269.9 156.07 270.2 156.37 270.89 157.07 271.07 157.24 271.22 157.42 271.36 157.59 271.98 157.45 272.32 157.38 272.68 157.34 273.67 157.25 273.89 157.23 274.11 157.22 275.26 157.21 276.01 157.19 276.75 157.38 278.11 157.72 278.98 157.94 279.75 158.42 281.01 159.22 281.51 159.53 281.94 159.94 282.8 160.77 283.16 161.12 283.45 161.52 284.07 162.38 284.27 162.66 284.4 162.88 285.09 162.84 285.31 162.83 285.54 162.83 286.52 162.85 287.01 162.86 287.49 162.96 288.57 163.17 289.06 163.26 289.51 163.43 290.86 163.94 291.78 164.29 292.52 164.93 293.66 165.89 294.16 166.31 294.56 166.84 295.29 167.83 295.51 168.13 295.7 168.47 296.2 169.38 296.4 169.75 296.51 170.03 297.17 170.09 297.52 170.11 297.87 170.18 298.79 170.38 299.14 170.45 299.49 170.58 300.56 170.95 301.13 171.15 301.64 171.47 302.85 172.2 303.5 172.59 304.02 173.14 305.03 174.21 305.53 174.73 305.89 175.37 306.49 176.46 306.73 176.9 306.9 177.38 307.23 178.33 307.37 178.74 307.4 178.95 307.96 179.07 308.22 179.14 308.49 179.22 309.4 179.53 309.82 179.67 310.21 179.88 311.27 180.43 311.8 180.7 312.26 181.09 313.35 181.99 313.99 182.52 314.45 183.21 315.27 184.43 315.74 185.13 315.99 185.93 316.36 187.11 316.44 187.37 316.49 187.64 316.69 188.65 316.78 189.07 316.79 189.38 316.82 189.39 317.6 189.74 317.71 189.79 317.81 189.84 318.64 190.25 319.15 190.5 319.59 190.85 320.51 191.56 320.92 191.87 321.26 192.25 322.21 193.31 322.82 193.99 323.19 194.82 323.77 196.14 324.02 196.71 324.15 197.32 324.4 198.56 324.49 199.02 324.51 199.51 324.54 200.49 324.55 200.8 324.53 201.11 324.58 201.14 325.3 201.6 325.36 201.65 325.43 201.69 326.19 202.21 326.63 202.52 327.01 202.91 327.82 203.72 328.26 204.17 328.6 204.7 329.36 205.92 329.8 206.61 330.02 207.4 330.43 208.83 330.59 209.41 330.63 210.01 330.71 211.23 330.74 211.81 330.65 212.39 330.51 213.42 330.48 213.65 330.43 213.88 330.42 213.91 330.87 214.27 331.12 214.47 331.34 214.69 332.04 215.38 332.35 215.7 332.62 216.06 333.3 216.98 333.62 217.43 333.86 217.93 334.44 219.2 334.84 220.03 334.94 220.94 335.12 222.4 335.18 222.97 335.13 223.54 335.03 224.81 334.97 225.47 334.77 226.09 334.46 227.05 334.42 227.18 334.37 227.3 334.32 227.43 334.7 227.83 334.89 228.03 335.06 228.25 335.63 228.99 335.9 229.35 336.11 229.74 336.68 230.77 337.01 231.39 337.19 232.07 337.54 233.43 337.73 234.15 337.72 234.9 337.71 236.4 337.7 237.14 337.5 237.86 337.18 239.04 337.05 239.53 336.83 239.98 336.42 240.87 336.28 241.15 336.16 241.35 336.46 241.79 336.64 242.05 336.78 242.33 337.24 243.17 337.48 243.62 337.64 244.11 338 245.24 338.17 245.76 338.24 246.3 338.41 247.7 338.51 248.51 338.38 249.3 338.15 250.73 338.04 251.41 337.77 252.05 337.27 253.22 337.07 253.69 336.81 254.1 336.28 254.93 336.04 255.28 335.9 255.44 336 255.62 336.31 256.19 336.49 256.81 336.76 257.75 336.85 258.05 336.9 258.36 337.1 259.47 337.17 259.95 337.18 260.43 337.19 261.82 337.19 262.73 336.9 263.6 336.44 265.01 336.22 265.7 335.82 266.31 335.16 267.36 334.88 267.79 334.52 268.18 333.83 268.93 333.71 269.05 333.57 269.18 333.49 269.26 333.7 270.05 333.76 270.28 333.81 270.52 333.96 271.4 334.02 271.69 334.04 271.99 334.12 273.16 334.18 273.95 334.02 274.73 333.72 276.15 333.57 276.85 333.27 277.49 332.64 278.77 332.32 279.42 331.86 279.96 331.03 280.93 330.65 281.37 330.2 281.73 329.39 282.36 329.17 282.54 329.04 282.62 329.13 283.38 329.16 283.58 329.17 283.79 329.2 284.72 329.22 285.23 329.16 285.73 329.01 286.87 328.94 287.42 328.75 287.95 328.29 289.3 328.02 290.09 327.55 290.76 326.7 291.96 326.27 292.55 325.73 293.02 324.79 293.81 324.45 294.1 324.07 294.33 323.23 294.84 323.03 294.96 322.82 295.06 322.67 295.14 322.66 295.84 322.65 296.19 322.6 296.53 322.47 297.44 322.41 297.84 322.3 298.22 321.97 299.35 321.82 299.86 321.58 300.33 320.96 301.56 320.59 302.3 320.03 302.89 319.01 303.97 318.48 304.54 317.8 304.95 316.7 305.61 316.38 305.8 316.04 305.95 315.14 306.34 314.75 306.51 314.46 306.58 314.38 307.12 314.3 307.62 314.14 308.11 313.83 309.01 313.77 309.17 313.71 309.33 313.27 310.4 313.01 311.04 312.61 311.6 311.76 312.75 311.26 313.43 310.59 313.94 309.41 314.82 308.86 315.24 308.22 315.51 307.09 316 306.69 316.16 306.28 316.28 305.27 316.53 304.93 316.62 304.61 316.67 304.5 317.05 304.35 317.56 304.12 318.03 303.7 318.86 303.6 319.07 303.47 319.27 302.87 320.27 302.51 320.86 302.03 321.34 301.02 322.35 300.46 322.91 299.77 323.3 298.5 324.01 297.83 324.38 297.07 324.57 295.83 324.87 295.42 324.98 295.01 325.01 294.02 325.1 293.52 325.15 293.37 325.14 293.17 325.56 293.02 325.88 292.82 326.18 292.29 327.01 292.05 327.37 291.76 327.69 291 328.56 290.57 329.05 290.04 329.42 288.88 330.25 288.28 330.67 287.6 330.94 286.22 331.46 285.54 331.72 284.81 331.8 283.58 331.93 283.05 331.99 282.5 331.95 281.53 331.87 281.14 331.84 281.02 331.81 280.95 331.89 280.43 332.54 279.8 333.31 279.48 333.7 279.09 334.04 278.16 334.82 277.71 335.21 277.18 335.5 275.96 336.16 275.19 336.58 274.32 336.74 272.85 337.02 272.09 337.17 271.31 337.11 270.11 337 269.8 336.98 269.49 336.91 268.46 336.72 268 336.63 267.79 336.55 267.37 336.99 267.07 337.3 266.74 337.55 266 338.13 265.79 338.29 265.56 338.44 264.59 339.05 264.02 339.41 263.38 339.62 262.01 340.09 261.32 340.33 260.6 340.38 259.15 340.48 258.3 340.56 257.46 340.37 256.28 340.1 255.87 340.01 255.48 339.86 254.53 339.49 254.2 339.37 253.99 339.26 253.92 339.3 253.24 339.77 253.17 339.82 253.11 339.86 252.32 340.37 251.86 340.68 251.34 340.88 250.26 341.31 249.79 341.5 249.29 341.61 247.88 341.9 246.97 342.08 246.05 341.97 244.61 341.8 244.06 341.73 243.53 341.56 242.35 341.17 241.71 340.97 241.15 340.62 240.27 340.08 240.06 339.96 239.91 339.85 239.41 340.12 239.16 340.26 238.89 340.38 237.99 340.77 237.52 340.97 237.01 341.08 235.89 341.34 235.38 341.46 234.85 341.48 233.46 341.54 232.65 341.57 232.65 341.57"></polygon><polygon class="cls-2" points="155.86 233.96 155.52 233.29 155.17 232.51 154.9 231.56 154.71 230.45 154.83 229 155.28 227.66 156 226.61 156.7 225.86 157.32 225.34 158 224.87 158.61 224.46 159.16 224.16 159.76 223.86 160 223.71 159.9 223.58 159.6 222.98 159.3 222.38 159.01 221.71 158.78 221 158.49 220.28 158.32 219.46 158.17 218.52 158.15 217.42 158.44 215.99 159.12 214.71 159.95 213.8 160.75 213.17 161.48 212.71 162.21 212.36 162.87 212.07 163.52 211.84 164.12 211.6 164.36 211.5 164.31 211.39 164.08 210.73 163.9 210.07 163.73 209.37 163.55 208.66 163.38 207.89 163.33 207.07 163.3 206.15 163.45 205 163.96 203.66 164.87 202.46 165.81 201.66 166.71 201.22 167.49 200.88 168.27 200.59 168.92 200.41 169.62 200.3 170.27 200.18 170.5 200.14 170.46 199.96 170.34 199.32 170.28 198.62 170.16 197.91 170.11 197.16 170.12 196.41 170.13 195.54 170.26 194.63 170.64 193.56 171.32 192.28 172.39 191.27 173.42 190.6 174.38 190.27 175.2 190.05 175.98 189.88 176.73 189.83 177.37 189.76 178.07 189.76 178.29 189.78 178.31 189.61 178.31 188.92 178.31 188.22 178.31 187.53 178.37 186.78 178.49 186.04 178.61 185.23 178.92 184.28 179.41 183.28 180.25 182.13 181.48 181.25 182.62 180.82 183.62 180.61 184.5 180.51 185.25 180.51 186 180.52 186.63 180.57 187.32 180.68 187.55 180.7 187.56 180.53 187.67 179.91 187.78 179.22 187.9 178.48 188.07 177.79 188.31 177.06 188.55 176.27 188.97 175.38 189.62 174.45 190.63 173.43 191.96 172.79 193.19 172.48 194.19 172.45 195.05 172.46 195.85 172.59 196.54 172.7 197.22 172.87 197.84 173.04 198.07 173.12 198.14 172.95 198.31 172.32 198.53 171.65 198.76 171.03 199.05 170.3 199.33 169.63 199.75 168.85 200.27 168.09 201.04 167.22 202.21 166.4 203.63 165.94 204.85 165.86 205.89 165.95 206.74 166.13 207.47 166.37 208.15 166.59 208.76 166.88 209.38 167.1 209.6 167.24 209.67 167.07 209.95 166.45 210.24 165.84 210.58 165.23 210.98 164.57 211.38 163.96 211.9 163.25 212.54 162.56 213.46 161.88 214.73 161.23 216.19 160.94 217.4 161.04 218.37 161.3 219.21 161.6 219.93 161.95 220.55 162.28 221.15 162.62 221.26 162.69 221.46 162.36 221.85 161.81 222.31 161.21 222.75 160.67 223.27 160.07 223.84 159.49 224.58 158.91 225.61 158.3 226.98 157.89 228.43 157.84 229.62 158.11 230.52 158.47 231.3 158.89 231.95 159.34 232.5 159.74 232.93 160.06 233.38 159.57 233.88 159.09 234.44 158.62 235 158.09 235.68 157.62 236.53 157.17 237.6 156.74 239.01 156.51 240.45 156.68 241.63 157.12 242.51 157.66 243.16 158.18 243.75 158.69 244.29 159.25 244.5 159.5 244.74 159.35 245.29 158.93 245.86 158.51 246.46 158.1 247.19 157.7 248.03 157.36 249.1 157.04 250.49 156.99 251.91 157.34 253.02 157.89 253.78 158.53 254.43 159.1 254.96 159.67 255.44 160.23 255.8 160.78 256.15 161.33 256.31 161.57 256.44 161.47 256.98 161.11 257.59 160.75 258.2 160.4 258.86 160.04 259.59 159.7 260.37 159.42 261.26 159.14 262.42 159 263.8 159.12 265.2 159.7 266.18 160.41 266.88 161.11 267.46 161.79 267.87 162.46 268.22 163.13 268.52 163.73 268.82 164.27 268.91 164.51 269.09 164.47 269.69 164.17 270.29 163.93 270.95 163.63 271.67 163.41 272.44 163.18 273.21 163.02 274.2 162.92 275.35 162.9 276.72 163.24 277.98 164.04 278.84 164.86 279.46 165.73 279.87 166.45 280.22 167.18 280.45 167.84 280.69 168.49 280.86 169.14 280.96 169.38 281.08 169.33 281.73 169.15 282.44 168.98 283.1 168.8 283.86 168.69 284.61 168.58 285.43 168.53 286.41 168.55 287.49 168.75 288.84 169.27 289.98 170.23 290.71 171.22 291.21 172.13 291.5 172.91 291.72 173.68 291.84 174.38 292.01 175.03 292.07 175.67 292.11 175.97 292.29 175.92 292.93 175.86 293.63 175.74 294.32 175.74 295.08 175.69 295.83 175.69 296.7 175.76 297.61 175.95 298.68 176.33 299.89 177.06 300.9 178.13 301.5 179.22 301.83 180.18 301.99 181.05 302.11 181.82 302.17 182.52 302.16 183.21 302.17 183.85 302.15 184.14 302.32 184.16 302.96 184.14 303.64 184.2 304.39 184.27 305.08 184.32 305.88 184.44 306.68 184.63 307.58 184.93 308.63 185.48 309.72 186.38 310.55 187.61 310.9 188.79 311.12 189.79 311.16 190.66 311.16 191.41 311.09 192.16 310.99 192.85 310.87 193.48 310.85 193.71 311.02 193.78 311.64 193.89 312.33 194 313.01 194.18 313.76 194.35 314.49 194.58 315.27 194.94 316.1 195.35 317.02 196.06 317.98 197.13 318.56 198.45 318.81 199.68 318.85 200.67 318.78 201.53 318.66 202.33 318.48 203.01 318.31 203.69 318.08 204.32 318.01 204.54 318.18 204.55 318.8 204.77 319.41 205.05 320.09 205.29 320.76 205.57 321.49 205.92 322.19 206.39 322.96 206.91 323.77 207.73 324.54 208.95 324.94 210.37 325.02 211.59 324.87 212.62 324.69 213.42 324.45 214.15 324.17 214.82 323.88 215.5 323.61 216.05 323.47 216.27 323.64 216.34 324.18 216.68 324.8 217.02 325.41 217.36 326.07 217.76 326.67 218.21 327.32 218.73 328.01 219.42 328.69 220.35 329.29 221.61 329.46 223.07 329.35 224.34 329.04 225.29 328.74 226.08 328.34 226.79 328 227.4 327.6 228.01 327.27 228.5 327.08 228.72 327.25 228.79 327.8 229.18 328.34 229.63 328.87 230.08 329.42 230.53 329.95 231.1 330.54 231.72 331.11 232.47 331.67 233.5 332.02 234.85 332.01 236.36 331.69 237.55 331.26 238.44 330.79 239.21 330.34 239.81 329.89 240.41 329.44 240.9 329 241.38 328.81 241.53 328.92 241.66 329.39 242.16 329.87 242.66 330.35 243.17 330.83 243.73 331.3 244.35 331.76 245.02 332.21 245.87 332.58 247 332.76 248.4 332.53 249.82 332.03 251 331.49 251.82 330.92 252.47 330.35 253.06 329.85 253.54 329.3 253.96 328.79 254.38 328.61 254.54 328.72 254.67 329.08 255.16 329.49 255.77 329.85 256.32 330.26 256.99 330.61 257.65 331.02 258.38 331.28 259.33 331.49 260.45 331.49 261.84 331.02 263.25 330.36 264.29 329.66 265.05 329.03 265.63 328.42 266.1 327.8 266.51 327.19 266.86 326.65 267.17 326.41 267.27 326.51 267.45 326.81 268.05 327.11 268.65 327.4 269.26 327.69 269.98 327.98 270.69 328.2 271.53 328.36 272.4 328.44 273.57 328.14 274.99 327.52 276.27 326.69 277.24 325.89 277.87 325.16 278.33 324.48 278.75 323.82 279.03 323.17 279.27 322.57 279.51 322.33 279.61 322.44 279.73 322.61 280.38 322.85 281.04 323.03 281.69 323.2 282.46 323.37 283.17 323.47 284.04 323.51 284.97 323.36 286.11 322.9 287.47 322.05 288.67 321.12 289.46 320.27 289.98 319.48 290.37 318.71 290.59 318.06 290.83 317.35 290.95 316.7 291.13 316.46 291.16 316.51 291.29 316.63 291.99 316.75 292.63 316.86 293.34 316.92 294.09 316.98 294.85 316.96 295.72 316.83 296.63 316.5 297.76 315.88 298.99 314.87 300.06 313.77 300.72 312.86 301.11 312.04 301.33 311.27 301.5 310.52 301.56 309.82 301.62 309.18 301.68 308.94 301.72 308.99 301.9 308.99 302.53 308.99 303.23 309 303.92 308.93 304.67 308.87 305.41 308.74 306.27 308.44 307.17 308 308.24 307.16 309.38 305.98 310.27 304.85 310.76 303.84 311.02 303.02 311.13 302.21 311.12 301.52 311.12 300.83 311.06 300.13 311 299.91 310.98 299.89 311.16 299.84 311.79 299.72 312.48 299.61 313.22 299.44 313.9 299.27 314.64 299.02 315.49 298.6 316.32 298 317.32 296.99 318.33 295.72 319.03 294.48 319.34 293.49 319.43 292.63 319.36 291.88 319.3 291.13 319.18 290.45 319 289.82 318.9 289.6 318.82 289.53 319 289.36 319.62 289.19 320.3 288.96 320.97 288.67 321.64 288.38 322.37 288.04 323.09 287.5 323.92 286.74 324.78 285.57 325.61 284.2 326.14 282.97 326.27 281.99 326.19 281.14 326 280.35 325.82 279.67 325.59 279.05 325.37 278.44 325.09 278.21 325.01 278.14 325.18 277.86 325.73 277.58 326.4 277.24 327.01 276.89 327.68 276.49 328.33 275.98 329 275.4 329.7 274.47 330.49 273.25 331.14 271.78 331.43 270.58 331.32 269.55 331.12 268.77 330.83 268.04 330.54 267.38 330.19 266.76 329.86 266.21 329.52 266.05 329.39 265.92 329.56 265.58 330.11 265.19 330.66 264.79 331.26 264.34 331.86 263.83 332.45 263.27 333.04 262.52 333.62 261.54 334.23 260.18 334.7 258.72 334.81 257.52 334.54 256.57 334.17 255.79 333.76 255.13 333.35 254.52 332.96 253.99 332.52 253.5 332.13 253.33 331.94 253.21 332.05 252.76 332.59 252.32 333.07 251.82 333.55 251.25 334.09 250.69 334.61 250.01 335.08 249.22 335.59 248.14 336.02 246.73 336.31 245.29 336.14 244.11 335.76 243.23 335.22 242.52 334.7 241.93 334.18 241.44 333.68 240.97 333.18 240.54 332.74 240.39 332.5 240.26 332.66 239.71 333.08 239.2 333.5 238.65 333.92 238.03 334.33 237.37 334.74 236.64 335.14 235.74 335.53 234.62 335.79 233.22 335.84 231.81 335.5 230.7 334.89 229.88 334.24 229.29 333.67 228.76 333.05 228.35 332.5 227.93 331.94 227.63 331.39 227.47 331.15 227.35 331.26 226.75 331.61 226.2 331.97 225.53 332.26 224.86 332.61 224.2 332.91 223.37 333.19 222.48 333.46 221.32 333.54 219.89 333.37 218.54 332.79 217.56 332.08 216.87 331.32 216.34 330.64 215.94 329.97 215.59 329.31 215.29 328.7 215.05 328.1 214.95 327.86 214.77 327.97 214.17 328.21 213.52 328.44 212.86 328.68 212.15 328.91 211.43 329.14 210.62 329.3 209.62 329.4 208.52 329.31 207.11 328.96 205.9 328.17 204.99 327.28 204.42 326.43 204.02 325.69 203.73 324.98 203.5 324.26 203.27 323.6 203.09 323.02 203.04 322.78 202.87 322.82 202.22 322.95 201.57 323.12 200.86 323.24 200.16 323.36 199.34 323.47 198.53 323.51 197.6 323.44 196.47 323.23 195.13 322.65 194.04 321.69 193.32 320.65 192.88 319.75 192.6 318.92 192.37 318.2 192.26 317.44 192.13 316.79 192.06 316.15 192.03 315.92 191.86 315.9 191.22 315.97 190.52 316.02 189.82 316.08 189.06 316.08 188.32 316.01 187.46 315.94 186.55 315.76 185.47 315.38 184.27 314.59 183.32 313.47 182.72 312.38 182.44 311.43 182.28 310.54 182.17 309.79 182.18 309.04 182.18 308.34 182.17 307.7 182.19 307.47 182.02 307.45 181.38 307.41 180.7 307.35 180.01 307.29 179.26 307.17 178.46 307.05 177.67 306.81 176.77 306.5 175.77 305.96 174.7 305.01 173.92 303.78 173.56 302.6 173.41 301.6 173.37 300.73 173.37 299.92 173.49 299.23 173.55 298.55 173.71 297.92 173.74 297.64 173.56 297.62 172.94 297.51 172.26 297.34 171.57 297.17 170.84 296.94 170.11 296.7 169.38 296.35 168.56 295.88 167.63 295.16 166.68 294.1 166.09 292.73 165.9 291.49 165.92 290.51 166 289.65 166.17 288.91 166.35 288.17 166.52 287.55 166.74 286.93 166.82 286.65 166.71 286.64 166.09 286.42 165.42 286.13 164.75 285.84 164.08 285.56 163.41 285.16 162.7 284.75 161.93 284.17 161.2 283.3 160.42 282.13 160.02 280.65 160.01 279.44 160.14 278.46 160.39 277.62 160.68 276.89 160.97 276.22 161.25 275.6 161.59 275 161.66 274.77 161.56 274.7 160.94 274.42 160.34 274.02 159.73 273.68 159.12 273.29 158.53 272.78 157.88 272.26 157.24 271.57 156.56 270.65 156.03 269.33 155.86 267.87 156.03 266.61 156.33 265.65 156.69 264.87 157.04 264.14 157.43 263.54 157.83 262.99 158.22 262.45 158.34 262.29 158.24 262.16 157.69 261.77 157.16 261.32 156.61 260.87 156.08 260.36 155.54 259.8 155.01 259.18 154.44 258.44 153.95 257.35 153.59 255.99 153.66 254.55 153.99 253.36 154.41 252.41 154.87 251.7 155.39 251.05 155.84 250.51 156.28 250.02 156.79 249.54 156.97 249.38 156.81 249.25 156.38 248.81 155.9 248.31 155.43 247.75 154.95 247.19 154.54 246.52 154.08 245.84 153.69 245.01 153.32 243.87 153.14 242.47 153.44 240.99 153.99 239.88 154.58 239.06 155.1 238.41 155.66 237.87 156.22 237.4 156.77 236.98 157.27 236.56 157.51 236.46 157.41 236.28 157.05 235.78 156.63 235.18 156.28 234.57 155.86 233.96"></polygon><path class="cls-4" d="M244.06,167c1.34-1.09,4.34-4.37,5.87-4.25s3.51,4.45,4.31,5.08a2.38,2.38,0,0,0,.81.52,1.34,1.34,0,0,0,.7-.16c1.35-.63,5.14-3.79,6.71-3.44s2.79,4.89,3.46,5.69a2.73,2.73,0,0,0,.69.63,2,2,0,0,0,.74-.06c1.46-.45,5.65-3,7.15-2.43s2.06,5.35,2.61,6.2a4.23,4.23,0,0,0,.58.73,1.57,1.57,0,0,0,.73.05c1.5-.21,6-2.12,7.39-1.32s1.26,5.56,1.69,6.51a4.6,4.6,0,0,0,.45.78,3.41,3.41,0,0,0,.73.17c1.47,0,6.3-1.19,7.52-.18s.39,5.66.65,6.65a3.24,3.24,0,0,0,.39.83,1.26,1.26,0,0,0,.66.29c1.47.23,6.39-.22,7.49,1s-.46,5.65-.38,6.68a6,6,0,0,0,.21.93,1.85,1.85,0,0,0,.66.34c1.39.45,6.37.75,7.23,2.07s-1.31,5.53-1.33,6.55a2,2,0,0,0,.09.92,1.09,1.09,0,0,0,.53.44c1.37.68,6.18,1.71,6.86,3.19s-2.14,5.23-2.28,6.24a2.57,2.57,0,0,0-.08,1,1.48,1.48,0,0,0,.47.5c1.24.89,5.89,2.59,6.32,4.16s-2.9,4.88-3.21,5.88a2.56,2.56,0,0,0-.25.89,1.79,1.79,0,0,0,.42.55c1.11,1.05,5.4,3.46,5.62,5.07s-3.61,4.37-4.09,5.3a3.28,3.28,0,0,0-.3.88,2.37,2.37,0,0,0,.29.65c.93,1.16,4.84,4.22,4.82,5.81s-4.23,3.8-4.83,4.67a2.19,2.19,0,0,0-.45.75,1.09,1.09,0,0,0,.17.7c.74,1.32,4.15,4.9,3.85,6.47s-4.7,3.14-5.44,3.88a1,1,0,0,0-.46,1.44c.52,1.41,3.31,5.45,2.84,7s-5.15,2.36-6,3a2.34,2.34,0,0,0-.68.63,1,1,0,0,0,0,.69c.28,1.5,2.47,5.95,1.73,7.37s-5.42,1.55-6.32,2a5.28,5.28,0,0,0-.78.51,1.52,1.52,0,0,0-.11.73c.05,1.48,1.59,6.22.63,7.51s-5.63.73-6.58,1.11a2,2,0,0,0-.82.38,1.22,1.22,0,0,0-.23.67c-.18,1.52.61,6.42-.51,7.53s-5.68-.07-6.71.07a8,8,0,0,0-.88.27,2.25,2.25,0,0,0-.29.66c-.4,1.45-.35,6.4-1.62,7.38s-5.62-1-6.64-.94a3.09,3.09,0,0,0-.93.14,1.32,1.32,0,0,0-.38.6c-.63,1.38-1.31,6.27-2.75,7.06s-5.37-1.81-6.38-1.95a4.08,4.08,0,0,0-.92,0,1.58,1.58,0,0,0-.49.53c-.79,1.3-2.26,6-3.73,6.58s-5.08-2.58-6.08-2.89a2.44,2.44,0,0,0-.9-.13,1.46,1.46,0,0,0-.55.46c-1,1.12-3.14,5.62-4.69,5.88s-4.63-3.28-5.57-3.7a2.78,2.78,0,0,0-.88-.3,1.9,1.9,0,0,0-.6.35c-1.16,1-3.94,5.09-5.55,5.18s-4.05-4-4.91-4.56a4.76,4.76,0,0,0-.82-.41,1.94,1.94,0,0,0-.71.29c-1.26.81-4.63,4.39-6.21,4.27s-3.44-4.55-4.18-5.24a3.32,3.32,0,0,0-.76-.52,1.73,1.73,0,0,0-.69.12c-1.42.62-5.26,3.72-6.82,3.31s-2.72-5-3.39-5.8a3.08,3.08,0,0,0-.64-.62,1.76,1.76,0,0,0-.74.05c-1.46.4-5.7,2.84-7.18,2.2s-1.95-5.34-2.45-6.23a6.7,6.7,0,0,0-.57-.73,1.45,1.45,0,0,0-.73-.06c-1.49.16-6.09,2-7.49,1.15s-1.08-5.61-1.46-6.55a2.5,2.5,0,0,0-.45-.78,1.05,1.05,0,0,0-.72-.17c-1.48-.07-6.35,1-7.51,0s-.28-5.67-.54-6.66a1.88,1.88,0,0,0-.33-.87,1.15,1.15,0,0,0-.66-.28c-1.45-.3-6.38,0-7.41-1.19s.57-5.63.48-6.67a2.92,2.92,0,0,0-.21-.87,2.12,2.12,0,0,0-.59-.39c-1.44-.52-6.36-.86-7.22-2.24s1.48-5.52,1.5-6.54a2.24,2.24,0,0,0,0-.91,1.38,1.38,0,0,0-.53-.44c-1.36-.75-6.17-1.88-6.79-3.34s2.25-5.23,2.45-6.24a2.64,2.64,0,0,0,.07-.91,1.5,1.5,0,0,0-.47-.55c-1.18-.89-5.81-2.75-6.19-4.26s3-4.81,3.38-5.81a2.83,2.83,0,0,0,.24-.89,3.41,3.41,0,0,0-.41-.61c-1.05-1-5.34-3.57-5.49-5.17s3.71-4.31,4.18-5.18a2.17,2.17,0,0,0,.36-.89,1.4,1.4,0,0,0-.29-.64c-.87-1.21-4.71-4.32-4.63-6s4.28-3.69,4.92-4.49a4.06,4.06,0,0,0,.51-.81,2.71,2.71,0,0,0-.22-.71c-.69-1.3-4-5-3.67-6.56s4.8-3,5.54-3.7a2.51,2.51,0,0,0,.57-.69,1.22,1.22,0,0,0-.06-.74c-.51-1.41-3.24-5.56-2.66-7.06s5.19-2.24,6-2.85a2.2,2.2,0,0,0,.67-.58,1.58,1.58,0,0,0,.06-.73c-.28-1.51-2.36-6-1.62-7.36s5.53-1.49,6.42-1.93a4.43,4.43,0,0,0,.78-.5,1.53,1.53,0,0,0,.12-.73c0-1.48-1.43-6.21-.47-7.5s5.69-.61,6.63-.93a3.51,3.51,0,0,0,.88-.39,1.2,1.2,0,0,0,.23-.66c.18-1.52-.51-6.42.67-7.52s5.67.24,6.71.1a2.79,2.79,0,0,0,.87-.27,1.85,1.85,0,0,0,.34-.66c.41-1.44.53-6.38,1.8-7.3s5.6,1.08,6.62,1.11a3.84,3.84,0,0,0,.93-.16,1.53,1.53,0,0,0,.38-.53c.63-1.37,1.49-6.26,2.91-7s5.3,1.91,6.37,2.06a1.66,1.66,0,0,0,.91,0,1.22,1.22,0,0,0,.5-.46c.85-1.3,2.37-6,3.89-6.46s5,2.69,6,3h.11c.17,0,.3-.2.49-.35,1-1.12,3.23-5.55,4.8-5.81s4.45,3.27,5.42,3.86c.07-.05.07-.11.13-.16,1.16-.93,4.05-5,5.65-5s4,4.08,4.8,4.66Z"></path><path class="cls-1" d="M308.45,243.87c-3.37,3.12-6-5.15-6.41-6.94-2.5,6.71-4.91,9.86-8.28,10.74s-7-2-8.23-6.66c-2.57-9.95,5.36-19.58,10.69-21a5.29,5.29,0,0,1,5.89,2l5.09-4.79,1.6-.42-1.17,9c-.1,2.3-.05,8.79.41,10.57C308.45,238,309.65,242.75,308.45,243.87Zm-15.76-5.47c.53,2.07,2,3.2,3.63,2.79,4.26-1.1,5.62-11.25,4.36-16.1-.55-2.13-1.89-3.17-3.55-2.75C292.87,223.44,291.43,233.54,292.69,238.4Z"></path><path class="cls-1" d="M205,263c-3.7,5.86-5.54,8.82-8.45,9.57-4.36,1.12-5.9-5.06-6.29-6.82-2.46,6.6-4.83,9.69-8.14,10.55s-6.91-2-8.08-6.54c-2.53-9.78,5.27-19.24,10.5-20.59a5.21,5.21,0,0,1,5.79,2l5-4.71,1.57-.4-.35,9c-.1,2.25-.14,7.35.3,9.1.41,1.57,1.34,2.27,2.39,2,1.33-.34,2.21-1.75,4.93-6.36Zm-23.93,4.2c.53,2,2,3.14,3.57,2.73,4.19-1.08,5.52-11,4.29-15.82-.55-2.09-1.86-3.11-3.5-2.69C181.26,252.49,179.85,262.41,181.08,267.19Z"></path><path class="cls-1" d="M223.48,258.22c-4.18,6.41-7.17,9.23-10.55,10.11-4.07,1.05-7.62-1.64-9-6.93-2.68-10.36-.3-26.12,1.16-32l6.53-4.54a1.74,1.74,0,0,1,.49-.25c1.11-.28,2.31,1.27,3,4,2,7.56.44,15.16-5.1,25.65.27,1.55.54,3.09.81,4.13.85,3.26,2.67,5,4.71,4.5,2.61-.68,4.41-3.56,7.08-7.91Zm-10.19-27.91c-.36-1.4-1.07-2.21-1.71-2-.93.24-1.7,4-2,9.64a110.92,110.92,0,0,0,.13,12C213,243.72,214.57,235.26,213.29,230.31Z"></path><path class="cls-1" d="M236.46,254.86c-4.24,7.62-6.93,9.24-8.15,9.55-2.44.64-5-1.68-6-5.4-1.53-5.94-.64-14.23-.26-17.81l6.83-3.37.35-.1-.55,9.64c-.22,4-.14,6.68.28,8.31.32,1.22,1.12,1.94,2,1.72,1.8-.47,2.81-2.35,4.64-5.79Z"></path><path class="cls-1" d="M235.15,252.47c2.17-3.85,5.27-10.86,5.73-16.5a43.35,43.35,0,0,1,6.05-2.81c.17,0,.3,0,.35.16a2.4,2.4,0,0,1,0,.93,8.54,8.54,0,0,0,.18,2.63c.27,1.05.86,1.89,2.46,3.27,2,1.84,2.84,3,3.24,4.63,1.51,5.81-3.6,14.14-9.59,15.7-2.57.66-5.55-.31-5.95-1.88-.23-.87,1.75-5.24,2.68-5.47.64-.17,1.27.35,2,1.58,1.08,1.77,2,2.35,3.26,2,2.32-.6,4.11-3.8,3.46-6.3-.33-1.28-1.11-2.38-3.07-4.17a19.52,19.52,0,0,1-3.94-4.44,75.13,75.13,0,0,1-5.56,13l-.65.16Z"></path><path class="cls-1" d="M257.43,231.94l7.89-3.59L264,237.7c-.21,1.61-.78,7.09-.07,9.83.42,1.62,1.3,2.39,2.41,2.1,2.38-.61,4.7-5.81,5.25-11.84l.95-9.75,7.37-3.45-.23,2.92-1.25,18.25-.16,3c4.43-3.74,6.19-5.82,8.67-10.37l.85,3.26c-2.17,3.41-4.67,6-9.68,10.13a34.33,34.33,0,0,1-2,9.77c-1.6,3.89-4.16,6.48-7.25,7.27a3.88,3.88,0,0,1-5.06-3c-.79-3,.51-7.15,7.62-12.77l.17-6.57c-2.66,5.1-5,7.7-7.88,8.43s-5.56-1.35-6.59-5.31a29.47,29.47,0,0,1-.51-9.67Zm8.47,33.25a1.74,1.74,0,0,0,2.13,1.5c2-.53,3.18-4.24,3.25-10.71C267.27,259.19,265.24,262.63,265.9,265.19Z"></path><path class="cls-1" d="M168.83,248.94a75.22,75.22,0,0,1,.2-8.5A74.06,74.06,0,0,1,307.28,210l-3.08.87A71,71,0,0,0,172.12,240.7a72.13,72.13,0,0,0-.22,7.37Z"></path><path class="cls-1" d="M236.81,320.32A74,74,0,0,1,178.45,283l3.07-.87A71,71,0,0,0,313.61,252.3a72.42,72.42,0,0,0,.22-7.38l3.07-.86a70.64,70.64,0,0,1-.21,8.49A74.15,74.15,0,0,1,236.81,320.32Z"></path><path class="cls-5" d="M227.49,233.36c-8.83.52-10.53-8.51-8.52-11.63s8.26-8,4.72-10.64c0,0,9.12,2.46,12.17,8.55S236.32,232.84,227.49,233.36Z"></path><path class="cls-6" d="M231.43,214.78c-3.17,3.77-9,6.56-13,8.13a8.86,8.86,0,0,0,.7,6c.85-.56,1.78-1.2,2.81-1.94,6-4.32,9.37-7.93,11.1-10.84A18.2,18.2,0,0,0,231.43,214.78Z"></path><path class="cls-6" d="M226.31,233.37c6.31-4.77,9.22-8.62,10.39-11.56a11.84,11.84,0,0,0-.84-2.17l0,0c-2.11,5.46-10.52,9.39-15.35,11.25A8,8,0,0,0,226.31,233.37Z"></path><path class="cls-1" d="M226.47,232.68a16.71,16.71,0,0,1-2.15-3.46c-.79.37-1.55.7-2.27,1A13.14,13.14,0,0,0,226.47,232.68Z"></path><path class="cls-1" d="M220.64,222a9.36,9.36,0,0,0-.81,3.7,5.41,5.41,0,0,0,.52,2.35c.51-.34,1.05-.72,1.61-1.12l1.28-.93c-.05-.24-.09-.48-.12-.73a7.34,7.34,0,0,1,1.12-5C223,220.89,221.79,221.48,220.64,222Z"></path><path class="cls-5" d="M220.83,294.52l-.18,0a.71.71,0,0,0-.53.48,4.48,4.48,0,0,1-3.28,3,4.59,4.59,0,0,1-1.1.13,4.86,4.86,0,0,1-4.59-3.87,4.79,4.79,0,0,1,3.36-5.92,4.47,4.47,0,0,1,4.25,1.13.72.72,0,0,0,.72.2.75.75,0,0,0,.55-.9,1,1,0,0,0-.18-.35l0,0a6.11,6.11,0,0,0-9.55,1.5,6.75,6.75,0,0,0-.59,4.74,6.34,6.34,0,0,0,6.06,5,6.79,6.79,0,0,0,1.47-.18,5.94,5.94,0,0,0,4.34-3.9l0-.07a.7.7,0,0,0,0-.38A.74.74,0,0,0,220.83,294.52Z"></path><path class="cls-5" d="M230.81,291.56a4.35,4.35,0,0,0-4.28-3.43,4.67,4.67,0,0,0-1.11.13,4.42,4.42,0,0,0-3.29,5.39,4.37,4.37,0,0,0,4.29,3.43,4.65,4.65,0,0,0,1.1-.13,4.47,4.47,0,0,0,2.61-1.75l.06.25a.75.75,0,0,0,.74.58l.18,0a.77.77,0,0,0,.56-.92Zm-7.2,1.73a2.89,2.89,0,0,1,2.16-3.58,3.18,3.18,0,0,1,.74-.09,2.89,2.89,0,0,1,2.82,2.29,3,3,0,0,1-.32,2.27,2.89,2.89,0,0,1-1.84,1.32,3.83,3.83,0,0,1-.74.09A2.9,2.9,0,0,1,223.61,293.29Z"></path><path class="cls-5" d="M239.85,292.6l-4-2.94,2.35-3a.74.74,0,0,0-.54-1.24l-.18,0a.82.82,0,0,0-.46.3l-3.07,4-1.54-6.37a.78.78,0,0,0-.74-.58l-.18,0a.81.81,0,0,0-.47.34.85.85,0,0,0-.1.58l2.65,10.94a.76.76,0,0,0,.74.58l.17,0a.76.76,0,0,0,.48-.34.74.74,0,0,0,.09-.58l-.66-2.72.54-.71,4,2.94a.72.72,0,0,0,.49.19l.17,0a.78.78,0,0,0,.48-.34.7.7,0,0,0,.09-.54A.86.86,0,0,0,239.85,292.6Z"></path><path class="cls-5" d="M247.66,288.79l-.18,0a.7.7,0,0,0-.53.49,2.89,2.89,0,0,1-2.1,1.95,3.53,3.53,0,0,1-.72.08,2.86,2.86,0,0,1-2.63-1.73l6.06-1.46a.77.77,0,0,0,.48-.34.74.74,0,0,0,.08-.57,4.29,4.29,0,0,0-4.14-3.32,4.44,4.44,0,0,0-1,.12,4.29,4.29,0,0,0-3.15,5.36,4.36,4.36,0,0,0,4.27,3.43,4.84,4.84,0,0,0,1.12-.14,4.39,4.39,0,0,0,3.16-2.85.76.76,0,0,0,0-.47A.74.74,0,0,0,247.66,288.79Zm-6.46-.63a2.77,2.77,0,0,1,2.11-2.72,2.62,2.62,0,0,1,.62-.07,2.86,2.86,0,0,1,2.48,1.53Z"></path><path class="cls-5" d="M266.78,274.26a.74.74,0,0,0-.58.68l-.71,9.56-5.13-8.1a.77.77,0,0,0-.68-.41h-.06l-.12,0-.1,0a.76.76,0,0,0-.48.67l-.87,9.58-5-8.2a.75.75,0,0,0-.82-.33.68.68,0,0,0-.46.33.7.7,0,0,0-.09.56.79.79,0,0,0,.09.23L258,289a.77.77,0,0,0,.62.34h.07l.21-.05a.76.76,0,0,0,.47-.64l.89-9.71,5.24,8.26a.74.74,0,0,0,.61.34h.07l.22-.05a.75.75,0,0,0,.46-.64l.87-11.8a.49.49,0,0,0,0-.24A.73.73,0,0,0,266.78,274.26Z"></path><path class="cls-5" d="M273.77,276.73a4.53,4.53,0,0,0-1.1.13,4.44,4.44,0,0,0-2.81,2,4.49,4.49,0,0,0-.49,3.37,4.37,4.37,0,0,0,4.29,3.43,5.24,5.24,0,0,0,1.1-.13,4.43,4.43,0,0,0,3.3-5.4A4.36,4.36,0,0,0,273.77,276.73Zm2.48,6a2.89,2.89,0,0,1-1.84,1.32,2.69,2.69,0,0,1-.74.1,2.91,2.91,0,0,1-2.82-2.3,3,3,0,0,1,.32-2.26,2.92,2.92,0,0,1,1.84-1.32,3.2,3.2,0,0,1,.75-.09,2.91,2.91,0,0,1,2.82,2.29A3,3,0,0,1,276.25,282.77Z"></path><path class="cls-5" d="M282.62,274.55l-.17,0a4.17,4.17,0,0,0-2.28,1.48l0-.14a.76.76,0,0,0-.75-.58l-.18,0a.78.78,0,0,0-.56.92l1.71,7.07a.76.76,0,0,0,.75.58l.17,0a.75.75,0,0,0,.47-.34.79.79,0,0,0,.1-.58l-1-4a2.54,2.54,0,0,1,1.93-3,.7.7,0,0,0,.44-.31.77.77,0,0,0,.08-.56A.72.72,0,0,0,282.62,274.55Z"></path><path class="cls-5" d="M284.59,270.74a.77.77,0,0,0-.74-.58l-.18,0a.81.81,0,0,0-.47.34.79.79,0,0,0-.09.58L285.75,282a.76.76,0,0,0,.74.58l.18,0a.75.75,0,0,0,.47-.35.71.71,0,0,0,.09-.57Z"></path><path class="cls-5" d="M297.33,279.24l-2.64-10.94a.77.77,0,0,0-.74-.58l-.18,0a.78.78,0,0,0-.47.35.81.81,0,0,0-.09.57l1,4.13a4.34,4.34,0,0,0-3.12-.38,4.42,4.42,0,0,0-3.29,5.39,4.39,4.39,0,0,0,5.38,3.29,4.27,4.27,0,0,0,2.61-1.75l.06.26a.79.79,0,0,0,.74.59l.18,0a.78.78,0,0,0,.47-.34A.74.74,0,0,0,297.33,279.24Zm-8.05-1.8a2.89,2.89,0,0,1,2.16-3.58,3.53,3.53,0,0,1,.72-.08,2.9,2.9,0,0,1,2.84,2.28,3,3,0,0,1-.34,2.28,2.92,2.92,0,0,1-1.82,1.31,3.2,3.2,0,0,1-.75.09A2.85,2.85,0,0,1,289.28,277.44Z"></path><path class="cls-7" d="M285,338a.53.53,0,0,0-.69-.29.53.53,0,0,0-.3.69l2.27,5.54a4.71,4.71,0,0,0-4.28-.28,4.85,4.85,0,0,0-2.7,6.42,4.81,4.81,0,0,0,4.5,3.08h0a5,5,0,0,0,1.93-.39,4.72,4.72,0,0,0,2.85-3.2l.48,1.17a.57.57,0,0,0,.7.3.55.55,0,0,0,.29-.7Zm-1.12,6.31a3.82,3.82,0,0,1,3.55,2.44,3.91,3.91,0,0,1,0,3,3.89,3.89,0,1,1-5-5.16A3.85,3.85,0,0,1,283.84,344.29Z"></path><path class="cls-7" d="M291.68,337.51a.76.76,0,0,0,.39-.1.77.77,0,0,0,.3-1.06.8.8,0,0,0-1.07-.29.78.78,0,0,0,.38,1.45Z"></path><path class="cls-7" d="M294.32,336a.77.77,0,0,0,.39-.11.8.8,0,0,0,.37-.46.78.78,0,0,0-1.14-.89.8.8,0,0,0-.37.46.84.84,0,0,0,.08.6A.78.78,0,0,0,294.32,336Z"></path><path class="cls-7" d="M298.12,336.21a.55.55,0,0,0-.73-.2.54.54,0,0,0-.2.72l2.43,4.31a3.19,3.19,0,0,1-1.27,4.44,3.46,3.46,0,0,1-1.69.46h0a3.17,3.17,0,0,1-2.77-1.67L291.46,340a.54.54,0,0,0-.73-.19.53.53,0,0,0-.2.72l2.42,4.28a4.23,4.23,0,0,0,3.72,2.21,4.42,4.42,0,0,0,2.19-.59,4.29,4.29,0,0,0,1.68-5.9Z"></path><path class="cls-7" d="M310.79,331.77a4.29,4.29,0,0,0-3.45-1.77,4.38,4.38,0,0,0-2.62.89,4.28,4.28,0,0,0-.94,6.06l2.92,4a.53.53,0,0,0,.43.21.6.6,0,0,0,.32-.1.55.55,0,0,0,.11-.75l-2.94-4a3.2,3.2,0,0,1,.72-4.57,3.4,3.4,0,0,1,2-.68,3.2,3.2,0,0,1,2.57,1.34l2.93,4a.55.55,0,0,0,.75.12.53.53,0,0,0,.11-.75Z"></path><path class="cls-7" d="M317.31,321.25l0-.06a.53.53,0,0,0-.12-.19.52.52,0,0,0-.84.57l2.71,7.84-7.59-3.3a.5.5,0,0,0-.6.07.49.49,0,0,0-.17.36.47.47,0,0,0,.13.35.47.47,0,0,0,.18.13l8.48,3.7c.62,2,.56,3.37-.2,4.64a.52.52,0,0,0,.76.71.9.9,0,0,0,.17-.24c.91-1.59,1-3.41.18-5.71Z"></path><path class="cls-7" d="M328.4,314.88a5,5,0,0,0-3.24-1.22,5,5,0,0,0-4.92,5.35,5,5,0,0,0,5,4.56,4.87,4.87,0,0,0,3.72-1.74,4.82,4.82,0,0,0,1.12-4.12l.93.79a.55.55,0,0,0,.75-.05.54.54,0,0,0-.05-.75Zm-3.16,7.64a4,4,0,0,1-2.57-1,3.92,3.92,0,0,1-1.39-2.65,3.95,3.95,0,0,1,3.85-4.19,4,4,0,0,1,2.57,1,3.92,3.92,0,0,1,1.39,2.65,3.83,3.83,0,0,1-.95,2.81A3.77,3.77,0,0,1,325.24,322.52Z"></path><path class="cls-7" d="M335.49,303.55a4.28,4.28,0,0,0-6,1.25,4.3,4.3,0,0,0,1.19,6l4.11,2.71a.47.47,0,0,0,.29.08.53.53,0,0,0,.45-.23.54.54,0,0,0-.15-.75l-4.12-2.72a3.22,3.22,0,0,1-1.42-2,3.3,3.3,0,0,1,.52-2.49,3.24,3.24,0,0,1,2.7-1.52,3.31,3.31,0,0,1,1.82.57l4.12,2.73a.55.55,0,0,0,.74-.16.53.53,0,0,0-.15-.74Z"></path><path class="cls-7" d="M342.52,301l-7.58-4.11a.54.54,0,0,0-.72.22.5.5,0,0,0-.05.4.59.59,0,0,0,.26.32l7.57,4.1a.48.48,0,0,0,.26.07.53.53,0,0,0,.47-.28.54.54,0,0,0-.21-.72Z"></path><path class="cls-7" d="M348.39,288.55l-4.49-2a4.36,4.36,0,0,0-1.8-.39,4.36,4.36,0,0,0-1.76,8.34l4.49,2a.54.54,0,0,0,.22,0,.56.56,0,0,0,.49-.31.55.55,0,0,0-.27-.71l-4.51-2a3.31,3.31,0,0,1,1.3-6.3,3.41,3.41,0,0,1,1.39.3l4.5,2a.54.54,0,0,0,.71-.27A.54.54,0,0,0,348.39,288.55Z"></path><path class="cls-7" d="M352.79,274.24,345,272.29l.54-2.18a.5.5,0,0,0-.36-.6h-.11a.48.48,0,0,0-.48.37l-.55,2.18-2.68-.67a.56.56,0,0,0-.65.39.54.54,0,0,0,.07.41.51.51,0,0,0,.32.24l2.68.67-.45,1.79a.49.49,0,0,0,.06.37.44.44,0,0,0,.3.23h.12a.5.5,0,0,0,.48-.37l.45-1.79,7.76,1.94a.55.55,0,0,0,.65-.38A.54.54,0,0,0,352.79,274.24Z"></path><path class="cls-7" d="M355.5,259.23l-4.26-.63a4.87,4.87,0,0,0-.76-.06,4.81,4.81,0,0,0-4.83,4.22,4.84,4.84,0,0,0,4.16,5.58,4.87,4.87,0,0,0,.76.06,4.94,4.94,0,0,0,3.57-8.29l1.21.17h.07a.53.53,0,0,0,.53-.46A.54.54,0,0,0,355.5,259.23ZM350,267.29a3.8,3.8,0,0,1-3.29-4.39,3.76,3.76,0,0,1,3.79-3.29,4.21,4.21,0,0,1,.62,0,3.94,3.94,0,0,1,2.6,1.5,3.89,3.89,0,0,1,.7,2.89,3.77,3.77,0,0,1-3.79,3.29A4.44,4.44,0,0,1,350,267.29Z"></path><path class="cls-7" d="M355.92,252.26l-8-.37.11-2.25a.51.51,0,0,0-.5-.52.5.5,0,0,0-.49.47l-.1,2.25-2.78-.13a.54.54,0,0,0-.54.51.54.54,0,0,0,.14.38.5.5,0,0,0,.37.17l2.75.14-.08,1.84a.48.48,0,0,0,.47.51h0a.49.49,0,0,0,.49-.46l.09-1.85,8,.38a.53.53,0,0,0,.53-.5.51.51,0,0,0-.14-.39A.57.57,0,0,0,355.92,252.26Z"></path><path class="cls-7" d="M342.68,246.56l13.34-.19a.55.55,0,0,0,.53-.54.55.55,0,0,0-.55-.53l-13.33.2a.53.53,0,1,0,0,1.06Z"></path><path class="cls-7" d="M346.65,240.61a.54.54,0,0,0,.53.5l8.63-.57a.54.54,0,0,0-.07-1.07h0l-8.6.58A.53.53,0,0,0,346.65,240.61Z"></path><path class="cls-7" d="M352.4,227.87c-1.6.23-2.08,1.56-2.39,3.95-.27,2-.54,2.86-1.49,3l-.2,0c-1.07,0-1.47-1.31-1.63-2.4a5.45,5.45,0,0,1,.34-2.63.59.59,0,0,0,.06-.32.51.51,0,0,0-.51-.44h-.07a.48.48,0,0,0-.39.34,5.91,5.91,0,0,0-.41,3.19c.3,2.08,1.29,3.32,2.64,3.32l.34,0c1.59-.23,2.08-1.8,2.33-4.09.21-1.95.63-2.72,1.55-2.86s1.69.79,1.91,2.33a5,5,0,0,1-.74,3.2.52.52,0,0,0-.11.39.51.51,0,0,0,.51.45h.07a.51.51,0,0,0,.34-.22,5.83,5.83,0,0,0,.9-3.95C355.14,228.94,353.94,227.65,352.4,227.87Z"></path><path class="cls-7" d="M344.93,225.4H345l8.41-1.87a.61.61,0,0,0,.34-.23.57.57,0,0,0,.07-.4.55.55,0,0,0-.64-.41l-8.41,1.87a.54.54,0,0,0-.34.23.53.53,0,0,0,.46.82Z"></path><path class="cls-7" d="M270.55,350.71a.69.69,0,0,1-.56.79.53.53,0,0,1-.7-.51l-.32-4.56a.69.69,0,0,1,.56-.81.52.52,0,0,1,.69.49Zm4.12-1a.69.69,0,0,1-.56.79.53.53,0,0,1-.7-.51l-.32-4.56a.69.69,0,0,1,.55-.81.53.53,0,0,1,.7.49Z"></path><path class="cls-7" d="M345.73,215.72a.69.69,0,0,1,.92.3.54.54,0,0,1-.28.82l-4.24,1.68a.71.71,0,0,1-.95-.29.53.53,0,0,1,.26-.81Zm-2.25-3.62a.71.71,0,0,1,.92.3.53.53,0,0,1-.28.82l-4.24,1.69a.71.71,0,0,1-.94-.29.53.53,0,0,1,.26-.81Z"></path></svg>