<svg xmlns="http://www.w3.org/2000/svg" id="Layer_1" data-name="Layer 1" viewBox="0 0 500 500"><defs><style>.cls-1{fill:#ff5100;}.cls-2{fill:#6ba43a;}.cls-3{fill:#636569;}.cls-4{fill:#fff;}</style></defs><rect class="cls-1" x="93.02" y="306.5" width="104.65" height="14.37"></rect><rect class="cls-2" x="197.67" y="306.5" width="104.65" height="14.37"></rect><rect class="cls-3" x="302.33" y="306.5" width="104.65" height="14.37"></rect><path class="cls-1" d="M199.54,232.35a53.26,53.26,0,1,1-53.26-53.22,53.24,53.24,0,0,1,53.26,53.22"></path><path class="cls-4" d="M103.33,246.42,109.69,236s14.9.84,32.52-30.69l10.14.22-31.07,61.57H109.79l20.3-36.35s-14.38,16.61-26.76,15.72"></path><path class="cls-4" d="M129.62,258l30.13-60.52h10.37l-10.64,21s17.18-17.6,28.1-15l-7,13.26S161.27,217,150,236.87c-9.81,20.94-9.19,21.5-9.19,21.5Z"></path><path class="cls-2" d="M225.32,222.06q0,17.48,10.8,17.48T247,222.06q0-17.49-10.8-17.48t-10.88,17.48m-.73,14.38-1.7,4.79H208v-1.1c3.68-.84,5.52-2.9,5.52-6.2V197q0-5.53-4.38-5.83v-1.1q8.93-1,16.48-2.29c0,1.13-.06,2.87-.16,5.2s-.17,4.09-.17,5.27v10.63h.17a15.84,15.84,0,0,1,5.94-5.5,18.9,18.9,0,0,1,8.3-1.58,19.84,19.84,0,0,1,14.56,6,19,19,0,0,1,6,13.82,20.28,20.28,0,0,1-5.93,14.61,19.54,19.54,0,0,1-14.62,6.12,19.61,19.61,0,0,1-15.18-5.9"></path><path class="cls-2" d="M272.4,187.76a5.9,5.9,0,0,1,4.38,1.81,5.74,5.74,0,0,1,0,8.33,6.22,6.22,0,0,1-8.77,0,5.76,5.76,0,0,1,0-8.33,5.92,5.92,0,0,1,4.39-1.81m6.17,15.12v29.5q0,7.31,5.52,8v1.11q-1.95,0-5.76-.15c-2.55-.1-4.44-.15-5.69-.15s-3.14.05-5.68.15-4.47.15-5.76.15v-1.11q5.52-.73,5.52-8v-22c0-2.31-1.47-3.74-4.39-4.28V205a135.35,135.35,0,0,0,16.24-2.07"></path><path class="cls-2" d="M318,201.78l-4.87,12.83q-2.52-2.58-4.71-2.58-3.25,0-4.95,3.54a18.5,18.5,0,0,0-1.38,7.67v5.68q0,10.1,5.52,11.5v1.11c-1.3,0-3.22-.05-5.77-.15s-4.44-.15-5.68-.15-3.14.05-5.68.15-4.47.15-5.77.15v-1.11q5.52-1.39,5.52-11.5V213.21q0-6.27-5-7.16V205a149.88,149.88,0,0,0,16.48-2.07c0,.59,0,1.59-.08,3s-.08,2.49-.08,3.28v4.43h.16a22,22,0,0,1,4.47-7.9,11,11,0,0,1,8.2-3.9Z"></path><path class="cls-2" d="M329.13,215.49H346a18.47,18.47,0,0,0-1.54-7.45q-2-3.9-6.9-3.9t-6.91,3.9a18.47,18.47,0,0,0-1.54,7.45m30.2,2.36h-30.2v4.21q0,17.17,14,17.18a14,14,0,0,0,10.39-4.5,21.34,21.34,0,0,0,5.28-9.66l2.11,1.4q-4.31,15.86-22.9,15.86-10,0-16.24-6.12a19,19,0,0,1-5.92-14.16,19.27,19.27,0,0,1,6-14.46q6.06-5.82,16.12-5.82,8.68,0,14.61,4.13a15,15,0,0,1,6.74,11.94"></path><path class="cls-2" d="M356.24,205.17v-1.11q2.1,0,6.21.15t5.88.15c1.25,0,3.3-.05,6.17-.15s5-.15,6.34-.15v1.11q-5.11.74-5.12,4.05a8.36,8.36,0,0,0,1.46,3.54l9.5,15.79L394,214a8.43,8.43,0,0,0,1.05-3.76c0-2.46-1.67-4.16-5-5.09v-1.11q1.47,0,4.26.15c1.87.1,3.24.15,4.1.15s2.21-.05,4.18-.15,3.46-.15,4.43-.15v1.11q-5,1.92-9.5,10L383.19,240.2q-5.35,9.36-9.09,12-4,2.65-13.48,3.1l5-12.39,1.22.59a3.44,3.44,0,0,0,1.87,3,6.58,6.58,0,0,0,3.57,1,5.49,5.49,0,0,0,4.26-1.73,6,6,0,0,0,1.59-4.17q0-3.24-3.17-9.07l-10.47-19.25c-2.65-4.87-5.42-7.55-8.28-8"></path><path class="cls-3" d="M320.55,285.46h2.6V271.17h-2.6Zm-10.65-7.58v-4.47h2c2,0,2.61.84,2.61,2.21a2.07,2.07,0,0,1-2.25,2.26Zm-2.59,7.58h2.59v-5.33h2.5l2.84,5.33h2.89l-2.93-5.33a3.2,3.2,0,0,0-.49-.7v0a4.13,4.13,0,0,0,2.42-3.91,4,4,0,0,0-2.34-3.9,6.43,6.43,0,0,0-2.87-.41h-4.61Zm-8.2-11.81s.31,1.41.57,2.21l1.26,3.83H297.2l1.27-3.83c.28-.8.6-2.21.6-2.21Zm3.69,11.81h2.67l-5-14.29h-2.72l-5,14.29h2.68l1.21-3.66h5Zm-19.63,0H292v-2.23h-6.18V271.17h-2.6Zm-18.11,0h2.59l.61-8c.06-.94,0-2.23,0-2.23h0s.44,1.41.78,2.23l2.3,5.54h2.27l2.32-5.54c.34-.82.76-2.21.76-2.21h0s0,1.27,0,2.21l.6,8H280l-1.15-14.29h-2.77l-2.8,7.07c-.32.85-.71,2.09-.71,2.09h0s-.4-1.24-.72-2.09l-2.8-7.07h-2.78Zm-14.52-5.13c0,3.2,2.32,5.38,5.78,5.38s5.76-2.18,5.76-5.38v-9.16h-2.6v9.14a3.17,3.17,0,0,1-6.34,0v-9.16h-2.6Zm-10.32-2.45v-4.47h2c2,0,2.62.84,2.62,2.21a2.08,2.08,0,0,1-2.26,2.26Zm-2.6,7.58h2.6v-5.33h2.49l2.84,5.33h2.9l-2.94-5.33a3.47,3.47,0,0,0-.48-.7v0a4.12,4.12,0,0,0,2.41-3.91,4,4,0,0,0-2.33-3.9,6.49,6.49,0,0,0-2.88-.41h-4.61Zm-15-5.13c0,3.2,2.31,5.38,5.77,5.38s5.76-2.18,5.76-5.38v-9.16h-2.6v9.14a3.17,3.17,0,0,1-6.34,0v-9.16h-2.59Zm-12.83,5.13h2.6v-6.24h1.85l3.5,6.24h2.92L216.42,278v0l4.05-6.81h-2.82L214.29,277h-1.85v-5.82h-2.6Z"></path><path class="cls-3" d="M260.77,265.33h2.6l.6-8c.06-1,0-2.24,0-2.24h0s.44,1.41.78,2.24l2.3,5.53h2.27l2.32-5.53c.34-.83.76-2.22.76-2.22h0s0,1.27,0,2.22l.61,8h2.57l-1.14-14.28h-2.78l-2.8,7.06c-.32.85-.7,2.09-.7,2.09h0s-.41-1.24-.73-2.09l-2.8-7.06h-2.77Zm-5.54-15.74h2.18v-2.23h-2.18ZM255,265.33h2.6V251.05H255Zm-9.18,0h2.6v-12h4.69v-2.23h-12v2.23h4.69Zm-8.93-15.74h2.17v-2.23h-2.17Zm-.24,15.74h2.59V251.05h-2.59Zm-9.1-15.15a2.68,2.68,0,0,0,3-2.58v-.24H228.7v.22a1.18,1.18,0,1,1-2.35,0v-.24h-1.81v.24c0,1.67,1.4,2.58,3,2.58m-7.17,8a7,7,0,0,0,7,7.41,6.06,6.06,0,0,0,4.15-1.53h0s0,.3,0,.6v.68h2.21v-7.52h-4.52V260h2.19v1.67a5.38,5.38,0,0,1-3.58,1.49,4.77,4.77,0,0,1-4.79-5.11,4.63,4.63,0,0,1,4.91-4.91,6.15,6.15,0,0,1,3.8,1.37l1.29-1.94a7.78,7.78,0,0,0-5.31-1.81,7.21,7.21,0,0,0-7.37,7.37m-10.53,7.16h8.88V263.1h-6.28v-3.84h4.81V257h-4.81v-3.74h6v-2.23h-8.56Z"></path></svg>