<svg xmlns="http://www.w3.org/2000/svg" id="Layer_1" data-name="Layer 1" viewBox="0 0 500 500"><defs><style>.cls-1{fill:#fff;}.cls-2{fill:#065b82;}.cls-3,.cls-5{fill:#f29100;}.cls-4{fill:#065a81;}.cls-5{font-size:20.15px;font-family:Didot;letter-spacing:0.04em;}.cls-6{letter-spacing:0.04em;}.cls-7{letter-spacing:0.04em;}.cls-8{letter-spacing:0.04em;}.cls-9{font-size:17.45px;letter-spacing:0.03em;}.cls-10{letter-spacing:0.04em;}.cls-11{letter-spacing:0.03em;}.cls-12{letter-spacing:0.03em;}</style></defs><path class="cls-1" d="M352.65,205.52c-27.47-11.41-63.91-17.7-102.65-17.7s-75.18,6.29-102.65,17.7c-28.1,11.7-43.57,27.49-43.57,44.47s15.47,32.79,43.57,44.49c27.47,11.41,63.91,17.7,102.65,17.7s75.18-6.29,102.65-17.7c28.08-11.7,43.57-27.49,43.57-44.49S380.73,217.22,352.65,205.52Z"></path><path class="cls-1" d="M377.86,250c0,25.78-57.24,46.68-127.86,46.68S122.13,275.78,122.13,250,179.38,203.32,250,203.32,377.86,224.22,377.86,250Z"></path><path class="cls-2" d="M177.79,224.57v6h-.46a12.94,12.94,0,0,0-.6-1.53,7.63,7.63,0,0,0-1.18-1.82,7,7,0,0,0-2-1.53,6.06,6.06,0,0,0-2.92-.65h-5.6v10.88h2a5.68,5.68,0,0,0,2.2-.37,4.06,4.06,0,0,0,1.5-1,5.9,5.9,0,0,0,1-1.66,12.35,12.35,0,0,0,.63-2.17h.46v11h-.46a19.82,19.82,0,0,0-.58-2,5.7,5.7,0,0,0-.9-1.67,4.06,4.06,0,0,0-1.39-1.14,4.39,4.39,0,0,0-2.06-.43h-2.36v12.72h5.78a7.38,7.38,0,0,0,2.92-.55,7.17,7.17,0,0,0,2.31-1.53,8.87,8.87,0,0,0,1.67-2.31,12.06,12.06,0,0,0,1-2.83h.46v7.71h-22.5v-.49H160V225.06h-3.23v-.49Z"></path><path class="cls-2" d="M182.89,244.53c.28.66.57,1.3.86,1.91a7.76,7.76,0,0,0,1,1.62,4.65,4.65,0,0,0,1.45,1.14,4.46,4.46,0,0,0,2.07.44l.85,0a2.87,2.87,0,0,0,1-.3,2.5,2.5,0,0,0,.88-.81,2.87,2.87,0,0,0,.37-1.57,2.48,2.48,0,0,0-.09-.65,1.87,1.87,0,0,0-.37-.69,3.37,3.37,0,0,0-.83-.69,8.59,8.59,0,0,0-1.49-.68l-2.86-1.06a10.13,10.13,0,0,1-1.05-.47,4.22,4.22,0,0,1-1.83-2,3.73,3.73,0,0,1-.32-1.63,4.57,4.57,0,0,1,.42-1.94,4.89,4.89,0,0,1,1.18-1.6,5.76,5.76,0,0,1,1.83-1.1,6.61,6.61,0,0,1,2.34-.4,5.44,5.44,0,0,1,1.25.14,9.84,9.84,0,0,1,1.06.3c.32.1.6.2.85.3a1.83,1.83,0,0,0,.58.14c.26,0,.42,0,.49-.14a1.65,1.65,0,0,0,.18-.32h.49v4.3h-.46q-.34-.84-.72-1.62a6,6,0,0,0-.88-1.36,3.57,3.57,0,0,0-1.25-.91,4.3,4.3,0,0,0-1.83-.34,3.87,3.87,0,0,0-2.13.62,2,2,0,0,0-1,1.81,2.52,2.52,0,0,0,.07.57,1.78,1.78,0,0,0,.32.65,3,3,0,0,0,.77.67,7.28,7.28,0,0,0,1.41.65l3,1a6.92,6.92,0,0,1,2.89,1.76,4,4,0,0,1,1,2.78,4.29,4.29,0,0,1-.51,2.1,5.11,5.11,0,0,1-1.34,1.58,6.06,6.06,0,0,1-1.92,1,7.45,7.45,0,0,1-2.25.35,7.69,7.69,0,0,1-1.38-.14c-.49-.1-1-.21-1.42-.34l-1.26-.33a3.47,3.47,0,0,0-.87-.14.63.63,0,0,0-.41.1,1,1,0,0,0-.23.39h-.49v-5.11Z"></path><path class="cls-2" d="M211.19,246.54a5.4,5.4,0,0,1-.92,1.35,5.2,5.2,0,0,1-1.58,1.22,4.88,4.88,0,0,1-2.37.54,4,4,0,0,1-2.48-.68,4.08,4.08,0,0,1-1.33-1.71,6.88,6.88,0,0,1-.57-2.32c-.06-.86-.11-1.72-.11-2.55v-1.58h10.4a6.92,6.92,0,0,0-.63-3.09,6.25,6.25,0,0,0-3.84-3.29,7.87,7.87,0,0,0-2.48-.38,7.77,7.77,0,0,0-3.22.67,8.8,8.8,0,0,0-2.6,1.81,7.75,7.75,0,0,0-1.73,2.54,7.2,7.2,0,0,0-.66,3,8.19,8.19,0,0,0,.68,3.4A7.15,7.15,0,0,0,199.6,248a8,8,0,0,0,2.77,1.6,10.51,10.51,0,0,0,3.41.54,7.06,7.06,0,0,0,2.64-.45,5.81,5.81,0,0,0,1.82-1.08,4.89,4.89,0,0,0,1.18-1.42,7.24,7.24,0,0,0,.6-1.42l-.49-.18A3.69,3.69,0,0,1,211.19,246.54ZM202,238.4a6.09,6.09,0,0,1,.4-1.87,3.07,3.07,0,0,1,1-1.42,2.65,2.65,0,0,1,1.85-.57,1.88,1.88,0,0,1,1.31.39,2.2,2.2,0,0,1,.7.94,5.89,5.89,0,0,1,.25,1.13c0,.38,0,.7,0,.95v2.36h-5.64C201.85,239.71,201.9,239.05,202,238.4Z"></path><path class="cls-2" d="M217.26,249.15V235h-2.32v-.49h6.55v3.52h.07c.09-.21.26-.53.49-1a5.34,5.34,0,0,1,1-1.29,6.29,6.29,0,0,1,1.73-1.11,6.36,6.36,0,0,1,2.64-.48,4.78,4.78,0,0,1,3.61,1.34,5.09,5.09,0,0,1,1.29,3.67v9.93h2.36v.49h-8.84v-.49H228V238a3.25,3.25,0,0,0-.6-2.17,2.06,2.06,0,0,0-1.62-.68,3.47,3.47,0,0,0-1.62.4,3.92,3.92,0,0,0-1.36,1.22,7,7,0,0,0-.93,2,10.25,10.25,0,0,0-.35,2.82v7.54h2.22v.49h-8.84v-.49Z"></path><path class="cls-2" d="M266.85,239.75a6.59,6.59,0,0,0-2.06-2,9.81,9.81,0,0,0-2.7-1.1,18.76,18.76,0,0,0-2.84-.45v-.14a12.23,12.23,0,0,0,2.05-.47,9.14,9.14,0,0,0,2.34-1,6.55,6.55,0,0,0,1.92-1.71,4,4,0,0,0,.79-2.55,4.74,4.74,0,0,0-.81-2.82,5.87,5.87,0,0,0-2.05-1.78,10.16,10.16,0,0,0-2.78-1,16.18,16.18,0,0,0-2.88-.27c-1,0-2,0-2.91,0s-1.94.06-2.94.06h-5.32v.48h3.25v24.1h-3.25v.5H252c1,0,2,0,2.94,0s2,.05,3,.05a16.81,16.81,0,0,0,3-.32,10.58,10.58,0,0,0,3.2-1.06,7.6,7.6,0,0,0,2.53-2.12,5.25,5.25,0,0,0,1-3.38A5.48,5.48,0,0,0,266.85,239.75ZM255,225.05l.79-.07c.24,0,.51,0,.76,0a6,6,0,0,1,2.21.34,3.1,3.1,0,0,1,1.36,1.08,4.81,4.81,0,0,1,.69,1.82,14.67,14.67,0,0,1,.21,2.67,12.87,12.87,0,0,1-.12,1.87,4.12,4.12,0,0,1-.58,1.64,3,3,0,0,1-1.38,1.13,5.91,5.91,0,0,1-2.5.43H255Zm6.58,20.88a5.09,5.09,0,0,1-1,2,3.29,3.29,0,0,1-1.53,1,8.5,8.5,0,0,1-2,.24,19,19,0,0,1-2.05-.09V236.44h2.05a4.54,4.54,0,0,1,2.73.72,4.59,4.59,0,0,1,1.44,1.71,5.9,5.9,0,0,1,.59,2c.06.67.09,1.19.09,1.6A16.12,16.12,0,0,1,261.59,245.93Z"></path><path class="cls-2" d="M287.1,248.77a2.3,2.3,0,0,1-.59.47,1.26,1.26,0,0,1-.74.18c-.52,0-.86-.15-1-.49a3.25,3.25,0,0,1-.21-1.2V239a5.39,5.39,0,0,0-.49-2.46,4.54,4.54,0,0,0-1.38-1.53,5.47,5.47,0,0,0-2.05-.77,14.42,14.42,0,0,0-2.53-.2,9.18,9.18,0,0,0-2.23.24A7,7,0,0,0,274,235a3.8,3.8,0,0,0-1.35,1.19,2.72,2.72,0,0,0-.52,1.62,2,2,0,0,0,.2,1,1.82,1.82,0,0,0,.48.54,1.39,1.39,0,0,0,.65.25,6.23,6.23,0,0,0,.72,0c.16,0,.37,0,.61,0a1.76,1.76,0,0,0,.7-.16,1.39,1.39,0,0,0,.59-.43,1.29,1.29,0,0,0,.25-.84,2.23,2.23,0,0,0,0-.38c0-.18-.06-.38-.09-.61s0-.4-.06-.56a2.23,2.23,0,0,1,0-.38,1.51,1.51,0,0,1,.59-1.36,2.66,2.66,0,0,1,1.42-.36,1.8,1.8,0,0,1,1.71.77,3.18,3.18,0,0,1,.48,1.71v2.17a2.42,2.42,0,0,1-.21,1.08,2,2,0,0,1-.67.77,7,7,0,0,1-1.4.63c-.61.2-1.38.43-2.34.72-.59.18-1.15.38-1.72.59a5.32,5.32,0,0,0-1.46.76,3.62,3.62,0,0,0-1.06,1.15,3.42,3.42,0,0,0-.41,1.72,3,3,0,0,0,.45,1.66,3.06,3.06,0,0,0,1.2,1.09,6,6,0,0,0,1.62.56,9.52,9.52,0,0,0,1.74.18,6.5,6.5,0,0,0,2.84-.49,3.53,3.53,0,0,0,1.55-1.9h.07a2.72,2.72,0,0,0,1.08,1.76,4.57,4.57,0,0,0,2.66.63A12.43,12.43,0,0,0,286,250a2.13,2.13,0,0,0,1.42-.88Zm-6.79-3.22a5.69,5.69,0,0,1-.23,1.76,3,3,0,0,1-.56,1.15,2.29,2.29,0,0,1-.79.65,2.18,2.18,0,0,1-.9.2,2,2,0,0,1-1.27-.36,2.2,2.2,0,0,1-.67-.9,3.61,3.61,0,0,1-.3-1.08c0-.39,0-.7,0-1a3.69,3.69,0,0,1,.34-1.71,3.34,3.34,0,0,1,.85-1.13,5,5,0,0,1,1.2-.76l1.33-.61a3.4,3.4,0,0,0,.7-.45,1.61,1.61,0,0,0,.27-.41h.07Z"></path><path class="cls-2" d="M291.46,249.15V224.74h-2.32v-.49h6.62v13.66h.07q.14-.32.48-.93a4.71,4.71,0,0,1,1-1.23,6.27,6.27,0,0,1,1.71-1.08,6.58,6.58,0,0,1,2.62-.46,4.78,4.78,0,0,1,3.61,1.34,5.09,5.09,0,0,1,1.29,3.67v9.93h2.36v.49h-8.84v-.49h2.18V238a3.25,3.25,0,0,0-.6-2.17,2.06,2.06,0,0,0-1.62-.68,3.47,3.47,0,0,0-1.62.4,3.8,3.8,0,0,0-1.35,1.22,6.75,6.75,0,0,0-.94,2,10.25,10.25,0,0,0-.35,2.82v7.54H298v.49h-8.84v-.49Z"></path><path class="cls-2" d="M318.93,250a11.91,11.91,0,0,1-2.27-.44,7.62,7.62,0,0,1-2.52-1.25,7.2,7.2,0,0,1-2-2.39,7.85,7.85,0,0,1-.85-3.84,7.51,7.51,0,0,1,.55-2.68,8.16,8.16,0,0,1,1.62-2.59,9,9,0,0,1,2.71-2,8.59,8.59,0,0,1,3.79-.79,9.65,9.65,0,0,1,2.43.28,6.45,6.45,0,0,1,1.88.79,3.73,3.73,0,0,1,1.23,1.24,2.94,2.94,0,0,1,.44,1.6,2,2,0,0,1-.59,1.64,2.72,2.72,0,0,1-1.69.47,3.72,3.72,0,0,1-1.5-.3,1.21,1.21,0,0,1-.69-1.25,2.34,2.34,0,0,1,.09-.49c.06-.24.12-.48.18-.74s.11-.51.17-.74a2.45,2.45,0,0,0,.09-.49,1.27,1.27,0,0,0-.62-1.11,2.73,2.73,0,0,0-1.53-.41,3.08,3.08,0,0,0-2,.6,3.82,3.82,0,0,0-1.15,1.6,8.23,8.23,0,0,0-.53,2.33c-.08.88-.12,1.81-.12,2.8s0,1.83.1,2.74a8.11,8.11,0,0,0,.57,2.5,4.34,4.34,0,0,0,1.34,1.84,3.7,3.7,0,0,0,2.39.7,5.13,5.13,0,0,0,4-1.71,5.6,5.6,0,0,0,.89-1.37,5.75,5.75,0,0,0,.37-1l.5.17a8.13,8.13,0,0,1-.55,1.39,4.71,4.71,0,0,1-1.07,1.41,6,6,0,0,1-1.82,1.11,7.48,7.48,0,0,1-2.8.46h-.38l-2.05,2,.07.07a7.4,7.4,0,0,1,.88-.33,3.08,3.08,0,0,1,2.15.07,3.5,3.5,0,0,1,1,.61,2.84,2.84,0,0,1,.73.95,2.91,2.91,0,0,1,.26,1.2,3,3,0,0,1-.34,1.46,3.18,3.18,0,0,1-.89,1,4.1,4.1,0,0,1-1.29.64,5.21,5.21,0,0,1-1.46.21,3.64,3.64,0,0,1-1.51-.27,6.6,6.6,0,0,1-1.31-.79l.32-.42a7.62,7.62,0,0,0,1,.58,2.48,2.48,0,0,0,1.09.19,1.38,1.38,0,0,0,.85-.23,1.57,1.57,0,0,0,.49-.59,3,3,0,0,0,.25-.82,6.36,6.36,0,0,0,.07-.86c0-.23,0-.49,0-.77a2,2,0,0,0-.16-.76,1.51,1.51,0,0,0-.4-.56,1.1,1.1,0,0,0-.76-.23,2.43,2.43,0,0,0-1.3.35l-.5-.49Z"></path><path class="cls-2" d="M342.3,246.54a4.75,4.75,0,0,1-.93,1.35,5,5,0,0,1-1.57,1.22,4.88,4.88,0,0,1-2.37.54A4,4,0,0,1,335,249a4.08,4.08,0,0,1-1.33-1.71,6.88,6.88,0,0,1-.57-2.32c-.06-.86-.11-1.72-.11-2.55v-1.58h10.4a6.92,6.92,0,0,0-.63-3.09,6.25,6.25,0,0,0-3.84-3.29,7.87,7.87,0,0,0-2.48-.38,7.77,7.77,0,0,0-3.22.67,8.67,8.67,0,0,0-2.6,1.81,7.75,7.75,0,0,0-1.73,2.54,7.16,7.16,0,0,0-.63,3,8.19,8.19,0,0,0,.65,3.4,7.15,7.15,0,0,0,1.85,2.53,8,8,0,0,0,2.77,1.6,10.51,10.51,0,0,0,3.41.54,7.14,7.14,0,0,0,2.64-.45,6.17,6.17,0,0,0,1.84-1.08,5.1,5.1,0,0,0,1.15-1.42,5.84,5.84,0,0,0,.61-1.42l-.49-.18A4.1,4.1,0,0,1,342.3,246.54Zm-9.22-8.14a6.09,6.09,0,0,1,.4-1.87,3,3,0,0,1,1-1.42,2.65,2.65,0,0,1,1.85-.57,1.9,1.9,0,0,1,1.31.39,2.28,2.28,0,0,1,.7.94,4.69,4.69,0,0,1,.25,1.13c0,.38,0,.7,0,.95v2.36h-5.64C333,239.71,333,239.05,333.08,238.4Z"></path><path class="cls-3" d="M356.78,239.15a.06.06,0,0,0-.06,0s-.2,1.78-.72,4.41a64,64,0,0,1-2.58,9.44,36.38,36.38,0,0,1-2.16,4.71c-.37.73-.78,1.41-1.17,2.05a16.34,16.34,0,0,1-1.21,1.73,13.68,13.68,0,0,1-1.17,1.34c-.37.39-.73.68-1,.94a5.43,5.43,0,0,1-.48.36l-.44,0h-.09l-.12,0c-1,.34-2,.69-3,1.07l-.14.07-.17.08-.26.08-.52.18c-.36.11-.76.13-1.14.21a8.67,8.67,0,0,1-1.17.17l-1.23,0-1.23.05c-.41,0-.78,0-1.2,0L333,266c-.8-.09-1.6-.23-2.4-.35a7.88,7.88,0,0,1-1.19-.26l-1.18-.31c-.38-.12-.75-.3-1.13-.44a5.45,5.45,0,0,1-1.09-.52,6.13,6.13,0,0,1-1-.66,4.61,4.61,0,0,1-.88-.83s-.05,0-.07,0a.06.06,0,0,0,0,.08,4.59,4.59,0,0,0,.85.91,6,6,0,0,0,1,.74,5.84,5.84,0,0,0,1.09.61c.38.17.75.37,1.13.52l1.19.39a7.88,7.88,0,0,0,1.2.34c.81.16,1.62.33,2.44.47l2.48.23c.4,0,.85.09,1.25.08l1.24,0,1.23,0a9.3,9.3,0,0,0,1.27-.1,11.47,11.47,0,0,0,1.29-.19l.65-.19.33-.11.24-.14c1-.38,1.94-.79,2.91-1.21H347c.43,0,1.22-.11,1.65-.14.86-.07,1.15-.09,2-.22a1,1,0,0,0,.26-.1s1.54-.11,1.51-.11c-.87-.09-3.28-.11-4.13-.15-.42,0-.85,0-1.27-.09l-.31,0,.19-.09a7.77,7.77,0,0,0,1.22-.78,8.09,8.09,0,0,0,.69-.56,7.57,7.57,0,0,0,.72-.68,15.86,15.86,0,0,0,1.42-1.72,16.63,16.63,0,0,0,1.31-2.1,30.72,30.72,0,0,0,2-5,57.4,57.4,0,0,0,2.13-9.66c.37-2.67.46-4.46.46-4.46a.06.06,0,0,0-.05-.06Z"></path><path class="cls-3" d="M328.11,265.44a10.24,10.24,0,0,1,1.74,3.33,11.21,11.21,0,0,0,2.57,4.62,4.89,4.89,0,0,0,2,1.62,4.56,4.56,0,0,0-1.28-3.92c-1.63-1.63-2.37-1.56-2.51-2-.34-.61-1.35-2.71-1.35-2.71l-.61-.91Z"></path><path class="cls-3" d="M356.23,244.25a10.27,10.27,0,0,1,.7-3.69,11.33,11.33,0,0,0,.83-5.22,4.86,4.86,0,0,0-.53-2.49,4.55,4.55,0,0,0-1.42,3.88c.27,2.28.9,2.69.71,3.14-.11.69-.61,3-.61,3l-.67,4.51Z"></path><path class="cls-3" d="M334.41,266.55s.65.5,1.25,1.05a3.72,3.72,0,0,1,1,1.17c.2.69,1.94,4.69,3.81,5,1,.2,1.33.27.38-.95s-.88-2.25-1.42-2.62-1.89-1.1-1.89-1.1l-2.37-2.58Z"></path><path class="cls-3" d="M355,248.11s-.2-1.43-.29-2.23a3.65,3.65,0,0,0-.37-1.47c-1.69-1.57-2.6-4.36-1.75-6.06.43-.92.57-1.23,1,.25s1.28,2.06,1.24,2.71-.24,2.18-.24,2.18l.88,3.84Z"></path><path class="cls-3" d="M354.6,252.75s.62-.53,1.29-1a3.73,3.73,0,0,1,1.35-.69c.72,0,5-.88,5.73-2.64.41-.93.54-1.24-.85-.58s-2.39.38-2.86.83-1.49,1.61-1.49,1.61l-3,1.76Z"></path><path class="cls-3" d="M355,247.61s.6-.71,1.26-1.35a4.15,4.15,0,0,1,1.35-1,6,6,0,0,0,5.79-3.93c.34-1.14.45-1.53-1-.55s-2.5.79-2.94,1.38-1.4,2.11-1.4,2.11l-2.87,2.65Z"></path><path class="cls-3" d="M350.65,264.7s0,.15.6-.37a3.68,3.68,0,0,1,1.28-.8c.72-.12,4.9-1.34,5.47-3.15.33-1,.44-1.29-.89-.5s-2.35.59-2.78,1.08S353,262.7,353,262.7l-2.85,2Z"></path><path class="cls-3" d="M349,264.89a13.1,13.1,0,0,0,3.45-.4,5.14,5.14,0,0,1,2.1-.49c1,.2,7,.59,8.82-1.67,1-1.18,1.33-1.59-.83-1.15s-3.32-.35-4.16.13-2.74,1.77-2.74,1.77l-4.83,1.41Z"></path><path class="cls-3" d="M339.87,266.55s1.89,1.49,2.57,1.49a6.84,6.84,0,0,1,3.25,1.49c.47.61.67,1.42,1.56,1.63s.6.94-.75.81-3.95-1.21-4.54-3.2c-1.69-1.4-2.5-2.22-2.5-2.22Z"></path><path class="cls-3" d="M350.89,258.73s2.35-.52,2.78-1.05a6.92,6.92,0,0,1,3.21-1.57c.77,0,1.53.38,2.25-.17s1.11.13.15,1.09-3.44,2.29-5.35,1.48c-2.16.42-3.3.53-3.3.53Z"></path><path class="cls-3" d="M351.17,264.59s2.84,1.13,3.72.94a9.69,9.69,0,0,1,4.6.74c.77.56,1.24,1.42,2.43,1.39s1,.9-.76,1.14-5.44-.23-6.7-2.31c-2.55-1.1-3.81-1.79-3.81-1.79Z"></path><path class="cls-3" d="M351.23,264.71s.28,2.39-.07,3a6.75,6.75,0,0,0-.41,3.55c.27.72.86,1.32.58,2.18s.49,1,1.08-.22,1-4-.38-5.54c-.32-2.17-.59-3.29-.59-3.29Z"></path><path class="cls-3" d="M353,254.48s.42-3.11-.21-3.93a25.09,25.09,0,0,0-2.1-2.16s-.58-1.27-.5.9.55,3.43,1.83,3.79a2.5,2.5,0,0,1,.71,1.76c.2.36.41,0,.41,0Z"></path><path class="cls-1" d="M348.12,262.45s.34-2.66.34-3a6.79,6.79,0,0,0-.17-4.82c-.64-1.31-.87-1.13-1.09,0s-.65,3.21.55,4.42a12.3,12.3,0,0,1,0,4.32,2.08,2.08,0,0,0,.4-.91Z"></path><path class="cls-3" d="M342.24,265.85a3.6,3.6,0,0,1,1-1.26c.58-.41,1.94-1.85,1.8-3.07a9.69,9.69,0,0,0-.54-2.08c-.13-.31-.69-.27-.88,1.4a3.77,3.77,0,0,1-1,1.54,2.4,2.4,0,0,0-.36,2.21,1.48,1.48,0,0,1-.5,1.26Z"></path><path class="cls-3" d="M340.07,263s.45-.89.72-1.34.27-1.43-.72-.6a10.24,10.24,0,0,1-2.57,1.56c-.46.17-1.76,1.07-1.76,1.79a1.78,1.78,0,0,1-1.38,1.93,1.41,1.41,0,0,0,.77.26c.33-.47.88-1.08,1.06-1.39s1.22-.34,1.94-.43a2.45,2.45,0,0,0,1.94-1.78Z"></path><path class="cls-3" d="M328.11,265.18a3.1,3.1,0,0,1,1.94-1.36c1.22-.18,2.75-.42,3.34-1.25a12.24,12.24,0,0,1,1-1.23c.38-.45.29-.93-1-.33a20.86,20.86,0,0,1-2.13.74c-.85.36-1.12,1.25-1.48,1.61a24.26,24.26,0,0,1-2.17,1.53Z"></path><path class="cls-3" d="M144.21,239.15a.06.06,0,0,1,.06,0s.2,1.78.72,4.41a64,64,0,0,0,2.58,9.44,37.75,37.75,0,0,0,2.15,4.71c.38.73.78,1.41,1.18,2.05a15,15,0,0,0,1.21,1.73,13.68,13.68,0,0,0,1.17,1.34c.37.39.73.68,1,.94s.33.26.47.36l.45,0h.09l.12,0c1,.34,2,.69,3,1.07l.14.07.17.08.26.08.52.18c.36.11.76.13,1.14.21a8.52,8.52,0,0,0,1.16.17l1.24,0,1.23.05c.41,0,.78,0,1.2,0L168,266c.8-.09,1.6-.23,2.4-.35a8.15,8.15,0,0,0,1.19-.26l1.17-.31c.39-.12.76-.3,1.14-.44a5.45,5.45,0,0,0,1.09-.52,6.13,6.13,0,0,0,1-.66,4.61,4.61,0,0,0,.88-.83s0,0,.07,0a.06.06,0,0,1,0,.08,4.27,4.27,0,0,1-.84.91,6.46,6.46,0,0,1-1,.74,5.84,5.84,0,0,1-1.09.61c-.38.17-.75.37-1.14.52l-1.18.39a8.59,8.59,0,0,1-1.2.34c-.81.16-1.63.33-2.45.47l-2.47.23c-.4,0-.85.09-1.26.08l-1.23,0-1.23,0a9.3,9.3,0,0,1-1.27-.1,12,12,0,0,1-1.3-.19l-.64-.19-.33-.11-.24-.14c-1-.38-1.95-.79-2.91-1.21H154c-.43,0-1.22-.11-1.65-.14-.87-.07-1.15-.09-2-.22a1,1,0,0,1-.26-.1s-1.54-.11-1.51-.11c.86-.09,3.28-.11,4.13-.15.42,0,.84,0,1.26-.09l.32,0-.19-.09a7.34,7.34,0,0,1-1.22-.78,8.09,8.09,0,0,1-.69-.56,6.54,6.54,0,0,1-.72-.68,17.16,17.16,0,0,1-1.43-1.72,17.82,17.82,0,0,1-1.3-2.1,30.72,30.72,0,0,1-2-5,56.43,56.43,0,0,1-2.13-9.66c-.37-2.67-.46-4.46-.46-4.46a.06.06,0,0,1,.05-.06Z"></path><path class="cls-3" d="M172.87,265.44a10.29,10.29,0,0,0-1.73,3.33,11.21,11.21,0,0,1-2.57,4.62,4.89,4.89,0,0,1-2,1.62,4.56,4.56,0,0,1,1.28-3.92c1.63-1.63,2.37-1.56,2.51-2,.34-.61,1.35-2.71,1.35-2.71l.61-.91Z"></path><path class="cls-3" d="M144.76,244.25a10.27,10.27,0,0,0-.7-3.69,11.33,11.33,0,0,1-.84-5.22,4.91,4.91,0,0,1,.54-2.49,4.55,4.55,0,0,1,1.42,3.88c-.27,2.28-.9,2.69-.71,3.14.11.69.61,3,.61,3l.67,4.51Z"></path><path class="cls-3" d="M166.58,266.55s-.65.5-1.25,1.05a3.72,3.72,0,0,0-1,1.17c-.2.69-1.94,4.69-3.81,5-1,.2-1.33.27-.39-.95s.88-2.25,1.43-2.62,1.89-1.1,1.89-1.1l2.37-2.58Z"></path><path class="cls-3" d="M146,248.11s.2-1.43.29-2.23a3.65,3.65,0,0,1,.37-1.47c1.69-1.57,2.6-4.36,1.75-6.06-.43-.92-.58-1.23-1,.25s-1.28,2.06-1.25,2.71.25,2.18.25,2.18l-.88,3.84Z"></path><path class="cls-3" d="M146.39,252.75s-.62-.53-1.29-1a3.73,3.73,0,0,0-1.35-.69c-.72,0-5-.88-5.73-2.64-.41-.93-.55-1.24.85-.58s2.39.38,2.86.83,1.49,1.61,1.49,1.61l3,1.76Z"></path><path class="cls-3" d="M146,247.61s-.6-.71-1.26-1.35a4.06,4.06,0,0,0-1.36-1,6,6,0,0,1-5.78-3.93c-.34-1.14-.45-1.53,1-.55s2.49.79,2.94,1.38,1.4,2.11,1.4,2.11l2.87,2.65Z"></path><path class="cls-3" d="M150.34,264.7s0,.15-.6-.37a3.77,3.77,0,0,0-1.28-.8c-.72-.12-4.9-1.34-5.47-3.15-.33-1-.44-1.29.89-.5s2.35.59,2.77,1.08S148,262.7,148,262.7l2.85,2Z"></path><path class="cls-3" d="M152,264.89a13.1,13.1,0,0,1-3.45-.4,5.14,5.14,0,0,0-2.1-.49c-1,.2-7,.59-8.82-1.67-1-1.18-1.33-1.59.83-1.15s3.32-.35,4.16.13,2.74,1.77,2.74,1.77l4.83,1.41Z"></path><path class="cls-3" d="M161.12,266.55s-1.89,1.49-2.57,1.49a6.8,6.8,0,0,0-3.25,1.49c-.47.61-.68,1.42-1.56,1.63s-.61.94.75.81,3.95-1.21,4.53-3.2c1.7-1.4,2.51-2.22,2.51-2.22Z"></path><path class="cls-3" d="M150.1,258.73s-2.35-.52-2.78-1.05a6.92,6.92,0,0,0-3.21-1.57c-.78,0-1.53.38-2.25-.17s-1.12.13-.15,1.09,3.44,2.29,5.35,1.48c2.15.42,3.3.53,3.3.53Z"></path><path class="cls-3" d="M149.81,264.59s-2.83,1.13-3.71.94a9.69,9.69,0,0,0-4.6.74c-.77.56-1.24,1.42-2.43,1.39s-1,.9.76,1.14,5.44-.23,6.7-2.31c2.55-1.1,3.81-1.79,3.81-1.79Z"></path><path class="cls-3" d="M149.76,264.71s-.29,2.39.07,3a6.75,6.75,0,0,1,.41,3.55c-.27.72-.86,1.32-.58,2.18s-.49,1-1.08-.22-1-4,.38-5.54c.32-2.17.59-3.29.59-3.29Z"></path><path class="cls-3" d="M148,254.48s-.42-3.11.21-3.93a25.09,25.09,0,0,1,2.1-2.16s.58-1.27.5.9-.55,3.43-1.84,3.79a2.54,2.54,0,0,0-.71,1.76c-.19.36-.4,0-.4,0Z"></path><path class="cls-1" d="M152.87,262.45s-.34-2.66-.34-3a6.73,6.73,0,0,1,.17-4.82c.64-1.31.86-1.13,1.09,0s.65,3.21-.55,4.42a12.3,12.3,0,0,0,0,4.32,2.08,2.08,0,0,1-.4-.91Z"></path><path class="cls-3" d="M158.75,265.85a3.6,3.6,0,0,0-1-1.26c-.59-.41-1.94-1.85-1.8-3.07a9.69,9.69,0,0,1,.54-2.08c.13-.31.68-.27.88,1.4a3.67,3.67,0,0,0,1,1.54,2.4,2.4,0,0,1,.36,2.21,1.48,1.48,0,0,0,.5,1.26Z"></path><path class="cls-3" d="M160.92,263s-.45-.89-.72-1.34-.27-1.43.72-.6a10.24,10.24,0,0,0,2.57,1.56c.45.17,1.76,1.07,1.76,1.79a1.78,1.78,0,0,0,1.38,1.93,1.41,1.41,0,0,1-.77.26c-.33-.47-.88-1.08-1.06-1.39s-1.22-.34-1.94-.43a2.45,2.45,0,0,1-1.94-1.78Z"></path><path class="cls-3" d="M172.87,265.18a3.07,3.07,0,0,0-1.93-1.36c-1.22-.18-2.75-.42-3.34-1.25a12.24,12.24,0,0,0-1-1.23c-.38-.45-.29-.93,1-.33a21.77,21.77,0,0,0,2.12.74c.86.36,1.13,1.25,1.49,1.61a24.26,24.26,0,0,0,2.17,1.53Z"></path><path class="cls-3" d="M250,195.57c-77,0-137.31,23.91-137.31,54.42S173,304.43,250,304.43,387.31,280.52,387.31,250,327,195.57,250,195.57Zm94.71,89.26C319.46,294.59,285.81,300,250,300s-69.46-5.39-94.73-15.15C131,275.47,117.13,262.77,117.13,250s13.89-25.46,38.14-34.82C180.54,205.41,214.19,200,250,200s69.46,5.39,94.71,15.15c24.24,9.36,38.16,22.06,38.16,34.82S369,275.47,344.71,284.83Z"></path><path class="cls-4" d="M350,207.39c-26.75-10.94-62.26-17-100-17s-73.24,6-100,17c-27.38,11.19-42.44,26.32-42.44,42.6s15.06,31.43,42.44,42.62c26.75,10.94,62.26,17,100,17s73.24-6,100-17c27.38-11.19,42.44-26.32,42.44-42.62S377.37,218.58,350,207.39ZM250,305.15c-76.09,0-138-24.74-138-55.16s61.9-55.14,138-55.14S388,219.59,388,250,326.09,305.15,250,305.15Z"></path><text class="cls-5" transform="translate(202.21 271.75)">R<tspan class="cls-6" x="11.73" y="0">estau</tspan><tspan class="cls-7" x="61.31" y="0">r</tspan><tspan class="cls-6" x="68.61" y="0">a</tspan><tspan class="cls-8" x="79.13" y="0">n</tspan><tspan class="cls-6" x="91.03" y="0">t</tspan><tspan class="cls-9"><tspan x="0" y="15.45">C</tspan><tspan class="cls-10" x="10.7" y="15.45">a</tspan><tspan class="cls-11" x="19.81" y="15.45">f</tspan><tspan class="cls-10" x="25.37" y="15.45">e&amp; Bist</tspan><tspan class="cls-12" x="79.49" y="15.45">r</tspan><tspan class="cls-10" x="85.72" y="15.45">o</tspan></tspan></text><path class="cls-2" d="M212.11,219.45a.62.62,0,0,1,0,.23.26.26,0,0,1-.09.1,2.59,2.59,0,0,1-.5.25l-.58.19-.61.13-.59.08a6.26,6.26,0,0,1-1.68,0,4.4,4.4,0,0,1-1.47-.49,3.28,3.28,0,0,1-1.08-1,3.6,3.6,0,0,1-.52-1.59,3.87,3.87,0,0,1,0-1,3.13,3.13,0,0,1,.28-.88,3.09,3.09,0,0,1,.46-.71,3.31,3.31,0,0,1,.58-.55,3.72,3.72,0,0,1,1.26-.63,9.38,9.38,0,0,1,1.23-.22,4.36,4.36,0,0,1,.51,0,4.42,4.42,0,0,1,.51,0h.68l.37,0h.39a.2.2,0,0,1,.11,0,.09.09,0,0,1,0,.07v.12c0,.06,0,.14,0,.25s0,.26,0,.44,0,.42.06.71,0,.21-.11.22-.08,0-.11-.11a2.68,2.68,0,0,0-.11-.35,1.07,1.07,0,0,0-.29-.37,1.67,1.67,0,0,0-.31-.2,3.05,3.05,0,0,0-.47-.19,4.48,4.48,0,0,0-.61-.11,3.7,3.7,0,0,0-.74,0l-.4.05a3.63,3.63,0,0,0-.45.1,1.76,1.76,0,0,0-.46.22,2.44,2.44,0,0,0-.46.35,2.18,2.18,0,0,0-.55.92,3.42,3.42,0,0,0-.1,1.4,3.85,3.85,0,0,0,.37,1.35,3.23,3.23,0,0,0,.77,1,3,3,0,0,0,1.1.6,3.57,3.57,0,0,0,1.4.11l.34,0a1,1,0,0,0,.32-.12.32.32,0,0,0,.15-.35l-.08-.84q0-.34-.06-.6c0-.17,0-.33-.06-.47a.64.64,0,0,0-.13-.33.73.73,0,0,0-.33-.13H210l-.2,0c-.1,0-.16,0-.16-.08s.06-.1.19-.11l.4,0,.41,0,.37,0,.28,0,.55-.06.56-.07c.13,0,.19,0,.2.06s0,.11-.11.11l-.25.06a.45.45,0,0,0-.27.17.75.75,0,0,0-.05.37c0,.14,0,.3,0,.48s0,.39.06.62Z"></path><path class="cls-2" d="M225.19,211.13a.49.49,0,0,0,.12-.38.42.42,0,0,0-.16-.36.52.52,0,0,0-.36-.09.45.45,0,0,0-.38.18.76.76,0,0,0-.09.36.45.45,0,0,0,.13.32.43.43,0,0,0,.38.15A.47.47,0,0,0,225.19,211.13Zm-2.27.14a.49.49,0,0,0,.11-.38.41.41,0,0,0-.16-.34.52.52,0,0,0-.36-.11.49.49,0,0,0-.38.2.51.51,0,0,0,.43.81A.52.52,0,0,0,222.92,211.27Zm.34,7.31a2.32,2.32,0,0,1-.95-.66,2.74,2.74,0,0,1-.63-1,5,5,0,0,1-.3-1.33,4.34,4.34,0,0,1,.14-1.39,2.31,2.31,0,0,1,.49-.91,2.29,2.29,0,0,1,.7-.49,2.65,2.65,0,0,1,.82-.16,2.52,2.52,0,0,1,2,.77,3.12,3.12,0,0,1,.66,1,4.38,4.38,0,0,1,.29,1.35,4,4,0,0,1-.16,1.58,2.2,2.2,0,0,1-.54.93,1.66,1.66,0,0,1-.7.42,1.91,1.91,0,0,1-.61.14A2.78,2.78,0,0,1,223.26,218.58Zm2.5.33A3.85,3.85,0,0,0,227,218a3.64,3.64,0,0,0,.72-1.24,4.07,4.07,0,0,0,.18-1.48,3.42,3.42,0,0,0-.36-1.42,3,3,0,0,0-.84-1,3.52,3.52,0,0,0-1.26-.61,5.41,5.41,0,0,0-1.65-.16,4.53,4.53,0,0,0-1.8.45,3.45,3.45,0,0,0-1.83,2.17,4.1,4.1,0,0,0-.13,1.24,3.65,3.65,0,0,0,.29,1.24,3,3,0,0,0,.75,1.1,3.56,3.56,0,0,0,1.26.79,4.58,4.58,0,0,0,1.8.23A4.81,4.81,0,0,0,225.76,218.91Z"></path><path class="cls-2" d="M237.45,214.71h0l.4-.43.59-.62.58-.62.38-.41.33-.4a.48.48,0,0,0,.12-.29.16.16,0,0,0-.13-.18c-.09,0-.13,0-.13-.1s.05-.08.15-.09H241l.3,0h.56c.1,0,.16,0,.16.08s0,.1-.14.1l-.26,0a1.23,1.23,0,0,0-.29.09,2.34,2.34,0,0,0-.46.25,5.58,5.58,0,0,0-.53.45l-.22.23-.35.35-.41.41c-.15.14-.28.28-.41.41l-.34.37c-.11.1-.18.19-.23.24s.16.18.29.33l.47.48c.18.17.36.36.55.56l.56.55.47.46.31.29.63.54a2.29,2.29,0,0,0,.69.41,1.33,1.33,0,0,0,.36.09.94.94,0,0,0,.23,0c.09,0,.13,0,.13.1a.08.08,0,0,1-.05.08l-.17,0-.84,0h-.66a1.77,1.77,0,0,1-.65-.16,3.57,3.57,0,0,1-.6-.41,2.46,2.46,0,0,1-.32-.3l-.47-.49c-.18-.18-.36-.38-.54-.58l-.53-.58-.42-.47-.24-.27-.1-.13h0l0,.83c0,.43,0,.81,0,1.16s0,.61,0,.81a.86.86,0,0,0,.1.32.36.36,0,0,0,.26.15l.24,0h.23a.12.12,0,0,1,.09,0,.08.08,0,0,1,0,.07c0,.06-.06.09-.18.1h-1.68l-.31,0-.35,0h-.31c-.13,0-.19,0-.19-.09a.09.09,0,0,1,0-.06s.06,0,.12,0a1.34,1.34,0,0,0,.33,0,.3.3,0,0,0,.21-.16,1.39,1.39,0,0,0,.06-.34,6.21,6.21,0,0,0,0-.8c0-.35,0-.73,0-1.16l-.05-1.62c0-.35,0-.63,0-.85s0-.4,0-.54,0-.24,0-.33,0-.16,0-.23a.51.51,0,0,0-.11-.33.56.56,0,0,0-.31-.16l-.16,0h-.22c-.11,0-.16,0-.16-.09s.07-.09.21-.1h1.91l.35,0h.29c.14,0,.21,0,.21.08s0,.1-.12.1h-.13l-.14,0a.44.44,0,0,0-.27.15.87.87,0,0,0-.08.36v.56c0,.14,0,.32,0,.54s0,.5,0,.85Z"></path><path class="cls-2" d="M251.45,212l-1.42,0a2.6,2.6,0,0,0-.61.07.54.54,0,0,0-.31.21.62.62,0,0,0-.11.18l-.06.14c0,.07-.06.12-.11.11s-.08,0-.08-.15,0-.11,0-.22,0-.24.07-.36,0-.24.07-.34,0-.17.05-.19.06-.18.11-.18a.39.39,0,0,1,.14.05.72.72,0,0,0,.27.06l.46,0h.49l3.87,0h.38l.27,0,.18,0h.08s.07.06.07.19v.22c0,.1,0,.21,0,.32s0,.23,0,.33v.25q0,.15-.09.15c-.07,0-.1-.06-.11-.19v-.09a.64.64,0,0,0-.06-.18.53.53,0,0,0-.19-.17,1.1,1.1,0,0,0-.34-.13,2,2,0,0,0-.53-.06l-1.21,0v4.88c0,.35,0,.62,0,.82a1.12,1.12,0,0,0,.09.32.35.35,0,0,0,.28.16l.24,0h.25a.17.17,0,0,1,.12,0,.09.09,0,0,1,0,.06c0,.07-.06.1-.19.1l-.9,0-.63,0h-1.25c-.12,0-.18,0-.18-.1a.13.13,0,0,1,0-.07.17.17,0,0,1,.12,0,1.58,1.58,0,0,0,.34,0,.24.24,0,0,0,.2-.16,1.14,1.14,0,0,0,.08-.33,7.64,7.64,0,0,0,0-.8c0-.35,0-.73,0-1.16Z"></path><path class="cls-2" d="M267.88,210.8a.54.54,0,0,0,.16-.36.49.49,0,0,0-.13-.37.54.54,0,0,0-.37-.13.38.38,0,0,0-.38.16.51.51,0,0,0-.13.31.52.52,0,0,0,.11.36.37.37,0,0,0,.36.18A.46.46,0,0,0,267.88,210.8Zm-2.28-.07a.53.53,0,0,0,.14-.38.35.35,0,0,0-.11-.34.58.58,0,0,0-.36-.14.39.39,0,0,0-.39.16.47.47,0,0,0-.13.32.59.59,0,0,0,.09.33.41.41,0,0,0,.38.18A.55.55,0,0,0,265.6,210.73Zm4.24,1.15h-.31a1.94,1.94,0,0,1-.34,0h-.45c-.16,0-.29,0-.41,0a2.49,2.49,0,0,1-.36,0,2.42,2.42,0,0,1-.38,0c-.11,0-.18,0-.18.09s0,.09.16.11h.18a.3.3,0,0,1,.16,0,.55.55,0,0,1,.29.15,1,1,0,0,1,.09.34v.57c0,.13,0,.31,0,.54s0,.49,0,.85l0,1.15a4.61,4.61,0,0,1-.05.68,2.24,2.24,0,0,1-.09.61,1.4,1.4,0,0,1-.18.52,1.11,1.11,0,0,1-.31.4,1.49,1.49,0,0,1-.63.39,4.25,4.25,0,0,1-.66.07,3.25,3.25,0,0,1-.58-.07,1.63,1.63,0,0,1-.61-.34,1,1,0,0,1-.3-.34,1.56,1.56,0,0,1-.22-.43,4.17,4.17,0,0,1-.12-.63c0-.22,0-.52,0-.86l.05-1.28c0-.36,0-.63,0-.86V213a1.36,1.36,0,0,0,0-.31c0-.1,0-.16,0-.25a.89.89,0,0,1,.11-.34.44.44,0,0,1,.25-.14.5.5,0,0,1,.16,0h.13c.09,0,.16,0,.16-.09s-.07-.09-.2-.09a1.62,1.62,0,0,0-.32,0h-.92l-.25,0-.36,0a2.82,2.82,0,0,1-.41,0,2.68,2.68,0,0,1-.4,0c-.14,0-.21,0-.21.09s.05.09.16.11h.2a.22.22,0,0,1,.16.05.73.73,0,0,1,.32.15,1.23,1.23,0,0,1,.09.34v.25c0,.07,0,.18,0,.32s0,.31,0,.54,0,.49,0,.85l-.05,1.36a3.79,3.79,0,0,0,.21,1.55,2.1,2.1,0,0,0,.58.9,1.86,1.86,0,0,0,.54.39,2.94,2.94,0,0,0,.59.2,2.33,2.33,0,0,0,.56.09,4.12,4.12,0,0,0,.46,0,3.79,3.79,0,0,0,1-.06,2.54,2.54,0,0,0,1-.52,2,2,0,0,0,.51-.54,3,3,0,0,0,.3-.68c.06-.25.11-.5.16-.74s0-.52,0-.77l0-1c0-.34,0-.63,0-.86s0-.38,0-.52,0-.25,0-.34a.51.51,0,0,1,0-.22.76.76,0,0,1,.09-.36.35.35,0,0,1,.27-.14l.13,0h.14c.11,0,.18,0,.18-.09S270,211.88,269.84,211.88Z"></path><path class="cls-2" d="M284.48,219.59s-.05,0-.09,0a.23.23,0,0,0-.11,0,.21.21,0,0,1-.12,0l-.13,0-.23-.09a1.24,1.24,0,0,1-.27-.21,3.44,3.44,0,0,1-.34-.33c-.27-.32-.56-.68-.88-1.11s-.65-1-1-1.49a4.4,4.4,0,0,0,1.08-1,1.73,1.73,0,0,0,.38-1,1.43,1.43,0,0,0,0-.42,1,1,0,0,0-.14-.39,2.11,2.11,0,0,0-.2-.29.94.94,0,0,0-.2-.2,2.24,2.24,0,0,0-.84-.39,6.61,6.61,0,0,0-.94-.13,1.44,1.44,0,0,1-.32,0,3,3,0,0,1-.41,0l-.42,0a1.67,1.67,0,0,1-.34,0l-.52-.05-.77-.07c-.13,0-.22,0-.22.09s0,.09.15.09a.56.56,0,0,0,.23,0l.16,0a.69.69,0,0,1,.29.18.59.59,0,0,1,.07.34v.25a2,2,0,0,1,0,.31c0,.14,0,.32-.05.55s0,.49,0,.85l-.12,1.63c0,.4-.06.79-.09,1.15a7.68,7.68,0,0,1-.09.79,1.28,1.28,0,0,1-.11.33.32.32,0,0,1-.2.14,1,1,0,0,1-.34,0,.26.26,0,0,0-.14,0,.1.1,0,0,0,0,.07c0,.07.05.11.18.11a2,2,0,0,1,.32,0h.34c.11,0,.2,0,.29,0h.2c.05,0,.11,0,.23,0l.38.05a3.44,3.44,0,0,1,.43,0l.45,0c.13,0,.2,0,.2-.09a.23.23,0,0,0,0-.07s-.05,0-.09,0l-.23,0a2,2,0,0,1-.24,0,.37.37,0,0,1-.27-.18,1,1,0,0,1-.05-.33c0-.18,0-.45,0-.79s.05-.72.07-1.18l0-.11c0-.07,0-.09.07-.09l.86.09a.26.26,0,0,1,.18.07l.11.2a1.49,1.49,0,0,0,.2.32,4.1,4.1,0,0,0,.23.4,2.91,2.91,0,0,1,.24.41c.25.38.48.68.64.92a2,2,0,0,0,.58.52,1.07,1.07,0,0,0,.41.16,2.47,2.47,0,0,0,.61.09l.9.07c.13,0,.2,0,.2-.09A.1.1,0,0,0,284.48,219.59ZM280.8,216a.72.72,0,0,1-.27.09,2.32,2.32,0,0,1-.43,0c-.11,0-.24,0-.36-.05a1.93,1.93,0,0,1-.33-.09.17.17,0,0,1-.09-.18l.2-2.73a.12.12,0,0,1,.09-.13h.22a2.89,2.89,0,0,1,.79.11,1.25,1.25,0,0,1,.45.29,1.32,1.32,0,0,1,.34.55,1.65,1.65,0,0,1,.09.81,1.48,1.48,0,0,1-.27.85A1.61,1.61,0,0,1,280.8,216Z"></path><path class="cls-2" d="M293.33,216.72h0l.45-.37.67-.54.66-.53.43-.36.38-.35a.52.52,0,0,0,.17-.27.17.17,0,0,0-.11-.2c-.09,0-.13-.07-.12-.11s.06-.08.16-.07l.2,0,.27,0,.27,0,.24,0,.25,0,.3,0,.3,0,.26,0c.1,0,.16.05.15.1s-.06.1-.15.09h-.27l-.29,0a2.74,2.74,0,0,0-.49.19,4.06,4.06,0,0,0-.59.38l-.25.19-.4.3-.46.35c-.16.12-.32.24-.46.36l-.39.31a2.39,2.39,0,0,0-.26.22l.25.36.39.54c.16.19.31.4.48.63l.47.62.41.52c.12.15.2.26.26.32l.56.63a2.36,2.36,0,0,0,.63.5,1.44,1.44,0,0,0,.34.14l.22,0c.09,0,.13,0,.12.11a.07.07,0,0,1-.05.07.53.53,0,0,1-.18,0l-.83-.09-.36,0-.3,0a1.75,1.75,0,0,1-.62-.25,3.73,3.73,0,0,1-.54-.48c-.06-.07-.16-.18-.28-.34l-.4-.56c-.15-.2-.3-.42-.46-.65l-.44-.64-.35-.52c-.1-.15-.17-.25-.2-.31l-.08-.14h0l-.09.83c-.05.42-.09.8-.13,1.14s-.06.62-.07.82a.81.81,0,0,0,.06.33.34.34,0,0,0,.23.18l.23,0,.23,0a.13.13,0,0,1,.09.05.09.09,0,0,1,0,.06c0,.07-.07.09-.19.08l-.42,0-.42-.06-.36-.05-.24,0-.23,0-.31,0-.35,0-.31,0c-.12,0-.18,0-.17-.12a.07.07,0,0,1,0-.06s.06,0,.12,0a1.26,1.26,0,0,0,.33,0,.28.28,0,0,0,.23-.14,1.3,1.3,0,0,0,.11-.32c0-.19.08-.46.13-.8s.08-.72.13-1.14l.18-1.62c0-.34.07-.62.09-.84s0-.4.06-.53a2.48,2.48,0,0,0,0-.33c0-.09,0-.16,0-.23a.76.76,0,0,0-.06-.35.69.69,0,0,0-.29-.2l-.16,0-.22,0c-.1,0-.15-.05-.15-.11s.08-.08.23-.07l.76.1.56.07.24,0,.34,0,.35,0,.29,0c.13,0,.2.05.19.1s-.05.1-.14.09H294a.38.38,0,0,0-.28.11.85.85,0,0,0-.13.35c0,.07,0,.14,0,.23s0,.19,0,.32,0,.32-.06.54-.06.5-.1.84Z"></path></svg>