<svg xmlns="http://www.w3.org/2000/svg" id="Layer_1" data-name="Layer 1" viewBox="0 0 500 500"><defs><style>.cls-1{fill-rule:evenodd;}.cls-2{stroke:#231f20;stroke-miterlimit:3.86;stroke-width:0.26px;}</style></defs><polygon class="cls-1" points="102.98 223.65 84.7 223.65 84.7 240.09 102.51 240.09 102.51 242.79 84.7 242.79 84.7 263.5 102.98 263.5 102.98 266.2 81.89 266.2 81.89 220.95 102.98 220.95 102.98 223.65"></polygon><path class="cls-1" d="M146,226.71l-2,1.68q-3.28-5.34-9-5.34a7.86,7.86,0,0,0-5.92,2.52,8.56,8.56,0,0,0-2.4,6.12,6.53,6.53,0,0,0,2.7,5.28,30.7,30.7,0,0,0,5.27,3.19l8.43,4.5q5,2.7,5,9A12.27,12.27,0,0,1,144,263a13.93,13.93,0,0,1-9.66,3.78,12.76,12.76,0,0,1-8-2.64,15.07,15.07,0,0,1-5-7.08l2.46-1.14q3.17,8.16,10.66,8.16a10.59,10.59,0,0,0,7.62-3.12,10.07,10.07,0,0,0,3.28-7.56,7.26,7.26,0,0,0-3.05-5.76c-.7-.52-2.66-1.66-5.86-3.42l-8-4.32q-4.58-2.46-4.57-8.11a11.15,11.15,0,0,1,3.16-8.22,10.88,10.88,0,0,1,8.14-3.24,12.06,12.06,0,0,1,6.27,1.74A11.52,11.52,0,0,1,146,226.71Z"></path><polygon class="cls-1" points="177.25 223.65 177.25 266.2 174.44 266.2 174.44 223.65 163.02 223.65 163.02 220.95 188.67 220.95 188.67 223.65 177.25 223.65"></polygon><polygon class="cls-1" points="226.83 223.65 208.56 223.65 208.56 240.09 226.36 240.09 226.36 242.79 208.56 242.79 208.56 263.5 226.83 263.5 226.83 266.2 205.75 266.2 205.75 220.95 226.83 220.95 226.83 223.65"></polygon><polygon class="cls-1" points="258.78 226.11 258.78 266.2 253.28 266.2 253.28 226.11 242.8 226.11 242.8 220.95 269.27 220.95 269.27 226.11 258.78 226.11"></polygon><polygon class="cls-1" points="285.58 266.2 285.58 220.95 309.3 220.95 309.3 226.11 291.09 226.11 291.09 238.78 308.77 238.78 308.77 243.94 291.09 243.94 291.09 261.04 309.3 261.04 309.3 266.2 285.58 266.2"></polygon><path class="cls-1" d="M360.23,223.05v6.55a16.63,16.63,0,0,0-11.65-4.45,16.33,16.33,0,0,0-12.42,5.47,19.35,19.35,0,0,0-.06,26,16.25,16.25,0,0,0,12.36,5.4,16.88,16.88,0,0,0,11.77-4.68V264a22,22,0,0,1-11.59,3.18,22.24,22.24,0,0,1-16.29-6.78,22.6,22.6,0,0,1-6.73-16.56,23.12,23.12,0,0,1,6.85-16.93A22.56,22.56,0,0,1,349.1,220,20.45,20.45,0,0,1,360.23,223.05Z"></path><polygon class="cls-1" points="383.81 239.19 404.83 239.19 404.83 220.95 410.34 220.95 410.34 266.2 404.83 266.2 404.83 244.47 383.81 244.47 383.81 266.2 378.3 266.2 378.3 220.95 383.81 220.95 383.81 239.19"></polygon><path class="cls-1" d="M411.27,219a3.31,3.31,0,0,0,3.33,3.32,3.16,3.16,0,0,0,2.34-1,3.31,3.31,0,0,0,0-4.7,3.16,3.16,0,0,0-2.34-1,3.31,3.31,0,0,0-3.33,3.32Zm-.18,0a3.5,3.5,0,0,1,3.51-3.51,3.51,3.51,0,0,1,0,7,3.5,3.5,0,0,1-3.51-3.51Zm2.51,0h1c.87,0,1.3-.3,1.3-.9s-.39-.9-1.16-.9H413.6Zm-.19,2.05v-4h1.33c.89,0,1.33.36,1.33,1.08a1,1,0,0,1-.3.76,1.3,1.3,0,0,1-.75.3l1.24,1.89H416l-1.21-1.88H413.6v1.87Z"></path><path class="cls-2" d="M411.27,219a3.31,3.31,0,0,0,3.33,3.32,3.16,3.16,0,0,0,2.34-1,3.31,3.31,0,0,0,0-4.7,3.16,3.16,0,0,0-2.34-1,3.31,3.31,0,0,0-3.33,3.32Zm-.18,0a3.5,3.5,0,0,1,3.51-3.51,3.51,3.51,0,0,1,0,7,3.5,3.5,0,0,1-3.51-3.51Zm2.51,0h1c.87,0,1.3-.3,1.3-.9s-.39-.9-1.16-.9H413.6Zm-.19,2.05v-4h1.33c.89,0,1.33.36,1.33,1.08a1,1,0,0,1-.3.76,1.3,1.3,0,0,1-.75.3l1.24,1.89H416l-1.21-1.88H413.6v1.87Z"></path><path class="cls-1" d="M262.44,277H255.9v6.36h6.54v-2.57h-3.38v-1.12h4.77v2.83a2.43,2.43,0,0,1-.41,1.65,2.11,2.11,0,0,1-1.55.43h-5.4a2.11,2.11,0,0,1-1.55-.44,2.46,2.46,0,0,1-.41-1.64v-4.62a2.48,2.48,0,0,1,.41-1.64,2.11,2.11,0,0,1,1.55-.43h5.4a2.15,2.15,0,0,1,1.54.42,2.21,2.21,0,0,1,.42,1.55V278l-1.39.29Z"></path><path class="cls-1" d="M271.73,274.3v-1.56H273v1.56Zm2.53,0v-1.56h1.26v1.56Zm-3.68,1.47v7.55h6.09v-7.55H278v6.69a2.48,2.48,0,0,1-.4,1.65,2.1,2.1,0,0,1-1.54.43h-5a2.1,2.1,0,0,1-1.54-.44,2.46,2.46,0,0,1-.41-1.64v-6.69Z"></path><polygon class="cls-1" points="282.02 284.54 282.02 283.94 288.21 276.96 282.56 276.96 282.56 275.76 290.44 275.76 290.44 276.26 284.14 283.32 290.44 283.32 290.44 284.54 282.02 284.54"></polygon><polygon class="cls-1" points="294.85 284.54 294.85 275.76 302.9 275.76 302.9 276.94 296.25 276.94 296.25 279.39 300.31 279.39 300.31 280.55 296.25 280.55 296.25 283.33 302.96 283.33 302.96 284.54 294.85 284.54"></polygon><polygon class="cls-1" points="306.8 284.54 306.8 275.76 308.19 275.76 308.19 283.32 314.52 283.32 314.52 284.54 306.8 284.54"></polygon><polygon class="cls-1" points="318.69 284.54 318.69 275.76 320.09 275.76 320.09 283.32 326.42 283.32 326.42 284.54 318.69 284.54"></polygon><path class="cls-1" d="M329.78,274.35V272.7h1.33v1.65Zm0,10.19v-8.77h1.39v8.77Z"></path><polygon class="cls-1" points="336.2 284.54 336.2 275.76 337.6 275.76 337.6 279.53 342.81 275.76 344.85 275.76 338.79 279.97 345.51 284.54 343.18 284.54 337.6 280.6 337.6 284.54 336.2 284.54"></polygon><polygon class="cls-1" points="352.67 276.96 352.67 284.54 351.28 284.54 351.28 276.96 347.46 276.96 347.46 275.76 356.51 275.76 356.51 276.96 352.67 276.96"></polygon><polygon class="cls-1" points="359.79 284.54 359.79 275.76 367.83 275.76 367.83 276.94 361.18 276.94 361.18 279.39 365.24 279.39 365.24 280.55 361.18 280.55 361.18 283.33 367.9 283.33 367.9 284.54 359.79 284.54"></polygon><polygon class="cls-1" points="381.33 276.96 381.33 284.54 379.94 284.54 379.94 276.96 376.12 276.96 376.12 275.76 385.17 275.76 385.17 276.96 381.33 276.96"></polygon><polygon class="cls-1" points="388.87 284.54 388.87 275.76 396.92 275.76 396.92 276.94 390.26 276.94 390.26 279.39 394.32 279.39 394.32 280.55 390.26 280.55 390.26 283.33 396.98 283.33 396.98 284.54 388.87 284.54"></polygon><polygon class="cls-1" points="401.24 284.54 401.24 275.76 402.63 275.76 402.63 279.53 407.84 275.76 409.88 275.76 403.82 279.97 410.54 284.54 408.21 284.54 402.63 280.6 402.63 284.54 401.24 284.54"></polygon></svg>