<svg xmlns="http://www.w3.org/2000/svg" id="Layer_1" data-name="Layer 1" viewBox="0 0 500 500"><defs><style>.cls-1{fill:#672769;}.cls-2{fill:#2fb1c3;}.cls-3{fill:#ea2274;}.cls-4{fill:#682c6a;}.cls-5{fill:#d44a9b;}.cls-6{fill:#f7a721;}.cls-7{fill:#aadde7;}.cls-8{fill:#f7b141;}.cls-9{fill:#d7dd37;}.cls-10{fill:#fff;}</style></defs><path class="cls-1" d="M316.69,243.43a14.67,14.67,0,0,1,4.22,1c.24.07.46.21.7.26a35.44,35.44,0,0,1,3.79,1.19c1.83.64,3.67,1.26,5.48,1.93,1.44.53,2.86,1.1,4.29,1.67,2.76,1.11,5.58,2.11,8.26,3.39,2.38,1.14,4.81,2.19,7.17,3.39.4.2.69.63,1.21.57.05.11.09.32.15.32a3.41,3.41,0,0,1,2.21,1.08c.13.12.39.1.59.14a166.32,166.32,0,0,1,27.74,18.26.76.76,0,0,0,.85.69.18.18,0,0,1,.12.09c.17.45.33.9.94.88l.59.42c0,.3.18.36.43.32a.17.17,0,0,1,.11.11c-.46.73-.82.86-1.46.47-.39-.24-.71-.59-1.22-.54a.31.31,0,0,1-.19-.06c-.2-.73-.87-.52-1.36-.67-2-1.07-3.91-2.17-5.89-3.21-1.15-.59-2.35-1.06-3.51-1.62-1.5-.71-3-1.46-4.47-2.17-.83-.4-1.67-.77-2.51-1.13-2.28-1-4.54-2-6.84-2.95s-4.42-1.73-6.65-2.54c-2.45-.9-4.9-1.79-7.36-2.65-1.38-.49-2.8-.81-4.17-1.3-2.07-.74-4.19-1.32-6.27-2-1.73-.59-3.53-1-5.3-1.48-1.93-.53-3.89-.95-5.78-1.61-.61-.21-1.24-.18-1.86-.34a30.42,30.42,0,0,0-4.9-1.09c-.71-.07-1.32-.46-2-.57-1.61-.26-3.18-.77-4.79-1-3-.42-5.81-1.34-8.81-1.49a9.35,9.35,0,0,1-2.16-.53c-1.64-.5-3.37-.16-5-.78a6.46,6.46,0,0,0-2.12-.26c-1.81,0-3.55-.53-5.34-.72-3-.33-6-.44-8.93-.83-4-.51-7.95-.58-11.93-.93-6.22-.54-12.46-.56-18.69-.62-4.72,0-9.45.07-14.16.35-2.81.17-5.63.3-8.45.48-1.76.11-3.55.15-5.28.43-3.41.55-6.87.51-10.29,1.07-2.51.41-5.08.52-7.59,1-2.15.39-4.35.47-6.45,1-1.56.39-3.16.44-4.7.8-2.2.52-4.45.82-6.67,1.28-2.65.55-5.28,1.2-7.93,1.79-2.36.53-4.72,1.1-7.05,1.77-1.45.42-2.93.69-4.36,1.17-2.33.79-4.73,1.32-7.05,2.14-2,.69-4,1.15-6,1.85s-3.84,1.26-5.69,2.09c-1.27.58-2.66.94-4,1.41-2.89,1-5.69,2.28-8.52,3.46-1,.42-2,.92-3,1.24s-2.15,1.13-3.31,1.46a10.7,10.7,0,0,0-3.3,1.67L122,273a1.06,1.06,0,0,0-.93.52l-.3.08a2.11,2.11,0,0,0-1.49.65l-.05,0a.59.59,0,0,0-.71.49l-.52.14a5.45,5.45,0,0,0-2.82,1.58,2.85,2.85,0,0,0-1,.42c-.33-.08-.45.11-.47.39l-.53.14a12,12,0,0,0-3,1.64l0,0c-.33-.05-.5.1-.51.43l-.5.17c-.13,0-.17,0-.18.14l-.52.19c-.37.25-.91.25-1.08.77l-.26.08c-.41-.12-.6.12-.7.47l-1,.44c-.68-.24,0-.63-.09-.93l.07-.06a.4.4,0,0,0,.5-.38l.06-.05c.43-.45,1.16-.59,1.34-1.29a.11.11,0,0,0,.1-.09c.24,0,.44-.1.48-.37,1.38-1.13,2.72-2.33,4.16-3.38,2.55-1.88,5-3.91,7.63-5.65,1.87-1.23,3.74-2.46,5.59-3.72s3.72-2.34,5.63-3.43c2.8-1.61,5.61-3.21,8.47-4.7a32.55,32.55,0,0,1,3.25-1.59,5.67,5.67,0,0,0,1.52-.89c.62,0,1-.63,1.57-.73a7,7,0,0,0,2.44-1.2c.39,0,.68-.21,1-.32,2.29-.78,4.44-1.88,6.68-2.78s4.72-1.83,7.09-2.72c2-.74,4-1.39,6-2.07,2.52-.86,5.09-1.58,7.61-2.44,1.73-.59,3.54-.94,5.31-1.39l.27,0a14.83,14.83,0,0,0,3.33-.09.79.79,0,0,0,.54-.29,2.16,2.16,0,0,1,1.94-.64c.37,0,.89.17,1.06-.17.4-.76,1-.57,1.63-.58.92,0,1.84,0,2.76,0a2.06,2.06,0,0,0,2.11-1.26c.2-.09.42-.17.47-.43l1.83-.18c.28.09.54.15.74-.15,1.89-.55,3.85-.74,5.78-1.1,2.36-.44,4.75-.61,7.1-1,2-.37,4.08-.48,6.12-.72a33.68,33.68,0,0,0,5.74-.76,1.82,1.82,0,0,1,.62-.08c3.88-.05,7.75-.41,11.63-.48,1.92,0,3.84-.26,5.81-.41a2.11,2.11,0,0,0-.67-1.49,51.28,51.28,0,0,1-4.9-6.46,60.05,60.05,0,0,1-3.71-5.76c-.46-.87-1-1.7-1.52-2.55-1.53-2.58-2.87-5.26-4.25-7.93s-2.75-5.6-4.09-8.42c-1.13-2.37-2.17-4.77-3.23-7.17s-2.13-5.14-3.14-7.73c-.82-2.12-1.57-4.26-2.22-6.44a19.34,19.34,0,0,1-.86-6.07,4.18,4.18,0,0,1,.12-1.12c.74-2.41,2.51-2.41,4.53-1.54a33.15,33.15,0,0,1,8.26,5.72c1.41,1.22,2.7,2.57,4.09,3.8,2.1,1.87,3.93,4,5.9,6,2.48,2.51,4.85,5.11,7.2,7.75,2,2.29,4,4.61,6.08,6.92.11.12.26.2.38.32.71.71.81.73,1.46,0,1-1.07,1.94-2.17,2.9-3.26,1.83-2,3.65-4.11,5.48-6.15,1.19-1.33,2.38-2.68,3.62-4,2-2,4-4,5.94-6,2.34-2.35,4.81-4.55,7.36-6.67a30.89,30.89,0,0,1,7.14-4.57,2.85,2.85,0,0,1,4.17,2.48,16.9,16.9,0,0,1-.62,5.62,70.12,70.12,0,0,1-2.77,7.84c-.64,1.77-1.55,3.42-2.11,5.21a27.4,27.4,0,0,1-1.13,2.61c-1.09,2.52-2.09,5.08-3.4,7.5-1,1.82-1.71,3.78-2.64,5.64s-2.06,3.88-3.11,5.81c-1.63,3-3.4,6-5.26,8.92q-1.57,2.48-3.36,4.8c-.78,1-1.49,2.1-2.26,3.13-.58.75-1.22,1.46-1.83,2.19a4.44,4.44,0,0,0-.49.73.49.49,0,0,0,.38.76,2.85,2.85,0,0,0,.51,0c2.52.11,5.05.33,7.58.31a61.73,61.73,0,0,1,6.37.71c1.88.19,3.78.23,5.65.55s3.79.71,5.7.84c2.28.16,4.45.92,6.73,1a21.05,21.05,0,0,1,2.81.62,55.58,55.58,0,0,1,6,1.19,39.61,39.61,0,0,1,4.72,1.15,2.88,2.88,0,0,0,2.05.77c.29,0,.65-.08.82.19.41.67,1.05.55,1.66.57.32,0,.73-.1.9.27s.61.49,1,.49a5,5,0,0,1,1.48.17,1.88,1.88,0,0,0,1.57-.1l.55.09A2.51,2.51,0,0,0,316.69,243.43Z"></path><path class="cls-2" d="M314.9,242.59l-.55-.09a.9.9,0,0,0-.92-.7,21.87,21.87,0,0,1-3.21-.83c-1.36-.27-2.66-.8-4-1a.66.66,0,0,1-.53-.27,13.94,13.94,0,0,1-1.32-3.2c-.59-1.83-1.1-3.68-1.72-5.5a14,14,0,0,1-.25-1.87,77.18,77.18,0,0,1-1.46-9.58,18.77,18.77,0,0,0-.76-4.44,3.57,3.57,0,0,1-.07-.87,32.56,32.56,0,0,1-.05-3.42c.15-2-.48-3.9-.48-5.87a55.5,55.5,0,0,1,0-6.32c.2-1.86.19-3.86,1.46-5.48a1.56,1.56,0,0,1,2.48-.34,14.15,14.15,0,0,1,2.67,2.93c.91,1.44,1.73,2.93,2.57,4.4.95,1.66,1.66,3.45,2.52,5.16,1.25,2.48,2.13,5.13,3.31,7.65a2.63,2.63,0,0,1,.24.58,9.1,9.1,0,0,0,.85,2.3,27.69,27.69,0,0,1,1,2.81,4.43,4.43,0,0,0,.39,1c.58.83.92.94,1.79.48,1.67-.89,3.38-1.73,5-2.69,2.18-1.29,4.47-2.37,6.75-3.48,2-1,4-1.89,6-2.83a41.11,41.11,0,0,1,6.34-2.24,10.81,10.81,0,0,1,3.51-.34c1.45.08,1.92.92,1.66,2.37-.35,2-1.63,3.45-2.75,5a37.06,37.06,0,0,1-3.58,4c-.64.65-1.13,1.44-1.75,2.08s-1.29,1.4-2,2.06c-1.49,1.46-3,2.91-4.47,4.39-1.17,1.17-2.36,2.36-3.59,3.46s-2.31,2-3.48,3c-1.34,1.13-2.78,2.11-4.15,3.2a57.59,57.59,0,0,1-5.15,3.5c-.48.3-.83.87-1.5.84C315.48,242.55,315.17,242.43,314.9,242.59Z"></path><path class="cls-3" d="M182.08,241.67l-.27,0c.08-.49-.31-.67-.62-.85a63.87,63.87,0,0,1-6.52-4.79c-2.62-2.05-5-4.32-7.47-6.61s-4.85-4.79-7.19-7.26c-1.94-2.05-3.73-4.24-5.58-6.38a3.13,3.13,0,0,1-.73-1.16c-.09-.44-.12-.92-.7-1a.22.22,0,0,1-.1-.2,2.53,2.53,0,0,0,0-.62,4.41,4.41,0,0,0-.55-1.11,2.66,2.66,0,0,1-.38-1.92c.08-.58.71-.34,1-.68a3.34,3.34,0,0,1,.54-.52,3.61,3.61,0,0,1,1.27,0c.21.61.65.75,1.27.76s1.53-.35,2,.61c.06.13.3.09.47,0a3.15,3.15,0,0,1,2.69.64,2.56,2.56,0,0,0,1.75.45l.46.06c0,.36.05.63.49.73a2.78,2.78,0,0,1,1.86.85c.09.13.38.15.57.16a1.56,1.56,0,0,1,1.23.48,1,1,0,0,0,.92.28l.49.11a1.24,1.24,0,0,0,1.54.9l.48.09c0,.31.06.58.42.68s.8.14.91.36c.4.79,1.06.67,1.72.65h0c0,.35,0,.71.49.73a3,3,0,0,1,1.36.56,8.7,8.7,0,0,0,2,1.14,3.85,3.85,0,0,1,1.91,1.27,1.53,1.53,0,0,0,1.29.59c.51,0,1,0,1.52,0a.41.41,0,0,0,.27-.23c.25-.56.89-.93.8-1.66-.05-.4.26-.69.43-1a12.68,12.68,0,0,0,1.64-5.05v-.07a3,3,0,0,0,1-1.49c.18-.48.15-1.13.91-1.18.18,0,.26-.24.24-.4-.25-1.39.62-2.47,1-3.69.18-.6.55-1.13.77-1.69s.9-.92,1.09-1.6c.49-1.76,1.7-3.18,2.41-4.85.09-.19.14-.4.34-.52a4.44,4.44,0,0,0,1.65-2.09c.37-.79,1.08-1.06,1.64-1.5a1.7,1.7,0,0,1,2.53,1.55c-.07,1.37,1,2.37,1,3.67,0,0,.14.07.22.11a11.7,11.7,0,0,1,0,2.51c-.51.16-.36.6-.37,1,0,1.51,0,3,0,4.53a2,2,0,0,1-.1,1,3.39,3.39,0,0,0-.37,2.06c0,1.43,0,2.85,0,4.28a3.46,3.46,0,0,1-.28,1.72,4.68,4.68,0,0,0-.45,2.53,7.36,7.36,0,0,1-.14,1.24,3.26,3.26,0,0,0,.06,2.2,3.86,3.86,0,0,1-.05,1.27c-.1.07-.27.11-.29.19a6,6,0,0,1-.74,2.26.83.83,0,0,0,.17,1.12l-.05.76c-.43.39-.07,1-.37,1.41a3,3,0,0,0-.35,2.17l0,.46a3.3,3.3,0,0,0-1.24,2.55,2.81,2.81,0,0,1-.51,2,2.75,2.75,0,0,0-.78,2c-.24,0-.65,0-.72.1-.43.82-1.18.62-1.85.65a6,6,0,0,0-2.66.47,5.28,5.28,0,0,1-2.42.59,3.11,3.11,0,0,0-1.57.37,2.72,2.72,0,0,1-1.8.36C182.61,240.61,182.28,241,182.08,241.67Z"></path><path class="cls-3" d="M172.55,305h12.27c.3,0,.59,0,.89,0a.77.77,0,0,1,.81.89c0,2.78,0,5.57,0,8.35,0,.68-.29,1-1,1.05-2.15,0-4.3,0-6.45,0a.77.77,0,0,1-.86-.86c0-.72,0-1.44,0-2.15s-.23-1.07-1-1.14c-.54-.05-1.09,0-1.64,0-1,0-2,0-3-.05-.77,0-1.09.15-1.29.85a3.7,3.7,0,0,0-.08.88c0,1.6,0,3.21,0,4.81,0,1.45.21,1.67,1.7,1.69,2,0,4,0,5.94,0,1.13,0,1.15,0,1.17,1.11,0,1.27,0,2.53,0,3.8,0,1.12,0,1.14-1.13,1.15-2.15,0-4.3,0-6.45,0-1.23,0-1.24,0-1.24,1.28s0,2.36,0,3.54c0,.63.27.94.89,1,.85,0,1.69,0,2.53,0,1.25.05,1.35.16,1.35,1.41s0,2.53,0,3.79c0,1.05-.16,1.19-1.17,1.19H159.58c-.92,0-1-.08-1-1,0-1.47,0-2.95,0-4.43,0-.66.31-.91.91-.94h.75c1.14,0,1.23-.14,1.24-1.24,0-.76,0-1.51,0-2.27V313c0-.29,0-.59,0-.88a.89.89,0,0,0-.92-1h-.26c-1.69-.14-1.69-.14-1.68-1.9,0-1.1,0-2.19,0-3.29,0-.84.11-.95,1-1,1,0,2.11,0,3.16,0Z"></path><path class="cls-1" d="M238,172.78a10,10,0,0,1,1.37-5.83,12.61,12.61,0,0,1,4.25-4.59,7.2,7.2,0,0,1,4.49-1.14,33.57,33.57,0,0,0,4.81,0,6.25,6.25,0,0,1,4.54,1.42c2.41,1.88,4.37,4.21,4.92,7.27.69,3.9.24,7.63-2.54,10.84a13.11,13.11,0,0,1-6.65,4.11,11.86,11.86,0,0,1-8.84-1.12,11.53,11.53,0,0,1-5.35-5.88A10.85,10.85,0,0,1,238,172.78Z"></path><path class="cls-4" d="M172.82,274.78h4.55c1.12,0,1.23.11,1.24,1.23,0,.67,0,1.35,0,2,0,1-.18,1.14-1.11,1.35s-1.06.25-1.06,1.27V293c0,1.1,0,1.1,1.09,1.22s1,.15,1.07,1.15c0,.8,0,1.6,0,2.4s-.25,1-1.1,1h-9.36c-.5,0-.8-.12-.8-.68,0-1.06,0-2.11,0-3.16,0-.53.25-.71.78-.73,1.3-.06,1.3-.09,1.3-1.39,0-1,0-1.93,0-2.9,0-.52-.22-.79-.75-.79h-5.18c-.54,0-.77.26-.78.77,0,1.18,0,2.36,0,3.53,0,.62.41.74.92.79,1.26.13,1.26.14,1.26,1.45,0,.76,0,1.52,0,2.28,0,.52-.23.84-.85.84q-4.74,0-9.48,0c-.62,0-.81-.26-.8-.84q0-1.46,0-2.91c0-.59.21-.79.8-.84,1-.08,1-.12,1-1.12,0-4.22,0-8.43,0-12.64,0-.62-.08-1-.82-1.14-1-.18-1-.26-1-1.23s0-1.69,0-2.53c0-.61.25-.81.82-.8,1.56,0,3.12,0,4.68,0s3.12,0,4.68,0c.81,0,.94.13,1,1s0,1.69,0,2.53-.26,1-1,1.14c-1.16.18-1.16.18-1.15,1.29,0,.92,0,1.85,0,2.78s.11,1,.94,1c1.6,0,3.2,0,4.8,0,.83,0,.92-.12.95-1,0-1.06,0-2.11,0-3.16,0-.65-.3-.87-.9-.95-1.2-.17-1.2-.19-1.2-1.43,0-.71,0-1.43,0-2.14,0-1,0-1,1.09-1h4.42Z"></path><path class="cls-5" d="M259.57,338.78h-10c-.34,0-.68,0-1,0a.68.68,0,0,1-.69-.74c-.07-1.51.05-3-.09-4.54a1.89,1.89,0,0,1,.7-1.41c2.33-2.22,4.61-4.49,6.89-6.75.83-.83,1.63-1.68,2.42-2.54.62-.68.53-.86-.37-1.1-.61-.16-1.16.14-1.75.11-1.78-.07-2-.11-1.9,2,0,1-.13,1.18-1.14,1.2-1.26,0-2.53,0-3.79,0-.87,0-.95-.07-1-.94,0-1.56,0-3.12,0-4.68a10.92,10.92,0,0,1,0-2.74c.24-.87.26-1,1.12-1l13.15,0h7.46c1.24,0,1.25,0,1.26,1.29s0,2.53,0,3.8a1.86,1.86,0,0,1-.61,1.45c-2.69,2.73-5.4,5.47-8.09,8.21a15.19,15.19,0,0,0-1.2,1.08,1,1,0,0,0-.21,1c.14.36.49.27.77.28.75,0,1.51,0,2.27,0a.71.71,0,0,0,.79-.78,12.89,12.89,0,0,0,0-1.39c0-.66.31-.91.92-.9,1.6,0,3.2,0,4.8,0,.61,0,.82.28.82.85,0,2.44,0,4.89,0,7.33,0,.8-.14.88-1.17.88H259.57Z"></path><path class="cls-6" d="M148.1,253.35a7,7,0,0,1-2.44,1.2c-.61.1-.95.7-1.57.73a.81.81,0,0,0-.89-.68,6.78,6.78,0,0,1-3.53-.76c-2.28,0-4.14-1.53-6.34-1.84a.74.74,0,0,1-.45-.19,1.83,1.83,0,0,0-1.59-.6c-.16,0-.45-.05-.46-.12-.2-.93-1-.7-1.6-.86a7.84,7.84,0,0,1-1.79-.88c-1.77-1-3.67-1.74-5.4-2.78a45.41,45.41,0,0,1-4.78-3.22.79.79,0,0,1-.33-.64c0-.34.09-.67.09-1a.83.83,0,0,1,.84-.91,14.72,14.72,0,0,1,1.76-.11,8.85,8.85,0,0,0,2.76-.27,1,1,0,0,1,.73-.06c1,.56,2.15.3,3.22.35a21.84,21.84,0,0,1,6.07.88,2.37,2.37,0,0,0,.75.08,11.21,11.21,0,0,1,2.51.26c1.12.28,1.55-.1,1.59-1.26.1-3.41.07-6.83.34-10.22a16.87,16.87,0,0,1,1.45-6.57c.08-.14.12-.31.19-.46.16-.38,0-1,.7-1s1.15-.14,1.71.61a19.15,19.15,0,0,1,2.27,4.52c.78,1.9,1.08,3.94,1.81,5.86.28.72.14,1.64.52,2.32.84,1.55.75,3.31,1.2,5a16.51,16.51,0,0,1,.65,4.58C148,248,148.09,250.65,148.1,253.35Z"></path><path class="cls-5" d="M354.76,258.41c-.2,0-.46,0-.59-.14a3.41,3.41,0,0,0-2.21-1.08c-.06,0-.1-.21-.15-.32,0-1.89-.28-3.78-.15-5.68.12-1.75.29-3.5.54-5.25.34-2.46,1-4.83,1.49-7.25a43.53,43.53,0,0,1,1.57-5.39c.37-1.14.75-2.29,1.09-3.45a13.46,13.46,0,0,1,2.16-4.19c.58-.79,1.17-.78,1.87-.06a5.12,5.12,0,0,1,1.08,2.62c1.17,4.74,1.12,9.58,1.25,14.41,0,.42,0,.84,0,1.26,0,1,.14,1.15,1.22,1.08a13.11,13.11,0,0,0,2.74-.38,14.32,14.32,0,0,1,3.11-.45c1.8-.17,3.59-.43,5.39-.56a30.15,30.15,0,0,1,6.3.16,1.54,1.54,0,0,1,1.4.92,1.65,1.65,0,0,1-.48,1.73,18.44,18.44,0,0,1-4.68,3.11c-.9.51-1.83.95-2.72,1.49a34.78,34.78,0,0,1-3.49,1.64c-2.11,1-4.29,1.82-6.48,2.63a51.45,51.45,0,0,1-6.33,1.95c-1.06.24-2.17.18-3.26.37A.7.7,0,0,0,354.76,258.41Z"></path><path class="cls-4" d="M275.37,275.25c1,0,2,.06,3,0a22.91,22.91,0,0,1,5.37.51,10.41,10.41,0,0,1,4.71,2.22,11,11,0,0,1,3.34,4,8.91,8.91,0,0,1,.64,1.76,11.91,11.91,0,0,1,.23,6.05,17.64,17.64,0,0,1-1.19,3.8,10.6,10.6,0,0,1-5.25,4.77,20.3,20.3,0,0,1-7.14,1.25c-2.81.15-5.64,0-8.46,0-1.32,0-1.37-.07-1.39-1.34,0-.85,0-1.69,0-2.53,0-.64.23-1,.9-.87,1.11.15,1.09-.21,1.09-1.14V281.21c0-.17,0-.34,0-.51,0-.57-.2-.8-.81-.82-1.18,0-1.18-.07-1.17-1.2,0-.76,0-1.51,0-2.27,0-1.06.13-1.15,1.17-1.16Zm3.16,12.25h0v2.78c0,1.26,0,2.52,0,3.79,0,.33-.05.74.42.77a4.75,4.75,0,0,0,5.72-4.44,19.68,19.68,0,0,0,.06-6.13,5.22,5.22,0,0,0-5.6-4.38.56.56,0,0,0-.53.43,3.36,3.36,0,0,0-.09,1Z"></path><path class="cls-7" d="M311.53,328.48h-5.69c-1.64,0-2.3,1.19-1.51,2.63a3,3,0,0,0,2.79,1.66c1.09,0,2.19-.07,3.28,0a4.84,4.84,0,0,0,3.47-1.06c.28-.21.64-.2.88-.45a.34.34,0,0,1,.55,0c.55.67,1.44,1,1.68,2,.15.6.83.8,1.2,1.26s.34.6-.13.76a9.47,9.47,0,0,0-1.75,1.19,10.3,10.3,0,0,1-2.59,1.1,10.43,10.43,0,0,0-1.6.62,3.2,3.2,0,0,1-1.79.36c-.69-.05-1.32.25-2,.25a8.47,8.47,0,0,1-4.39-.66,1.43,1.43,0,0,0-.75-.07,1.74,1.74,0,0,1-1.28-.4c-.49-.42-1.16-.52-1.66-.88a11.24,11.24,0,0,1-4-4.9c-.17-.43-.41-.81-.6-1.23a10.15,10.15,0,0,1-.56-3,9.41,9.41,0,0,1,0-2.65c.17-1.11.66-2.13.83-3.19.2-1.32,1.24-2,1.76-3.11s1.81-1.55,2.78-2.25a9,9,0,0,0,1-.74,1.15,1.15,0,0,1,.52-.34c2-.35,4-1.12,6.13-.79a7,7,0,0,1,3,.66c.47.29,1.11,0,1.68.38a12.09,12.09,0,0,1,5.06,5.22,11.81,11.81,0,0,1,.61,6.85c-.1.66-.44.81-1,.8-2,0-4,0-5.94,0Zm-4.17-4v0c.92,0,1.85,0,2.77,0s.89-.21,1-1a2.81,2.81,0,0,0-1.2-2.35,2.4,2.4,0,0,0-1.74-.89,5.47,5.47,0,0,0-3.21,1.27,2.5,2.5,0,0,0-.95,2.34c.06.47.26.67.72.67Z"></path><path class="cls-8" d="M287.69,315.69v12.14c0,.21,0,.42,0,.63,0,1.42.07,1.46,1.53,1.44,1,0,1.18.09,1.21,1.11s0,2.28,0,3.42c0,1.3-.42,1.75-1.78,1.78-1.09,0-2.19,0-3.29,0H278.3c-1,0-1.36-.24-1.41-1.18a34.18,34.18,0,0,1,0-3.92,1.18,1.18,0,0,1,1-1.28,1.4,1.4,0,0,0,1-1.55c-.06-5.55.09-11.12-.08-16.68,0-.66.13-1.33.17-2,.05-1,.06-1.94-1.17-2.33a1,1,0,0,1-.77-.92,22.43,22.43,0,0,1,.12-4.41c.12-.66.41-.91,1.09-.87,2.39.13,4.79-.24,7.18.17a4.85,4.85,0,0,0,1.11-.15c.76-.05,1.09.21,1.18,1a10.78,10.78,0,0,1,0,1.27c0,4.13,0,8.25,0,12.38Z"></path><path class="cls-9" d="M211.48,305.14a11.2,11.2,0,0,0,2.52.09c2.15,0,4.3,0,6.45,0,.94,0,.94.06.94.91q0,13.41,0,26.81c0,1.08,0,1.08,1.15,1.11a2.9,2.9,0,0,0,.51,0c.62,0,.94.19.92.86,0,1.09,0,2.19,0,3.28,0,.36-.13.56-.5.58h-12c-1.1,0-1.06,0-1.16-1.1s.23-2,.06-3c-.08-.5.32-.59.74-.63,1.15-.11,1.16-.12,1.16-1.21q0-9.93,0-19.85c0-1.09,0-1.16-1.1-1.52a1,1,0,0,1-.76-.87,9.06,9.06,0,0,1-.13-2,8.59,8.59,0,0,0-.11-2.63C210.34,305.31,210.94,305.27,211.48,305.14Z"></path><path class="cls-9" d="M403.4,254a29.43,29.43,0,0,1-1.26,7.67,32.47,32.47,0,0,1-4.16,8.71c-.41.61-.53,1.43-1.52,1.39-.12,0-.3.18-.37.31-.3.57-.85.69-1.36,1-.71.38-1.43.78-2.13,1.21a3.28,3.28,0,0,1-2.51.54,1.78,1.78,0,0,0-1,0c-1.46.62-3,.27-4.49.32-1.05,0-1.5-.47-1.48-1.53,0-1.31-.3-2.58-.28-3.89a20,20,0,0,1,1-6.18,13.18,13.18,0,0,1,1.94-3.31,16.69,16.69,0,0,1,2.84-3.11c1-.84,2.13-1.4,3.11-2.22a10.52,10.52,0,0,1,1.87-.93,11.59,11.59,0,0,1,4-1.63c1.37-.18,2.58-.94,4-1.05.29,0,.58-.09.87-.09.6,0,1,.25.94.9S403.4,253.38,403.4,254Z"></path><path class="cls-4" d="M211.48,305.14c-.54.13-1.14.17-1.34.84a13.34,13.34,0,0,1-3.22.73,8.5,8.5,0,0,1-3.89-1,5.8,5.8,0,0,1,.52-3.33,1.89,1.89,0,0,0,.72-.86c.21-.57.57-.53,1-.19l.31.22a2,2,0,0,0,3.24-1,3.28,3.28,0,0,0-.24-3.33,47.32,47.32,0,0,1-2.61-4.93c-.78-1.62-1.7-3.16-2.54-4.75-.37-.69-.59-1.51-1.65-1.43-.26,0-.42-.28-.42-.55,0-1.13,0-2.27,0-3.41,0-.47.37-.52.71-.53.67,0,1.35,0,2,0h6.45c1.35,0,1.35,0,1.36,1.3,0,.5,0,1,0,1.51.06.81,0,1.5-1,1.65-.42.06-.47.44-.31.8.46,1.06.93,2.11,1.4,3.17.1.23.19.49.48.53s.42-.26.53-.45c.6-1.06.9-2.24,1.49-3.3.21-.37,0-.73-.48-.81-.74-.12-.9-.61-.85-1.29s0-1.44,0-2.15c0-.87.07-.94.93-1,1.73,0,3.45,0,5.18,0,.59,0,1.18,0,1.77,0s.85.2.83.81c0,.84,0,1.69,0,2.53,0,.48-.07.84-.67.82-.77,0-1.05.46-1.32,1.1-1.17,2.79-2.24,5.63-3.48,8.4-.69,1.51-1.23,3.09-1.85,4.64A14.8,14.8,0,0,1,211.48,305.14Z"></path><path class="cls-4" d="M340.4,297.71a7.49,7.49,0,0,0-1.28,1.07,6,6,0,0,1-4.85,1.19,9.25,9.25,0,0,1-3-1.07,3.82,3.82,0,0,1-1.53-1.77,8,8,0,0,1-1-3.74c0-1.81,0-3.63,0-5.44,0-.57-.1-1-.78-1.06s-.7-.55-.72-1c0-.93,0-1.86,0-2.78,0-.64.35-.88,1-.87,2.15,0,4.3,0,6.45,0a.89.89,0,0,1,1,.89,10.61,10.61,0,0,1,0,1.13c.06,2.86-.15,5.73.17,8.59a4.11,4.11,0,0,0,.17,1,1.51,1.51,0,0,0,2.43.73,2.77,2.77,0,0,0,1.3-2.42c0-1.39,0-2.78,0-4.17,0-.89-.14-1-1-1.06-1.36-.12-1.4-.16-1.41-1.47,0-.68,0-1.35,0-2,0-1.09.08-1.17,1.15-1.17,2.19,0,4.38,0,6.57,0,1.14,0,1.23.09,1.23,1.22,0,3.29,0,6.57,0,9.86,0,.29,0,.59,0,.88,0,.46.15.66.65.7,1.12.08,1.12.11,1.13,1.23,0,.8,0,1.61,0,2.41s-.2,1.06-1,1.08c-1.56,0-3.12,0-4.68,0a1.17,1.17,0,0,1-1.09-.67C341,298.55,340.91,298.05,340.4,297.71Z"></path><path class="cls-4" d="M225,287c-.47-1.2-.91-2.32-1.34-3.44a.61.61,0,0,1,.31-.85c2.78-1.45,5.63-2.49,8.88-2a14.65,14.65,0,0,1,3.5.84,6.19,6.19,0,0,1,4,5.56c0,1.72,0,3.45,0,5.18,0,.29,0,.59,0,.88.05.93.2,1.09,1.1,1.16s.91.08.93.94,0,1.77,0,2.66c0,.6-.16.9-.87.88-1.85-.05-3.7,0-5.56,0a1.21,1.21,0,0,1-1.14-.54c-.5-.69-.59-.56-1.41-.07-1.62,1-3.28,1.74-5.3,1a15.15,15.15,0,0,1-2.7-.87c-2.24-1.26-3-4.59-2.27-6.69,1.22-3.49,5.21-4.81,8.43-4.13.2,0,.4.13.61.16s.73.36,1-.05a1.42,1.42,0,0,0-.31-1.47,2.38,2.38,0,0,0-1.2-.61,10.38,10.38,0,0,0-3.52.08A12,12,0,0,0,225,287Zm6.37,8a3,3,0,0,0,.8-.17c1.47-.75,1.83-1.94.77-2.82a2.38,2.38,0,0,0-2.58-.38,1.59,1.59,0,0,0-1,1.3C229.17,294.29,229.88,295,231.37,295Z"></path><path class="cls-4" d="M194.65,298.9c-.34,0-.68-.07-1-.06a1,1,0,0,1-1.1-.62c-.23-.55-.66-.65-1.09-.2a6.17,6.17,0,0,1-3.51,1.47,7.2,7.2,0,0,1-4.35-.91,4.88,4.88,0,0,1-2.33-2.2,5.75,5.75,0,0,1,1.07-6.88,7.29,7.29,0,0,1,6.81-2c.33,0,.65.17,1,.24s.79.29,1-.1,0-.75-.2-1.07a1.62,1.62,0,0,0-1.34-1,13.85,13.85,0,0,0-3.64.05,8.37,8.37,0,0,0-2.42,1c-.64.33-.69.31-1-.32a26.31,26.31,0,0,1-.94-2.71c-.19-.54,0-.79.36-1a14,14,0,0,1,7.28-2,11.19,11.19,0,0,1,6.22,1.69,5.41,5.41,0,0,1,2.39,3.5,20.33,20.33,0,0,1,.35,3.87c0,1.27,0,2.53,0,3.8,0,.65.24.88.88.92,1.19.06,1.2.1,1.23,1.34,0,.88,0,1.76,0,2.64a1.69,1.69,0,0,1-1.18.17,3.06,3.06,0,0,0-2,0A9,9,0,0,1,194.65,298.9Zm-5.26-7.27c-1.48,0-1.65.1-2.12,1.3a1.45,1.45,0,0,0,.54,1.71c.63.54,2.2.26,3-.35a1.47,1.47,0,0,0-.59-2.55A3.25,3.25,0,0,0,189.39,291.63Z"></path><path class="cls-6" d="M324.55,317.84a28.68,28.68,0,0,1-.05-4.54,2.86,2.86,0,0,1,2.38-.79c1.5.07,3,0,4.5,0,.4,0,.84.13,1.2-.18.58-.12.58.26.56.65a2.14,2.14,0,0,0,.12,1.12c.26.68,1.14,1,1.57.51A4.54,4.54,0,0,1,337,313c.18-.89,1.22-.62,1.7-1.26.34-.46,1.29-.28,1.93-.11s.57.79.58,1.27c0,1.61,0,3.21,0,4.81a1.41,1.41,0,0,1-1.26,1.46,5.52,5.52,0,0,1-1,.21,5.83,5.83,0,0,0-2.66,1,3.37,3.37,0,0,0-1.41,2.66c0,1.39,0,2.79,0,4.18v1.59c-.1.66.08,1,.86,1,1,0,1.13.14,1.31,1.13a17,17,0,0,1,.12,1.89,3.45,3.45,0,0,1,0,1.24.72.72,0,0,0-.43.44c-.11.45-.4.58-.84.58H325.52c-.85,0-1-.17-1-1.09s0-2,0-3,0-1,1.06-1.15c.55-.07.75-.29.67-.81V318.61c-.18-1.05-.19-1.05-1.11-.85C325,317.8,324.75,317.81,324.55,317.84Z"></path><path class="cls-2" d="M239.89,322.11c0,2.32,0,4.64,0,6.95,0,1.36.09,1.46,1.47,1.69a.74.74,0,0,1,.7.72,2.2,2.2,0,0,1,.06.5c-.13,1.22.08,2.43,0,3.65s-.06,1.14-1.15,1.15h-8.47c-.88,0-1.77,0-2.65,0-.62,0-1.1-.53-.92-1.07a12,12,0,0,0,.2-3.63,2.51,2.51,0,0,1,.18-1c.18-.41.59-.22.89-.32a1.2,1.2,0,0,0,.86-1.24c0-.72,0-1.43,0-2.15,0-2.11,0-4.21,0-6.32,0-1.14,0-1.18-1.12-1.42-.53-.11-.65-.39-.7-.86a40.77,40.77,0,0,1,0-4.42c0-.65.37-.82,1-.82,2.1,0,4.21,0,6.31,0l2.4,0a.82.82,0,0,1,.94.91c0,.33,0,.67,0,1v6.69Z"></path><path class="cls-4" d="M304.71,281.76a9.54,9.54,0,0,1,6.92,3.6,6.7,6.7,0,0,1,1.48,3.4,5.8,5.8,0,0,0,.3,1.6,2.35,2.35,0,0,1,.09,1.12c-.37,2.89-1.44,5.48-4,7a9.84,9.84,0,0,1-7,1.4c-1-.19-1.93-.52-2.89-.8a6.7,6.7,0,0,1-3.11-2.23,9.25,9.25,0,0,1-1.74-9,7.77,7.77,0,0,1,4.17-4.89A10.93,10.93,0,0,1,304.71,281.76Zm1.78,9.33a10,10,0,0,0-.15-1.24,6.53,6.53,0,0,1-.28-1.22,2.72,2.72,0,0,0-.95-1.85,1.72,1.72,0,0,0-2.7.22,7,7,0,0,0-.93,5.74,5.21,5.21,0,0,0,.85,1.91c.43.62,1.47,1.2,1.87,1,.71-.37,1.47-.77,1.66-1.61A13.87,13.87,0,0,0,306.49,291.09Z"></path><path class="cls-8" d="M197,310c1.44,0,2.87,0,4.3,0,.85,0,1,.18,1.17,1a3.13,3.13,0,0,1,0,1,41,41,0,0,0-.19,6.55c0,2.45,0,4.89,0,7.34,0,1.19,0,1.23,1.14,1.24.63,0,.92.22,1,.84a26.48,26.48,0,0,1,0,4.54c-.05.74-.34.85-1.18.71a3.83,3.83,0,0,0-.76,0l-8.59,0a2.28,2.28,0,0,0-1,.13.8.8,0,0,1-1.19-.72c-.06-1.64,0-3.29,0-4.93,0-.47.32-.5.68-.54,1.1-.1,1.12-.11,1.12-1.12,0-2.87,0-5.73,0-8.6,0-1,0-1-1.1-1.2-.48-.08-.67-.29-.67-.74,0-1.55,0-3.11,0-4.67,0-.61.28-.82.85-.81H197Z"></path><path class="cls-2" d="M333.17,202.35a8.51,8.51,0,0,1-1.61,4.71,8.27,8.27,0,0,1-13.77.11,8.3,8.3,0,0,1,3.37-12.56,6.94,6.94,0,0,1,4.17-.75c1.55.39,3.15.62,4.56,1.82a11.41,11.41,0,0,1,3.05,4.8A7.54,7.54,0,0,1,333.17,202.35Z"></path><path class="cls-9" d="M108.56,272.62c-1.53.18-3.13-.59-4.82-.86a3.77,3.77,0,0,1-1.41-.77,15,15,0,0,1-4.12-4.7A21.36,21.36,0,0,1,96,260.64a17.89,17.89,0,0,1-.91-6.18c.14-1.67.42-1.71,2.06-1.26s3.13,1.19,4.79,1.48c.12,0,.32,0,.35.07.53,1,1.71.89,2.51,1.42.62.41,1.15.94,1.73,1.38a9.71,9.71,0,0,1,3.29,3.7,18.65,18.65,0,0,1,1.28,2.84,11.85,11.85,0,0,1,.44,6,10.42,10.42,0,0,0-.16,1.25c-.1,1.05-.36,1.28-1.44,1.29Z"></path><path class="cls-3" d="M172.18,194.45l.31-.08a17.06,17.06,0,0,1,6.25,0l.75.12c0,.8.64.86,1.23.93l0,0c.05.59.43.73.94.73l.35.48c0,.34.13.52.46.52l0,0c0,.35,0,.69.48.74l0,0c.05.37-.13.86.46,1a.27.27,0,0,1,.08.23,19.26,19.26,0,0,1,.22,3.87,6.67,6.67,0,0,1-.72,2.63c-.52,1-1.38,1.77-1.82,2.81l-.05,0a.42.42,0,0,0-.43.24l-.05,0a.4.4,0,0,0-.48.34l-.26.18a8,8,0,0,1-3.53.78.47.47,0,0,0-.51.45h-.71c-.07-.45-.41-.48-.75-.46a4.74,4.74,0,0,1-2.7-.8c-.44-.26-.81-.75-1.42-.69a.36.36,0,0,1-.21-.11c-.12-.43-.18-.9-.8-.9h0a1.17,1.17,0,0,0-.25-.81,7,7,0,0,1-1.51-4.1.55.55,0,0,0-.23-.42v-.78a17.38,17.38,0,0,1,.94-2.8s-.07-.13-.11-.2a.43.43,0,0,1,.32-.52,3.56,3.56,0,0,0,1.37-1.76v0A5,5,0,0,0,172.18,194.45Z"></path><path class="cls-4" d="M323.49,284.35v9.36c0,1.08,0,1.1,1.06,1.17.51,0,.8.17.8.72,0,1,0,2.1,0,3.16,0,.64-.37.86-1,.86-2.7,0-5.4,0-8.09,0-.87,0-1-.2-1.07-1s0-1.61,0-2.41.17-1.18.9-1.23c.57,0,.7-.36.7-.83,0-.81,0-1.61,0-2.41,0-4,0-8,0-12,0-.82-.05-1.52-1-1.71-.46-.09-.59-.4-.58-.83,0-.8,0-1.6,0-2.4,0-1,.17-1.15,1.2-1.17s2.11,0,3.16,0,1.86,0,2.78,0,1.09.05,1.11,1.06c0,1.44,0,2.87,0,4.3v5.44Z"></path><path class="cls-4" d="M246.13,291.31c0-1.3,0-2.61,0-3.91,0-1-.1-1.11-1.12-1.24-.84-.1-.89-.14-.91-1s0-1.77,0-2.65c0-.59.19-.83.76-.91,1.22-.17,1.26-.25,1.29-1.49,0-1.77.05-1.75,1.76-2.28,1.15-.35,2.28-.78,3.43-1.13.95-.29,1.1-.17,1.12.83s0,2,0,3,.12,1,1,1c.51,0,1,0,1.52,0a.68.68,0,0,1,.77.77c0,1,0,1.94,0,2.91,0,.61-.31.94-1,.88a2.41,2.41,0,0,0-.38,0c-2.17,0-2-.21-2,2,0,1.64,0,3.29,0,4.93a4.83,4.83,0,0,0,0,.76,1.07,1.07,0,0,0,1.26,1.07,5.91,5.91,0,0,0,1.12-.13c.71-.17.93-.1,1,.56,0,.93,0,1.86,0,2.78a.9.9,0,0,1-.86.93c-2,.25-4,.71-6.1,0a4.18,4.18,0,0,1-2.55-3.71,19.19,19.19,0,0,1-.11-2c0-.68,0-1.35,0-2Z"></path><path class="cls-9" d="M216.67,228.34a8.37,8.37,0,0,1-6.51-2.48,10.14,10.14,0,0,1-3.32-4.72c-.56-1.93-1.35-3.78-1.74-5.77a12.71,12.71,0,0,1-.21-2.88c0-.76.34-1.07,1.13-1a8.08,8.08,0,0,1,3.88.84c1,.58,2.13.74,3.11,1.33a4.48,4.48,0,0,1,1.15.73c.73.78,1.72,1.21,2.49,2a10.59,10.59,0,0,1,3.09,5.25,18.14,18.14,0,0,1,.17,5.14c-.07,1.33-.53,1.65-1.61,1.61Z"></path><path class="cls-9" d="M402.19,273.2a5.55,5.55,0,0,1,3.3.47,1.16,1.16,0,0,0,.61.16c1.29-.17,2.29.72,3.46,1,.11,0,.28.11.3.2.14.55.53.64,1,.71s.45.64.1.73a1.35,1.35,0,0,0-1.08,1.36.54.54,0,0,1-.24.42c-1.73,1.21-3.19,2.78-5,3.89-.63.39-1.4.59-1.84,1.26,0,.08-.23.09-.35.11a15.89,15.89,0,0,1-6.48,0,4.2,4.2,0,0,1-1.81-.8c-.61-.55-1.37-.94-2-1.5-.78-.74-.77-1-.21-1.95a6.56,6.56,0,0,1,2.16-2.7c.07,0,.16-.12.17-.19.2-1.24,1.51-1.32,2.18-2.07a.73.73,0,0,1,.45-.21C398.79,273.9,400.43,272.85,402.19,273.2Z"></path><path class="cls-8" d="M375.53,219a2.45,2.45,0,0,1,1.31.23,5.38,5.38,0,0,0,3.69.23,8.34,8.34,0,0,0,3.66-2.09c.72-.68,1.21-1.41.6-2.43a.67.67,0,0,1,.18-1c1.32-.67,1.08-1.86.83-2.87a5.1,5.1,0,0,0-1.62-3c-.21-.17-.4-.34-.32-.62s.46-.32.74-.32a2.67,2.67,0,0,1,2.29.71,2.62,2.62,0,0,0,1.49.89.87.87,0,0,1,.52.34,17.44,17.44,0,0,1,2.19,3.36,7.59,7.59,0,0,1,.45,4,7.3,7.3,0,0,1-1.74,4.2c-.08.09-.23.19-.23.29,0,1-.83,1.31-1.6,1.48-.59.13-.84.66-1.37.85a8.46,8.46,0,0,1-5.62.52,9.12,9.12,0,0,1-4.71-3.2A16.65,16.65,0,0,1,375.53,219Z"></path><path class="cls-9" d="M98.94,279.52a7.63,7.63,0,0,1-3.49-.94,12.27,12.27,0,0,1-2.37-1.27,5.35,5.35,0,0,1-1.9-1.76c-.38-.76-1.2-1-1.79-1.49-.29-.25-.65-.39-.6-.86s.44-.41.7-.59c.67-.43,1.51-.52,2.11-1.08a1.87,1.87,0,0,1,1.31-.34,5.66,5.66,0,0,0,3-.42c1.76.51,3.8,0,5.29,1.5a21.6,21.6,0,0,0,2.24,1.92,2.64,2.64,0,0,1,1,2.55c-.11.86-.77,1.24-1.54,1.63s-1.83.56-2.67,1A2.88,2.88,0,0,1,98.94,279.52Z"></path><path class="cls-9" d="M285.49,220.27c1.12,0,2.27-.17,3.34.42.72.39.78.52.31,1.22a3.83,3.83,0,0,0-.28.42c-1.2,2.56-3.22,4.42-5.29,6.26-.93.83-2.08.77-3.14,1.1a6.19,6.19,0,0,1-3.94-.45,2,2,0,0,1-1-3.08c.6-.89,1-1.88,1.62-2.78a4,4,0,0,1,1.07-1.11A10.75,10.75,0,0,1,285.49,220.27Z"></path><path class="cls-6" d="M129.33,227.36a4.5,4.5,0,0,1,4.54,2.55,5.25,5.25,0,0,1,.09,5.31,3.49,3.49,0,0,1-2.48,2,.92.92,0,0,0-.23.09c-1.73,1.29-3.29.77-4.93-.29a4.89,4.89,0,0,1-2.21-5.17,5.32,5.32,0,0,1,2.86-4.15A4.3,4.3,0,0,1,129.33,227.36Z"></path><path class="cls-5" d="M370.66,240.87c-3.12.15-5.08-2.76-5.05-5.25a5.28,5.28,0,0,1,5.63-5.14c2.81.36,4.93,1.94,4.78,5.51C375.9,239.11,373.85,240.87,370.66,240.87Z"></path><path class="cls-2" d="M235.58,311.43a3.25,3.25,0,0,1-2.72-.61,6.15,6.15,0,0,1-2.21-2.49,4.57,4.57,0,0,1,2.16-5.58,5.07,5.07,0,0,1,6.75,1.21,4.62,4.62,0,0,1-4,7.47Z"></path><path class="cls-8" d="M194.65,298.9a9,9,0,0,0,2.56-.39,3.06,3.06,0,0,1,2,0,1.69,1.69,0,0,0,1.18-.17s0,.08.05.12,0,.42.09.47c1.4.8,1.55,2.71,3.07,3.4a5.72,5.72,0,0,0-.53,3.33c-.78.13-1,.92-1.62,1.31a4.21,4.21,0,0,1-2.53.91,19,19,0,0,1-2.39-.06,3.93,3.93,0,0,1-2.74-2c-.6-1.1-1.27-2.43-.45-3.89a8.11,8.11,0,0,1,1.07-2.09C194.58,299.65,194.56,299.23,194.65,298.9Z"></path><path class="cls-3" d="M300.5,173.92a1.08,1.08,0,0,1,.12-1.09,4.42,4.42,0,0,0,.48-1.42c.48-1.92.4-2.09-1.23-3.19-.65-.44-1.25-.94-1.91-1.45.29-.38.66-.34,1-.34,1,0,1.94,0,2.91,0,.78,0,1-.27,1.14-1.05a15.07,15.07,0,0,1,1.26-3.5,2.76,2.76,0,0,1,.87,1.93c0,.79.57,1.38.69,2.13.07.41.51.51.92.51.89,0,1.77,0,2.66,0a1.9,1.9,0,0,1,1.32.29c-.94.72-1.82,1.48-2.78,2.11s-1,1.07-.53,2.16a7,7,0,0,1,.77,2.88c-1.23-.07-1.92-.92-2.71-1.56s-1.36-.79-2.28,0a10.69,10.69,0,0,1-1.58,1.21C301.31,173.65,301,174,300.5,173.92Z"></path><path class="cls-7" d="M161.28,171.82c0,.25,0,.53-.19.71-1.33,1.09-.79,2.5-.64,3.83,0,.23.24.41.05.68-.4.54-.1,1,.18,1.49a6.22,6.22,0,0,0,2.57,2.35c1.14.64,2.25.43,3.58.59a4.45,4.45,0,0,1-2.7,2.05,7.24,7.24,0,0,1-4.74-.51c-.94-.47-2.62-2.16-2.79-3.14-.12-.71-.71-1.25-.63-2a7.8,7.8,0,0,1,2.22-4.9,4,4,0,0,1,3.1-1.14Z"></path><path class="cls-8" d="M366.36,203.89c-.26,1-.05,2-.22,3-.05.33,0,.68-.37,1-.65-.32-.75-1.12-1.22-1.6-.11-.11-.12-.31-.22-.44-.73-1.11-1.11-1.22-2.38-.7-.43.17-.86.33-1.3.47-.28.09-.62.17-.81-.12a.63.63,0,0,1,.06-.82c.39-.38.56-.91.94-1.31,1-1,1-1.49.15-2.62-.34-.48-.74-.92-1.08-1.39a.74.74,0,0,1,0-.84c.19-.29.54-.17.81-.07.62.25,1.22.56,1.85.77,1,.34,1.48.1,2.07-.8a2.08,2.08,0,0,1,1.29-1.12c.66-.14,1,.12.91.78a8.61,8.61,0,0,0-.2,1.75,1.35,1.35,0,0,0,1.33,1.52,3.44,3.44,0,0,1,2,.89c.3.31.06.41-.18.52-.35-.07-.65-.06-.76.37l-.08.07-2,.09C366.51,203.27,366.28,203.44,366.36,203.89Z"></path><path class="cls-5" d="M134.06,201.65a15.41,15.41,0,0,1,.12,3c0,1.36.14,1.54,1.45,1.95.4.13.81.24,1.2.38s.42.16.9.76a4.44,4.44,0,0,1-2.21.76c-1.26.13-1.43.31-1.42,1.6,0,1-.44,1.94-.53,3a3.75,3.75,0,0,1-1.21-1.63c-.85-1.65-1.09-1.75-2.87-1.41-.59.12-1.12.36-1.69.51-.2.05-.43.1-.56-.13s0-.32.12-.46c.54-.74,1.08-1.49,1.64-2.22a.9.9,0,0,0,0-1.25c-.32-.39-.55-.84-.84-1.25a3.18,3.18,0,0,1-.66-1.54,8.83,8.83,0,0,1,2.79.8c1.07.35,1.37.29,2-.67A13.75,13.75,0,0,1,134.06,201.65Z"></path><path class="cls-6" d="M193.51,176.85c-.34-2.19,1.66-3.52,3.62-3.55a3.74,3.74,0,0,1,4.1,3.75,4,4,0,0,1-4,3.77C195.43,180.83,193.08,179.33,193.51,176.85Z"></path><path class="cls-5" d="M282,207c-.27-1.88,2.15-3.94,3.83-3.88a3.88,3.88,0,0,1,3.84,3.94,4,4,0,0,1-3.86,3.83C284.07,210.93,281.8,209,282,207Z"></path><path class="cls-7" d="M119.57,259.91c-1.8.15-3.26-1.44-3.77-3.25-.08-.26.08-.46.18-.7a7.09,7.09,0,0,0,.83-1.65.76.76,0,0,1,.3-.39,9.63,9.63,0,0,1,2.49-1,2.75,2.75,0,0,1,1.91.65,6.29,6.29,0,0,1,1.77,2.82c.29.61-.25,1.06-.52,1.45C122,259,121.16,260.06,119.57,259.91Z"></path><path class="cls-2" d="M162.13,236.16a3.38,3.38,0,0,1-3.18,3.37,3.54,3.54,0,0,1-3.41-3.34,3.37,3.37,0,0,1,3.34-3.36C160.47,232.81,162.32,234.54,162.13,236.16Z"></path><path class="cls-2" d="M343.69,236.17a3.08,3.08,0,0,1-3.08,3.13,3.29,3.29,0,0,1-3.18-3.23c-.07-1.58,2.05-3.17,3.34-3.11A3.3,3.3,0,0,1,343.69,236.17Z"></path><path class="cls-7" d="M319.7,185.51a2.47,2.47,0,0,1-1.35,2.12,2.69,2.69,0,0,1-3.55-.48,1.77,1.77,0,0,1-.48-2.13c.17-.34,0-.74.25-1.09a3.3,3.3,0,0,1,4.11-.9A9.47,9.47,0,0,1,319.7,185.51Z"></path><path class="cls-5" d="M200.41,198.91c-.08,0-.22-.08-.22-.11,0-1.3-1-2.3-1-3.67a1.7,1.7,0,0,0-2.53-1.55c-.56.44-1.27.71-1.64,1.5a4.44,4.44,0,0,1-1.65,2.09c-.2.12-.25.33-.34.52-.71,1.67-1.92,3.09-2.41,4.85-.19.68-.83,1-1.09,1.6s-.59,1.09-.77,1.69c-.36,1.22-1.23,2.3-1,3.69,0,.16-.06.39-.24.4-.76.05-.73.7-.91,1.18a3,3,0,0,1-1,1.49c-.15-.55.19-1,.38-1.43.91-2.19,1.8-4.38,2.82-6.52s1.94-4,3.07-5.88a33.27,33.27,0,0,1,2.53-4,12.84,12.84,0,0,1,1.71-1.82,2,2,0,0,1,3.31.63A9.16,9.16,0,0,1,200.41,198.91Z"></path><path class="cls-8" d="M334.88,327.16c0-1.39,0-2.79,0-4.18a3.37,3.37,0,0,1,1.41-2.66,5.83,5.83,0,0,1,2.66-1,5.52,5.52,0,0,0,1-.21,1.41,1.41,0,0,0,1.26-1.46c0-1.6,0-3.2,0-4.81,0-.48-.05-1.13-.58-1.27s-1.59-.35-1.93.11c-.48.64-1.52.37-1.7,1.26a4.54,4.54,0,0,0-2.14,1.66c-.43.53-1.31.17-1.57-.51a2.14,2.14,0,0,1-.12-1.12c1.09,1,1.78.94,2.85-.33a3.1,3.1,0,0,1,1.76-1.1c.84-.17,1.56-.76,2.51-.68s1.46.42,1.49,1.32c.06,1.85.05,3.7,0,5.55a3.72,3.72,0,0,1-.39,1.31,1,1,0,0,1-1,.62c-1-.08-1.95.45-2.95.57a1.48,1.48,0,0,0-1,.69,4.73,4.73,0,0,0-1.2,3.45c.07.71,0,1.43,0,2.14C335.2,326.81,335.18,327.05,334.88,327.16Z"></path><path class="cls-8" d="M326.26,329c.08.52-.12.74-.67.81-1,.13-1,.17-1.06,1.15s0,2,0,3,.14,1.08,1,1.09h10.36c.44,0,.73-.13.84-.58a.72.72,0,0,1,.43-.44c.46.85.19,1.53-.68,1.56a30.18,30.18,0,0,1-3.92,0,28.53,28.53,0,0,0-6.53.05,3.76,3.76,0,0,1-.75,0,1.25,1.25,0,0,1-1.33-1.34,25.12,25.12,0,0,1,.18-4.15c.1-.67.36-1,1-1A2.81,2.81,0,0,0,326.26,329Z"></path><path class="cls-5" d="M198.68,221.91a3.26,3.26,0,0,1-.06-2.2,7.36,7.36,0,0,0,.14-1.24,4.68,4.68,0,0,1,.45-2.53,3.46,3.46,0,0,0,.28-1.72c0-1.43,0-2.85,0-4.28a3.39,3.39,0,0,1,.37-2.06,2,2,0,0,0,.1-1c0-1.51,0-3,0-4.53,0-.35-.14-.79.37-1a55.24,55.24,0,0,1-.15,7.93c-.1,1.05-.08,2.11-.18,3.15-.28,2.71-.61,5.42-.9,8.13A2.89,2.89,0,0,1,198.68,221.91Z"></path><path class="cls-5" d="M185.63,212.66a12.68,12.68,0,0,1-1.64,5.05c-.17.33-.48.62-.43,1,.09.73-.55,1.1-.8,1.66a.41.41,0,0,1-.27.23c-.51,0-1,0-1.52,0a1.53,1.53,0,0,1-1.29-.59,3.85,3.85,0,0,0-1.91-1.27,8.7,8.7,0,0,1-2-1.14,3,3,0,0,0-1.36-.56c-.48,0-.48-.38-.49-.73a1.5,1.5,0,0,1,.37,0,38,38,0,0,1,5.45,2.91,7.42,7.42,0,0,0,1.89.88.69.69,0,0,0,1-.49c.37-1.07.78-2.12,1.21-3.17a27.34,27.34,0,0,0,1.37-3.63C185.24,212.8,185.48,212.75,185.63,212.66Z"></path><path class="cls-4" d="M305.66,239.71a.66.66,0,0,0,.53.27c1.37.19,2.67.72,4,1a21.87,21.87,0,0,0,3.21.83.9.9,0,0,1,.92.7,1.88,1.88,0,0,1-1.57.1,5,5,0,0,0-1.48-.17c-.42,0-.82,0-1-.49s-.58-.26-.9-.27c-.61,0-1.25.1-1.66-.57-.17-.27-.53-.18-.82-.19a2.88,2.88,0,0,1-2.05-.77Z"></path><path class="cls-5" d="M382.86,279.11c.51-.05.83.3,1.22.54.64.39,1,.26,1.46-.47a42.75,42.75,0,0,1,3.46,3c0,.22,0,.43-.27.54-1.54-.73-3-1.67-4.43-2.55C383.8,279.84,383.09,279.8,382.86,279.11Z"></path><path class="cls-8" d="M332.58,312.35c-.36.31-.8.17-1.2.18-1.5,0-3,.05-4.5,0a2.86,2.86,0,0,0-2.38.79c-.44-.83,0-1.48,1-1.41,1.5.11,3,.05,4.5.08.58,0,1.17,0,1.75,0A.83.83,0,0,1,332.58,312.35Z"></path><path class="cls-5" d="M194.44,238.17a2.75,2.75,0,0,1,.78-2,2.81,2.81,0,0,0,.51-2,3.3,3.3,0,0,1,1.24-2.55.67.67,0,0,1,.05.6c-.57,1.34-.71,2.81-1.27,4.14-.11.27-.16.57-.28.83-.28.55,0,.84.45,1.1,0,.26-.27.34-.47.43A1.17,1.17,0,0,1,194.44,238.17Z"></path><path class="cls-5" d="M162.85,211a2.56,2.56,0,0,1-1.75-.45,3.15,3.15,0,0,0-2.69-.64c-.17.06-.41.1-.47,0-.43-1-1.28-.6-2-.61s-1.06-.15-1.27-.76a4.91,4.91,0,0,1,2.58.26,8.56,8.56,0,0,1,2.93,1c.67.42,1.54.34,2.18.85A1.64,1.64,0,0,1,162.85,211Z"></path><path class="cls-5" d="M181.25,208.45c.44-1,1.3-1.8,1.82-2.81a6.67,6.67,0,0,0,.72-2.63,19.26,19.26,0,0,0-.22-3.87,4.25,4.25,0,0,1,.78,2.68,9.57,9.57,0,0,1-2.73,6.61C181.55,208.49,181.38,208.45,181.25,208.45Z"></path><path class="cls-5" d="M178.74,194.34a17.06,17.06,0,0,0-6.25,0c1.57-1.1,3.32-1,5.09-.69A1.57,1.57,0,0,1,178.74,194.34Z"></path><path class="cls-8" d="M337.18,332.79a17,17,0,0,0-.12-1.89c-.18-1-.3-1.11-1.31-1.13-.78,0-1-.36-.86-1a2.13,2.13,0,0,0,1.53.38c.58-.06.84.24.88.79a13.78,13.78,0,0,1,.17,2.23C337.45,332.4,337.45,332.65,337.18,332.79Z"></path><path class="cls-5" d="M153.44,208.52a3.34,3.34,0,0,0-.54.52c-.25.34-.88.1-1,.68a2.66,2.66,0,0,0,.38,1.92,4.41,4.41,0,0,1,.55,1.11,2.53,2.53,0,0,1,0,.62,4.78,4.78,0,0,1-1.32-3.22C151.58,208.84,152,208.47,153.44,208.52Z"></path><path class="cls-7" d="M105.29,280.88c.12.3-.59.69.09.93,0,.08,0,.19,0,.24a6.26,6.26,0,0,1-2.17,1.34.39.39,0,0,1-.46-.11c-.11-.15-.14-.35,0-.45C103.67,282.29,104.21,281.23,105.29,280.88Z"></path><path class="cls-5" d="M168.38,213.57a1,1,0,0,1-.92-.28,1.56,1.56,0,0,0-1.23-.48c-.19,0-.48,0-.57-.16a2.78,2.78,0,0,0-1.86-.85c-.44-.1-.49-.37-.49-.73.86,0,1.44.63,2.2.86s1.5.72,2.29,1A1.05,1.05,0,0,1,168.38,213.57Z"></path><path class="cls-5" d="M167.37,202.2a.55.55,0,0,1,.23.42,7,7,0,0,0,1.51,4.1,1.17,1.17,0,0,1,.25.81A5.76,5.76,0,0,1,167.37,202.2Z"></path><path class="cls-5" d="M170.36,208.54c.61-.06,1,.43,1.42.69a4.74,4.74,0,0,0,2.7.8c.34,0,.68,0,.75.46A6.17,6.17,0,0,1,170.36,208.54Z"></path><path class="cls-5" d="M197.77,226.75a.83.83,0,0,1-.17-1.12,6,6,0,0,0,.74-2.26c0-.08.19-.12.29-.19A5,5,0,0,1,197.77,226.75Z"></path><path class="cls-5" d="M175.94,210.5a.47.47,0,0,1,.51-.45,8,8,0,0,0,3.53-.78c0,.11,0,.3-.12.34A7.64,7.64,0,0,1,175.94,210.5Z"></path><path class="cls-5" d="M173.94,216.36c-.66,0-1.32.14-1.72-.65-.11-.22-.59-.26-.91-.36s-.41-.37-.42-.68C171.94,215.17,173.16,215.36,173.94,216.36Z"></path><path class="cls-5" d="M197,231.09a3,3,0,0,1,.35-2.17c.3-.4-.06-1,.37-1.41A5.6,5.6,0,0,1,197,231.09Z"></path><path class="cls-7" d="M122.27,273a10.7,10.7,0,0,1,3.3-1.67c0,.09,0,.22,0,.24A8.47,8.47,0,0,1,122.27,273Z"></path><path class="cls-7" d="M110.18,279.1a12,12,0,0,1,3-1.64A4.61,4.61,0,0,1,110.18,279.1Z"></path><path class="cls-8" d="M324.55,317.84c.2,0,.41,0,.61-.08.92-.2.93-.2,1.11.85a2.41,2.41,0,0,0-1.3-.16C324.57,318.43,324.34,318.29,324.55,317.84Z"></path><path class="cls-5" d="M168.21,198.42c0,.07.13.16.11.2a17.38,17.38,0,0,0-.94,2.8A3.09,3.09,0,0,1,168.21,198.42Z"></path><path class="cls-7" d="M115.19,276.51a5.45,5.45,0,0,1,2.82-1.58A4.88,4.88,0,0,1,115.19,276.51Z"></path><path class="cls-5" d="M172.18,194.45a5,5,0,0,1-2.27,1.67A3.2,3.2,0,0,1,172.18,194.45Z"></path><path class="cls-7" d="M366.36,203.89c-.08-.45.15-.62.56-.63l2-.09c.05.51-.32.5-.65.49A6.3,6.3,0,0,0,366.36,203.89Z"></path><path class="cls-7" d="M388.73,282.7c.23-.11.26-.32.27-.54a1.58,1.58,0,0,1,1,.66c.14.15.28.33.12.54s-.39.23-.65.11A1.22,1.22,0,0,1,388.73,282.7Z"></path><path class="cls-5" d="M170.41,214.58a1.24,1.24,0,0,1-1.54-.9A1.47,1.47,0,0,1,170.41,214.58Z"></path><path class="cls-5" d="M169.9,196.14a3.56,3.56,0,0,1-1.37,1.76A2,2,0,0,1,169.9,196.14Z"></path><path class="cls-4" d="M314.9,242.59c.27-.16.58,0,.87-.09l.92.93A2.51,2.51,0,0,1,314.9,242.59Z"></path><path class="cls-7" d="M107.26,279.1c-.18.7-.91.84-1.34,1.29A1.51,1.51,0,0,1,107.26,279.1Z"></path><path class="cls-5" d="M381.31,278.38c.49.15,1.16-.06,1.36.67A2,2,0,0,1,381.31,278.38Z"></path><path class="cls-5" d="M180.72,195.39c-.59-.07-1.19-.13-1.23-.93A1.62,1.62,0,0,1,180.72,195.39Z"></path><path class="cls-7" d="M119.29,274.28a2.11,2.11,0,0,1,1.49-.65A1.46,1.46,0,0,1,119.29,274.28Z"></path><path class="cls-5" d="M384.41,278.33c-.61,0-.77-.43-.94-.88C384,277.57,384.34,277.78,384.41,278.33Z"></path><path class="cls-7" d="M107.35,280.82c.17-.52.71-.52,1.08-.77C108.38,280.74,107.86,280.79,107.35,280.82Z"></path><path class="cls-5" d="M169.35,207.53c.62,0,.68.47.8.9C169.48,208.49,169.44,208,169.35,207.53Z"></path><path class="cls-5" d="M383.35,277.36a.76.76,0,0,1-.85-.69C382.9,276.77,383.29,276.86,383.35,277.36Z"></path><path class="cls-5" d="M181.69,196.14c-.51,0-.89-.14-.94-.73A1.2,1.2,0,0,1,181.69,196.14Z"></path><path class="cls-7" d="M121.08,273.55A1.06,1.06,0,0,1,122,273C122,273.68,121.5,273.57,121.08,273.55Z"></path><path class="cls-5" d="M153,213.57c.58.09.61.57.7,1A1.33,1.33,0,0,1,153,213.57Z"></path><path class="cls-5" d="M183.49,198.91c-.59-.11-.41-.6-.46-1C183.64,198,183.52,198.5,183.49,198.91Z"></path><path class="cls-7" d="M106.39,281.37c.1-.35.29-.59.7-.47C107.07,281.37,106.76,281.41,106.39,281.37Z"></path><path class="cls-7" d="M118.53,274.79a.59.59,0,0,1,.71-.49C119.23,274.79,118.92,274.84,118.53,274.79Z"></path><path class="cls-7" d="M369,203.1c.11-.43.41-.44.76-.37C369.7,203.21,369.37,203.17,369,203.1Z"></path><path class="cls-5" d="M198.49,237.89c-.2.3-.46.24-.74.15A.44.44,0,0,1,198.49,237.89Z"></path><path class="cls-5" d="M183,197.91c-.46,0-.47-.39-.48-.74A.59.59,0,0,1,183,197.91Z"></path><path class="cls-7" d="M107.84,278.64c0,.27-.24.36-.48.37A.37.37,0,0,1,107.84,278.64Z"></path><path class="cls-5" d="M182.5,197.14c-.33,0-.48-.18-.46-.52A.47.47,0,0,1,182.5,197.14Z"></path><path class="cls-5" d="M180.24,209.09a.4.4,0,0,1,.48-.34C180.68,209,180.54,209.17,180.24,209.09Z"></path><path class="cls-7" d="M109.63,279.55c0-.33.18-.48.51-.43C110.12,279.45,110,279.63,109.63,279.55Z"></path><path class="cls-7" d="M105.86,280.44a.4.4,0,0,1-.5.38C105.38,280.51,105.56,280.39,105.86,280.44Z"></path><path class="cls-5" d="M385.43,279.07c-.25,0-.43,0-.43-.32C385.25,278.71,385.42,278.78,385.43,279.07Z"></path><path class="cls-7" d="M113.74,277.32c0-.28.14-.47.47-.39A.38.38,0,0,1,113.74,277.32Z"></path><path class="cls-7" d="M161.29,171.83l.08-.36c.26.19,0,.26-.09.35Z"></path><path class="cls-5" d="M180.77,208.71a.42.42,0,0,1,.43-.24A.4.4,0,0,1,180.77,208.71Z"></path><path class="cls-7" d="M109,279.86c0-.11,0-.18.18-.14S109.06,279.87,109,279.86Z"></path><path class="cls-4" d="M194.44,238.17a1.17,1.17,0,0,0,1,.48,2.06,2.06,0,0,1-2.11,1.26c-.92,0-1.84,0-2.76,0-.59,0-1.23-.18-1.63.58-.17.34-.69.17-1.06.17a2.16,2.16,0,0,0-1.94.64.79.79,0,0,1-.54.29,14.83,14.83,0,0,1-3.33.09c.2-.65.53-1.06,1.34-1a2.72,2.72,0,0,0,1.8-.36,3.11,3.11,0,0,1,1.57-.37,5.28,5.28,0,0,0,2.42-.59,6,6,0,0,1,2.66-.47c.67,0,1.42.17,1.85-.65C193.79,238.15,194.2,238.2,194.44,238.17Z"></path><path class="cls-10" d="M278.53,287.5v-6.18a3.36,3.36,0,0,1,.09-1,.56.56,0,0,1,.53-.43,5.22,5.22,0,0,1,5.6,4.38,19.68,19.68,0,0,1-.06,6.13,4.75,4.75,0,0,1-5.72,4.44c-.47,0-.42-.44-.42-.77,0-1.27,0-2.53,0-3.79V287.5Z"></path><path class="cls-10" d="M307.36,324.44h-2.65c-.46,0-.66-.2-.72-.67a2.5,2.5,0,0,1,.95-2.34,5.47,5.47,0,0,1,3.21-1.27,2.4,2.4,0,0,1,1.74.89,2.81,2.81,0,0,1,1.2,2.35c-.07.8-.16,1-1,1s-1.85,0-2.77,0Z"></path><path class="cls-10" d="M231.37,295c-1.49,0-2.2-.72-2-2.07a1.59,1.59,0,0,1,1-1.3,2.38,2.38,0,0,1,2.58.38c1.06.88.7,2.07-.77,2.82A3,3,0,0,1,231.37,295Z"></path><path class="cls-10" d="M189.39,291.63a3.25,3.25,0,0,1,.83.11,1.47,1.47,0,0,1,.59,2.55c-.8.61-2.37.89-3,.35a1.45,1.45,0,0,1-.54-1.71C187.74,291.73,187.91,291.62,189.39,291.63Z"></path><path class="cls-10" d="M306.49,291.09a13.87,13.87,0,0,1-.63,2.94c-.19.84-.95,1.24-1.66,1.61-.4.21-1.44-.37-1.87-1a5.21,5.21,0,0,1-.85-1.91,7,7,0,0,1,.93-5.74,1.72,1.72,0,0,1,2.7-.22,2.72,2.72,0,0,1,.95,1.85,6.53,6.53,0,0,0,.28,1.22A10,10,0,0,1,306.49,291.09Z"></path></svg>