<svg xmlns="http://www.w3.org/2000/svg" id="Layer_1" data-name="Layer 1" viewBox="0 0 500 500"><defs><style>.cls-1{fill:#75291e;}.cls-2{fill:#b9cf37;}.cls-3{fill:#feefd7;}</style></defs><path class="cls-1" d="M311.93,225.06c4.62,2.28,9.11,4.76,12.36,8.9,1.29,1.65,2.11.53,3.13-.26,6.15-4.79,13-7.73,20.92-7.88a16,16,0,0,1,10.24,3.11c1.7,1.28,2.63.84,4.1-.26a16.1,16.1,0,0,1,22.84,3.27c8.8,12.3,16.56,25.21,21.1,39.78,2.13,6.84,4,13.81,3,21.09a19.16,19.16,0,0,1-16.71,15.81c-5.72.5-9.81-2.55-13.13-6.7-1.3-1.62-1.89-1.73-3.32-.2a13.64,13.64,0,0,1-14.34,4,7.94,7.94,0,0,0-5.29.21,8,8,0,0,1-5,.69c-3.71-1.11-5.39,1-7.09,3.65a23.94,23.94,0,0,1-7,7,14.16,14.16,0,0,1-21.35-7.4A59.63,59.63,0,0,1,313.94,297c-.21-2-.53-2.92-2.59-1.4-4,3-8.64,3.57-13.39,3.66a3.47,3.47,0,0,0-3.66,2.27c-6.73,14.49-28.86,19.76-39.58,15.87-4.45-1.62-8.21-4.15-10.66-8.28a5.28,5.28,0,0,0-4.43-3.05,12.31,12.31,0,0,1-8.24-4.52c-.94-1.1-1.59-1.52-2.68-.08-4.55,6-10.15,9.13-17.81,6.07-1.22-.49-2,.23-2.87.86-7,5-14.6,5.3-21.2.36-3.45-2.58-6.05-2.34-9.52-1.83a21.48,21.48,0,0,1-11.93-1.69c-2-.9-3-.44-3.51,1.56a1.51,1.51,0,0,1-.13.29c-2.33,4.89-4.7,9.45-11.1,10.26-6.72.86-12.52-.48-17.46-5.13-1.53-1.45-2.78-4.08-4.41-4.3s-3.54,2-5.4,3c-13.66,7.37-26.36.63-28.13-14.84-.73-6.44.2-12.81.59-19.2a11.11,11.11,0,0,0-2.62-8.43c-3.92-4.76-3.81-10.39-1.56-16a5.87,5.87,0,0,0,.61-3.95c-4.21-16.51.93-27.74,16.43-35,10.06-4.69,20.56-6.31,31.49-2.79a17.28,17.28,0,0,1,9.62,7,6.18,6.18,0,0,0,4,2.84c6.61,1.67,9.7,4.28,13.92,11.26.18,0,.48,0,.53-.12,3.11-6.9,9.62-9.41,15.86-12.15,5.77-2.52,11.95-4,17.61-6.83a4,4,0,0,0,1.27.07c5.43-1.56,10.76-3.48,16.31-4.65,1.54-.32,1.72-1.22,1.15-2.62a88.54,88.54,0,0,1-5.54-24.13c.55-3.79,1-7.59,1.68-11.36a27.3,27.3,0,0,1,2.63-7.88c1.41-2.72,2.89-2.9,4.76-.53,1.65,2.1,3.21,4.27,4.81,6.41,1.1,1.48,1.91,1.4,2.66-.36,2.1-5,5.22-9.06,10.17-11.49,1.86-.91,1.06-2.25.72-3.56-.94-3.67-.07-4.61,3.59-3.78,13.37,3,22.79,11.61,30.85,22.08a102.48,102.48,0,0,1,6.76,10.5,14,14,0,0,0,.52,1.46c3.21,6.75,6.07,13.58,7.59,21,1.24,6.06,1.09,12.09,1,18.17,0,1-.5,2.5,1.39,2C300.09,222.44,306,223.65,311.93,225.06ZM251.6,235.91c1-2.3,1.71-4.26,2.57-6.18,7-15.58,23-13.46,30.77-4.28.53.64.86,1.65,1.92,1.33s1-1.39,1.1-2.16c.4-3.82,1.14-7.62.78-11.49a76.58,76.58,0,0,0-11.46-34.28c-6.23-9.93-13.92-18.37-24.69-23.54-1.55-.74-3.58-2.23-5-1.1-1.15.93.56,2.88.78,4.42a14.68,14.68,0,0,0,.59,2.16q7.16,25.28,14.32,50.55c.39,1.4.8,2.82-.79,3.68s-2.56-.52-3.39-1.58Q249.56,201.23,240,189c-5.37-6.91-10.68-13.86-16.05-20.77-.44-.57-1.09-1.35-1.66-1.36-1.11,0-1,1.23-1.24,2a43.75,43.75,0,0,0-1.53,9.45c-.4,9.25,1.89,18,4.9,26.62.74,2.12,2.1,2.27,3.72,1.94,3.05-.62,5.94,0,8.86.7,12,2.78,17.95,15,13.25,24.24C249.42,233.45,250.26,234.58,251.6,235.91Zm73.46,39.8c0,4.17-.19,8.35.05,12.51A82,82,0,0,0,327.42,305c.74,2.75,2,3.26,4.12,1.94,4.29-2.65,6.1-7.19,4.28-11.87a27.88,27.88,0,0,1-1.54-11c0-.76-.49-1.92.61-2.21s1.64.54,2.28,1.37a51.17,51.17,0,0,0,10.59,9.71c1.85,1.35,3.92,2.35,6.24,1.23s4.68-6.06,4.09-8.9c-.72-3.42-3.58-3.95-6.39-4.21a16.13,16.13,0,0,1-10.26-4.64c-1.88-1.84-1.35-2.42.63-3.26a24.33,24.33,0,0,0,10.8-8.25c4.37-6.23,3.93-13.12,2.5-20-1.23-5.93-5-8.24-10.94-6.55-9.15,2.6-15.35,8.43-18.22,17.66C324.19,262.46,325.14,269.12,325.06,275.71Zm-96.7-46,3.84.22c3.65.2,6.84-1.76,7.23-4.44s-2.17-5.44-5.82-6.19a23.6,23.6,0,0,0-9.86.38c-12.05,2.63-23.61,6.85-35.14,11.12a40.46,40.46,0,0,0-6.85,3.48,6.63,6.63,0,0,0-3.43,6.44c.28,2.64,2.68,3.38,4.88,4a8.28,8.28,0,0,0,7.33-1.12c2-1.38,4.21-2.54,6.27-3.88s3.06-1.24,2.92,1.57c-.29,5.76-.37,11.54-.68,17.31-.51,9.44-1.68,18.8-5.56,27.52a13,13,0,0,0-.65,9.62c1.41,4.5,4.86,5.55,8.5,2.47,1.7-1.44,3.23-3.08,3.6-5.51a150,150,0,0,0,1.88-14.95c.64-13.46.63-26.95,2.09-40.37a5,5,0,0,1,3.2-4.62A36.52,36.52,0,0,1,228.36,229.7ZM108,274h.18q-.42,5.91-.83,11.83a36.76,36.76,0,0,0,.4,11.18c.86,3.65,3,5.34,6.15,4.51,6.64-1.78,11.73-5.93,9-14.27-2.48-7.73-4.49-15.61-6.22-23.56-.49-2.24,0-3.08,2.44-2.92a55.54,55.54,0,0,0,8.65-.18c3.19-.3,4.06-2.09,3.22-5.89-.92-4.13-2.38-5.29-5.48-4.35-2.45.75-4.92,1.45-7.35,2.28-1.81.63-2.79.13-3.26-1.75a38.48,38.48,0,0,1-1.25-12.07c.28-4.12,2.54-6.52,6.75-6.78,5.32-.32,10.64-1.05,16-.41,4,.48,5.52-1.44,4.25-5.35a5.9,5.9,0,0,0-3.9-3.9c-9.46-3.42-24.21.19-30.81,7.72a12.85,12.85,0,0,0-2.85,12.27c.74,2.9,1.55,5.79,2.52,8.62.73,2.12.89,3.6-1.46,5-2.73,1.66-2.4,6,.53,6.6,3.64.68,3.27,2.87,3.27,5.29Zm212.59-15.45a30.22,30.22,0,0,0-.89-8.25c-4-13.84-17.21-17.7-27.42-12-14.31,7.91-17.26,25.94-12.43,37.6,3.92,9.46,15.47,14.57,24.48,9.77C314.87,280,320.48,270.78,320.54,258.54Zm-68.7,32.95a44.8,44.8,0,0,0,0,4.49c.74,7.28,4.52,10.61,11.83,10.57A27.9,27.9,0,0,0,276,303.31c3.94-1.95,7.11-4.81,8.31-9.22.45-1.66,1.29-3.75-.68-5a5.51,5.51,0,0,0-5.79,0c-1.39.78-2.68,1.76-4,2.67a15,15,0,0,1-5.54,2.43c-4.06.85-6.38-1-6.4-5.22a31.12,31.12,0,0,1,.39-5.1,149.7,149.7,0,0,1,6.46-24.09c2.19-6.36,4.56-12.66,6.87-19,1.64-4.5.42-8.22-3.22-9.74-3.31-1.38-6,.4-8,5.27a16.18,16.18,0,0,0-.57,1.83c-2.44,9-5,17.89-7.26,26.89C254.37,273.78,252,282.45,251.84,291.49Zm146.21-2.95c-.15-1.38-.2-2.78-.47-4.14a83.88,83.88,0,0,0-7.88-22.57,244.88,244.88,0,0,0-12.89-21.38c-1.11-1.67-2.43-3.11-4.58-3-2.38.12-3.41,2-4.17,3.93s-1.56,4.2-2.18,6.35c-3.49,12-4.35,24.33-5.71,36.63a7.16,7.16,0,0,0,1.7,6c1.41,1.48,2.51,4.31,4.8,3.62,2.59-.77,2.93-3.67,3-6.21a99.58,99.58,0,0,0-.6-11.18c-.4-4.1.78-4.92,4.85-3.95,2.49.6,5,1.19,7.5,1.63,5.24.91,5.69,1.44,6.43,6.61a94.2,94.2,0,0,1,.63,10.87,4.73,4.73,0,0,0,2.58,4.47c1.94,1,3.28-.41,4.61-1.35C397.82,293.33,398.19,291,398.05,288.54Zm-159.37-5c-.05,3-.52,6,1.09,8.78.67,1.17,1.63,2.46,3,1.32,2.75-2.32,5.66-4.61,5.09-9-.68-5.3-1-10.65-1.64-15.94-1.23-9.33-2.6-18.66-6.21-27.44-1.91-4.66-5.33-5.22-8.14-1.24-8.13,11.47-15.08,23.58-19.24,37.11a47.32,47.32,0,0,0-2.19,12.6c-.08,3.15,2.89,6.43,5.54,6.55,2.22.1,3.67-2.23,3.83-6.05a81.93,81.93,0,0,1,.95-11.49c.45-2.47,1.71-4.12,4.34-4.42a81.58,81.58,0,0,0,10.35-2.14c3.15-.8,4.31.33,4,3.69C239.2,278.44,238.93,281,238.68,283.54ZM174.36,295.4a12.53,12.53,0,0,0,7.29-2.06,28.38,28.38,0,0,0,10.2-12.87c1.34-3.1.05-5.86-2.22-8.14a13.93,13.93,0,0,0-6.43-3.45c-4.95-1.34-9.92-2.61-14.89-3.89-2.06-.53-2.59-1.51-.8-3,2.78-2.25,5.82-4,9.55-4a14.29,14.29,0,0,0,4.75-.54c2.42-.81,3-2.32,1.53-4.41-1.85-2.68-4.57-3.34-7.64-2.89-5,.73-9.25,3.24-13.2,6.22-3.26,2.47-6,5.56-4.91,10s5.15,5.23,9,6c4.61.92,9.25,1.71,13.79,2.9,3.74,1,4.32,2.9,2.38,6.22a12.05,12.05,0,0,1-5.43,4.83c-2.76,1.3-4,.55-4.19-2.49-.26-3.4-2.2-5.44-5.28-5.54-2.92-.09-5,1.87-5,5.44C162.85,291.08,166.31,294.77,174.36,295.4Zm-24.11-30.71c.42-5.35-1.46-8.5-4.41-11.05-1.42-1.23-3.31-1.9-5.05-.82a4.21,4.21,0,0,0-1.67,4.55c2.18,12.61,1.45,25.16-1,37.64A7.82,7.82,0,0,0,140,301.8c2.27,2.86,5.6,4.36,8,3.54,2.1-.72,3.65-4.5,3.35-8.07C150.47,286,147.76,274.81,150.25,264.69Zm-8.37-17.63a3.43,3.43,0,0,0,2.31,3.33,3.09,3.09,0,0,0,4-1.1c2.49-3.83,4.85-7.74,7.22-11.65a2.77,2.77,0,0,0,.06-2.77c-1.91-3.53-8.72-3.67-10.88-.3C142.15,238.37,142.64,242.76,141.88,247.06Z"></path><path class="cls-2" d="M311.93,225.06c-5.92-1.41-11.84-2.62-17.95-1-1.89.49-1.41-1.06-1.39-2,.13-6.08.28-12.11-1-18.17-1.52-7.4-4.38-14.23-7.59-21a14,14,0,0,1-.52-1.46c2.77-.13,5.55-.1,8.3-.41,14.07-1.61,27.29,1.62,40.22,6.77,2.81,1.12,3.59,2.51,2,5.27-3.32,5.87-5.13,12.68-9.46,17.85-3.58,4.26-6.52,9.2-11.22,12.5A8.82,8.82,0,0,0,311.93,225.06Z"></path><path class="cls-2" d="M214.89,181.37a88.54,88.54,0,0,0,5.54,24.13c.57,1.4.39,2.3-1.15,2.62-5.55,1.17-10.88,3.09-16.31,4.65a4,4,0,0,1-1.27-.07c-2.31.22-3.55-.86-5.1-2.71a87.62,87.62,0,0,1-7.82-11.76c-1.35-2.27-1.78-4.89-3.06-7.21-.63-1.14.56-2.43,2.06-3.08a150.5,150.5,0,0,1,14.61-5.13A38.2,38.2,0,0,1,214.89,181.37Z"></path><path class="cls-1" d="M200.56,342.4c2.58,1.63,4.6,3,6.7,4.21,1.35.79,1.37,1.6.6,2.86s-1.55,1.6-2.84.76c-2.59-1.7-5.24-3.29-7.81-5-1.79-1.2-2.91-1.49-2.6,1.34a28.53,28.53,0,0,1,0,3.2c0,1.47-.93,1.71-2.13,1.71s-1.86-.38-1.87-1.63c0-6.62-.09-13.24-.06-19.86,0-2,1.81-1.88,2.84-1.49,1.7.65,3,.18,4.56-.38,4.52-1.64,8.75-.49,10.16,2.64,1.7,3.74-.17,7.8-4.71,10.23C202.62,341.37,201.87,341.74,200.56,342.4Zm-5.94-6.16c.1,1.18-.37,2.61,1.58,2.91,2.42.37,6.68-1.44,7.75-3.56.72-1.41,1.07-3-.66-3.89-2.1-1.12-4.16-.36-6.11.56C195.53,333,194.37,334.19,194.62,336.24Z"></path><path class="cls-1" d="M319.68,338.49c4.77-.05,5.12.37,4.24,5.09s-3.51,7.51-7.28,7.76a9.26,9.26,0,0,1-9.38-6.78,15.14,15.14,0,0,1,1.05-12.43c2.95-5.29,10.07-6.43,13.87-2.28.65.71,1.9,1.54.86,2.68a2.3,2.3,0,0,1-3.37.45c-3.7-2.51-6.58-1.44-8.14,2.74a10.79,10.79,0,0,0,.6,9c.85,1.69,2.26,2.94,4.34,2.71,1.79-.2,2.74-1.47,3.36-3.08.54-1.38.14-2-1.36-2s-3.48.49-3.22-2.19c.24-2.48,2.21-1.33,3.47-1.64A4.4,4.4,0,0,1,319.68,338.49Z"></path><path class="cls-1" d="M271.72,351.37c-2.68-.19-5.09-.89-6.48-3.44-.43-.79-1.2-1.8,0-2.52a2.27,2.27,0,0,1,3,.14c.23.22.38.52.62.73,1.49,1.36,3.38,2.07,4.86.57,1.67-1.7-.06-3.14-1.29-4.26-1.82-1.64-4-2.95-5.66-4.69-2.72-2.8-2.67-7.06-.15-9.19s7-1.68,9.31,1c.61.7,2,1.6.79,2.66-1,.87-2.37,1.72-3.69.4-1.12-1.12-2.41-2.33-3.75-.83s-.15,3,1.09,4.12c1.85,1.61,3.87,3,5.72,4.63,2.16,1.87,3.54,4.22,2.32,7.09S274.54,351.26,271.72,351.37Z"></path><path class="cls-1" d="M163.91,351.39c-2.88-.05-5.23-.87-6.76-3.27-.49-.78-1.22-1.77-.25-2.57a2.14,2.14,0,0,1,3.17.11,4.75,4.75,0,0,0,2.9,1.84c1.1.13,2.17.1,2.86-.95a2.13,2.13,0,0,0-.61-2.88c-1.64-1.51-3.44-2.85-5.16-4.28-2.43-2-4.12-4.39-3.37-7.77a5.11,5.11,0,0,1,5.31-4.23,7.05,7.05,0,0,1,6.68,3.65,1,1,0,0,1-.52,1.57c-1,.38-1.91,1.15-3,.51-.44-.26-.7-.81-1.11-1.14-.9-.72-2-1.11-2.92-.28a2.15,2.15,0,0,0,0,3.18,37.2,37.2,0,0,0,3.74,3.46c1,.91,2.2,1.69,3.22,2.61,2.06,1.85,3.28,4.1,2,6.84S166.48,351.27,163.91,351.39Z"></path><path class="cls-1" d="M240.49,339.41c0-3.2,0-6.4,0-9.6-.05-1.87.56-2.68,2.59-2.57,3,.15,6,0,8.95,0,1.25,0,2.36,0,2.32,1.81,0,1.61-1,1.94-2.3,1.93a38.26,38.26,0,0,1-4.15,0c-2.8-.36-3.49.93-3.34,3.48.1,1.77.63,2.53,2.45,2.39a35,35,0,0,1,3.83,0c1.07,0,1.49.67,1.48,1.68s-.25,1.92-1.54,2l-1.28,0c-4.94.13-4.94.13-4.9,5,0,1.28,0,2.56,0,3.84a1.7,1.7,0,0,1-1.89,2c-1.45,0-2.22-.5-2.21-2C240.5,346,240.49,342.71,240.49,339.41Z"></path><path class="cls-1" d="M290.24,341.23c0,2.57,0,5.13,0,7.7,0,1.34-.24,2.32-1.86,2.36s-2.28-.65-2.26-2.3c.07-4.81,0-9.63.06-14.44,0-2.13-.25-3.57-2.91-3.19-1.45.2-2.73.05-2.77-2.06s1.15-2.15,2.67-2.13c3.64,0,7.28,0,10.91,0,1.32,0,2.31.22,2.27,1.91s-.54,2.58-2.24,2.26c-3.51-.66-4.23,1.08-3.91,4.12a55.47,55.47,0,0,1,0,5.77Z"></path><path class="cls-1" d="M217,341.2c0-1.81-.13-3.64,0-5.45.23-2.9,0-5.14-3.9-4.48-1.44.25-1.75-.84-1.76-2.06s.34-2.07,1.79-2.06c4,0,7.92,0,11.87,0,1.34,0,1.9.58,1.92,1.94s-.45,2.4-2,2.15c-3.51-.56-4,1.21-3.86,4.2.22,4.37,0,8.77,0,13.15,0,1.61-.3,2.69-2.27,2.63s-1.87-1.32-1.86-2.65C217,346.13,217,343.67,217,341.2Z"></path><path class="cls-1" d="M303.53,339.27c0,3.29,0,6.59,0,9.89,0,1.41-.43,2.19-2,2.21s-2.25-.65-2.25-2.29q0-9.88-.06-19.79c0-1.75.84-2.19,2.36-2.19s1.94.91,1.93,2.27c0,3.3,0,6.6,0,9.9Z"></path><path class="cls-1" d="M327,339c0-3.19,0-6.39,0-9.58,0-1.6.51-2.35,2.2-2.32,1.53,0,2,.71,2,2.15q0,10.06,0,20.14c0,1.56-.71,2-2.15,2s-2-.71-2-2.15c0-3.41,0-6.82,0-10.23Z"></path><path class="cls-1" d="M261.39,339.2c0,3.31,0,6.63,0,9.94,0,1.43-.46,2.18-2,2.16s-2.11-.63-2.1-2.11c0-6.63,0-13.26,0-19.89,0-1.47.52-2.19,2-2.19s2.12.65,2.1,2.14c0,3.31,0,6.63,0,9.95Z"></path><path class="cls-1" d="M172.79,342.17c0-2.34,0-4.68,0-7,0-1.3.09-2.29,1.81-2.28,1.53,0,2.4.39,2.38,2.13,0,4.78,0,9.56.05,14.34,0,1.58-.82,2-2.2,2-1.57,0-2-.79-2-2.18,0-2.34,0-4.68,0-7Z"></path><path class="cls-1" d="M186.17,342.34c0,2.35,0,4.7,0,7.05,0,1.32-.53,1.95-1.89,2s-2.26-.3-2.26-1.93c0-4.8,0-9.6-.06-14.4,0-1.43.47-2.18,2-2.12s2.16.54,2.11,2.08c-.07,2.46,0,4.91,0,7.36Z"></path><path class="cls-1" d="M316.07,326.51a4.22,4.22,0,0,1-2.86-.95c-.55-.51-1.14-1.16-.53-1.92s1.17-.24,1.68.17c.7.58,1.37,1,2.26.33.72-.55,1.7-1.58,2.26-.14.47,1.19-.84,1.78-1.77,2.27A3.59,3.59,0,0,1,316.07,326.51Z"></path><path class="cls-1" d="M177.2,328.26c-.18,1.39-.73,2.26-2,2.33a2,2,0,0,1-2.32-2.06,1.91,1.91,0,0,1,1.92-2.13C176.26,326.27,176.83,327.25,177.2,328.26Z"></path><path class="cls-1" d="M184.12,326.37a2.08,2.08,0,0,1,2.14,2.25,2,2,0,0,1-2.09,2A2,2,0,0,1,182,328.4C182,327.1,182.89,326.55,184.12,326.37Z"></path><path class="cls-2" d="M251.6,235.91c-1.34-1.33-2.18-2.46-1.33-4.14,4.7-9.24-1.29-21.46-13.25-24.24-2.92-.68-5.81-1.32-8.86-.7-1.62.33-3,.18-3.72-1.94-3-8.64-5.3-17.37-4.9-26.62a43.75,43.75,0,0,1,1.53-9.45c.2-.74.13-2,1.24-2,.57,0,1.22.79,1.66,1.36,5.37,6.91,10.68,13.86,16.05,20.77q9.53,12.26,19.12,24.46c.83,1.06,1.69,2.49,3.39,1.58s1.18-2.28.79-3.68q-7.19-25.26-14.32-50.55a14.68,14.68,0,0,1-.59-2.16c-.22-1.54-1.93-3.49-.78-4.42,1.38-1.13,3.41.36,5,1.1,10.77,5.17,18.46,13.61,24.69,23.54a76.58,76.58,0,0,1,11.46,34.28c.36,3.87-.38,7.67-.78,11.49-.08.77-.13,1.86-1.1,2.16s-1.39-.69-1.92-1.33c-7.77-9.18-23.8-11.3-30.77,4.28C253.31,231.65,252.55,233.61,251.6,235.91Z"></path><path class="cls-2" d="M325.06,275.71c.08-6.59-.87-13.25,1.15-19.75,2.87-9.23,9.07-15.06,18.22-17.66,5.95-1.69,9.71.62,10.94,6.55,1.43,6.92,1.87,13.81-2.5,20a24.33,24.33,0,0,1-10.8,8.25c-2,.84-2.51,1.42-.63,3.26A16.13,16.13,0,0,0,351.7,281c2.81.26,5.67.79,6.39,4.21.59,2.84-1.67,7.74-4.09,8.9s-4.39.12-6.24-1.23a51.17,51.17,0,0,1-10.59-9.71c-.64-.83-1.28-1.63-2.28-1.37s-.59,1.45-.61,2.21a27.88,27.88,0,0,0,1.54,11c1.82,4.68,0,9.22-4.28,11.87-2.13,1.32-3.38.81-4.12-1.94a82,82,0,0,1-2.31-16.78C324.87,284.06,325.06,279.88,325.06,275.71Zm23.49-22.12c0-3.63-1.63-4.77-5.1-3.5-4.95,1.82-7.56,5.65-8.91,10.51-.53,1.91-1.73,4.59-.54,5.69s3.75-.45,5.58-1.2C344.72,263,348.57,259.78,348.55,253.59Z"></path><path class="cls-3" d="M228.36,229.7a36.52,36.52,0,0,0-16.25,3.06,5,5,0,0,0-3.2,4.62c-1.46,13.42-1.45,26.91-2.09,40.37a150,150,0,0,1-1.88,14.95c-.37,2.43-1.9,4.07-3.6,5.51-3.64,3.08-7.09,2-8.5-2.47a13,13,0,0,1,.65-9.62c3.88-8.72,5-18.08,5.56-27.52.31-5.77.39-11.55.68-17.31.14-2.81-.89-2.9-2.92-1.57s-4.24,2.5-6.27,3.88a8.28,8.28,0,0,1-7.33,1.12c-2.2-.63-4.6-1.37-4.88-4a6.63,6.63,0,0,1,3.43-6.44,40.46,40.46,0,0,1,6.85-3.48c11.53-4.27,23.09-8.49,35.14-11.12a23.6,23.6,0,0,1,9.86-.38c3.65.75,6.21,3.52,5.82,6.19s-3.58,4.64-7.23,4.44Z"></path><path class="cls-3" d="M108,274V267.9c0-2.42.37-4.61-3.27-5.29-2.93-.56-3.26-4.94-.53-6.6,2.35-1.43,2.19-2.91,1.46-5-1-2.83-1.78-5.72-2.52-8.62a12.85,12.85,0,0,1,2.85-12.27c6.6-7.53,21.35-11.14,30.81-7.72a5.9,5.9,0,0,1,3.9,3.9c1.27,3.91-.2,5.83-4.25,5.35-5.37-.64-10.69.09-16,.41-4.21.26-6.47,2.66-6.75,6.78a38.48,38.48,0,0,0,1.25,12.07c.47,1.88,1.45,2.38,3.26,1.75,2.43-.83,4.9-1.53,7.35-2.28,3.1-.94,4.56.22,5.48,4.35.84,3.8,0,5.59-3.22,5.89a55.54,55.54,0,0,1-8.65.18c-2.47-.16-2.93.68-2.44,2.92,1.73,7.95,3.74,15.83,6.22,23.56,2.69,8.34-2.4,12.49-9,14.27-3.1.83-5.29-.86-6.15-4.51a36.76,36.76,0,0,1-.4-11.18q.42-5.91.83-11.83Z"></path><path class="cls-2" d="M320.54,258.54c-.06,12.24-5.67,21.43-16.26,27.07-9,4.8-20.56-.31-24.48-9.77-4.83-11.66-1.88-29.69,12.43-37.6,10.21-5.65,23.4-1.79,27.42,12A30.22,30.22,0,0,1,320.54,258.54Zm-9.16,3.16a25.15,25.15,0,0,0-5.79-16.34c-1.61-2.05-3.38-2.33-5.6-1.31-4.41,2-6.54,6.33-5.79,11.67.21,1.54,1,3.38-.74,4.37-1.4.81-2.89.07-4.1-1-1.41-1.23-2.16-.86-2.6.93A18.38,18.38,0,0,0,288.4,274c3.3,5.71,9.77,7.31,14.39,3.51A23.69,23.69,0,0,0,311.38,261.7Z"></path><path class="cls-2" d="M251.84,291.49c.17-9,2.53-17.71,4.72-26.39,2.27-9,4.82-17.93,7.26-26.89a16.18,16.18,0,0,1,.57-1.83c2-4.87,4.67-6.65,8-5.27,3.64,1.52,4.86,5.24,3.22,9.74-2.31,6.31-4.68,12.61-6.87,19a149.7,149.7,0,0,0-6.46,24.09,31.12,31.12,0,0,0-.39,5.1c0,4.18,2.34,6.07,6.4,5.22a15,15,0,0,0,5.54-2.43c1.32-.91,2.61-1.89,4-2.67a5.51,5.51,0,0,1,5.79,0c2,1.24,1.13,3.33.68,5-1.2,4.41-4.37,7.27-8.31,9.22a27.9,27.9,0,0,1-12.28,3.24c-7.31,0-11.09-3.29-11.83-10.57A44.8,44.8,0,0,1,251.84,291.49Z"></path><path class="cls-2" d="M398.05,288.54c.14,2.47-.23,4.79-2.4,6.3-1.33.94-2.67,2.32-4.61,1.35a4.73,4.73,0,0,1-2.58-4.47,94.2,94.2,0,0,0-.63-10.87c-.74-5.17-1.19-5.7-6.43-6.61-2.51-.44-5-1-7.5-1.63-4.07-1-5.25-.15-4.85,3.95a99.58,99.58,0,0,1,.6,11.18c0,2.54-.39,5.44-3,6.21-2.29.69-3.39-2.14-4.8-3.62a7.16,7.16,0,0,1-1.7-6c1.36-12.3,2.22-24.67,5.71-36.63.62-2.15,1.36-4.27,2.18-6.35s1.79-3.81,4.17-3.93c2.15-.1,3.47,1.34,4.58,3a244.88,244.88,0,0,1,12.89,21.38,83.88,83.88,0,0,1,7.88,22.57C397.85,285.76,397.9,287.16,398.05,288.54ZM375,251.21a2.69,2.69,0,0,0-2.51,1.93,43.87,43.87,0,0,0-2.64,10.52c-.25,1.51.75,1.71,1.92,1.89,3.25.51,6.54.88,9.62,2.21.81.35,1.71,1.23,2.63.31s.43-1.77.19-2.72c-1.17-4.57-4.38-8.16-6.11-12.49A4.31,4.31,0,0,0,375,251.21Z"></path><path class="cls-3" d="M238.68,283.54c.25-2.55.52-5.1.75-7.66.3-3.36-.86-4.49-4-3.69a81.58,81.58,0,0,1-10.35,2.14c-2.63.3-3.89,1.95-4.34,4.42a81.93,81.93,0,0,0-.95,11.49c-.16,3.82-1.61,6.15-3.83,6.05-2.65-.12-5.62-3.4-5.54-6.55a47.32,47.32,0,0,1,2.19-12.6c4.16-13.53,11.11-25.64,19.24-37.11,2.81-4,6.23-3.42,8.14,1.24,3.61,8.78,5,18.11,6.21,27.44.69,5.29,1,10.64,1.64,15.94.57,4.38-2.34,6.67-5.09,9-1.34,1.14-2.3-.15-3-1.32C238.16,289.54,238.63,286.53,238.68,283.54Zm-14.87-17.3c0,1.51.17,2.83,2.15,2a42.12,42.12,0,0,1,10.55-2.61c1.13-.16,2.15-.47,1.91-2-.6-3.8-1.22-7.62-2.92-11.12-.88-1.82-2.49-2.25-3.89-.74A33.14,33.14,0,0,0,223.81,266.24Z"></path><path class="cls-3" d="M174.36,295.4c-8.05-.63-11.51-4.32-11.5-11.64,0-3.57,2.08-5.53,5-5.44,3.08.1,5,2.14,5.28,5.54.22,3,1.43,3.79,4.19,2.49a12.05,12.05,0,0,0,5.43-4.83c1.94-3.32,1.36-5.25-2.38-6.22-4.54-1.19-9.18-2-13.79-2.9-3.85-.76-7.9-1.54-9-6s1.65-7.54,4.91-10c3.95-3,8.17-5.49,13.2-6.22,3.07-.45,5.79.21,7.64,2.89,1.45,2.09.89,3.6-1.53,4.41a14.29,14.29,0,0,1-4.75.54c-3.73,0-6.77,1.76-9.55,4-1.79,1.45-1.26,2.43.8,3,5,1.28,9.94,2.55,14.89,3.89a13.93,13.93,0,0,1,6.43,3.45c2.27,2.28,3.56,5,2.22,8.14a28.38,28.38,0,0,1-10.2,12.87A12.53,12.53,0,0,1,174.36,295.4Z"></path><path class="cls-3" d="M150.25,264.69c-2.49,10.12.22,21.32,1.14,32.58.3,3.57-1.25,7.35-3.35,8.07-2.41.82-5.74-.68-8-3.54a7.82,7.82,0,0,1-1.87-6.79c2.41-12.48,3.14-25,1-37.64a4.21,4.21,0,0,1,1.67-4.55c1.74-1.08,3.63-.41,5.05.82C148.79,256.19,150.67,259.34,150.25,264.69Z"></path><path class="cls-3" d="M141.88,247.06c.76-4.3.27-8.69,2.7-12.49,2.16-3.37,9-3.23,10.88.3a2.77,2.77,0,0,1-.06,2.77c-2.37,3.91-4.73,7.82-7.22,11.65a3.09,3.09,0,0,1-4,1.1A3.43,3.43,0,0,1,141.88,247.06Z"></path><path class="cls-1" d="M348.55,253.59c0,6.19-3.83,9.4-9,11.5-1.83.75-4.24,2.43-5.58,1.2s0-3.78.54-5.69c1.35-4.86,4-8.69,8.91-10.51C346.92,248.82,348.57,250,348.55,253.59Z"></path><path class="cls-1" d="M311.38,261.7a23.69,23.69,0,0,1-8.59,15.79c-4.62,3.8-11.09,2.2-14.39-3.51A18.38,18.38,0,0,1,286.76,260c.44-1.79,1.19-2.16,2.6-.93,1.21,1.05,2.7,1.79,4.1,1,1.72-1,1-2.83.74-4.37-.75-5.34,1.38-9.64,5.79-11.67,2.22-1,4-.74,5.6,1.31A25.15,25.15,0,0,1,311.38,261.7Z"></path><path class="cls-1" d="M375,251.21a4.31,4.31,0,0,1,3.1,1.65c1.73,4.33,4.94,7.92,6.11,12.49.24.95.6,1.93-.19,2.72s-1.82,0-2.63-.31c-3.08-1.33-6.37-1.7-9.62-2.21-1.17-.18-2.17-.38-1.92-1.89a43.87,43.87,0,0,1,2.64-10.52A2.69,2.69,0,0,1,375,251.21Z"></path><path class="cls-1" d="M223.81,266.24a33.14,33.14,0,0,1,7.8-14.45c1.4-1.51,3-1.08,3.89.74,1.7,3.5,2.32,7.32,2.92,11.12.24,1.5-.78,1.81-1.91,2A42.12,42.12,0,0,0,226,268.23C224,269.07,223.84,267.75,223.81,266.24Z"></path></svg>