<svg xmlns="http://www.w3.org/2000/svg" xmlns:xlink="http://www.w3.org/1999/xlink" id="Layer_1" data-name="Layer 1" viewBox="0 0 500 500"><defs><style>.cls-1,.cls-4{fill:none;}.cls-1{clip-rule:evenodd;}.cls-2{clip-path:url(#clip-path);}.cls-3{fill:url(#linear-gradient);}.cls-4{stroke:#130b04;stroke-miterlimit:22.93;stroke-width:0.57px;}.cls-5,.cls-6{fill:#743e2a;}.cls-21,.cls-6{fill-rule:evenodd;}.cls-7{clip-path:url(#clip-path-2);}.cls-8{fill:url(#linear-gradient-2);}.cls-9{clip-path:url(#clip-path-3);}.cls-10{fill:url(#linear-gradient-3);}.cls-11{clip-path:url(#clip-path-4);}.cls-12{fill:url(#linear-gradient-4);}.cls-13{clip-path:url(#clip-path-5);}.cls-14{fill:url(#linear-gradient-5);}.cls-15{clip-path:url(#clip-path-6);}.cls-16{fill:url(#linear-gradient-6);}.cls-17{clip-path:url(#clip-path-7);}.cls-18{fill:url(#linear-gradient-7);}.cls-19{clip-path:url(#clip-path-8);}.cls-20{fill:url(#linear-gradient-8);}.cls-21{fill:#501f1f;}.cls-22{clip-path:url(#clip-path-9);}.cls-23{fill:url(#linear-gradient-9);}.cls-24{clip-path:url(#clip-path-10);}.cls-25{fill:url(#linear-gradient-10);}.cls-26{clip-path:url(#clip-path-11);}.cls-27{fill:url(#linear-gradient-11);}.cls-28{clip-path:url(#clip-path-12);}.cls-29{fill:url(#linear-gradient-12);}.cls-30{clip-path:url(#clip-path-13);}.cls-31{fill:url(#linear-gradient-13);}.cls-32{clip-path:url(#clip-path-14);}.cls-33{fill:url(#linear-gradient-14);}.cls-34{clip-path:url(#clip-path-15);}.cls-35{fill:url(#linear-gradient-15);}.cls-36{clip-path:url(#clip-path-16);}.cls-37{fill:url(#linear-gradient-16);}.cls-38{clip-path:url(#clip-path-17);}.cls-39{fill:url(#linear-gradient-17);}.cls-40{clip-path:url(#clip-path-18);}.cls-41{fill:url(#linear-gradient-18);}.cls-42{clip-path:url(#clip-path-19);}.cls-43{fill:url(#linear-gradient-19);}.cls-44{clip-path:url(#clip-path-20);}.cls-45{fill:url(#linear-gradient-20);}.cls-46{clip-path:url(#clip-path-21);}.cls-47{fill:url(#linear-gradient-21);}.cls-48{clip-path:url(#clip-path-22);}.cls-49{fill:url(#linear-gradient-22);}.cls-50{clip-path:url(#clip-path-23);}.cls-51{fill:url(#linear-gradient-23);}.cls-52{clip-path:url(#clip-path-24);}.cls-53{fill:url(#linear-gradient-24);}.cls-54{clip-path:url(#clip-path-25);}.cls-55{fill:url(#linear-gradient-25);}.cls-56{clip-path:url(#clip-path-26);}.cls-57{fill:url(#linear-gradient-26);}.cls-58{clip-path:url(#clip-path-27);}.cls-59{fill:url(#linear-gradient-27);}.cls-60{clip-path:url(#clip-path-28);}.cls-61{fill:url(#linear-gradient-28);}.cls-62{clip-path:url(#clip-path-29);}.cls-63{fill:url(#linear-gradient-29);}</style><clipPath id="clip-path"><path class="cls-1" d="M377.81,206.38a6.25,6.25,0,1,1-6,6.24,6.11,6.11,0,0,1,6-6.24"></path></clipPath><linearGradient id="linear-gradient" x1="-982.51" y1="-313.82" x2="-982.17" y2="-313.82" gradientTransform="translate(-44114.94 -11484.78) rotate(180) scale(45.29 37.27)" gradientUnits="userSpaceOnUse"><stop offset="0" stop-color="#9d5918"></stop><stop offset="1" stop-color="#d3a987"></stop></linearGradient><clipPath id="clip-path-2"><path class="cls-1" d="M180,278.09c.62-.41,2.9-2.11,3.58-2.11l.64,0,2.53.3.25,0,1.21-.19,3.1-.41c-.13-.52-.38-.91-.53-1.67a11.56,11.56,0,0,1-.21-2v-.24a3.17,3.17,0,0,1,.33-1.14v-.16c0-.59-1.3-2.29-1.3-3.1,0-.38,2.19-1.47,2.19-1.87,0-.12-.38-.33-.48-.4l-2.45-.33c-.21-.1-.78-.2-1.06-.31a4.41,4.41,0,0,1-.89-.5,4.67,4.67,0,0,1-1.49-1.19,7.38,7.38,0,0,1,.37-8.56,10.15,10.15,0,0,1,1.47-1.46,2.34,2.34,0,0,1,1.93-1l2.61-1c-.1-.16-.17-.16-.17-.34v-.08l.19-1.38,0-.25a26.92,26.92,0,0,1,.5-5.36c.28-1.44.52-1-1.11-1.42a6.54,6.54,0,0,0-2.48-.54,42.74,42.74,0,0,1-4.83,0,20.13,20.13,0,0,1-4-.93,27.81,27.81,0,0,1-1.09,9.74c-.36,1.2-.84,3.16-1.08,4.37-.16.82-.33,1.47-.43,2.33s0,1.89-.12,2.57c-.28,1.59.09,3.79-.18,5.27-.44,2.41.8,3.08,1.08,4.31.19.83-.08,1.61.19,2.57a11.7,11.7,0,0,0,.7,2c.49,1,.26,1.49.55,2.21a4.87,4.87,0,0,1,.46,2.23"></path></clipPath><linearGradient id="linear-gradient-2" x1="-990.59" y1="-293.21" x2="-990.3" y2="-293.21" gradientTransform="translate(-45831.2 -32644.86) rotate(180) scale(46.46 112.22)" xlink:href="#linear-gradient"></linearGradient><clipPath id="clip-path-3"><path class="cls-1" d="M181,231.63a5.06,5.06,0,0,0-1.95,3.83l0,.82.29,1.86,1.14,1.47h0a7.11,7.11,0,0,0,2.35.89l2.44.49,4.48.33c1.25.08,2.46-.08,3.74-.08s2.26.44,3.64.22c.93-.14,2.61-.13,3.6-.22.71-.07,1.22-.22,1.82-.33l1.92-.16.74-.05,4.22.37,3.75.49c.52.07,1.32-.32,2-.32h.41a4.89,4.89,0,0,1,.57.08l3.49,1a3.51,3.51,0,0,0,1.87-.3l2.77-2.46c-.8-1.2-1.71-1.55-2.37-3.25a12.18,12.18,0,0,1-.64-5.05c0-1.77.72-5,1.95-5.37a3.3,3.3,0,0,0-1.38-.41c-.74,0-1.32.65-1.73,1-.66.65-1.26.27-2.31.46-1.48.27-3.11-.74-4.83-.61l-10.32.82v-.08h-1.3a35.93,35.93,0,0,1-5.39-.47,39.09,39.09,0,0,0-5.35-.59h-1.95a20.79,20.79,0,0,0-2.88.37,6.68,6.68,0,0,0-1.9,1.44,13.94,13.94,0,0,0-2.87,3.8"></path></clipPath><linearGradient id="linear-gradient-3" x1="-997.69" y1="-279.65" x2="-997.55" y2="-279.65" gradientTransform="translate(37993.51 -49926.89) rotate(-90) scale(50.28 135.14)" xlink:href="#linear-gradient"></linearGradient><clipPath id="clip-path-4"><path class="cls-1" d="M188,263.53c1,.85,8.38,1.14,10.49,1.14,1.93,0,3.82-.15,5.69-.29,2.42-.11,5.46-.28,5.46-.28l11.63-.49c-1.12-1.67-2.3-2.57-2.52-5.21,0-.59-.16-.68-.16-1.22v-1c0-1.78,1.54-4.8,2.52-5.46l.49-.65.17-.23a.84.84,0,0,0-.58-.25c-.71,0-2.75,1.24-3.74,1.13l-1.87-.19-2.44,0-9.92,1.23v-.09h-1.54l0,.11-7.88-.94c-.82.37-1.73.82-2.65,1.19s-2,.72-2.71,1.1a5.39,5.39,0,0,0-2.93,4.72c-.42.67.45,2.89.65,3.34.36.8,1,2.06,1.87,2.28"></path></clipPath><linearGradient id="linear-gradient-4" x1="-999.17" y1="-278.58" x2="-999.04" y2="-278.58" gradientTransform="translate(30480.96 -44639.68) rotate(-90) scale(44.94 108.69)" xlink:href="#linear-gradient"></linearGradient><clipPath id="clip-path-5"><path class="cls-1" d="M221.76,231.63v1.06a8.26,8.26,0,0,0,1.08,4.37c.53.94,1.57,2.63,2.9,2.63h.41c1,0,1.38-2.64,1.38-3.82V235a42.34,42.34,0,0,0-.37-5.73c-.22-1.22.17-1.68-.78-2.31a7.63,7.63,0,0,0-2.18-.91c-1.76,0-2.44,3.73-2.44,5.61"></path></clipPath><linearGradient id="linear-gradient-5" x1="-1002.64" y1="-251.21" x2="-1002.51" y2="-251.21" gradientTransform="translate(4556.07 -40679.72) rotate(-90) scale(40.81 17.24)" xlink:href="#linear-gradient"></linearGradient><clipPath id="clip-path-6"><path class="cls-1" d="M221.31,251c-.09.33-.27.34-.72,1.07-.09.3-.39.79-.53,1.19a8.69,8.69,0,0,0-.76,3v.33l.08,1.87a9.51,9.51,0,0,0,.63,2.46l.72,1.27c.42.56,1.22,1.74,1.76,1.74s1-2,1.06-2.68c0-.18.4-3.33.4-3.34,0-2.73.1-7.49-1.81-7.64Z"></path></clipPath><linearGradient id="linear-gradient-6" x1="-1001.32" y1="-245.09" x2="-1001.19" y2="-245.09" gradientTransform="translate(3820.81 -40844.64) rotate(-90) scale(41.05 14.69)" xlink:href="#linear-gradient"></linearGradient><clipPath id="clip-path-7"><path class="cls-1" d="M220.63,280.74a20,20,0,0,0-1,4.51l0,.49.19,1.38,1,1.88,1.47,1.7a1.3,1.3,0,0,0,.73.33h.16c2,0,3-5.39,3-7.81l-.33-3.17-.48-2c-.13-.26-.29-.73-.65-.73h-.25c-1.86,0-3.19,1.91-3.81,3.46"></path></clipPath><linearGradient id="linear-gradient-7" x1="-1000.01" y1="-254.85" x2="-999.87" y2="-254.85" gradientTransform="translate(5192.71 -40764.07) rotate(-90) scale(41.05 19.5)" xlink:href="#linear-gradient"></linearGradient><clipPath id="clip-path-8"><path class="cls-1" d="M197.46,292.25l.44-.11a1.89,1.89,0,0,1-.44.11m20.95-5a1,1,0,0,1,.37.17Zm-23.82-10.84a19.69,19.69,0,0,0-2.8.54,26.36,26.36,0,0,1-3.3-.05,20.18,20.18,0,0,1-2.2,0c-.72-.06-1.41-.24-2.11-.24H184c-1.54,0-2.87,1.73-3.41,2.76a6.33,6.33,0,0,0-1.79,2.85l.24,3.18c.14.22,0,.29.28.61a6,6,0,0,0,.39.59,7.5,7.5,0,0,0,.9,1,9.94,9.94,0,0,0,2.26,1.49,13,13,0,0,0,4.89,1.85l3,.42c.78.12,2.23.48,2.92.49l2.86.62,1.62.28a1.3,1.3,0,0,0,.73.16h.33c.26,0,.62-.61.73-.81.34-.23.55-.51,1-.79l.07,0,.86-.29a2.73,2.73,0,0,0,.41-.14l2-.19,2-.1,1.64-.05,5.93.7,6.43.16-1.31-3.82-.08,0-.24-2.89s.5-2.18.57-2.44a9.46,9.46,0,0,1,.94-2.15,11.94,11.94,0,0,1,1.23-1.78,14.29,14.29,0,0,1,1.73-1.37l-1.54.16-3.34-.07c-.05-.21-.08-.15-.08-.32,0-1,1.46-.72,1.46-1.3v-.09c0-.2-.27-.37-.4-.56s-.27-.41-.49-.41h-.08c-.46,0-.12.34-.56.5-.23.07-.56,0-.88.1-.6.11-1.12.22-1.73.3-1.13.15-2.34.39-3.45.61s-2.28.36-3.5.57c-2.32.4-2.37-.86-3-.86h-.24s-2.26,1-2.68,1.15a10.06,10.06,0,0,1-3,.72h-.16C197.93,277.36,196,276.38,194.59,276.38Z"></path></clipPath><linearGradient id="linear-gradient-8" x1="-993.88" y1="-279.55" x2="-993.75" y2="-279.55" gradientTransform="translate(37266.59 -54996.77) rotate(-90) scale(55.62 132.59)" xlink:href="#linear-gradient"></linearGradient><clipPath id="clip-path-9"><path class="cls-1" d="M131.79,242.53a8,8,0,0,0-1.22-.16l-4.95.58v-.09H125a10.39,10.39,0,0,1-2.31-.45,10,10,0,0,1-1.6-1.18,28.71,28.71,0,0,1-1.19,4.66c-.53,1.46-.78,3.12-1.3,4.56a30.93,30.93,0,0,0-.89,5,30.33,30.33,0,0,0-.76,5.18v.4c0,1.87-.11,4.64.43,6,.28.71,1.92,4.24,1.92,4.58l0,.41-.19,1.62,0,2.77.1,1.38c.78-.89.24-1.05,1.63-1.79a5.19,5.19,0,0,0,2,.57h1.47c1.66,0,3.22-.69,4.63-.81l1.79.16h.17v-.32c0-.51-.4-.52-.67-.88a4.15,4.15,0,0,1-.44-1.11,7.71,7.71,0,0,1-.6-2.49c0-.43.4-1,.4-1.38v-.33c0-.17-.44-.53-.57-1.05a8.23,8.23,0,0,0,.74-3.34v-.81c0-.34-.25-.57-.25-1.14a22.31,22.31,0,0,1,.56-4.57c.16-.53.27-1.53.39-2.14.18-.9.46-1.19.58-1.93.25-1.59.49-2.87.78-4.35a19,19,0,0,0,.62-4.42v-.41c0-.5-.22-1-.16-1.38l.19-1.3Z"></path></clipPath><linearGradient id="linear-gradient-9" x1="-993.23" y1="-293.47" x2="-992.94" y2="-293.47" gradientTransform="translate(-45809.66 -31746.82) rotate(180) scale(46.25 109.06)" xlink:href="#linear-gradient"></linearGradient><clipPath id="clip-path-10"><path class="cls-1" d="M132.85,291.27a9.63,9.63,0,0,0,1.71,0c.83,0,.86.33,1.46.49a8,8,0,0,0,1,.16c1.95,0,1.92-.74,3.34-1.05a19.45,19.45,0,0,1,4.14-.09c1.4,0,2.32-.73,3.82-.73h.41a26.67,26.67,0,0,1,5.42.93,26.48,26.48,0,0,0,5.4.94c1.32,0,3.47-.45,4-1.22-1.67,0-1.4-.18-2.36-.89s-.76-1.15-1.3-2c0-.52-.17-.62-.17-1.14v-1.46a14.33,14.33,0,0,1,.49-2.36,7.54,7.54,0,0,1,.59-1.28c.27-.33.82-.61.94-.93.32-.88.55-.23,1-.9.33-.51.68-.71.91-1a1.3,1.3,0,0,0-.41-.08h-.49c-.72,0-1.3.32-1.79.32a9.39,9.39,0,0,1-2.62-.87,13.13,13.13,0,0,0-2.84-.74c-.71-.12-5.93-1-6.17-1l-1.71.27-1.14-.49a1.94,1.94,0,0,0-1.05-.74.77.77,0,0,0-.49.25l-1,.49c-1.08.09-2.35,1-3.58,1h-2c-1,0-1.77-.19-2.6-.24a25,25,0,0,0-2.53.16h-.48c-1,0-2.8-.65-3.83-.65-2.59,0-4.2.81-6.42.81h-.08a8.07,8.07,0,0,1-1.55-.4c-.65,0-.77.67-.81,1.3a3.07,3.07,0,0,1-.71,1.47l-.11,1.05a4.2,4.2,0,0,0-.49,1.79c0,.78-.16,1.7-.16,2.2V285c0,1.05.55,1.39.77,2,.29.83,0,1.55.64,2.2a31.08,31.08,0,0,0,3.47,2.14l.65-.08h1.14c1.5,0,2.46,0,3.91-.08a12,12,0,0,1,1.79-.08c.65.05,1.36.16,1.95.16"></path></clipPath><linearGradient id="linear-gradient-10" x1="-996.1" y1="-278.74" x2="-995.97" y2="-278.74" gradientTransform="translate(37640.9 -48829.92) rotate(-90) scale(49.31 134.54)" xlink:href="#linear-gradient"></linearGradient><clipPath id="clip-path-11"><path class="cls-1" d="M161.24,231.39v1.71a8.47,8.47,0,0,0,1.1,4.42,5.92,5.92,0,0,0,1.32,1.45,4.3,4.3,0,0,0,.86.53c.39.18.85.23,1.11.35,2.31-1.55.58-4.56,2.12-5.37a5.91,5.91,0,0,1-.33-2.28c-.46-.69-.68-2.78-1.16-3.8s-1.33-2.38-2.58-2.38h-.33c-1.33,0-2.11,3.73-2.11,5.37"></path></clipPath><linearGradient id="linear-gradient-11" x1="-1002.33" y1="-248.77" x2="-1002.19" y2="-248.77" gradientTransform="translate(4997.6 -41153.93) rotate(-90) scale(41.29 19.43)" xlink:href="#linear-gradient"></linearGradient><clipPath id="clip-path-12"><path class="cls-1" d="M160.42,286.39l.25,2c.55.37,1.43,2,2.28,2h.16c1.55,0,2.44-2.21,2.44-3.83v-1.06a19.1,19.1,0,0,0-.34-3.48c-.15-.66-.44-2.62-1.21-2.62a18.76,18.76,0,0,0-2.45,2.83,8.72,8.72,0,0,0-1.13,4.17"></path></clipPath><linearGradient id="linear-gradient-12" x1="-1005.87" y1="-239.23" x2="-1005.73" y2="-239.23" gradientTransform="translate(3839.63 -32696.96) rotate(-90) scale(32.79 15.37)" xlink:href="#linear-gradient"></linearGradient><clipPath id="clip-path-13"><path class="cls-1" d="M164.57,260.19a7.11,7.11,0,0,0-1-1.95c-.57-.82-1.08-.56-2.19-.74a30.56,30.56,0,0,0-5.3-.56h-.65a7.61,7.61,0,0,0-1.77.42c-.63.15-1.24.18-1.24,1v.24c0,.85,1.09,1.35,1.63,1.71a10.73,10.73,0,0,0,4,1.63,46.34,46.34,0,0,0,5.29.41c.71,0,1.78-1.25,1.22-2.12"></path></clipPath><linearGradient id="linear-gradient-13" x1="-995.66" y1="-347.25" x2="-995.53" y2="-347.25" gradientTransform="translate(-36324.13 -5307.35) rotate(180) scale(36.64 16.03)" xlink:href="#linear-gradient"></linearGradient><clipPath id="clip-path-14"><path class="cls-1" d="M160.1,235.13a19.28,19.28,0,0,1,.66-5.27c.21-.74.49-1.46.73-2.2s.87-1.68,1-2l-1.47-.1c-.85-.07-3.79,1.06-5.69,1.06h-.16a.82.82,0,0,1-.57-.25v.09L141.8,227h-.25c-4.09,0-7.41-1.3-11.22-1.3h-1.22a6.22,6.22,0,0,0-3.58,1c-1.7,0-2.16,1.24-2.91,2.22a21.9,21.9,0,0,1-2.3,2.82,5.87,5.87,0,0,0-1.71,2.85v.24a12.47,12.47,0,0,0,.53,2.33c.14.41.24.63.39,1,.22.53,0,.15.35.38s.15.26.28.45l.49,1c1.16.78,1.9,2.28,4,2.28,1.26,0,2.44-.33,2.69-1.38.33-.36.49-.25,1.14-.25a9.18,9.18,0,0,0,1.3.49h.08c.26,0,.59-.64.65-.9.25-.28.32-.65.81-.65h.57c1.45,0,2.7.74,3.5.74.6,0,.81-.25,1.3-.25h.49c.5,0,.62.16,1.06.16,1.14,0,1.64-.55,3.17-.56a9.87,9.87,0,0,0,3.18-.57c1.4-.46,5.2.24,7,.24h.08c.45,0,.05-1,1-1h.24c1,0,2.13,1.14,3.5,1.14h.32c.6,0,.94-.4,1.14-.4H158c.39,0,1,1.2,2.36,1.3.58,0,1.31-.06,1.87,0a11.11,11.11,0,0,0,1.63.24l.73-.24c-1.1,0-1.27.11-1.81-.55-.41-.5-.8-.81-1.18-1.26a7.64,7.64,0,0,1-1-1.47,17.32,17.32,0,0,1-.51-1.93"></path></clipPath><linearGradient id="linear-gradient-14" x1="-997.89" y1="-278.85" x2="-997.76" y2="-278.85" gradientTransform="translate(38401.67 -49461.88) rotate(-90) scale(49.8 137.21)" xlink:href="#linear-gradient"></linearGradient><clipPath id="clip-path-15"><path class="cls-1" d="M163,263.44a25.22,25.22,0,0,1-3.26-.16c-.9-.1-1.95-.58-2.76-.65-.27-.23-2.57-1-3.22-1.41s-2.31-1.49-2.31-2.41v-.08c0-.19.06-.18.16-.33l.76-.53,0-.08-2.84,1-1.62.57c-1.31.11-6,.94-6,2V262c0,2.15,1.69,1.35,3.41,1.55a15.67,15.67,0,0,1,2,.4c.88.23.75.62,1.13,1.39.24.47.64.85,1,1.49s.47,1.19.76,1.76a3.34,3.34,0,0,1,.49,1.95,22.21,22.21,0,0,1,.21,2.37l-.29,2.6c-.07.57,1.88.56,2.45.64a14.29,14.29,0,0,1,2.5.59,21.87,21.87,0,0,0,2.44.65,16.07,16.07,0,0,1,2.37.8l.4.08a2.48,2.48,0,0,0,.48.11,3.22,3.22,0,0,0,.54,0c.06,0,.06-.08.2-.09l.29,0a.56.56,0,0,1,.23-.06h.84a1.8,1.8,0,0,1,.44.05,2.12,2.12,0,0,1,.31.14l.35.17-.06-.82-.15-.41a2.68,2.68,0,0,1-.09-.46,2.56,2.56,0,0,0,0-.47,1.27,1.27,0,0,1-.11-.38c0-.14,0-.23,0-.35v-.78c0-.1,0-.61,0-.61s.06-.36.06-.47.06-.4.06-.51a.8.8,0,0,1,0-.27c0-.15.13-.4.16-.52a3.53,3.53,0,0,1,.15-.42l.14-.36c0-.08.09-.22.11-.28l.12-.28a.88.88,0,0,0,.07-.28,3,3,0,0,0,0-.41,2,2,0,0,1,0-.35c0-.11.07-.47.07-.55s0-.53,0-.53l0-1.06s0-.73,0-.8.09-.51.1-.66,0-.44,0-.62v-.66c0-.15,0-.45,0-.62v-1.53l-.05-.35-.34.31a3.35,3.35,0,0,1-.39.22,2.3,2.3,0,0,1-.49.15c-.11,0-.29,0-.39,0l-.39,0"></path></clipPath><linearGradient id="linear-gradient-15" x1="-986.82" y1="-300.26" x2="-986.68" y2="-300.26" gradientTransform="translate(-68212.39 -18304.15) rotate(180) scale(69.28 61.85)" xlink:href="#linear-gradient"></linearGradient><clipPath id="clip-path-16"><path class="cls-1" d="M250.63,230.82l-.73.16-2.6.24a9.84,9.84,0,0,1-5.22-1.12c-.34-.22-.53-.49-1-.51a2.2,2.2,0,0,1-1.32-.3c-.64-.4-1.18-1.27-1.64-1.57l-.22,2.28v1.63c0,.7.9,2.28.9,2.93,0,1.09-1.22,1.74-1.22,2.44v1.71c0,2.1,1.22,3.19,1.22,4.88a43.55,43.55,0,0,1-1.06,7.08c-.34,1-.43,2.3-.77,3.3a13,13,0,0,0-.77,3.37,46.75,46.75,0,0,1,0,5.55c-.37,2.39.73,3.55.63,5.11l-.48,8.79c1-.52.44-1.15,2-1.87a5,5,0,0,0,2.52.57h.08a18.65,18.65,0,0,0,3-.32,13.18,13.18,0,0,1,2.85-.53l4.14.52.81-.08a2.71,2.71,0,0,1-.57-1.22v-.57c0-1.74.81-2.89,1.14-4.31a7.72,7.72,0,0,1-.73-1.71v-.49c0-.56.89-2.51.89-3.25v-.17c0-1.16-1-1.88-1-3V260a5.63,5.63,0,0,1,.32-1.79l.57-1.63a4.47,4.47,0,0,0,.75-1.37,9.11,9.11,0,0,0,.06-2c0-.61.12-1.28.09-2a13,13,0,0,1-.08-2l.89-8,.33-3.25c0-.41-.23-1.36-.25-1.87,0-.68,0-1.34-.08-2-.1-1.34-.16-2.54-.16-4.07l0-1.07-.15.18c-.26.3-.73.65-.89.89Z"></path></clipPath><linearGradient id="linear-gradient-16" x1="-986.36" y1="-291.2" x2="-986.06" y2="-291.2" gradientTransform="translate(-53358.02 -42401.64) rotate(180) scale(54.35 146.48)" xlink:href="#linear-gradient"></linearGradient><clipPath id="clip-path-17"><path class="cls-1" d="M273.82,286.31a25.53,25.53,0,0,1,.4-6.59,13.83,13.83,0,0,1,2.12-5.05c-1.38,0-1,.59-2,.74-.37,0-2.27.4-2.44.4h-.41c-.71,0-1.8-1-3.09-1H268c-1.48,0-1.83,1-2.76,1.06-1.24,0-2.57,0-3.83,0a23.53,23.53,0,0,1-3.66,0,28.66,28.66,0,0,0-3.49-.4h-.66c-.71,0-2.28.55-2.69.56l-4.71-.73H245c-1.47,0-3.33.82-4.8.82h-.4a4.39,4.39,0,0,1-1.63-.49c-.69.36-.91,1.58-1.14,2.44-.93.62-1.14,2.14-1.14,3.66v2s.55,2.41.6,2.58.92,1.73,1.11,2.06c.37.63.79,1.41,1.56,1.62a8.12,8.12,0,0,0,1.45.17c.47,0,.9.41,1.22.41H242c.45,0,1.05-.49,1.63-.49h.41a13.77,13.77,0,0,1,1.78.33c.72.15,1.18.07,1.95.17l3.82.4a27.4,27.4,0,0,0,3.75.49c1.28,0,2.69.24,4,.24l2.93.16,2.19.08h7.41a18.47,18.47,0,0,0,3.41-.73V291a.8.8,0,0,0-.32-.49c-.06-.21-.39-.86-.53-1.19s-.32-1.26-.37-1.33Z"></path></clipPath><linearGradient id="linear-gradient-17" x1="-995.19" y1="-280" x2="-995.06" y2="-280" gradientTransform="translate(34050.69 -51202.53) rotate(-90) scale(51.74 120.69)" xlink:href="#linear-gradient"></linearGradient><clipPath id="clip-path-18"><path class="cls-1" d="M274.22,283.46v1.38a14.89,14.89,0,0,0,.65,3.51c.26.86.54,2.59,1.55,2.59,1.41,0,2.22-2,2.36-3.33a40.36,40.36,0,0,0,.73-5V281.1a16.6,16.6,0,0,0-.6-3.79c-.18-.65-1.18-2.64-1.76-2.64a20.43,20.43,0,0,0-1.25,1.68,7.6,7.6,0,0,0-.93,2,18.1,18.1,0,0,0-.75,5.11"></path></clipPath><linearGradient id="linear-gradient-18" x1="-996.43" y1="-254.74" x2="-996.29" y2="-254.74" gradientTransform="translate(4297.9 -48121.08) rotate(-90) scale(48.58 15.79)" xlink:href="#linear-gradient"></linearGradient><clipPath id="clip-path-19"><path class="cls-1" d="M238.68,227.73a5.25,5.25,0,0,0,1.62,1.3,1,1,0,0,0,.41-.09l.25.18.16-.09,1.95,1.14,2.2.4,1.22.17h1.7a8.84,8.84,0,0,0,3.69-.87c.69-.34,2.53-1.48,1.6-2.55l-1.22-1-1.54-.57a19.85,19.85,0,0,0-4.23-.89c-.26,0-2.07-.15-2.4-.21a11.29,11.29,0,0,0-2.38.15c-1,.14-3.52.76-3.52,1.77v.08a1.42,1.42,0,0,0,.49,1.06"></path></clipPath><linearGradient id="linear-gradient-19" x1="-987.99" y1="-343.24" x2="-987.69" y2="-343.24" gradientTransform="translate(-45613.55 -6016.7) rotate(180) scale(46.42 18.19)" xlink:href="#linear-gradient"></linearGradient><clipPath id="clip-path-20"><path class="cls-1" d="M286.51,280.21v-3.83l-.17,1.22,0,.57ZM304.73,289c0-3.65-.19-6.87-.24-10.42,0-1-.18-3.92-.36-4.92a39.18,39.18,0,0,1-.22-5.16,1,1,0,0,1,.25-.65v.65M294.64,232c-1.63-.38-4.68-2-5.69-2.12,0,.44-.06,1.73-.15,2.06-.17.69-.75,1-.75,1.44,0,.76.65,1.24.65,2.2v.32c0,.76-1.05,1.06-1.05,2.44v.25c0,.35.36,2,.4,2.6a23.59,23.59,0,0,0,.29,2.72,28.73,28.73,0,0,1,.77,5.34v.16c0,.89-.49,2.64-.57,3.58a26.07,26.07,0,0,1-.85,3.38,33.63,33.63,0,0,0-.53,3.7c-.06,1.13-.49,2.79-.49,3.74V266c0,.57.24.8.24,1.14v.24a18.15,18.15,0,0,1-.4,1.79v.16a4.71,4.71,0,0,0,.47,1.8,12.19,12.19,0,0,1,.5,1.78v1c0,.7-.58,1.19-.34,2.7.13.84.11,2.22.18,3.08l.41,4.31-.57,5c-.23,1.66,1.64,1.95,3.09,1.95h5.2l3.83-.16a13.75,13.75,0,0,0,5.45-1.79l.57-.24v-3.83c0-1.38-.17-2.51-.17-3.82a38.39,38.39,0,0,0-.16-3.9,8,8,0,0,0-.43-1.61,5.77,5.77,0,0,1-.13-1.9c0-1.1-.43-2.49-.35-3.74l.1-1.46v-1.06c.54-.81,3-2.81,3-3.9v-.41c0-1.13-1.08-1.77-1.14-2.52-.65.17-1.64,1.85-2.47,1.87l.19-3.66c.24-.36.15-.35.3-.76s.31-.41.45-.69a5.8,5.8,0,0,0,.15-2.13c0-2.09,0-4.87.25-6.83a52.16,52.16,0,0,1,.67-6.4c.15-.5,0-1,.21-1.5a2.43,2.43,0,0,0,.28-1.42,15.71,15.71,0,0,1-.36-3.22c0-1.08.09-2.29.09-3.5s.32-2.31.3-3.26l-.47.9v.17l-1.05.89v-.32c-.44.1-1.15.34-1.62.49s-1.16.24-1.74.39a24.19,24.19,0,0,1-3.8.5h-1.87A3.36,3.36,0,0,1,294.64,232Z"></path></clipPath><linearGradient id="linear-gradient-20" x1="-983.48" y1="-289.67" x2="-983.2" y2="-289.67" gradientTransform="translate(-60904.24 -53225.3) rotate(180) scale(62.24 184.64)" xlink:href="#linear-gradient"></linearGradient><clipPath id="clip-path-21"><path class="cls-1" d="M304.65,210.83a1.62,1.62,0,0,0,.4-1.06v-.16c0-1-2.64-1.79-3.9-1.79l-3.09-.57-2-.17-1-.16-.9,0-2.36.29-1.22.49-1.38,1.06a2.8,2.8,0,0,0-.73,1v.16a8.16,8.16,0,0,0,2.27,1.55c1,.26,2,.78,2.85,1a5.44,5.44,0,0,0,3,.57l2.28-.24,3.5-.49,1.54-.57Z"></path></clipPath><linearGradient id="linear-gradient-21" x1="-985.19" y1="-345.42" x2="-984.91" y2="-345.42" gradientTransform="translate(-48742.15 -6049.65) rotate(180) scale(49.78 18.12)" xlink:href="#linear-gradient"></linearGradient><clipPath id="clip-path-22"><path class="cls-1" d="M297.65,213.43l-1.46.08c-2.45.19-4.87-1.95-6.56-2l-.94-.62-.47,2.07-1.06.05c-.1.15-.41.54-.41.73s.53.68.72,1.24a7.67,7.67,0,0,1,.48,1.47,4.92,4.92,0,0,0,1.59,2.4,2.27,2.27,0,0,0,1.25.7,9.53,9.53,0,0,1,1.3.73c.64.31.94.13,1.73.22s.84.73,1.31.73c.27,0,.17-.16.32-.16.42,0,.79.32,1.55.32l1.55,0,2.35-.19.41-.08c2.05,0,3-.42,3.74-1.79.58-.67.82-5.86.82-7.49v-.57a1.77,1.77,0,0,0-.41-1.22c-.09,1.13-1.61,2.38-2.6,2.61Z"></path></clipPath><linearGradient id="linear-gradient-22" x1="-984.11" y1="-316.64" x2="-983.83" y2="-316.64" gradientTransform="translate(-55857.76 -10499.83) rotate(180) scale(57.07 33.84)" xlink:href="#linear-gradient"></linearGradient><clipPath id="clip-path-23"><path class="cls-1" d="M291.88,225.29l-2.2,1c-.52.28-1.46,1.05-1.46,1.79v.25c0,1,2.64,1.56,3.52,2a8.51,8.51,0,0,0,4.28,1.25l4.4-.41,2-.32a5.32,5.32,0,0,0,2.44-.9,2.14,2.14,0,0,0,.9-1.62v-.17c0-1.22-1.77-1.51-2.77-1.78a20.92,20.92,0,0,0-3.74-.82l-2.12-.24-3.58-.25h-.4c-.08,0-1.27.23-1.3.25"></path></clipPath><linearGradient id="linear-gradient-23" x1="-984.74" y1="-339.42" x2="-984.46" y2="-339.42" gradientTransform="translate(-51349.89 -6367.26) rotate(180) scale(52.45 19.43)" xlink:href="#linear-gradient"></linearGradient><clipPath id="clip-path-24"><path class="cls-1" d="M334.17,272.25c-1.37-1.19-3.41-3-3.41-5.53v-1c0-2,1.9-4.22,2.36-6.18.67-.5,1.46-1.61,2.47-1.84.7-.16.35-.5.19-1.4a9.93,9.93,0,0,1-.22-2v-1.79c0-2.42.75-4.25.73-6.43a28.32,28.32,0,0,1,.29-3.28c.11-.64.64-2.65.6-3L336.7,235l.57-4.48c-.38.28-.82.82-1.39,1.22a18.32,18.32,0,0,1-1.79.81,8.56,8.56,0,0,1-4.23,1h-.73a8.91,8.91,0,0,1-2.76-.57,14.57,14.57,0,0,0-2.29-1,11.27,11.27,0,0,1-2.51-.82v2.44a1.32,1.32,0,0,1-.65,1.06c0,.87.73,1.26.73,1.79v.24c0,1-1.14,1.48-1.14,2.2v.08a50.84,50.84,0,0,0,.88,5.47,45.83,45.83,0,0,1,.34,6.09,18.2,18.2,0,0,1-.47,4.32c-.15.61-.31,1.33-.5,1.87s-.29,1.32-.48,1.95-.43,3.53-.51,4.3c-.14,1.26-.56,3-.56,4.23v.25c0,1.7,1.8,4.76,1.72,5.29l-.42,2.28-.49,2.6v1.38a27.22,27.22,0,0,0,.5,3.81c.21,1.17.43,2.53.62,3.78s0,3,.55,3.76a4.4,4.4,0,0,0,3.13,1.26l1.22,0,3.17-.2a22.75,22.75,0,0,0,4.52-.68c1.26-.29,3.29-.47,3.29-1.92v-.17a18.49,18.49,0,0,0-.52-2.89,16.55,16.55,0,0,1-.37-3.13v-.08c0-1,.33-2.22.32-2.85s-.32-2-.41-2.84-.3-2-.32-2.85-.91-1.29-1.55-1.71"></path></clipPath><linearGradient id="linear-gradient-24" x1="-983.38" y1="-289.73" x2="-983.09" y2="-289.73" gradientTransform="translate(-52679.41 -52548.3) rotate(180) scale(53.91 182.27)" xlink:href="#linear-gradient"></linearGradient><clipPath id="clip-path-25"><path class="cls-1" d="M352,253.37c.91-.61,3.59-3.55,4.57-4.53,1.55-1.54,3-3.06,4.52-4.6s3.23-2.75,4.8-4.31c.78-.79,1.53-1.46,2.32-2.24.55-.55,2-1.8,2.32-2.23l-2.1-.31-.65,0-.73.1c-1.47,0-1.66-.75-2.52-1-.2-.27-2.4-1.64-3.08-2.38-.89-1-.32-.93-.75-2a7.57,7.57,0,0,1-.73-2c-.3.22-.82,1-1.29,1.39a3.61,3.61,0,0,1-.74.56c-.43.19-.62,0-1.08.31-1,.74-.45,2.22-2.82,2.62-1.13.2-1.92,1.9-2.67,2.7-.94,1-1.66,1.83-2.65,2.81a35.29,35.29,0,0,1-5.7,5.11c-1.1.74-2.14,1.4-3.24,2.14s-2.2,1.91-3,2.38l-.45,5.77a9.25,9.25,0,0,0,.41,2.68l-.09,1.14a9.65,9.65,0,0,1,3.26-.32c.7.47.35.66,1.62,1.07a5.82,5.82,0,0,1,1.63,1l2.36,1.39a7.74,7.74,0,0,1,1.24-1.45c.41-.41.77-1.05,1.22-1.54a20.42,20.42,0,0,1,2.67-2.87Z"></path></clipPath><linearGradient id="linear-gradient-25" x1="-983.67" y1="-287.24" x2="-983.53" y2="-287.24" gradientTransform="matrix(0, -140.71, 141.24, 0, 40924.02, -138155.68)" xlink:href="#linear-gradient"></linearGradient><clipPath id="clip-path-26"><path class="cls-1" d="M369.07,281.2l-1.22-1.14h-.16a18.22,18.22,0,0,0-1.85-1.65,15.14,15.14,0,0,1-1.75-1.74,8.61,8.61,0,0,0-1.87-1.64c-.61-.48,0-.44-1-.67-.6-.13-.68-.42-1.22-.57-1.13-.31-1.83,0-2.71-.79-.63-.57-1.06-1.23-1.66-1.83a43.79,43.79,0,0,0-3.44-3.56l-2.76-2.36c-.14-.18-.92-.62-1.25-.95s-.69-.77-1.09-1.18a16.51,16.51,0,0,0-2.45-2,20.42,20.42,0,0,1-2.52-2c-.65-.67-1-.45-1.42-.77-.61-.51-.24-.67-1.61-.67H338c-.2,0-2.43.59-2.52.65l-1.39,1.06-2.52,5.28a6.19,6.19,0,0,0-.65,2V267c0,2.12,3.23,4.31,4.49,5.52.87.82,1.68,1.58,2.53,2.44a29.79,29.79,0,0,0,2.63,2.41,34,34,0,0,1,2.66,2.3c.86.86,1.75,1.59,2.6,2.45s4.94,3.76,6,4a14.92,14.92,0,0,0,1.39.88c.44.35.76.77,1.21,1.07a14.31,14.31,0,0,0,3.38,2.72c1,.69,2.48,2.17,3.94,2.17h.41c-.19-.28-.74-.58-.74-.9,0-.8,2.75-4.4,3.32-5.15a24,24,0,0,1,1.75-2.48c.73-.76,1.39-1.37,2.17-2.05.36-.08.56-.33.9-.33l.36,0Z"></path></clipPath><linearGradient id="linear-gradient-26" x1="-979.54" y1="-278.34" x2="-979.42" y2="-278.34" gradientTransform="translate(153844.4 43893.11) scale(156.71)" xlink:href="#linear-gradient"></linearGradient><clipPath id="clip-path-27"><path class="cls-1" d="M362.16,291.86v.24a1.33,1.33,0,0,0,.73.74c1.87,0,3.52-2.82,4.42-4,.63-.83,2.9-4.44,2.9-5.57v-.48c-2.08,0-3.74,2.56-4.59,3.95-.34.57-3.46,5.14-3.46,5.16"></path></clipPath><linearGradient id="linear-gradient-27" x1="-988.88" y1="-261.25" x2="-988.76" y2="-261.25" gradientTransform="translate(38236.06 10293.24) scale(38.3)" xlink:href="#linear-gradient"></linearGradient><clipPath id="clip-path-28"><path class="cls-1" d="M369.07,234.66a1.3,1.3,0,0,0,.73.16l.17,0,.89-.19.49-.24a.73.73,0,0,0,.41-.65v-.41c0-.73-1.46-2.35-2-2.69-.55-.82-4.4-4.28-5.53-4.31l-.73-.08-1.46.16c-.56.13-1.19.24-1.47.65l-.16.09a5,5,0,0,0,.7,2.47c.73,1.07.12,1,1.15,2a19.7,19.7,0,0,0,3.6,2.83c.5,0,1.59.54,2.19.16Z"></path></clipPath><linearGradient id="linear-gradient-28" x1="-1000.87" y1="-295.22" x2="-1000.74" y2="-295.22" gradientTransform="matrix(0, -41.29, 42.3, 0, 12854.41, -41096.84)" xlink:href="#linear-gradient"></linearGradient><clipPath id="clip-path-29"><path class="cls-1" d="M333,232.38l1.39-.57,1.38-.57c.48-.11,1-.84,1.22-1.22a1.44,1.44,0,0,0,.49-1.05c0-1.11-1-1.38-1.71-1.71a13,13,0,0,0-2.67-.75c-.86-.21-2-.28-2.95-.47a16.5,16.5,0,0,0-3.25-.25,9,9,0,0,0-3.74.82l-1.06.73-.81.73a.48.48,0,0,0-.24.49,1.38,1.38,0,0,0,.16.65c.2.87.37,1.33,1.15,1.62.3.11,1.95.65,2.18.66,1.64,0,2.25,1.46,4.23,1.46l1.47,0,1.22-.19Z"></path></clipPath><linearGradient id="linear-gradient-29" x1="-984" y1="-334.12" x2="-983.72" y2="-334.12" gradientTransform="translate(-47933.75 -6937.27) rotate(180) scale(49.05 21.45)" xlink:href="#linear-gradient"></linearGradient></defs><g class="cls-2"><rect class="cls-3" x="371.84" y="206.38" width="11.94" height="12.49"></rect></g><ellipse class="cls-4" cx="377.81" cy="212.62" rx="5.97" ry="6.24"></ellipse><path class="cls-5" d="M376.9,209.43a1.16,1.16,0,0,1,.43-.07,1.38,1.38,0,0,1,1.12.48,2,2,0,0,1,.41,1.29,1.58,1.58,0,0,1-.57,1.46.73.73,0,0,1-.34.12l-.38,0a1.35,1.35,0,0,1-.67-.18Zm1,3.79c.23.35.54.83,1,1.45.26.36.5.66.71.91a2.36,2.36,0,0,0,.57.54,1.71,1.71,0,0,0,.59.13,3.31,3.31,0,0,0,.62.05h.4c.14,0,.2,0,.19-.12s-.05-.14-.16-.15-.43-.22-.76-.6c-.53-.63-1.23-1.49-2.11-2.57a4.41,4.41,0,0,0,1-1.24,2.53,2.53,0,0,0,.22-1,1.75,1.75,0,0,0-.19-.85,1.27,1.27,0,0,0-.45-.47,1.41,1.41,0,0,0-.64-.32,6.12,6.12,0,0,0-1.43-.12c-.49,0-.88,0-1.18,0-.54,0-.92,0-1.14,0h-.28q-.21,0-.21.12a.14.14,0,0,0,.16.15q.75,0,.78.54c0,.33,0,1,0,2v1.74c0,1.11,0,1.79,0,2.05s-.06.38-.14.43a1.47,1.47,0,0,1-.57.11c-.13,0-.19,0-.19.14s.05.13.15.13h.3l1.1,0h.72l.43,0h.32a.16.16,0,0,0,.18-.15c0-.1-.06-.14-.17-.14q-.58,0-.63-.12s-.07-.15-.1-.36a14.59,14.59,0,0,1-.05-1.52v-.79Z"></path><path class="cls-6" d="M372.32,212.64a6,6,0,0,1,1.58-4.24,5.41,5.41,0,0,1,7.89.06,6.4,6.4,0,0,1,0,8.36,5.09,5.09,0,0,1-4,1.73A5.22,5.22,0,0,1,374,216.8a5.9,5.9,0,0,1-1.63-4.16m.6,5a6.9,6.9,0,0,1-2-5h0a6.94,6.94,0,0,1,2-5,6.63,6.63,0,0,1,4.91-2.06h0a6.71,6.71,0,0,1,4.92,2,7.08,7.08,0,0,1,2,5h0a7,7,0,0,1-2,5,6.69,6.69,0,0,1-4.9,2.07h0A6.64,6.64,0,0,1,372.92,217.66Z"></path><path class="cls-6" d="M218.05,286.36l-.14-1.69a.73.73,0,0,1,0-.33c.21-.79.34-1.62.56-2.41a9.72,9.72,0,0,1,1-2.36,12.87,12.87,0,0,1,1.18-1.73l-2.39,0a.84.84,0,0,1-.81-.65v0a1.09,1.09,0,0,1-.1-.5,1.59,1.59,0,0,1,.3-1l-.26,0c-.59.1-1.17.23-1.77.31-1.14.14-2.27.37-3.39.6s-2.35.37-3.53.57a3.85,3.85,0,0,1-2.44-.23,2.84,2.84,0,0,1-.64-.45l-.16-.15c-.38.15-.77.34-1.15.5s-.91.42-1.36.58a10.3,10.3,0,0,1-3.31.77h-.16a9,9,0,0,1-2.35-.39,12.11,12.11,0,0,0-2.61-.58,6.62,6.62,0,0,0-1.39.23c-.42.11-.84.22-1.26.29a9.64,9.64,0,0,1-2,0c-.48,0-1-.07-1.44-.07a21.67,21.67,0,0,1-2.28,0c-.67-.06-1.37-.24-2-.24H184c-1.08,0-2.21,1.45-2.67,2.32a.57.57,0,0,1-.11.16,5.94,5.94,0,0,0-1.57,2.36l.22,2.87a2,2,0,0,1,.08.22.31.31,0,0,0,.06.16c.13.18.24.38.37.55a8.74,8.74,0,0,0,.83.89,6.22,6.22,0,0,0,.71.55l0,0a1.41,1.41,0,0,1,.57-.18l.12,0a1.18,1.18,0,0,0,.19-.32c.33-.83.83-2.11,1.89-2.11h.08a1.73,1.73,0,0,1,.91.25c.76.46,1,1.37,1.33,2.12.25.5.49.84,1.05.88l.1-.1a1.82,1.82,0,0,1,.61-.37,2.33,2.33,0,0,1,.65-.11h.1a1.11,1.11,0,0,1,.07-.16,2.45,2.45,0,0,1,.3-.58,1.92,1.92,0,0,1,1.71-.79c1.19,0,2.66,1,3.63,1.61a14,14,0,0,0,2.8,1.64h0a2,2,0,0,0,.34-.22,5.27,5.27,0,0,1,.72-.52,6.38,6.38,0,0,1,2.18-.45,3.08,3.08,0,0,0,1.35-.44c.25-.18.47-.38.74-.54a2.21,2.21,0,0,1,1.48-.33,40.49,40.49,0,0,1,4.09.66c.13,0,.45.14.68.19,0-.13,0-.28,0-.38.1-.82.47-1.63,1.43-1.63s1.75.86,2.4,1.51c.22.23.79.82,1.15.85a2.51,2.51,0,0,0,.23-.21c.19-.19.38-.38.59-.56a3.22,3.22,0,0,1,2.14-.86ZM219.7,251l-.11,0a5.13,5.13,0,0,1-2.23.52l-1.82-.19-2.35,0-9.86,1.23a.82.82,0,0,1-.49-.09h-.78a.8.8,0,0,1-.51.11l-7.65-.92c-.81.38-1.62.77-2.46,1.11s-1.82.66-2.66,1.08a4.59,4.59,0,0,0-2.46,4,.85.85,0,0,1-.11.35,7.68,7.68,0,0,0,.69,2.57c0,.13.14.32.24.53a1.75,1.75,0,0,1,1.27-.62h.4a5.38,5.38,0,0,1,1.49.28,4.26,4.26,0,0,0,1.12.21h.12a1.32,1.32,0,0,1,.62-.29,2,2,0,0,1,.54,0h.08l0,0a3.09,3.09,0,0,1,.26-.37,1.66,1.66,0,0,1,1.28-.57h.41a7.06,7.06,0,0,1,2.83.79c.62.28,1.21.59,1.82.88a3.86,3.86,0,0,0,1,.36h.33a.54.54,0,0,0,.35-.11,4.24,4.24,0,0,1,.59-.33,3.36,3.36,0,0,1,1.21-.22,5.46,5.46,0,0,0,.58,0,6.53,6.53,0,0,0,1.32-.24c.16-.07.33-.17.48-.25a2.34,2.34,0,0,1,1.08-.35h1.24l3.72.45a.85.85,0,0,1,.82-.62h.32a3.8,3.8,0,0,1,1.39.42,1.69,1.69,0,0,0,.45.14,3.84,3.84,0,0,0,.54-.25,2.61,2.61,0,0,1,1.12-.31,1.07,1.07,0,0,1,.5.1h0a.85.85,0,0,1,.58.49l.07,0a10.11,10.11,0,0,1,1.22-.51,8,8,0,0,1-.38-1.91v-.07a1.83,1.83,0,0,0-.07-.46,3.23,3.23,0,0,1-.1-.76v-1a8.07,8.07,0,0,1,.74-3A11.3,11.3,0,0,1,219.7,251Zm3.29,7.66.06-.43c0-.14,0-.31.06-.48,0-1,0-2,0-2.94s-.23-3.3-1.1-3.79l-.06,0a1.15,1.15,0,0,1-.06.17,3.17,3.17,0,0,1-.24.49,3.1,3.1,0,0,0-.21.58c-.12.44-.4.82-.54,1.24a8.1,8.1,0,0,0-.46,2.72v.3l0,1.14.22.08a.84.84,0,0,1,.47.75,12.75,12.75,0,0,0,.07,1.38,4.69,4.69,0,0,0,.29,1.23,1.2,1.2,0,0,0,.23.37,3.54,3.54,0,0,0,.41-.94,6,6,0,0,1,.63-1.62A1.14,1.14,0,0,1,223,258.68Zm-42.28,17.91a7.27,7.27,0,0,1,2.9-1.46h0l.65,0h.06l2.52.29.13,0,1.12-.17h0l2.08-.27a5.56,5.56,0,0,1-.23-.81,12,12,0,0,1-.22-2.15v-.24a2.8,2.8,0,0,1,.17-.95l.15-.33a8,8,0,0,0-.61-1.2,4.68,4.68,0,0,1-.69-1.92c0-.7.86-1.22,1.4-1.58l-1.4-.18a1,1,0,0,1-.24-.08,3,3,0,0,0-.43-.11,4,4,0,0,1-.59-.18,5,5,0,0,1-1-.58,5.12,5.12,0,0,1-1.74-1.43,8.09,8.09,0,0,1-1.32-4.64,7.85,7.85,0,0,1,1.7-4.84,9.91,9.91,0,0,1,1.57-1.6,8.28,8.28,0,0,1,.75-.7,2.84,2.84,0,0,1,1.61-.53l1.78-.66h0L191,249v-.15a.28.28,0,0,1,0-.09,28.35,28.35,0,0,1,.51-5.52,2.82,2.82,0,0,1,.07-.31l-.58-.14c-.35-.1-.68-.23-1-.34a3.57,3.57,0,0,0-1.22-.17c-.76,0-1.53,0-2.3,0a14.08,14.08,0,0,1-2.68-.1c-.61-.11-1.23-.21-1.83-.33l-1.06-.23a29.09,29.09,0,0,1-1.19,8.78c-.42,1.38-.78,2.87-1.06,4.29-.15.76-.34,1.5-.42,2.27s0,1.76-.13,2.62A11.68,11.68,0,0,0,178,262a14.81,14.81,0,0,1-.09,3,3.34,3.34,0,0,0,.12,1.88c.2.52.53,1,.75,1.48a4.35,4.35,0,0,1,.2.61,3.46,3.46,0,0,1,.09.78,7.4,7.4,0,0,0,.09,1.76,11.08,11.08,0,0,0,.65,1.83,4.61,4.61,0,0,1,.46,1.81,2,2,0,0,0,.11.47A7.64,7.64,0,0,1,180.71,276.59Zm44.82-18.36a11.59,11.59,0,0,1-.31,1.84c-.1.48-.22,1-.31,1.45a13.08,13.08,0,0,0-.19,1.64,1.67,1.67,0,0,1-.42,1.12,1.24,1.24,0,0,1-.37.27.83.83,0,0,1-.79.55h-.24a2.36,2.36,0,0,1-.87-.17,1.68,1.68,0,0,0-.54-.16,5.65,5.65,0,0,1-1.79-.07h-1l-6,.4h0a3,3,0,0,0-.52,0,10.81,10.81,0,0,1-1.5.2h-2.29c-1.43,0-2.86.1-4.29.16s-2.69.31-4,.41-2.68.08-4,.08l-.44.62-.91,6.58a.73.73,0,0,1,0,.25V275a6.59,6.59,0,0,0,1.66.47,14.56,14.56,0,0,0,2.62.6h1c.95,0,1.77-.62,2.71-.83s1.27-1.45,2.49-1.45h.17a3,3,0,0,1,2,.92l.27.28.55,0c1.16-.09,2.35-.39,3.5-.58s2.36-.41,3.53-.6l1.75-.3a13.91,13.91,0,0,1,2-.24c.51,0,.85.44,1.11.83a1.93,1.93,0,0,1,.79,1.24v.08c.72-.05,1.45-.12,2.17-.11a5.72,5.72,0,0,1,2.07.1,2.29,2.29,0,0,1,1.16,1.25,18.93,18.93,0,0,1,1.19,6.16v1.95a12,12,0,0,1-.91,4.13c-.68,1.69-2.07,4.17-4.11,4.36H222L206.23,292a4.51,4.51,0,0,0-.73,0c-.39,0-.78.08-1.17.14l-1.25.2c-.23.05-.51.1-.74.17a3.51,3.51,0,0,0-1.28.71c-.19.14-.38.35-.56.5a2.13,2.13,0,0,1-1.36.61,7.36,7.36,0,0,1-1.81-.36c-.52-.14-1.1-.16-1.64-.25-1.11-.2-2.24-.27-3.36-.44s-2.05-.3-3.08-.48c-.66-.11-1.32-.24-2-.38a11.1,11.1,0,0,1-1.59-.46c-3.66-1.43-8.26-3.9-8.29-8.43l-.18-1.49a.62.62,0,0,1,0-.13l0-.64a3.6,3.6,0,0,1,.33-1.41,9.64,9.64,0,0,0,.57-2.89v-.4a7.53,7.53,0,0,0-.5-2.34,13,13,0,0,1-1-3.93,4.67,4.67,0,0,0-.2-1.66c-.16-.47-.32-.88-.44-1.37a14.54,14.54,0,0,1-.41-3.72v-1.22a54.46,54.46,0,0,1,1.58-11c.36-1.75.54-3.54.85-5.3.15-.89.26-1.81.36-2.7q.09-.79.15-1.59c0-.38.07-.77.07-1.16v-.05c-.2-.73-.44-1.47-.65-2.2a11.47,11.47,0,0,1-.41-2.79c0-2.88,2.3-5.38,4.21-7.29.9-.89,1.79-1.8,2.69-2.69a3,3,0,0,1,2.65-.87c.84,0,1.67-.08,2.52-.08,2.85,0,5.68.36,8.52.57a42.37,42.37,0,0,1,4.37.29c.23,0,.5.06.74.09l1.25.11c.41,0,.83.06,1.25.07a5.3,5.3,0,0,0,.69,0,.92.92,0,0,1,.37,0l7.44-.86h0c.62-.05,1.31.37,1.92.41s1.3.16,2,.16h.4c.9,0,1.44-1.38,2.85-1.38h.57a12,12,0,0,1,3.56.78c1.22.37,2.58.83,3,2.17a9.21,9.21,0,0,1,.3,1.88c.07.82.1,1.64.12,2.46,0,1.21,0,2.43,0,3.64v1.55a5.63,5.63,0,0,1-.8,3.53,5.42,5.42,0,0,1-2.31,1.42,13.66,13.66,0,0,0-2.19,1,6.31,6.31,0,0,1-3,.88h-1.06a16.92,16.92,0,0,1-2.93-.39c-.26,0-.53-.08-.8-.1-.61-.05-1.21-.17-1.82-.24a4.45,4.45,0,0,0-.73,0,5.83,5.83,0,0,1-1.32,0c-1.17-.21-2.38-.31-3.55-.45a32.76,32.76,0,0,0-3.57-.4,18.11,18.11,0,0,0-7.1,1.82,11.74,11.74,0,0,0-1.14.54,13.53,13.53,0,0,0,0,1.68c0,1.29-.06,2.58-.08,3.88a33.28,33.28,0,0,0,4.3.42c1.08.05,2.16.07,3.23.07a17.79,17.79,0,0,0,2.42-.18c1.26-.17,2.51-.43,3.77-.64a25,25,0,0,1,4.15-.4h.72l2.69.24h0a12.7,12.7,0,0,0,2-.67,5.86,5.86,0,0,1,1.9-.4,1.76,1.76,0,0,1,1.42.57,4,4,0,0,1,.52.91c.27.45.59.87.86,1.32a7.66,7.66,0,0,1,1.29,3.74v1.71a.49.49,0,0,1,0,.12Z"></path><g class="cls-7"><rect class="cls-8" x="176.61" y="240.5" width="16.22" height="37.59"></rect></g><g class="cls-9"><rect class="cls-10" x="179.01" y="225.45" width="45.27" height="16.84"></rect></g><g class="cls-11"><rect class="cls-12" x="185.06" y="249.62" width="36.71" height="15.05"></rect></g><g class="cls-13"><rect class="cls-14" x="221.76" y="226.02" width="5.78" height="13.67"></rect></g><g class="cls-15"><rect class="cls-16" x="219.3" y="250.19" width="4.75" height="13.66"></rect></g><g class="cls-17"><rect class="cls-18" x="219.62" y="277.28" width="6.53" height="13.75"></rect></g><g class="cls-19"><rect class="cls-20" x="178.81" y="274.27" width="44.41" height="18.63"></rect></g><path class="cls-6" d="M181,236.22c.23,2.49,6.13,3.43,8.11,3.37a84.4,84.4,0,0,0,9.12-.68,32.81,32.81,0,0,1,6.18-.19,34.26,34.26,0,0,0,4.75-.12c3.8-.37,6.9.4,10.51,1.4.65.17,1.82.47,2.33-.22.16-.22-.06-.13-.14-.29h0a.31.31,0,0,1,0-.15v-.17a1.1,1.1,0,0,0,0,.32c.18,0,.31.13.19.32-.48.77-1.73.57-2.43.43-3.55-.68-6.68-1.22-10.29-.58a46.53,46.53,0,0,1-6.34.57c-1.55.07-3.08,0-4.6.13a84.31,84.31,0,0,1-9.27,0c-2.05-.09-8.09-1.51-8.12-4.1"></path><path class="cls-6" d="M181.76,233.65c.9-2.53,3.69-4.08,6.18-4.7a22.72,22.72,0,0,1,8.44.32,27.24,27.24,0,0,0,5.74,1,14.6,14.6,0,0,0,4.87-.43,40.25,40.25,0,0,1,7.79-1.35,36.4,36.4,0,0,0,5-.24,36.16,36.16,0,0,1-5,.32A40.14,40.14,0,0,0,207,230a15,15,0,0,1-4.93.52,21.52,21.52,0,0,1-5.8-1,22.65,22.65,0,0,0-8.34-.44c-2.48.57-5.27,2.06-6.21,4.56"></path><path class="cls-6" d="M183.93,234.6c1.06-1.93,8.75-2,10.77-1.69a15.24,15.24,0,0,1,3.15.68,4.09,4.09,0,0,0,2,.55,9.82,9.82,0,0,0,4.18-.43,10,10,0,0,1-5.84.48,9.65,9.65,0,0,0-2.56-.57c-2.17-.24-10.5-1-11.74,1"></path><path class="cls-6" d="M207.25,233.65a32,32,0,0,1,7-2.46c2.06-.41,2-.35,4,.45l-.51-.14c-1.72-.53-2.27-.22-3.92.34-2.14.73-4.37,1.07-6.5,1.81"></path><path class="cls-6" d="M183.71,236.11a47.29,47.29,0,0,0,5.56.6,63.94,63.94,0,0,1,7.32.34c1.56.16,5.36.46,6.82,0a16.16,16.16,0,0,0,3.17-1.58.23.23,0,0,1-.12.15c-1.35.78-2.08,1.54-3.7,2a39.92,39.92,0,0,1-8,.25c-1.88-.24-3.62-.54-5.52-.67a46,46,0,0,1-5.56-1.08"></path><path class="cls-6" d="M211,234.88a9.17,9.17,0,0,1,4.25.55,13.26,13.26,0,0,0,2.83.68c-1.29.16-3,.38-4.23-.21a8.44,8.44,0,0,0-2.85-1"></path><path class="cls-6" d="M180.32,281.29c3.54-4.26,6-2.54,10.51-2.32a8.56,8.56,0,0,0,3.87-.62c.76-.24,3.64.42,4.78.46a7.25,7.25,0,0,0,4-.91c1.61-.75,3.5,1.36,6,.05.89-.47.36-.34,1.5-.49,1.51-.2,3.52-.41,5-.45a50.3,50.3,0,0,0-5,.54c-1.14.17-.57,0-1.46.5-1.46.8-2.62.47-4.11.11s-1.22-.3-2.53.3c-2.1,1-4.19.69-6.37.28s-1.24-.06-3.26.32c-5.2,1-8.47-3-13,2.23"></path><path class="cls-6" d="M196.07,289.68h0M180.8,283c.28,3.06,2.2,4.11,5,4.76,3.11.71,6.4.57,9.42,1.65a4,4,0,0,0,.82.23,3.76,3.76,0,0,1,1.29-1.34c1.31-.71,4.26-.37,5.84-.27a51,51,0,0,1,10.5,1.76,5.14,5.14,0,0,0,1.71.19l-.6,0a17,17,0,0,1-3.29-.4,49.32,49.32,0,0,0-10.43-.43c-1.31.06-2.74-.14-3.43,1.07-.78,1.38-1.77,1.1-3,.53-2.81-1.29-6.48-1.44-9.54-2.56C182.45,287.3,180.81,286,180.8,283Z"></path><path class="cls-6" d="M181.59,283.19c2.9-2,8.12-1.9,11.51-1.47,1.8.23,3.53.76,5.27,1.06,2,.34,4.48,0,6.54-.06-1,.06-1.85.18-2.8.29-3.49.41-4.19,0-7.47-.43-3.91-.51-9.53-1.57-13,.61"></path><path class="cls-6" d="M208.08,282.72a4.72,4.72,0,0,1,3.28-2.06c2.16-.46,3.32.12,5.11-.1a1.72,1.72,0,0,0,1.61-1c-.6,1.64-2.93,1.45-4.36,1.53-.78,0-1.56,0-2.29.05a4.46,4.46,0,0,0-3.35,1.59"></path><path class="cls-6" d="M184.92,284.46c2.19.22,3.7.81,6.05.87,3.61.1,7.3-.6,11-.55,3.21.05,8.54.26,11.3,2,.77.49.6.36,1.6.37h.33l-.33,0c-1,.05-.86.17-1.66-.27a13.84,13.84,0,0,0-5.27-1.24c-3-.21-5.38.07-8.25.11a77.21,77.21,0,0,1-9.39-.11c-2-.25-3.5-.9-5.4-1.21"></path><path class="cls-6" d="M181.09,241.94c0,2.28.11,4.58.06,6.81-.07,3.29-.93,5.48-2.08,8.5-2.49,6.54,1.77,10.92,1.86,17.24-.21-6.18-4.68-11.08-2.15-17.36,1.2-3,2.1-5.12,2.24-8.38.09-2.23,0-4.53.07-6.81"></path><path class="cls-6" d="M188.63,242.57a21.55,21.55,0,0,1,.58,3.74c-.06.31-.75,2.19-.93,2.87l-.12.47a30.65,30.65,0,0,1-.57-3.51c0-.09.93-3.1,1-3.57"></path><path class="cls-6" d="M186.9,265.37c.25,1.42.4,2.83.67,4.24.14.76,0,.78.17,1.77a24.81,24.81,0,0,0,.89,2.64c-.85-1-2.41-2.64-2.64-3.91a40.45,40.45,0,0,1,.91-4.74"></path><path class="cls-6" d="M185.49,243.67a17.76,17.76,0,0,0-.38,4,7.23,7.23,0,0,1-1,4.31,5,5,0,0,0-.51,1.61c0-1.54.51-2.38.57-4a14.31,14.31,0,0,1,1.32-5.9"></path><path class="cls-6" d="M183,261.12c.15,2,.23,4.05.54,6,.4,2.59.27,3.68,1.53,6.2.19.36.25.46.45.82a13.58,13.58,0,0,1-2.67-5.34c-.52-2.06,0-5.45.15-7.71"></path><path class="cls-6" d="M181.24,256.88a9.54,9.54,0,0,1-.39,2.12,9,9,0,0,0-.39,1.65,9.51,9.51,0,0,1-.19-1.78,11.73,11.73,0,0,1,1-2"></path><path class="cls-6" d="M187.14,256.76c.11-1.49,1.25-2,2.58-2.33,3.74-1,10.53-.44,14.53-.33a11.6,11.6,0,0,0,4.6-.82,25.43,25.43,0,0,1,9.8-1.27l.23-.11c-.35.18-.16.12-.73.11a24,24,0,0,0-8.5,1.24,17.15,17.15,0,0,1-4.85,1.15c-4.49.1-10.76-1-15.06.1-1.33.33-2.46.78-2.6,2.26"></path><path class="cls-6" d="M187.61,259a4.8,4.8,0,0,0,3.54,2.51c3.06.82,7.45.65,10.61.43,1.59-.11,3.72,0,5.39,0,2.87,0,8.12-.2,10.71.49l.56.15-.58-.09c-2.43-.38-6.36.19-8.91.46a63.58,63.58,0,0,1-7.15.59c-3.22-.11-8.23-.44-11.18-1.74a4.72,4.72,0,0,1-3-2.81"></path><path class="cls-6" d="M190.16,258.15c2.2,1,5.63.76,8,1.14,2.11.33,5.07.93,7.17.6a26.34,26.34,0,0,1-7.27.34,28.45,28.45,0,0,1-7.9-2.08"></path><path class="cls-6" d="M206.37,259.78c1.56-.12,3.17-.14,4.76-.23s2.74.29,4-.76a2.2,2.2,0,0,1,1.11-.52,2.09,2.09,0,0,0-.92.66,4,4,0,0,1-2.85,1.45c-1.76.33-4.23-.38-6.08-.6"></path><path class="cls-6" d="M191.31,256.65c1.53-1.21,4.28-1.14,6.18-1a21.19,21.19,0,0,1,6.12,1.55c.28.11.62.22.91.31-.3-.06-.65-.14-.94-.22a24.22,24.22,0,0,0-4.75-.88c-2.21-.2-5.61-.94-7.52.29"></path><path class="cls-6" d="M208.34,257.46a28.84,28.84,0,0,1,5.17-1.45,23.9,23.9,0,0,0,3.64-1.21c-1.36.79-3.28,1.93-4.84,2.08a21.49,21.49,0,0,0-4,.58"></path><path class="cls-21" d="M222.64,230.86c0-1.37.14-3.17,1.67-3.72.86-.3,1.71.84,2,1.5a6,6,0,0,1,.42,2.14c-.18-1.08-.43-2.5-1.54-3a2.4,2.4,0,0,0-.92-.08c-1.26.21-1.52,2.22-1.61,3.19"></path><path class="cls-21" d="M223.29,231.75c0-1,.26-3.31,1.58-3.44,1.15-.11,1.5,2.59,1.56,3.35l0,.5a7.58,7.58,0,0,0-.79-2.85c-.2-.32-.61-.72-1-.62-1,.25-1.3,2.19-1.36,3.06"></path><path class="cls-21" d="M227,235c0,1.24-.17,3.19-1.72,3.32-1.39.11-2.11-2.1-2.26-3.23l-.07-.82a5.6,5.6,0,0,0,.88,2.63,2.36,2.36,0,0,0,1.61,1c1.25,0,1.48-2,1.56-2.87"></path><path class="cls-21" d="M226.71,233.54c0,1-.26,3.31-1.58,3.44-1.15.12-1.49-2.58-1.56-3.34l0-.5a7.56,7.56,0,0,0,.78,2.85c.2.31.61.72,1,.61,1-.25,1.3-2.18,1.36-3.06"></path><path class="cls-21" d="M224.11,230.94c1.57-3.4,2.81,3.49,1.27,3.77-.86.16-.93-1.88-.95-2.22l.11.89c0,.15.53,1.64,1,1.05a5.71,5.71,0,0,0,.23-2.38c-.05-1.46-.63-3-1.61-1.11"></path><path class="cls-21" d="M221,282.17c.19-1.36.57-3.14,2.35-3.5,1-.2,1.79,1,2,1.72a5.54,5.54,0,0,1,.18,2.18c-.06-1.1-.15-2.54-1.31-3.2a3.21,3.21,0,0,0-1-.18c-1.44.06-2,2-2.22,3"></path><path class="cls-21" d="M221.57,283.13c.15-1,.73-3.26,2.21-3.23,1.3,0,1.33,2.74,1.3,3.51l0,.5a7,7,0,0,0-.49-2.93c-.19-.33-.6-.78-1.07-.72-1.12.13-1.74,2-1.92,2.87"></path><path class="cls-21" d="M225.31,286.81c-.18,1.23-.61,3.15-2.35,3.09-1.57-.06-2.08-2.33-2.1-3.47l0-.83a5.1,5.1,0,0,0,.63,2.72,2.62,2.62,0,0,0,1.66,1.16c1.39.14,1.91-1.78,2.12-2.67"></path><path class="cls-21" d="M225.14,285.31c-.15,1-.73,3.26-2.22,3.23-1.29,0-1.32-2.74-1.29-3.5l0-.5a6.94,6.94,0,0,0,.49,2.92,1.24,1.24,0,0,0,1.07.73c1.12-.13,1.74-2,1.92-2.88"></path><path class="cls-21" d="M222.58,282.42c2.2-3.19,2.67,3.8.92,3.9-1,.05-.78-2-.76-2.33v.9c0,.16.36,1.69.91,1.16a5.26,5.26,0,0,0,.58-2.34c.14-1.45-.32-3-1.66-1.29"></path><path class="cls-21" d="M220.38,255.08c.11-1.34.33-3.11,1.54-3.55.68-.24,1.25.93,1.41,1.58a8,8,0,0,1,.17,2.13c-.06-1.07-.16-2.48-1-3.07a1.53,1.53,0,0,0-.69-.12c-1,.13-1.32,2.08-1.46,3"></path><path class="cls-21" d="M220.82,256c.08-1,.43-3.23,1.45-3.28s1,2.63.95,3.38v.5a9.22,9.22,0,0,0-.39-2.85c-.14-.32-.42-.74-.75-.67-.76.19-1.15,2.07-1.25,2.92"></path><path class="cls-21" d="M223.45,259.41c-.1,1.22-.35,3.13-1.55,3.16s-1.46-2.19-1.5-3.3v-.82a6.81,6.81,0,0,0,.48,2.64c.23.48.73,1,1.17,1.05.95.08,1.26-1.84,1.39-2.73"></path><path class="cls-21" d="M223.3,258c-.08,1-.43,3.23-1.45,3.28s-1-2.63-.95-3.38v-.49a9.16,9.16,0,0,0,.39,2.84c.14.33.42.74.75.66.76-.18,1.14-2.06,1.25-2.91"></path><path class="cls-21" d="M221.5,255.25c1.43-3.25,1.9,3.59.7,3.78-.66.1-.57-1.91-.56-2.25l0,.88c0,.16.28,1.65.65,1.09a7.23,7.23,0,0,0,.34-2.32c.07-1.44-.27-2.93-1.15-1.18"></path><path class="cls-6" d="M115.28,261.11l.09-.73c.07-.59.13-1.18.2-1.78.11-.89.19-1.81.32-2.7a43.7,43.7,0,0,1,1-5.22c.44-1.61.66-3.31,1.23-4.88a8.75,8.75,0,0,0,.27-.87c.14-.48.28-1,.41-1.45s.25-1,.36-1.45a5.66,5.66,0,0,0,.16-.8V241c-.11-.25-.31-.56-.43-.78-.3-.53-.59-1.06-.87-1.6a7.53,7.53,0,0,1-1-2.88v-1a5.76,5.76,0,0,1,1.6-3.7c.34-.46.73-.91,1.11-1.33s.74-.83,1.12-1.23c1.44-1.48,3.65-4.26,5.88-4.26h1.63c1.52,0,3,.25,4.55.24a45.24,45.24,0,0,1,4.64.34,82.22,82.22,0,0,0,8.86.72h.25c.63,0,1.27,0,1.9,0a15.59,15.59,0,0,0,2-.16l1.77-.34,1.16-.19a7.32,7.32,0,0,1,.93-.09h.65c.53,0,1.08.06,1.61.09a8.82,8.82,0,0,0,1.45,0,9,9,0,0,1,3.1-.78h.75a6.71,6.71,0,0,1,5.2,2.73,15.11,15.11,0,0,1,1.66,5.76v.81a3.21,3.21,0,0,1-.12.93c0,.18-.12.35-.17.52a.5.5,0,0,0,0,.13,3.62,3.62,0,0,0,0,.57,5.64,5.64,0,0,1-.06,1.3c-.21,1-.21,2.61-1,3.35a5.78,5.78,0,0,1-2.43,1.76,5.72,5.72,0,0,1-1.71.42,1.33,1.33,0,0,0-.54.18,2.24,2.24,0,0,1-1,.23h-1.23v-.07l-2.08.07a21.2,21.2,0,0,1-3.18-.26c-1-.13-1.93-.28-2.89-.42s-2.16-.23-3.22-.29-2-.09-2.94-.09a29.94,29.94,0,0,0-6.86.89,16.2,16.2,0,0,0-2.79,1,.89.89,0,0,0-.43.33,5.89,5.89,0,0,0-.14,1.84v3.58c0,2.91.41,5.7-.63,8.5a13.3,13.3,0,0,1-1.8,3c-.3.43-.71.87-1,1.28l-.27.32a7.89,7.89,0,0,0,1.09-.1,1.42,1.42,0,0,1,1.39.25,1.4,1.4,0,0,1,.29,1.11,1.71,1.71,0,0,1,.24,1v.9a27.75,27.75,0,0,1-.42,4.36,27.37,27.37,0,0,0-.72,3.78v.24a2.75,2.75,0,0,0,.33,1.21l1.29-.18h.55a6,6,0,0,1,1.44.29,4.2,4.2,0,0,0,.92.2h1.79a5.15,5.15,0,0,0,2.56-.75,5.42,5.42,0,0,1,2.07-1c1.13,0,2.09,1.3,2.69,1.3H149a4.52,4.52,0,0,0,.15-1.27v-.9a13.67,13.67,0,0,0-1.91-6.76c-.22-.34-.35-.61-.74-.73l-.91-.28a4.82,4.82,0,0,0-.75-.18c-1.9-.06-3,.29-4.17-1.51l-.14-.21v-1.14a1.7,1.7,0,0,1-.33-1v-.16a1.09,1.09,0,0,1,.26-.71,1.49,1.49,0,0,1,1.07-.43l.11,0,.06,0c.21-.1.39-.22.61-.3a14.26,14.26,0,0,1,1.93-.57c1.22-.31,2.41-.76,3.64-1s2.35-.74,3.54-1l.48-.15a11,11,0,0,1,3.54-.79h1.22c1,0,1.9.25,2.85.24l1.46,0a14.11,14.11,0,0,1,1.72,0,2.42,2.42,0,0,1,.83.25,4.16,4.16,0,0,1,1.66,2c.16.34.3.68.45,1a6.38,6.38,0,0,0,.35.69l.12.18.19,2v2.48c0,1.63-.24,3.25-.24,4.88a4.19,4.19,0,0,1-.46,2.53,6.34,6.34,0,0,0-.28,1.86v1.3a6.71,6.71,0,0,0,.14.88c.09.54.2,1.08.31,1.61s.21,1.05.32,1.57c.07.32.14.65.23,1a22,22,0,0,1,.56,3,21.56,21.56,0,0,1,.23,2.78c0,2.65-2.21,7.11-5.23,7.11h-1.22a29,29,0,0,1-5.25-.55c-1.26-.22-2.51-.48-3.77-.67a27.93,27.93,0,0,0-4.08-.32h-.32a27.38,27.38,0,0,0-4.7.42c-.26.05-.53.13-.79.2l-1.14.34a10.8,10.8,0,0,1-2.55.59l-2.24-.17-7.1,0-4.95.43h-.85a5.45,5.45,0,0,1-3.68-1.27c-2.56-2.19-2.78-6.77-2.78-9.91V282a5.56,5.56,0,0,1,.45-2.09c.1-.24.2-.47.31-.7a2.08,2.08,0,0,0,.13-.3v-.66c0-1.1,0-2.2,0-3.3q0-1.11-.12-2.22A11.11,11.11,0,0,0,117,271a12.37,12.37,0,0,0-.64-1.66,11.31,11.31,0,0,1-.46-1.14,4.78,4.78,0,0,1-.16-.77c-.06-.35-.12-.7-.17-1.05-.08-.52-.14-1.05-.23-1.57l0-.06v-3.58Z"></path><g class="cls-22"><rect class="cls-23" x="116.8" y="241.23" width="15.59" height="36.53"></rect></g><g class="cls-24"><rect class="cls-25" x="118.53" y="275.4" width="45.06" height="16.52"></rect></g><g class="cls-26"><rect class="cls-27" x="161.24" y="226.02" width="6.7" height="13.83"></rect></g><g class="cls-28"><rect class="cls-29" x="160.25" y="279.39" width="5.3" height="10.98"></rect></g><g class="cls-30"><rect class="cls-31" x="152.45" y="256.94" width="12.67" height="5.37"></rect></g><g class="cls-32"><rect class="cls-33" x="118.61" y="225.46" width="45.96" height="16.75"></rect></g><g class="cls-34"><rect class="cls-35" x="141.8" y="257.79" width="23.21" height="20.72"></rect></g><path class="cls-6" d="M161.08,227.41l.41.25-.41-.25m-.09,0,.09,0ZM120.88,235c2.24-7.42,6.31-7.34,13-6.4a63.81,63.81,0,0,0,24.09-.71c.23-.06,2.56-.74,2.65-.73a1.48,1.48,0,0,1,.36.16.77.77,0,0,0-.63-.09,52.83,52.83,0,0,1-13.94,2.49,50.53,50.53,0,0,1-12.59-.75C127.22,227.92,123.26,227.75,120.88,235Z"></path><path class="cls-6" d="M121.61,237.11c2.55,1.61,3.87,2.57,6.8,1a7.43,7.43,0,0,1,4.15-1.16c2.51-.16,5.33-.08,7.89-.13a40.15,40.15,0,0,0,5.11-.21,8.66,8.66,0,0,1,2.27,0c1.47,0,1.95-1.15,4.42-1a12.39,12.39,0,0,1,4.22,1.08c1,.55.09.21,1.05.61.57.23,2.1.58,2.36,1.29-.32-.68-1.85-.88-2.43-1.07-1.15-.38-.15-.09-1.12-.53a11.7,11.7,0,0,0-4.55-.66c-1.8.15-2.25,1.26-3.95,1.34a7.8,7.8,0,0,0-2,.19,26.13,26.13,0,0,1-2.92.48c-3.57.37-6.77-.33-10.31-.4a6.68,6.68,0,0,0-3.89.75c-3.22,1.39-4.54.35-7.08-1.57"></path><path class="cls-6" d="M124.06,235.4c.25-2.42,3.34-3.2,5.35-3.6a20.16,20.16,0,0,1,7.93-.1,9.67,9.67,0,0,0,2.4.31,41.27,41.27,0,0,0,5.22,0,34.19,34.19,0,0,1-4.07.31,15.35,15.35,0,0,1-3.64-.13,36.79,36.79,0,0,0-7.78.05c-2,.27-5,.84-5.41,3.19"></path><path class="cls-6" d="M127.36,235c2.44-.09,4.4.19,6.73.21,1.29,0,2.57-.12,3.86-.19,2.68-.14,4.73-.42,7.48-.32l1.12,0c-1.15.07-2.27.14-3.41.29-2.1.27-4.92,1-6.86,1-3,0-5.87-.87-8.92-1.07"></path><path class="cls-6" d="M147.53,232a20.25,20.25,0,0,1,6.61-1.5c1.25,0,4,0,4.76,1.13-.82-1-3.51-.71-4.72-.56a41.42,41.42,0,0,0-6.65.93"></path><path class="cls-6" d="M151.44,233.81c1.72.52,3.25.3,4.68.77.59.2,2.87.83,2.78,1.68-.13-.9-2.92-.79-3.56-.9a16,16,0,0,1-3.9-1.55"></path><path class="cls-6" d="M130.91,243.66c-1,1.72-.87,4.13-1.13,6.09a17.69,17.69,0,0,1-1.28,4.91c-.33.76-.22.55-.27,1.46-.07,1.33,0,2.5-.21,3.84-.37,3.05-.77,6.46-.89,9.52a7.91,7.91,0,0,0,.47,3.08c.14.49.41,1.45.93,1.72-.81-.31-1.4-2.38-1.68-3.14-.54-1.49-.43-7.41-.42-9.2a31.76,31.76,0,0,1,.3-5.06,6.66,6.66,0,0,1,.7-2.75,16.77,16.77,0,0,0,1.7-4.5c.46-1.95.54-4.34,1.78-6"></path><path class="cls-6" d="M120.82,274.4c.51-1.95,1-3.38-.19-5.16-1.58-2.46-1.51-4.2-1.48-7.05.08-6.62-.38-8.48,2.27-14.89a3.44,3.44,0,0,0,.38-1.9c.06-.84,0-.64.08-1.27,0,.63,0,.43,0,1.27a3.52,3.52,0,0,1-.34,1.92,24.27,24.27,0,0,0-2,8.12c-.1,2.2,0,4.5-.06,6.76-.09,2.81-.21,4.52,1.3,7,1.12,1.83.65,3.26.09,5.22"></path><path class="cls-6" d="M126.1,274c-.34-1.08-1-1.9-1.42-3.22a19.16,19.16,0,0,1-.26-7.36,18.64,18.64,0,0,0,.29-3.15c0-.4,0-.72.08-1.09l-.15.33c.13-.46.2-.83.24-.6h0l0,0a2.93,2.93,0,0,1,0,.36c0,1.1.25,2.18.22,3.28a25.29,25.29,0,0,0,0,3.14c.13,1.73-.34,3,0,4.95.22,1.33.79,2.21,1,3.32"></path><path class="cls-6" d="M128.43,244.21c-2.41,2.59-1.76,3.78-2.24,6.88a16,16,0,0,1-1.19,4.44c-.23.51-.23.37-.25.8,0-.44,0-.31.13-.84a16,16,0,0,0,.47-4.47,7.84,7.84,0,0,1,3.08-6.81"></path><path class="cls-6" d="M123.87,273.61c-.24-3.46-2.13-5.72-2.47-8.52a6.21,6.21,0,0,1,.37-3.14c.5-1.18.48-.56.61-1.94.08-.89.1-1.81.13-2.7,0,.89.1,1.81.09,2.71,0,1.4-.07.87-.47,2.06a5.31,5.31,0,0,0-.21,2.17c.3,3.28,2,5.91,2,9.36"></path><path class="cls-6" d="M122.51,253.81a8.31,8.31,0,0,1,1.47-5.16,7.52,7.52,0,0,0,1.45-4,8.31,8.31,0,0,1-1.47,5.2,7.39,7.39,0,0,0-1.45,3.92"></path><path class="cls-6" d="M122.18,279.91c.9-1.7,3.31-1.49,4.94-1.35,2.61.23,8.39,1.55,10.56,1.17a6.27,6.27,0,0,1,1.37-.27,9.11,9.11,0,0,0,4-.85c1.74-.79,1.87-.62,3.65-.18,2.7.68,5,.3,7.76.9,1.69.36,4,1.44,5.52,1.49.81,0-.29-.84,1.33.35-1.64-1.16-.47-.3-1.33-.32-1.54,0-3.84-1.06-5.55-1.4-2.79-.56-5-.14-7.79-.77-1.7-.4-1.81-.57-3.43.2a8.56,8.56,0,0,1-4.11.87c-.9,0-.34.08-1.34.24-2.35.38-8.32-1.17-11.2-1.39-1.52-.11-3.51-.2-4.34,1.31"></path><path class="cls-6" d="M121,286.56c.22,1.77,1.45,2.18,3.08,2.37,3.43.39,10.22-1.07,12.8.22l.17.11c1.27-.19,2.47-.49,3.79-.67,2.85-.37,6.28-1,9.09-.63,3.59.52,6.05,2.05,9.77,2.32h-.76c-3.75-.07-7.32-2-11.19-1.48-3.46.43-6.73,1.61-10.32,1.89-1.06.08-.82-.14-1.51-.45-2.28-1-8.73-.33-11.89-1-1.66-.33-3-.88-3-2.73"></path><path class="cls-6" d="M122.58,283.75c0-1.93,2.92-1.74,4.26-1.68a44.85,44.85,0,0,1,5.67.73c1,.18,7.68.7,8.2,0,.1-.14.32.8.36.89l-.34-.81c-.68.77-7.33.68-8.32.57-2-.24-3.93-.86-6-1.06-1.27-.12-3.62-.34-3.78,1.39"></path><path class="cls-6" d="M143.54,283.86c2.42-2,4.5-3.31,7.74-2.46a34.59,34.59,0,0,0,4.47,1.2l2,.08a13.39,13.39,0,0,1-2.9,0c-1.67-.29-3.31-.69-5-.93-2.56-.36-4.3.7-6.33,2.08"></path><path class="cls-6" d="M124.4,285.57c1.85-.07,4,.09,5.94.16.95,0,1.93.22,2.94.28,1.79.1,2,0,3.52,1.16a6.34,6.34,0,0,0-1.12-.53c-1-.34-3,.05-4.24.09-1.82,0-5-.91-7-1.16"></path><path class="cls-6" d="M140,285.57a19.14,19.14,0,0,0,7.31.29A36.8,36.8,0,0,1,154,286a6.58,6.58,0,0,1,2,1.4c-.22-.13-1.49-1-1.74-1.07a36.82,36.82,0,0,0-5.44.38,19.9,19.9,0,0,1-8.75-1.12"></path><path class="cls-6" d="M151,284.18a24.3,24.3,0,0,1,2.82-.49,5.36,5.36,0,0,1,2.36,1l.17.21-.22-.14a5.87,5.87,0,0,0-2.37-.11c-.25,0-2.28-.42-2.76-.5"></path><path class="cls-6" d="M144.27,261.75c4-.26,4,1.19,6.53,3.58,1.6,1.56,1.79,2.5,1.92,4.71a26.62,26.62,0,0,1-.09,3.79,22.38,22.38,0,0,0-1-4.65c-.78-2.27-.92-1.29-2.05-2.81-2-2.67-1.33-4.05-5.33-4.62"></path><path class="cls-6" d="M150.71,260.79c1,1.79,3.41,2.24,5.28,2.63,1.16.24,2,.73,3.21.92a18.05,18.05,0,0,0,3.79.38,20.33,20.33,0,0,1-4.82.6,6.19,6.19,0,0,1-3.32-.74c-1.64-.81-3.61-1.92-4.14-3.79"></path><path class="cls-6" d="M162.65,266.66a5.48,5.48,0,0,1-.53,1.76c-.47,1,1,2.15.55,3.71s-1.24,2.16-.22,3.91a1.14,1.14,0,0,0,.06.14c-.06-.08,0-.08-.07-.13-1.15-1.7-.48-2.26-.05-4,.36-1.46-.93-2.68-.38-3.69a5.4,5.4,0,0,0,.64-1.7"></path><path class="cls-6" d="M156.29,275.16c-.13-1.7.26-2.33-.36-4a21.59,21.59,0,0,1-1.53-4.9,14.16,14.16,0,0,0,1.85,3.38c1.27,2.07.33,3.43,0,5.51"></path><path class="cls-6" d="M160.47,273.07c-1.26-1.69-2.23-3.49-1.52-5.64.32-1,.48-.77.59-1,0,0,0,0,0,0a.24.24,0,0,1-.05.14,3.59,3.59,0,0,0-.23,2.58,13.9,13.9,0,0,0,1.2,4"></path><path class="cls-21" d="M162.46,231.55c0-1.37.13-3.17,1.67-3.72.86-.3,1.71.84,2,1.5a6.27,6.27,0,0,1,.42,2.14c-.18-1.08-.44-2.5-1.55-3a2.37,2.37,0,0,0-.91-.08c-1.27.21-1.53,2.22-1.61,3.19"></path><path class="cls-21" d="M163.11,232.44c0-1,.26-3.31,1.58-3.44,1.15-.11,1.49,2.59,1.56,3.35l0,.5a7.56,7.56,0,0,0-.78-2.85c-.21-.32-.62-.72-1-.61-1,.24-1.3,2.18-1.36,3.05"></path><path class="cls-21" d="M166.85,235.7c0,1.24-.16,3.19-1.72,3.32-1.39.11-2.11-2.1-2.26-3.23l-.07-.82a5.72,5.72,0,0,0,.88,2.63,2.38,2.38,0,0,0,1.62,1c1.24,0,1.47-2,1.55-2.87"></path><path class="cls-21" d="M166.53,234.24c0,1-.26,3.3-1.58,3.44-1.15.11-1.5-2.59-1.56-3.35l0-.5a7.75,7.75,0,0,0,.78,2.85c.21.32.62.72,1,.61,1-.25,1.3-2.18,1.36-3"></path><path class="cls-21" d="M163.92,231.63c1.57-3.4,2.81,3.49,1.27,3.78-.85.15-.92-1.89-.94-2.23l.11.89c0,.15.52,1.64.95,1.05a5.7,5.7,0,0,0,.23-2.38c0-1.46-.63-3-1.62-1.11"></path><path class="cls-21" d="M161.86,283.4c.23-1,.63-2.4,1.89-2.56.7-.09,1.16.92,1.27,1.47a5.11,5.11,0,0,1,0,1.7c0-.85.08-2-.68-2.57a1.9,1.9,0,0,0-.69-.21c-1-.05-1.53,1.44-1.75,2.17"></path><path class="cls-21" d="M162.21,284.19c.18-.79.74-2.49,1.77-2.37s.72,2.22.64,2.82l-.06.39a6,6,0,0,0-.12-2.31c-.11-.28-.35-.65-.69-.64-.79,0-1.35,1.45-1.54,2.11"></path><path class="cls-21" d="M164.53,287.3c-.22.94-.65,2.41-1.86,2.25s-1.27-1.95-1.2-2.84l.09-.64a4.36,4.36,0,0,0,.23,2.15,1.88,1.88,0,0,0,1.07,1c1,.2,1.46-1.26,1.67-1.94"></path><path class="cls-21" d="M164.52,286.12c-.18.79-.74,2.49-1.77,2.37s-.72-2.22-.64-2.81l0-.39a6.18,6.18,0,0,0,.13,2.31c.11.27.35.65.69.63.79,0,1.35-1.45,1.54-2.11"></path><path class="cls-21" d="M163,283.7c1.76-2.34,1.57,3.14.35,3.1-.68,0-.39-1.59-.35-1.86l-.07.7c0,.12.13,1.34.55,1a4.39,4.39,0,0,0,.57-1.78c.21-1.13,0-2.36-1-1.12"></path><path class="cls-21" d="M156.56,260.92c-1.16-.33-2.67-.87-2.76-2.3-.06-.8,1.12-1.25,1.74-1.33a5.64,5.64,0,0,1,1.92.15c-1-.1-2.23-.22-3,.59a2.46,2.46,0,0,0-.28.77c-.12,1.12,1.52,1.82,2.33,2.12"></path><path class="cls-21" d="M157.47,260.58c-.87-.25-2.75-1-2.55-2.16s2.56-.66,3.23-.53l.43.09a6.6,6.6,0,0,0-2.62,0c-.31.1-.75.35-.76.73,0,.89,1.54,1.62,2.27,1.88"></path><path class="cls-21" d="M161.14,258.17c1.05.31,2.67.9,2.41,2.25s-2.28,1.3-3.28,1.16l-.72-.14a5,5,0,0,0,2.45-.12,2.09,2.09,0,0,0,1.21-1.14c.3-1.06-1.32-1.72-2.07-2"></path><path class="cls-21" d="M159.81,258.1c.88.25,2.76,1,2.55,2.16s-2.55.66-3.21.53l-.44-.09a6.8,6.8,0,0,0,2.62,0c.31-.1.75-.36.76-.74,0-.89-1.55-1.62-2.28-1.88"></path><path class="cls-21" d="M157,259.7c-2.52-2.15,3.64-1.56,3.51-.19-.07.77-1.82.34-2.12.28l.78.12c.15,0,1.53-.06,1.13-.56a5.07,5.07,0,0,0-2-.76c-1.26-.31-2.67-.17-1.33,1.11"></path><path class="cls-6" d="M253.6,273.92a8.87,8.87,0,0,1,1.35.16l1.09.26a10.07,10.07,0,0,0,2.57.14h.45l5.71.33c.31-.25.61-.55.92-.79a3.29,3.29,0,0,1,2-.76,5.85,5.85,0,0,1,2.29.53l.77.37a2.68,2.68,0,0,0,.34.16h.74a6.47,6.47,0,0,0,.95-.21c.36-.08.73-.19,1.09-.26a12.48,12.48,0,0,1,2.44-.35h.41c1.34,0,2.72,1.8,3.27,2.91a10.31,10.31,0,0,1,.9,4.45V282a20.73,20.73,0,0,1-1.15,6.23,10.44,10.44,0,0,1-1.24,2.61,3.2,3.2,0,0,1-1.83,1.36,1,1,0,0,0-.38.19.76.76,0,0,1-.53.21,1.26,1.26,0,0,0-.27,0c-.19,0-.37.1-.55.15a4.86,4.86,0,0,1-.85.14c-.6,0-1.19.11-1.79.16-1.26.09-2.53.16-3.8.16h-1.06c-3.9,0-7.8-.24-11.71-.24a22.32,22.32,0,0,1-3.46-.28c-.67-.1-1.34-.23-2-.35a7.16,7.16,0,0,0-.92-.09c-.57-.05-1.13-.09-1.7-.12l-1.65-.08a8,8,0,0,0-.85,0,.8.8,0,0,1-.15,0l-3.73.37h-.12l-1.29,0c-2.6,0-4.19-2-5.07-4.21a20.86,20.86,0,0,1-1-7.29,4.93,4.93,0,0,1,.25-1.42,9.09,9.09,0,0,1,.53-1.3c.08-.18.19-.37.28-.55v-8.24l-.68-6.21a.79.79,0,0,1,.11-.5v-.58c0-.85.16-1.67.16-2.52,0-.4,0-.81,0-1.21a8.44,8.44,0,0,1,.06-1.51,26.66,26.66,0,0,1,1-4.43,17.53,17.53,0,0,0,.54-1.88c.22-.86.4-1.73.56-2.61s.27-1.53.36-2.3a14.38,14.38,0,0,0,.14-1.84v-.49c0-1.35-1.14-2.54-1.14-4v-.65a11.87,11.87,0,0,1,.23-2.78,5,5,0,0,1,.6-.9,2.39,2.39,0,0,0,.31-.45v-.34a6.09,6.09,0,0,0-.45-1.2.88.88,0,0,1,0-.15,8,8,0,0,1-.23-2.07v-1.63a7.6,7.6,0,0,1,.23-1.77,7.23,7.23,0,0,0,.25-1.14,1.09,1.09,0,0,0,0-.18.84.84,0,0,1,.14-.47c1-1.47,4.13-2.16,5.83-2.16h.49c2.69,0,8.93.75,10.89,2.6,1.43,1.37.73,4.26,1,6.06.15,1,0,2,.16,3,.08.48.14,1,.19,1.45a13.5,13.5,0,0,1,.13,1.55v.08a4.21,4.21,0,0,1-.19,1c-.1.38-.21.75-.3,1.12a5.57,5.57,0,0,0-.17,1.06c0,1.22-.16,2.44-.15,3.65,0,2.42-.15,4.9-.33,7.31-.12,1.56,0,2.07-.68,3.54a16.84,16.84,0,0,0-1.22,2.44,1.67,1.67,0,0,0-.08.7,7.81,7.81,0,0,0,.15.95,9.45,9.45,0,0,1,.2,1.28,2.19,2.19,0,0,1,.49,1.4,2.78,2.78,0,0,0,.11.5,4.06,4.06,0,0,1,.22,1.09,5.06,5.06,0,0,1-.62,1.9,5.53,5.53,0,0,0-.44,1.19.09.09,0,0,0,0,0,4.07,4.07,0,0,0,.35.6,2.44,2.44,0,0,1,.45,1.38v.09a3.7,3.7,0,0,1-.27,1.39c-.1.26-.25.52-.33.78a.81.81,0,0,0-.05.27,6.19,6.19,0,0,0,.66,2"></path><g class="cls-36"><rect class="cls-37" x="235.8" y="227.72" width="18.55" height="49.06"></rect></g><g class="cls-38"><rect class="cls-39" x="235.91" y="274.67" width="40.43" height="17.33"></rect></g><g class="cls-40"><rect class="cls-41" x="274.22" y="274.67" width="5.29" height="16.27"></rect></g><g class="cls-42"><rect class="cls-43" x="238.19" y="224.58" width="16.23" height="6.15"></rect></g><path class="cls-6" d="M252.29,230.64c-.36,2.11.06,6.81.12,9.16,0,1.62.1,4.88-.44,6.38l-.33.67.07-.11c-.05,1,.18,2.32.15,3.49a6.5,6.5,0,0,1-.82,3.45c-1.9,3.72-.33,5.72-1.12,8.94a5.09,5.09,0,0,1-.9,1.91c-.15.6.71,6,.73,7.23,0,.42,0,.87,0,1.3a19.15,19.15,0,0,0-.44-3.52c-.2-.93-1.22-4.64-.83-5.39a5.25,5.25,0,0,0,.68-3.56c-.24-3.23-.83-4.39.52-7.65a10.72,10.72,0,0,0,.72-3.31c0-.86-.1-2.86.26-3.51.9-1.62,1-4.49,1.06-6.33.12-2.35.07-7.06.6-9.15"></path><path class="cls-6" d="M239.76,231.16a9.63,9.63,0,0,0,.71,3.15,4.38,4.38,0,0,1-.05,2.84,3.24,3.24,0,0,0-.18,2.19c.62,5,2.17,10.73-.86,15.26-2.69,4-.72,10.32.05,14.69a8.16,8.16,0,0,1,0,3.08,8.37,8.37,0,0,0,0-3.07c-.92-4.52-3-10.72-.34-15,2.85-4.48,1.51-10.06,1-15a3.41,3.41,0,0,1,.24-2.25,4.27,4.27,0,0,0,.11-2.78,9.72,9.72,0,0,1-.63-3.17"></path><path class="cls-6" d="M242.33,231.67c2.34,2.58,3,7.89,2.9,11.23a41.15,41.15,0,0,1-.84,7.83,42.67,42.67,0,0,0,.26-8.53c-.21-3.3-.18-7.81-2.32-10.53"></path><path class="cls-6" d="M243,271.69c-.24-3.69-2.16-6.7-2.55-10.32a9.32,9.32,0,0,1,1.28-6.4c.19-.31-.18-.21.41-.46-.56.29-.19.13-.37.49-1.61,3.21-1,5.16-.3,8.43.57,2.73,1.56,5.44,1.53,8.26"></path><path class="cls-6" d="M248.34,232.7c.17,3.47.55,7.12.54,10.56,0,3-1,8.16-2.47,10.77l-.3.48a15.71,15.71,0,0,0,1.51-5.42c.25-2.08.17-3.84.3-5.86.23-3.56.27-7,.42-10.53"></path><path class="cls-6" d="M245.08,258.29a45.49,45.49,0,0,0,1.25,9.41c.34,1.27.67,2.54,1,3.81-.53-1.28-2.29-5.1-2.53-6.2s.19-5.59.3-7"></path><path class="cls-6" d="M239,277.74c4.06,0,7.94,1.32,11.75,1.16a13.71,13.71,0,0,0,4.2-.85,3.42,3.42,0,0,1,2.28-.17c2.23.22,6.41.83,8.45-.05.77-.34.74-.59,1.74-.47a20.16,20.16,0,0,1,3.74,1.15,20.55,20.55,0,0,0-3.74-1.07c-1-.1-.94.15-1.69.49-2.06.95-6.26.42-8.53.25-1.27-.1-1.11-.19-2.14.18-5.54,2-10.44-.48-16.06-.62"></path><path class="cls-6" d="M237.48,283.14c.41,5.55,2.6,5.07,7.1,4,3.19-.75,5.43-1.18,8.58.07,4.61,1.83,11.86,3,16.84,3.19l1,0-1,.05-.49,0c-4.26.19-13.93-.42-17.71-2-2.55-1.1-5-.66-7.63-.28-4.67.66-6.78.33-6.69-5.05"></path><path class="cls-6" d="M239.6,282.56c3.22,2.39,6.35.49,9.86.62a15.29,15.29,0,0,1,7.94,2.69c.57.4.39.34,1.07.35-.68.06-.51.1-1.14-.24-3.54-1.91-5.78-1.86-9.62-1.82-3,0-5.7.61-8.11-1.6"></path><path class="cls-6" d="M241.52,280.44c2.49-.12,2.92.24,5.11.49a37.14,37.14,0,0,0,4.1.07c2-.05,3.79-.23,5.87-.19h.33c-.58,0-1.16.08-1.75.14-3.19.29-5.34,1.08-8.62.41-2.16-.44-2.56-.84-5-.93"></path><path class="cls-6" d="M258.47,282.94a11.21,11.21,0,0,1,2.83.94c1.45.58,2.77.9,4.16,1.43a20.12,20.12,0,0,0,5.72,1.29,22.36,22.36,0,0,1-3.17,0,11.86,11.86,0,0,1-5.5-1.53,25.14,25.14,0,0,0-4-2.13"></path><path class="cls-6" d="M261.94,281.4a38,38,0,0,1,4.59-.69c1.12,0,2.2-.16,3.31-.27-1,.29-2.17.61-3.24.83a28.61,28.61,0,0,1-4.66.13"></path><path class="cls-21" d="M275.1,280.89c.14-1.49.42-3.44,1.77-3.84.75-.22,1.35,1.14,1.51,1.89a8.72,8.72,0,0,1,.14,2.39c0-1.2-.11-2.78-1-3.51a1.7,1.7,0,0,0-.77-.2c-1.08.07-1.5,2.22-1.66,3.27"></path><path class="cls-21" d="M275.55,281.94c.11-1.12.55-3.57,1.67-3.54s1,3,1,3.86l0,.55a10.77,10.77,0,0,0-.38-3.22c-.14-.37-.44-.86-.8-.8-.85.14-1.31,2.21-1.45,3.15"></path><path class="cls-21" d="M278.37,286c-.13,1.35-.45,3.46-1.77,3.39s-1.57-2.56-1.58-3.8l0-.92a8.06,8.06,0,0,0,.48,3c.24.56.78,1.2,1.26,1.27,1.05.16,1.43-1.95,1.59-2.93"></path><path class="cls-21" d="M278.24,284.35c-.11,1.12-.54,3.57-1.67,3.55-1,0-1-3-1-3.86l0-.55a10.77,10.77,0,0,0,.37,3.22c.14.37.45.86.81.79.84-.14,1.31-2.21,1.44-3.15"></path><path class="cls-21" d="M276.32,281.17c1.65-3.51,2,4.17.69,4.28-.74.06-.59-2.17-.57-2.55v1c0,.18.28,1.86.69,1.28a7.91,7.91,0,0,0,.43-2.57c.11-1.6-.23-3.3-1.24-1.42"></path><path class="cls-21" d="M243.58,229.2c-1.35-.34-3.11-.9-3.23-2.39-.06-.83,1.31-1.3,2-1.38a7.3,7.3,0,0,1,2.24.16c-1.12-.1-2.6-.23-3.44.62a2,2,0,0,0-.33.79c-.14,1.16,1.78,1.89,2.72,2.2"></path><path class="cls-21" d="M244.64,228.85c-1-.26-3.21-1-3-2.24s3-.68,3.76-.55l.51.09a8.74,8.74,0,0,0-3.06,0c-.36.1-.88.36-.89.76,0,.92,1.81,1.68,2.65,1.95"></path><path class="cls-21" d="M248.92,226.35c1.23.32,3.13.93,2.82,2.33s-2.66,1.35-3.83,1.21l-.84-.15a6.41,6.41,0,0,0,2.86-.13,2.33,2.33,0,0,0,1.42-1.18c.34-1.1-1.54-1.79-2.43-2.08"></path><path class="cls-21" d="M247.38,226.28c1,.26,3.21,1,3,2.24-.21,1-3,.68-3.76.55l-.51-.09a9,9,0,0,0,3.06,0c.37-.11.88-.37.89-.76,0-.92-1.81-1.69-2.66-1.95"></path><path class="cls-21" d="M244.07,227.93c-2.94-2.22,4.25-1.62,4.1-.19-.08.79-2.13.35-2.47.29l.91.12c.16,0,1.78-.06,1.31-.58a6.27,6.27,0,0,0-2.3-.79c-1.46-.32-3.11-.17-1.55,1.15"></path><path class="cls-6" d="M305,259.9a1.88,1.88,0,0,1,1-.39c.82,0,1.55,1,2,1.59a4.23,4.23,0,0,1,.76,1.94c0,1.29-1.21,2.67-2,3.65a5.62,5.62,0,0,0-1.37,2.53v2a15.2,15.2,0,0,0,.64,3.6c.15.62.26,1.25.41,1.87a15.82,15.82,0,0,1,.17,2.15c.09.77.12,1.57.14,2.35s0,1.38,0,2.07c0,1.41.25,2.81.25,4.23,0,1.59-.42,3.11-2,3.76l-1.4.56a14.8,14.8,0,0,1-2.06.62,15.36,15.36,0,0,1-2.25.27c-.67,0-1.35.08-2,.1-1.36.05-2.72.41-4.09.41h-1.39a21.79,21.79,0,0,1-3.31-.56l-.66-.1a3.11,3.11,0,0,1-2-.88,1.91,1.91,0,0,1-.44-1.25v-.17l.57-5.81v-.33l-.32-3.87s0,0,0-.07v-3.86l.1-3.06a.81.81,0,0,1,0-.16,9.43,9.43,0,0,0-.68-2.41,4.37,4.37,0,0,1-.22-1.34v-.57a25.21,25.21,0,0,1,.36-3.46,14,14,0,0,0,.13-1.44c.06-1.68.23-3.35.25-5a8,8,0,0,1,.26-1.88c.22-.89.55-1.78.7-2.67a25.49,25.49,0,0,0,.74-4.39v-1.55a23.66,23.66,0,0,0-.6-4.59c-.14-.73-.29-1.46-.43-2.19q-.13-.69-.24-1.38a7,7,0,0,1-.11-1.11v-1.3c0-.56.55-1,.87-1.47a1.57,1.57,0,0,0,.27-.43v-.22a3.62,3.62,0,0,0-.35-.93,3.42,3.42,0,0,1-.38-1.43v-.24a5.54,5.54,0,0,1,.61-1.72,2.35,2.35,0,0,0,.2-.72v-1.14c-.05-.07-.11-.13-.16-.21a1.59,1.59,0,0,1-.25-.85v-.25c0-2.3,3.95-4.34,6-4.34h1.71c3.29,0,9.2.62,11.85,2.55,1.17.85.87,2.43.87,3.67v3.41c0,1.11-.09,2.26,0,3.36a7.32,7.32,0,0,0,.19,1,7.55,7.55,0,0,1,.3,1.95,4.33,4.33,0,0,1-.53,1.38,2,2,0,0,0-.14.41c0,.22-.06.45-.1.68-.17.94,0,2-.18,2.92a7.47,7.47,0,0,0-.06,1.42,14.93,14.93,0,0,1,0,1.5q-.09.69-.15,1.38c0,.45-.08.93-.09,1.38,0,1,0,1.9-.05,2.85,0,.62,0,1.24-.08,1.86A7.47,7.47,0,0,1,306,257a6.62,6.62,0,0,1-.53,1.22,3.18,3.18,0,0,0-.35.9c-.05.25-.08.49-.11.74"></path><g class="cls-44"><rect class="cls-45" x="286.32" y="229.1" width="20.85" height="61.85"></rect></g><path class="cls-6" d="M284.59,214.09a2.18,2.18,0,0,1-.23-1.07v-.16a2.3,2.3,0,0,1,.49-1.22,1.88,1.88,0,0,1,1.33-.92,1.6,1.6,0,0,1,.76.2c0-.15,0-.28,0-.37a5.78,5.78,0,0,1,.37-1.82,7.18,7.18,0,0,1,2.22-2.17,12,12,0,0,1,3.18-.75,9.89,9.89,0,0,1,1.72-.05,6.24,6.24,0,0,0,1.37-.06.92.92,0,0,1,.43-.11h1.46a.84.84,0,0,1,.35.07l.34.16a4.83,4.83,0,0,1,1.29.25,5.26,5.26,0,0,0,1.42.34,8.88,8.88,0,0,1,3,.7,6.25,6.25,0,0,1,2.27,1.95c.16.37.4.72.58,1.09a3.54,3.54,0,0,1,.44,1.65V213l-.14,3.07a8.81,8.81,0,0,1-.9,4,3.76,3.76,0,0,1-3.08,2.4,24.82,24.82,0,0,1-4.39.51,20.52,20.52,0,0,1-4.07-.16A18.41,18.41,0,0,1,291,222a11,11,0,0,1-3.18-1.71,7.26,7.26,0,0,1-1.74-3.38,3.91,3.91,0,0,0-.41-.91,13.28,13.28,0,0,1-1.05-1.88"></path><g class="cls-46"><rect class="cls-47" x="288.38" y="206.87" width="16.68" height="6.07"></rect></g><g class="cls-48"><rect class="cls-49" x="286.75" y="210.09" width="19.12" height="11.34"></rect></g><g class="cls-50"><rect class="cls-51" x="288.22" y="225.04" width="17.57" height="6.51"></rect></g><path class="cls-6" d="M302.88,288.13a29.7,29.7,0,0,0-2.1-10.33,11.7,11.7,0,0,1-1-4.22c-.23-2.44.09-5.66,1.43-7.76a2.57,2.57,0,0,1,1.42-1.22l-.36.22c-1.45,1.08-1.64,4.55-1.56,6.21a22.1,22.1,0,0,0,1.11,4.93,31.29,31.29,0,0,1,1,12.17"></path><path class="cls-6" d="M303.31,233.37a106.74,106.74,0,0,1-.48,11.84,30.11,30.11,0,0,1-.58,4.73,26.56,26.56,0,0,0-.57,3.14,7.84,7.84,0,0,1-1.83,4,3.22,3.22,0,0,0-.94,2.32c-.17,1.26-.24,2.61-.31,3.88-.07-1.28-.15-2.64-.11-3.91a3.73,3.73,0,0,1,.76-2.69,6.79,6.79,0,0,0,1.24-4.45c0-1.16.19-2.27.32-3.42s.5-2.64.73-3.81a103.77,103.77,0,0,0,1.77-11.67"></path><path class="cls-6" d="M290.69,232.3c.84,3.33-.23,8,1.36,11,.51,1,.48.58.57,1.8.23,3.27-.14,12.13-1.4,15-.57,1.28-.69.91-.88,2.58-.54,4.64.62,13.38.93,18.33a36.47,36.47,0,0,1,0,5.11c-.11.51-.44,1.36-.61,1.85.16-.49.48-1.34.59-1.86a36.6,36.6,0,0,0-.09-5.09c-.38-5-1.64-13.7-1.16-18.37a5.46,5.46,0,0,1,.88-2.68c1.27-2.85,1.75-11.52,1.55-14.81-.07-1.21,0-.78-.53-1.75-1.57-3.09-.43-7.69-1.24-11.06"></path><path class="cls-6" d="M294.11,234c.09,3.92,1.37,7.46,1.83,11.37a58.36,58.36,0,0,1-.9,17.54,79.61,79.61,0,0,0-1.47,16.94c.05,2.27.7,3.39,1,5.47l0,.45v-.45l-.19-.85a21.9,21.9,0,0,1-.95-4.62,76.4,76.4,0,0,1,.61-14.1c1-7.16,2.31-13,1.63-20.34-.37-3.93-1.55-7.49-1.54-11.41"></path><path class="cls-6" d="M299.24,286.85c-.28-3.59-1.5-5-2.35-8.28s-.59-5.36-.46-8.53a16.43,16.43,0,0,1,.89-5c-.11.53-.22,1-.3,1.58a37.51,37.51,0,0,0,.15,7.77c.13,1.25.28,2.8.48,4,.56,3.32,1.64,4.82,1.59,8.45"></path><path class="cls-6" d="M298.39,249.41c-.1-2.19-.05-4.54,0-6.74a43.85,43.85,0,0,1,1.39-8c0-.06.06-.15.12-.18a9,9,0,0,0-.31,2.21c-.12,1.9,0,4.32-.3,6.1-.32,2.17-.68,4.48-.88,6.66"></path><path class="cls-6" d="M289.89,212.43c.1,1.92-.14,3.89,1.57,5.07,2.51,1.72,3.19,1.55,6.13,1.7a15.68,15.68,0,0,1-4.17-.06c-4-1.23-3.74-3.16-3.53-6.71"></path><path class="cls-6" d="M304.11,215.36a.2.2,0,0,1,0-.07.15.15,0,0,0,0,.07m-9-.48c1.94-.24,6.53-1.1,8.14-.86,2.11.32,2.56.84,1.41,2.9-.59,1.07-1.55,2.47-2.9,2.51l.29-.08c1-.39,2-2.61,2-3.77a16.4,16.4,0,0,1-2.28-.08C299.6,215.21,297.38,215.1,295.14,214.88Z"></path><path class="cls-21" d="M294.43,230c-1.45-.25-3.35-.68-3.6-2.23-.14-.87,1.26-1.48,2-1.63a7.86,7.86,0,0,1,2.37,0c-1.18,0-2.75,0-3.56,1a2.15,2.15,0,0,0-.27.86c-.05,1.24,2,1.83,3.05,2.08"></path><path class="cls-21" d="M295.51,229.52c-1.09-.18-3.47-.81-3.32-2.09.13-1.12,3.08-1,3.91-.91l.54,0a9.34,9.34,0,0,0-3.21.26c-.38.14-.9.46-.88.87.06,1,2.05,1.61,3,1.82"></path><path class="cls-21" d="M299.79,226.52c1.32.23,3.37.71,3.16,2.21-.18,1.34-2.68,1.64-3.91,1.59l-.9-.07a6.87,6.87,0,0,0,3-.39,2.45,2.45,0,0,0,1.39-1.36c.27-1.19-1.78-1.75-2.73-2"></path><path class="cls-21" d="M298.16,226.58c1.09.19,3.47.81,3.33,2.09-.13,1.12-3.08,1-3.9.91l-.54-.05a9.53,9.53,0,0,0,3.2-.25c.38-.15.9-.47.87-.88-.05-1-2-1.61-3-1.82"></path><path class="cls-21" d="M294.83,228.61c-3.29-2.08,4.32-2.07,4.29-.56,0,.84-2.2.55-2.57.52l1,0c.17,0,1.86-.21,1.32-.72a6.81,6.81,0,0,0-2.48-.63c-1.57-.2-3.28.1-1.53,1.35"></path><path class="cls-6" d="M319.67,228.9a3.11,3.11,0,0,1,1-2.23,8.17,8.17,0,0,1,1.4-1.22,8.06,8.06,0,0,1,4.17-1.07c.84,0,1.69.06,2.52.13q1.62.13,3.21.39a22.45,22.45,0,0,1,4.45,1.1c1.06.42,2.46,1.16,2.46,2.48v.32a5.79,5.79,0,0,1-.16.91c0,.23-.09.45-.13.67a9.82,9.82,0,0,0,.05,1.43c0,.49-.3.83-.38,1.26a5.86,5.86,0,0,0-.11,1.1v.53l.44,4.46,0,.11a.91.91,0,0,1,0,.33l-.91,5.57.16-.11c.45-.32.89-.66,1.33-1,.94-.72,2-1.28,2.95-1.93a34.46,34.46,0,0,0,4.86-4.42,42.77,42.77,0,0,0,4.49-4.93,3.8,3.8,0,0,1,1.92-1.43c.25-.08.49-.12.74-.18a1.27,1.27,0,0,0,.38-.11.16.16,0,0,0,.08-.06h0a1.86,1.86,0,0,0,.16-.47,2.49,2.49,0,0,1,.6-1.2,3.15,3.15,0,0,1,.9-.77,2.45,2.45,0,0,1,1-.11,2.84,2.84,0,0,0,.25-.23l.64-.66c.22-.24.44-.48.65-.73a4.35,4.35,0,0,0,.34-.41c.68-1.11,3.07-1.62,4.3-1.62,2.16,0,4.41,2,5.86,3.44,1.13,1.12,3.85,3.76,3.85,5.37v.25c0,.66-.81,1.48-1.23,1.94-.73.77-1.5,1.52-2.27,2.25s-1.4,1.32-2.11,2c-.43.4-.88.79-1.29,1.21-2.22,2.22-4.49,4.4-6.71,6.63l-6.71,6.71a38.68,38.68,0,0,0-3.11,3.42,14.46,14.46,0,0,1-1.76,1.74,6.7,6.7,0,0,0-1,1,10.47,10.47,0,0,1,1.24,1.44,4.88,4.88,0,0,0,1,1.07c1.09.82,2,1.9,3.06,2.69a11.19,11.19,0,0,1,1.68,1.69,8.21,8.21,0,0,0,1.21,1.22,11.54,11.54,0,0,1,1.33,1.19,8.31,8.31,0,0,0,1.73,1.39c1.25.73,2.57,1.32,3.81,2.08.59.36,1.09.86,1.69,1.2a8.67,8.67,0,0,1,1.86,1.31c1,1,2.08,1.75,3,2.73s3,2.32,3,3.58v.32c0,2.25-1.81,5.65-3.22,7.36a25.48,25.48,0,0,1-2.4,2.69,5.88,5.88,0,0,1-3.92,1.7h-.16a2.68,2.68,0,0,1-1.91-.7,4.63,4.63,0,0,0-.48-.4,6.39,6.39,0,0,0-.89-.4,7.73,7.73,0,0,1-1.05-.49,13.71,13.71,0,0,1-1.85-1.26c-.52-.44-1-.93-1.47-1.41s-.87-1-1.4-1.4a9.8,9.8,0,0,0-1.75-.86c-1.26-.64-2.37-1.46-3.59-2.17a24.09,24.09,0,0,1-3.41-2.53c-1-.89-2.08-1.83-3-2.81s-2-1.7-3-2.55c-.37-.32-.67-.53-.94-.78,0,.31.08.61.11.92a10.38,10.38,0,0,1,.09,1.11V279l1,10.29v0c.06.84-.68,1.4-1.34,1.77a12.89,12.89,0,0,1-2.26,1,31.16,31.16,0,0,1-3.14.89,19.48,19.48,0,0,1-4.18.3c-.8,0-1.6,0-2.4-.1a18.44,18.44,0,0,1-2-.26,3.8,3.8,0,0,1-2.63-1.58,5.28,5.28,0,0,1-.68-2.32c-.1-.86-.16-1.71-.33-2.57-.24-1.22-.3-2.52-.61-3.72a15.12,15.12,0,0,1-.34-2.43c0-.59-.07-1.19-.07-1.78a15,15,0,0,1,.28-2.92c.08-.41.17-.82.26-1.23.05-.25.09-.49.13-.74a2.76,2.76,0,0,0,.06-.4v-.41a9.45,9.45,0,0,0-.82-2.58,8.5,8.5,0,0,1-.73-2.87v-1a12.79,12.79,0,0,1,.34-2.45c.15-.72.17-1.47.29-2.2s.22-1.44.27-2.16.33-1.43.41-2.15a12.81,12.81,0,0,1,.23-1.38,21.3,21.3,0,0,0,.5-3c.11-1.58.24-3.15.24-4.74a29.07,29.07,0,0,0-.4-4.57c-.13-.74-.19-1.49-.3-2.23a17,17,0,0,1-.36-2.31v-.41a3.22,3.22,0,0,1,.49-1.68,6.29,6.29,0,0,0,.41-.64v-.19h0c-.06-.13-.22-.32-.3-.45a2.18,2.18,0,0,1-.35-1.19v-.24a2.48,2.48,0,0,1,.5-1.31,2.46,2.46,0,0,0,.23-.42v-1.56Z"></path><g class="cls-52"><rect class="cls-53" x="319.21" y="230.51" width="18.06" height="61.05"></rect></g><g class="cls-54"><rect class="cls-55" x="329.69" y="220.63" width="47.36" height="47.17" transform="translate(-74.31 284.28) rotate(-40)"></rect></g><g class="cls-56"><rect class="cls-57" x="324.18" y="249.06" width="52.49" height="52.49" transform="translate(-92.03 328.42) rotate(-45)"></rect></g><g class="cls-58"><rect class="cls-59" x="359.77" y="281.38" width="12.83" height="12.83" transform="translate(-96.25 343.22) rotate(-45)"></rect></g><g class="cls-60"><rect class="cls-61" x="358.95" y="223.67" width="14.29" height="13.98" transform="translate(-62.62 289.29) rotate(-40)"></rect></g><g class="cls-62"><rect class="cls-63" x="321" y="225.79" width="16.43" height="7.18"></rect></g><path class="cls-6" d="M334.67,233.39c-.68,3.86.68,7.63-.09,11.07-.46,2.09-1.22,1.79-1.51,3.54-.49,2.87-.11,6.09-.13,9v.18a5.22,5.22,0,0,0-.07-.53,71.2,71.2,0,0,1-1.05-7.56c-.14-2.54.07-2.24,1-4.37,1.55-3.46.58-7.41,1.84-11.31"></path><path class="cls-6" d="M332.76,273.47a20.88,20.88,0,0,1,2.54,6.6c.33,1.56-.42,6.33-.63,8.15-.15-1.34-.28-2.68-.43-4-.13-1.11-.5-3-.49-4a20.09,20.09,0,0,0-1-6.75"></path><path class="cls-6" d="M323.22,233.73a12,12,0,0,0,.37,2.35,5.1,5.1,0,0,1-.41,2.61c-.35,1-.26.6,0,1.87a58.61,58.61,0,0,1,1.22,9.61c0,5.31-.08,8.26-2.12,13.27-.67,1.64-.5,2.43-.06,4.16,1,3.82,2.06,5.69,1.71,9.85-.11,1.37-1.31,11.26.54,11.29-1.85,0-.78-9.92-.68-11.31.3-4.12-.8-6-1.82-9.77-.48-1.78-.66-2.62,0-4.33,2-5.11,2.17-7.75,2.21-13.16a58.46,58.46,0,0,0-1.11-9.6c-.19-1.27-.29-.93.08-1.91a5.06,5.06,0,0,0,.43-2.57,11.61,11.61,0,0,1-.34-2.36"></path><path class="cls-6" d="M326.17,235.12c.1,5,.19,9.94.39,14.94.12,3.12.1,6,.38,9.16a6.87,6.87,0,0,1-.77,4.74,4,4,0,0,0-.52,1.7,3.87,3.87,0,0,1,.45-1.73,6.42,6.42,0,0,0,.65-4,93.42,93.42,0,0,1-.85-9.87c-.07-4.92.15-10,.27-15"></path><path class="cls-6" d="M325,268.09c.51,4.05.74,7.37,2,11.32a4.37,4.37,0,0,1,.29,2.54,21.48,21.48,0,0,0,.11,6.1,21.55,21.55,0,0,1-.52-6.11,3.94,3.94,0,0,0-.42-2.33c-1.38-3.44-1.27-7.84-1.49-11.52"></path><path class="cls-6" d="M331.55,286.66c-.1-3.22.36-5.83-1.36-8.73a15.88,15.88,0,0,1-1.58-2.7c-.15-1,.24-3.57.21-4.92a4.69,4.69,0,0,0-.55-2.42,1.83,1.83,0,0,1,0-.84c0,.9-.07.47.3,1.19.7,1.37.54,4,.53,5.54,0,1.17-.13,1.19.45,2,3,4,2.18,6.33,2,10.9"></path><path class="cls-6" d="M331,236.51c-.34,3.29-1.37,6-1.3,9.5,0,1.36.13,2.47.1,3.88-.07,3.63-.25,7.27-.36,10.91,0-1.9-.08-3.81-.11-5.71-.06-2.92-.26-6.24-.16-9.09.12-3.56,1.3-6.18,1.83-9.49"></path><path class="cls-6" d="M367.05,236.21a32.41,32.41,0,0,0-9.65,9.26c-1.32,2.2-3.65,4.2-5.55,5.93a38.87,38.87,0,0,1-4.59,3.8,7.06,7.06,0,0,0-2.55,2.54,7.35,7.35,0,0,1,2.33-2.88c2.1-1.68,5.68-6,7.45-8.2.55-.7,1.13-1.27,1.65-1.95a32.72,32.72,0,0,1,10.91-8.5"></path><path class="cls-6" d="M341.27,255.24c0,.11-.08.18-.09.17s.06-.08.06-.09l0-.08m21-20.6c-1.21,1-1.68,1.88-3.14,2.7a7.27,7.27,0,0,0-2.44,1.65c-1.95,1.87-3.36,4-5.1,5.92s-3.74,2.84-6,4.16a9.91,9.91,0,0,0-3.59,4.6s-.47,1.13-.67,1.57c.25-.65.43-1.36.72-2.07a9.77,9.77,0,0,1,3.22-4.6,27.16,27.16,0,0,0,4.48-3.27c2.14-2.14,5.93-6.82,8.49-7.91S360.34,236,362.25,234.64Z"></path><path class="cls-6" d="M360,230.15a15.58,15.58,0,0,1-2.87,3.68c-1.79,1.11-4.43,4.29-6.2,5.93a13.9,13.9,0,0,1-2.22,1.75,65.7,65.7,0,0,0-5.73,4.66,25.38,25.38,0,0,0-3,2.9s-.57.47-.57.47a8.28,8.28,0,0,0-1.8,2.62s0,0-.06.1.05-.08.06-.1a7.51,7.51,0,0,1,2.3-3.14,19.15,19.15,0,0,1,2.61-2.65,70.48,70.48,0,0,1,6-5.16,23.61,23.61,0,0,0,4.07-3.44,26.25,26.25,0,0,1,4.47-4,15.93,15.93,0,0,0,2.91-3.59"></path><path class="cls-6" d="M334.33,265.29c.35,5.61,3.13,5,6.6,8.52,1.64,1.65,2.95,2.92,4.7,4.45a25.22,25.22,0,0,0,4.73,3.6c.91.51,2.71,1.22,3.35,1.69,1.46,1.07,4.92,4.7,5.51,6.39-.66-1.45-2.93-3.38-4.17-4.4a7.52,7.52,0,0,0-2.75-1.74,22.27,22.27,0,0,1-6.65-3.4,33.13,33.13,0,0,1-5.51-5.89c-3.1-3.78-6-3.48-5.81-9.22"></path><path class="cls-6" d="M337.15,261.49c.29,4.7,6.4,9.72,9.81,12.6s8.55,5.46,11.52,8.56a8.53,8.53,0,0,1,2,3.12,10.85,10.85,0,0,0-4.05-4.65c-3-2.17-7.34-4.25-9.87-6.56-3.32-3-9.27-8.33-9.38-13.07"></path><path class="cls-6" d="M340.7,260.88c1.6,1.88,3.88,4,5.69,5.81,2.48,2.46,5,4.94,7.53,7.36a10.78,10.78,0,0,0,3.68,2.61c1.88,1,5.23,2.71,6.16,4.7-.91-1.85-3.85-3.3-5.62-4.23a14.65,14.65,0,0,1-3.59-2.14c-2.85-2.5-5.65-5.45-8.29-8.18-1.77-1.83-4-4-5.56-5.93"></path><path class="cls-21" d="M326.7,230.84c-1.46-.24-3.36-.67-3.6-2.23-.14-.86,1.26-1.48,2-1.63a7.54,7.54,0,0,1,2.37,0c-1.19,0-2.75,0-3.56.94a2.35,2.35,0,0,0-.28.86c0,1.24,2,1.83,3.06,2.08"></path><path class="cls-21" d="M327.78,230.37c-1.09-.18-3.47-.81-3.32-2.09.13-1.11,3.07-1,3.9-.91l.54.06a9.36,9.36,0,0,0-3.21.25c-.37.14-.89.46-.87.88.05,1,2.05,1.61,3,1.81"></path><path class="cls-21" d="M332.06,227.38c1.31.22,3.36.7,3.16,2.2-.18,1.34-2.68,1.65-3.92,1.6l-.89-.08a6.86,6.86,0,0,0,3-.38,2.49,2.49,0,0,0,1.39-1.37c.26-1.18-1.78-1.74-2.73-2"></path><path class="cls-21" d="M330.43,227.43c1.09.19,3.46.82,3.32,2.1-.12,1.11-3.07,1-3.9.91l-.54-.06a9.34,9.34,0,0,0,3.21-.25c.38-.14.89-.46.87-.88-.06-1-2.05-1.61-3-1.82"></path><path class="cls-21" d="M327.1,229.46c-3.29-2.08,4.32-2.07,4.29-.56,0,.84-2.21.56-2.58.52l1,.05c.18,0,1.87-.22,1.33-.73a6.86,6.86,0,0,0-2.49-.62c-1.56-.21-3.28.09-1.52,1.34"></path><path class="cls-21" d="M363.28,230.69c-1-.87-2.15-2.09-1.6-3.35.31-.71,1.63-.5,2.26-.25a6.68,6.68,0,0,1,1.76,1.1c-.87-.57-2-1.32-3.08-1a2,2,0,0,0-.61.51c-.62.89.64,2.31,1.27,3"></path><path class="cls-21" d="M364.3,230.86c-.72-.66-2.17-2.25-1.46-3.12s2.74.73,3.31,1.18l.38.29a8.32,8.32,0,0,0-2.49-1.33c-.35-.07-.88-.08-1.06.23-.42.75.75,2.16,1.32,2.75"></path><path class="cls-21" d="M368.88,230.67c.87.79,2.15,2.12,1.29,3.13s-2.76-.06-3.65-.68l-.62-.48a5.92,5.92,0,0,0,2.39,1.13,2.14,2.14,0,0,0,1.67-.35c.76-.75-.48-2.13-1.08-2.75"></path><path class="cls-21" d="M367.65,229.94c.72.66,2.18,2.25,1.46,3.12s-2.73-.73-3.31-1.17l-.37-.3a8.1,8.1,0,0,0,2.49,1.33c.35.08.88.09,1.06-.23.42-.75-.75-2.16-1.33-2.75"></path><path class="cls-21" d="M364.23,229.86c-1.44-3.09,4.17.52,3.43,1.62-.41.61-1.89-.63-2.14-.84l.69.5c.13.07,1.48.72,1.32.09-.11-.45-1.16-1.32-1.54-1.64-1.05-.89-2.46-1.48-1.76.27"></path><path class="cls-21" d="M366.57,285.67c.57-.69,1.36-1.54,2-1,.35.28.1,1.29-.1,1.76a6.43,6.43,0,0,1-.79,1.3,4.12,4.12,0,0,0,.86-2.32,1.47,1.47,0,0,0-.2-.51c-.42-.54-1.32.35-1.75.8"></path><path class="cls-21" d="M366.37,286.45c.43-.52,1.45-1.55,1.84-.94s-.69,2.07-1,2.49l-.2.27a7.9,7.9,0,0,0,1-1.84c.07-.26.14-.68,0-.84-.35-.37-1.24.45-1.62.86"></path><path class="cls-21" d="M366,290c-.52.62-1.38,1.54-1.83.8s.32-2.13.75-2.78l.33-.45a5.9,5.9,0,0,0-.87,1.78,2.23,2.23,0,0,0,0,1.31c.33.64,1.21-.24,1.61-.66"></path><path class="cls-21" d="M366.5,289.1c-.43.51-1.44,1.54-1.84.93s.69-2.07,1-2.49l.2-.27a8,8,0,0,0-1,1.85c-.08.26-.14.67,0,.83.36.37,1.25-.44,1.63-.85"></path><path class="cls-21" d="M366.91,286.45c1.83-.92-.72,3.2-1.24,2.56-.29-.36.55-1.42.68-1.61l-.34.51c-.06.09-.55,1.1-.19,1s.84-.82,1.05-1.09c.6-.77,1.07-1.82,0-1.39"></path></svg>