<svg xmlns="http://www.w3.org/2000/svg" xmlns:xlink="http://www.w3.org/1999/xlink" id="Layer_1" data-name="Layer 1" viewBox="0 0 500 500"><defs><style>.cls-1{fill:url(#linear-gradient);}.cls-2{fill:url(#linear-gradient-2);}.cls-3{fill:url(#linear-gradient-3);}.cls-4{fill:url(#linear-gradient-4);}.cls-5{fill:url(#linear-gradient-5);}.cls-6{fill:url(#linear-gradient-6);}</style><linearGradient id="linear-gradient" x1="145.05" y1="236.85" x2="168.14" y2="276.26" gradientUnits="userSpaceOnUse"><stop offset="0" stop-color="#b57e10"></stop><stop offset="0.15" stop-color="#b57e10"></stop><stop offset="0.46" stop-color="#e5c35c"></stop><stop offset="0.61" stop-color="#f9df7b"></stop><stop offset="0.72" stop-color="#fff3a6"></stop><stop offset="0.84" stop-color="#f9df7b"></stop><stop offset="1" stop-color="#b57e10"></stop></linearGradient><linearGradient id="linear-gradient-2" x1="163.09" y1="226.28" x2="186.18" y2="265.69" xlink:href="#linear-gradient"></linearGradient><linearGradient id="linear-gradient-3" x1="176.52" y1="218.42" x2="199.61" y2="257.82" xlink:href="#linear-gradient"></linearGradient><linearGradient id="linear-gradient-4" x1="194" y1="208.17" x2="217.09" y2="247.58" xlink:href="#linear-gradient"></linearGradient><linearGradient id="linear-gradient-5" x1="212.47" y1="197.35" x2="235.56" y2="236.76" xlink:href="#linear-gradient"></linearGradient><linearGradient id="linear-gradient-6" x1="228.55" y1="187.93" x2="251.64" y2="227.34" xlink:href="#linear-gradient"></linearGradient></defs><path class="cls-1" d="M153.42,236.28v9.18a13.44,13.44,0,0,1-3.85,1.95,15.15,15.15,0,0,1-4.48.64,14.52,14.52,0,0,1-5.21-.89,11.5,11.5,0,0,1-4-2.51,11,11,0,0,1-2.52-3.86,13.3,13.3,0,0,1-.89-5,13.93,13.93,0,0,1,.86-5A11.19,11.19,0,0,1,135.8,227a11,11,0,0,1,3.86-2.49,13.92,13.92,0,0,1,5.08-.89,15.49,15.49,0,0,1,2.63.21,12.22,12.22,0,0,1,2.26.6,10.73,10.73,0,0,1,1.92.95,12.83,12.83,0,0,1,1.65,1.26l-.92,1.47a.91.91,0,0,1-.56.43,1,1,0,0,1-.76-.16c-.26-.16-.57-.34-.92-.57a8.48,8.48,0,0,0-1.25-.64,10.28,10.28,0,0,0-1.76-.53,11.86,11.86,0,0,0-2.39-.21,9.7,9.7,0,0,0-3.66.66,7.73,7.73,0,0,0-2.79,1.88,8.33,8.33,0,0,0-1.77,3,12.76,12.76,0,0,0,0,8,8.49,8.49,0,0,0,1.83,3,8,8,0,0,0,2.9,1.9,11.66,11.66,0,0,0,6.79.27,13.36,13.36,0,0,0,2.53-1v-5.26h-3.73a.72.72,0,0,1-.51-.18.64.64,0,0,1-.19-.45v-1.84Z"></path><path class="cls-2" d="M180.48,235.83a13.94,13.94,0,0,1-.85,4.93,11.27,11.27,0,0,1-2.41,3.87,10.77,10.77,0,0,1-3.73,2.51,13.44,13.44,0,0,1-9.62,0,10.86,10.86,0,0,1-3.73-2.51,11.4,11.4,0,0,1-2.4-3.87,14.75,14.75,0,0,1,0-9.87,11.6,11.6,0,0,1,2.4-3.87,10.91,10.91,0,0,1,3.73-2.53,13.3,13.3,0,0,1,9.62,0,10.81,10.81,0,0,1,3.73,2.53,11.46,11.46,0,0,1,2.41,3.87A14,14,0,0,1,180.48,235.83Zm-3.32,0a12.2,12.2,0,0,0-.6-4,8.44,8.44,0,0,0-1.71-3,7.23,7.23,0,0,0-2.67-1.86,9.72,9.72,0,0,0-7,0,7.35,7.35,0,0,0-2.68,1.86,8.29,8.29,0,0,0-1.71,3,13.13,13.13,0,0,0,0,7.91,8.25,8.25,0,0,0,1.71,2.95,7.2,7.2,0,0,0,2.68,1.85,9.72,9.72,0,0,0,7,0,7.09,7.09,0,0,0,2.67-1.85,8.39,8.39,0,0,0,1.71-2.95A12.14,12.14,0,0,0,177.16,235.83Z"></path><path class="cls-3" d="M198.67,245.06v2.72H185.1V223.86h3.22v21.2Z"></path><path class="cls-4" d="M223,235.83a13.42,13.42,0,0,1-.85,4.89,10.75,10.75,0,0,1-2.41,3.77,10.49,10.49,0,0,1-3.73,2.43,12.87,12.87,0,0,1-4.81.86h-8.93V223.86h8.93a13.07,13.07,0,0,1,4.81.86,10.51,10.51,0,0,1,3.73,2.44,10.88,10.88,0,0,1,2.41,3.78A13.42,13.42,0,0,1,223,235.83Zm-3.32,0a12,12,0,0,0-.6-3.94,8.2,8.2,0,0,0-1.71-2.94,7.16,7.16,0,0,0-2.67-1.83,9.09,9.09,0,0,0-3.5-.64h-5.7v18.68h5.7a9.29,9.29,0,0,0,3.5-.63,7.4,7.4,0,0,0,2.67-1.83,8.16,8.16,0,0,0,1.71-2.93A12,12,0,0,0,219.66,235.83Z"></path><path class="cls-5" d="M242.39,245.14v2.64H227.64V223.86h14.74v2.64h-11.5v7.94h9.31V237h-9.31v8.16Z"></path><path class="cls-6" d="M266.3,223.86v23.92h-1.62a1.38,1.38,0,0,1-.64-.13,1.72,1.72,0,0,1-.51-.45l-13.84-18c0,.28,0,.55.05.82s0,.51,0,.75v17h-2.84V223.86h1.67l.37,0a.88.88,0,0,1,.26.09,1.11,1.11,0,0,1,.24.16l.25.28,13.84,18c0-.29,0-.57-.06-.84s0-.53,0-.78V223.86Z"></path><path d="M274.74,223.86a13.93,13.93,0,0,1,4.35.6,8.56,8.56,0,0,1,3,1.64,6.48,6.48,0,0,1,1.73,2.49,8.43,8.43,0,0,1,.56,3.08,9,9,0,0,1-.58,3.29,6.5,6.5,0,0,1-1.76,2.56,8.21,8.21,0,0,1-3,1.67,13.73,13.73,0,0,1-4.3.6h-2.89v8H266.3V223.86Zm0,11.74a3.54,3.54,0,0,0,4.08-3.93,4.43,4.43,0,0,0-.25-1.49,3,3,0,0,0-.75-1.16,3.41,3.41,0,0,0-1.26-.75,5.78,5.78,0,0,0-1.82-.26h-2.89v7.59Z"></path><path d="M301.61,243.35v4.44H287.19V223.86h5.55v19.49Z"></path><path d="M313.93,243.4a5.06,5.06,0,0,0,2-.37,4.06,4.06,0,0,0,1.48-1.06,4.57,4.57,0,0,0,.93-1.68,7.22,7.22,0,0,0,.32-2.26V223.86h5.55V238a11,11,0,0,1-.71,4,8.91,8.91,0,0,1-5.28,5.24,12.83,12.83,0,0,1-8.59,0,9.19,9.19,0,0,1-3.24-2.07,9,9,0,0,1-2-3.17,11.17,11.17,0,0,1-.71-4V223.86h5.55V238a7.43,7.43,0,0,0,.32,2.26,4.92,4.92,0,0,0,.93,1.69,3.93,3.93,0,0,0,1.49,1.07A5,5,0,0,0,313.93,243.4Z"></path><path d="M341.77,228.72a2,2,0,0,1-.52.59,1.16,1.16,0,0,1-.7.19,1.67,1.67,0,0,1-.81-.23l-1-.54a9.37,9.37,0,0,0-1.26-.53,5,5,0,0,0-1.61-.24,3.4,3.4,0,0,0-2.32.67,2.26,2.26,0,0,0-.77,1.8,1.65,1.65,0,0,0,.46,1.19,4,4,0,0,0,1.21.83,12.87,12.87,0,0,0,1.71.63c.64.19,1.29.4,2,.64a16,16,0,0,1,2,.83,6.7,6.7,0,0,1,1.71,1.21,5.75,5.75,0,0,1,1.21,1.8,6.35,6.35,0,0,1,.46,2.55,8.19,8.19,0,0,1-.58,3.11,7.38,7.38,0,0,1-1.66,2.52,7.71,7.71,0,0,1-2.7,1.69,10.1,10.1,0,0,1-3.64.62,11.89,11.89,0,0,1-2.27-.23,14.06,14.06,0,0,1-2.24-.65,13.75,13.75,0,0,1-2-1,9.12,9.12,0,0,1-1.66-1.28l1.65-2.6a1.65,1.65,0,0,1,.51-.47,1.44,1.44,0,0,1,.7-.19,1.84,1.84,0,0,1,1,.32l1.14.68a7.82,7.82,0,0,0,1.45.69,5.4,5.4,0,0,0,1.94.32,3.71,3.71,0,0,0,2.35-.67,2.52,2.52,0,0,0,.84-2.11,2,2,0,0,0-.46-1.36,3.59,3.59,0,0,0-1.21-.87,10.83,10.83,0,0,0-1.7-.61c-.64-.18-1.29-.37-2-.58a15.6,15.6,0,0,1-1.95-.79,6.06,6.06,0,0,1-1.7-1.23,5.84,5.84,0,0,1-1.21-1.91,7.7,7.7,0,0,1-.46-2.82,6.68,6.68,0,0,1,.54-2.62,6.93,6.93,0,0,1,1.6-2.29,8,8,0,0,1,2.58-1.6,9.47,9.47,0,0,1,3.5-.6,12.61,12.61,0,0,1,2.14.18,11.48,11.48,0,0,1,2,.5,12.17,12.17,0,0,1,1.75.81,8.33,8.33,0,0,1,1.45,1.06Z"></path><path d="M367.13,237.72h-9.79v10.33h-3.86V237.72h-9.74v-3.59h9.74V223.86h3.86v10.27h9.79Z"></path><path d="M137.69,257.53h-4.42V276.2h1.06v-7.68h3.36a7.85,7.85,0,0,0,2.58-.4,6.4,6.4,0,0,0,2-1.13,5.15,5.15,0,0,0,1.35-1.75,5.25,5.25,0,0,0,.47-2.21,5,5,0,0,0-1.71-4.15A7.42,7.42,0,0,0,137.69,257.53Zm0,10h-3.36v-9h3.36a6.14,6.14,0,0,1,4.07,1.14,4.72,4.72,0,0,1,.94,5.1,4.29,4.29,0,0,1-1.07,1.41,5,5,0,0,1-1.68,1A6.7,6.7,0,0,1,137.69,267.52Z"></path><path d="M159.7,267.16a6.17,6.17,0,0,0,2-1,4.7,4.7,0,0,0,1.29-1.62,4.93,4.93,0,0,0,.46-2.13,4.28,4.28,0,0,0-1.66-3.7,7.66,7.66,0,0,0-4.53-1.16H152.7V276.2h1.06v-8.65h2.41a3,3,0,0,1,.63.07l.15-.35.16.6,6.72,8.06.24.21.1,0,.21,0h1.07l-7.31-8.71A7.56,7.56,0,0,0,159.7,267.16Zm-5.94-8.62h3.46a6.64,6.64,0,0,1,3.87.95,3.27,3.27,0,0,1,1.26,2.9,3.8,3.8,0,0,1-.37,1.73,3.5,3.5,0,0,1-1,1.29,4.89,4.89,0,0,1-1.68.83,8,8,0,0,1-2.27.3h-3.23Z"></path><path d="M186.63,259.9a7.75,7.75,0,0,0-2.75-1.91,9.64,9.64,0,0,0-7,0,7.84,7.84,0,0,0-2.74,1.93,8.83,8.83,0,0,0-1.78,3,12.64,12.64,0,0,0,0,7.88,8.69,8.69,0,0,0,1.78,3,7.86,7.86,0,0,0,2.75,1.91,9,9,0,0,0,3.49.66,9.18,9.18,0,0,0,3.51-.66,7.82,7.82,0,0,0,2.75-1.91,8.85,8.85,0,0,0,1.78-3,12.67,12.67,0,0,0,0-7.89A9,9,0,0,0,186.63,259.9Zm-6.26-1.57a8.14,8.14,0,0,1,3.09.58,6.8,6.8,0,0,1,2.38,1.67,7.84,7.84,0,0,1,1.55,2.68,11.88,11.88,0,0,1,0,7.21,7.65,7.65,0,0,1-1.55,2.66,6.72,6.72,0,0,1-2.38,1.67,8.44,8.44,0,0,1-6.15,0,6.67,6.67,0,0,1-2.38-1.67,7.8,7.8,0,0,1-1.58-2.66,11.69,11.69,0,0,1,0-7.21,7.89,7.89,0,0,1,1.58-2.68,6.8,6.8,0,0,1,2.38-1.67A8,8,0,0,1,180.37,258.33Z"></path><polygon points="198.13 276.2 199.19 276.2 199.19 267.5 208.07 267.5 208.07 266.47 199.19 266.47 199.19 258.56 209.35 258.56 209.35 257.53 198.13 257.53 198.13 276.2"></polygon><polygon points="218.75 267.24 227.38 267.24 227.38 266.21 218.75 266.21 218.75 258.56 228.91 258.56 228.91 257.53 217.69 257.53 217.69 276.2 228.88 276.2 228.97 275.17 218.75 275.17 218.75 267.24"></polygon><path d="M245.8,267.46a6.38,6.38,0,0,0-1.59-.87c-.57-.22-1.15-.42-1.73-.61s-1.15-.39-1.7-.6a5.54,5.54,0,0,1-1.41-.74,3.3,3.3,0,0,1-1-1.05,3,3,0,0,1-.36-1.54,3.81,3.81,0,0,1,.28-1.41,3.41,3.41,0,0,1,.79-1.17,3.9,3.9,0,0,1,1.3-.82,4.92,4.92,0,0,1,1.82-.32,5.23,5.23,0,0,1,1.18.12,4.78,4.78,0,0,1,.9.28,3.91,3.91,0,0,1,.66.36,5.12,5.12,0,0,1,.47.39l.32.29a.72.72,0,0,0,.48.23l.38-.15.28-.42-.2-.22a6,6,0,0,0-2-1.43,6.26,6.26,0,0,0-2.45-.45,6.09,6.09,0,0,0-2.21.38,5,5,0,0,0-1.64,1,4.43,4.43,0,0,0-1,1.52,4.74,4.74,0,0,0-.35,1.78,4.45,4.45,0,0,0,.29,1.67,3.87,3.87,0,0,0,.79,1.24,4.57,4.57,0,0,0,1.13.86,10,10,0,0,0,1.32.61c.46.17.93.33,1.41.47s.91.29,1.36.45a8.64,8.64,0,0,1,1.23.55,3.74,3.74,0,0,1,.95.69,2.73,2.73,0,0,1,.63.93,3.28,3.28,0,0,1,.23,1.32,4.79,4.79,0,0,1-.32,1.77,4.19,4.19,0,0,1-.94,1.43,4.35,4.35,0,0,1-1.52,1,5.3,5.3,0,0,1-2.06.37,6.19,6.19,0,0,1-1.42-.15,5.54,5.54,0,0,1-1.09-.38,4.55,4.55,0,0,1-.81-.49c-.22-.18-.42-.35-.58-.5l-.39-.4a.69.69,0,0,0-.5-.28l-.37.16-.1.07-.25.25.23.26a8.9,8.9,0,0,0,1,1,6.27,6.27,0,0,0,1.17.78,5.93,5.93,0,0,0,1.4.49,8,8,0,0,0,1.71.17A6.67,6.67,0,0,0,244,276a5.29,5.29,0,0,0,1.85-1.2A5.07,5.07,0,0,0,247,273a5.93,5.93,0,0,0,.4-2.2,4.07,4.07,0,0,0-.45-2A4.14,4.14,0,0,0,245.8,267.46Z"></path><path d="M264.46,267.46a6.2,6.2,0,0,0-1.59-.87c-.57-.22-1.14-.42-1.73-.61s-1.14-.39-1.7-.6a5.54,5.54,0,0,1-1.41-.74,3.3,3.3,0,0,1-.95-1.05,3.05,3.05,0,0,1-.35-1.54,3.71,3.71,0,0,1,.27-1.4,3.27,3.27,0,0,1,.79-1.18,3.9,3.9,0,0,1,1.3-.82,4.92,4.92,0,0,1,1.82-.32,5.17,5.17,0,0,1,1.18.12,4.67,4.67,0,0,1,.91.28,4.2,4.2,0,0,1,.65.36c.19.14.34.27.48.39l.32.29a.68.68,0,0,0,.48.23l.38-.15.27-.42-.2-.22a6,6,0,0,0-2-1.43,6.31,6.31,0,0,0-2.46-.45,6.13,6.13,0,0,0-2.21.38,5.17,5.17,0,0,0-1.64,1,4.52,4.52,0,0,0-1,1.52,4.74,4.74,0,0,0-.35,1.78,4.45,4.45,0,0,0,.29,1.67,3.87,3.87,0,0,0,.79,1.24,4.62,4.62,0,0,0,1.14.86,10,10,0,0,0,1.32.61c.46.17.93.33,1.4.47s.92.29,1.36.45a8.64,8.64,0,0,1,1.23.55,3.8,3.8,0,0,1,1,.69,3.05,3.05,0,0,1,.63.93,3.43,3.43,0,0,1,.23,1.32,4.8,4.8,0,0,1-.33,1.77,4.16,4.16,0,0,1-.93,1.43,4.55,4.55,0,0,1-1.52,1,5.38,5.38,0,0,1-2.07.37,6,6,0,0,1-1.41-.15,5.89,5.89,0,0,1-1.1-.38,4.11,4.11,0,0,1-.8-.49,6.59,6.59,0,0,1-.59-.51l-.39-.39a.69.69,0,0,0-.5-.28l-.37.17-.1.07-.24.24.22.26a9.81,9.81,0,0,0,1,1,5.73,5.73,0,0,0,2.58,1.27,8,8,0,0,0,1.7.17,6.63,6.63,0,0,0,2.47-.44,5.18,5.18,0,0,0,3-3,6.13,6.13,0,0,0,.39-2.2,4.07,4.07,0,0,0-.45-2A4,4,0,0,0,264.46,267.46Z"></path><rect x="275.05" y="257.53" width="1.06" height="18.67"></rect><path d="M300.11,259.9a7.75,7.75,0,0,0-2.75-1.91,9.16,9.16,0,0,0-3.52-.66,9,9,0,0,0-3.49.66,7.84,7.84,0,0,0-2.74,1.93,8.93,8.93,0,0,0-1.78,3,12.64,12.64,0,0,0,0,7.88,8.69,8.69,0,0,0,1.78,3,7.92,7.92,0,0,0,2.74,1.91,9.08,9.08,0,0,0,3.49.66,9.19,9.19,0,0,0,3.52-.66,7.78,7.78,0,0,0,2.75-1.91,9,9,0,0,0,1.78-3,12.86,12.86,0,0,0,0-7.89A9.14,9.14,0,0,0,300.11,259.9Zm-6.27,15.48a8,8,0,0,1-3-.58,6.67,6.67,0,0,1-2.38-1.67,7.8,7.8,0,0,1-1.58-2.66,11.69,11.69,0,0,1,0-7.21,7.89,7.89,0,0,1,1.58-2.68,6.71,6.71,0,0,1,2.38-1.67,8,8,0,0,1,3-.58,8.14,8.14,0,0,1,3.09.58,6.62,6.62,0,0,1,2.39,1.67,7.84,7.84,0,0,1,1.55,2.68,11.88,11.88,0,0,1,0,7.21,7.74,7.74,0,0,1-1.55,2.66,6.67,6.67,0,0,1-2.39,1.67A8.14,8.14,0,0,1,293.84,275.38Z"></path><path d="M324.56,257.53v16.58l-12-16.3a.63.63,0,0,0-.6-.28h-.37v18.3l.25.37h.75V259.54L324.67,276l.25.25h.65V257.91l-.26-.38Z"></path><path d="M341.56,257.53h-.5l-7.57,18.15v.52H334l.43-.13,2.49-6h9l2.39,5.72.23.39h1.08l-7.7-18.44Zm-4.18,11.55,4.06-9.74,4.06,9.74Z"></path><polygon points="358.36 275.17 358.36 257.53 357.31 257.53 357.31 276.2 367.5 276.2 367.5 275.17 358.36 275.17"></polygon></svg>