<svg xmlns="http://www.w3.org/2000/svg" id="Layer_1" data-name="Layer 1" viewBox="0 0 500 500"><defs><style>.cls-1,.cls-2{fill:#6d6a6a;}.cls-1{fill-rule:evenodd;}.cls-3{fill:#ee7900;}.cls-4{fill:#3190cc;}.cls-5{fill:#ef8200;}.cls-6{fill:#e5630d;}</style></defs><path class="cls-1" d="M232.27,241.94c1.17-2.8,2.62-6.2,3.79-9,1-2.34,1.89-4.71,3-7,.54-1.16.48-1.59-.89-1.93-7.89-1.92-16.39,3.49-17.85,11.46a14.76,14.76,0,1,0,28.94,5.86,15.06,15.06,0,0,0-.27-7.15c-.36-1.37-.84-1.38-2-.69-3.9,2.35-7.86,4.6-11.8,6.89-.76.43-2.14,1.14-2.91,1.56C232.16,241.83,232.39,242,232.27,241.94Z"></path><path class="cls-2" d="M84.44,279.58a1.14,1.14,0,1,1-1.14-1.16A1.13,1.13,0,0,1,84.44,279.58Zm-.14,2.58V294h-2V282.16Z"></path><path class="cls-2" d="M89.85,286.48c-.77,0-1.33.26-1.33.9,0,1.66,4.8.76,4.78,4,0,1.85-1.64,2.68-3.45,2.68a5.5,5.5,0,0,1-3.62-1.26l.68-1.38a5,5,0,0,0,3,1.11c.83,0,1.48-.29,1.48-1,0-1.85-4.75-.81-4.73-4.07,0-1.83,1.59-2.61,3.32-2.61a5.64,5.64,0,0,1,3.15.92l-.71,1.44A5.21,5.21,0,0,0,89.85,286.48Z"></path><path class="cls-2" d="M100.38,293.44a4.27,4.27,0,0,1-2.22.66,2.37,2.37,0,0,1-2.52-2.62V286.8H94.37v-1.46h1.27v-2.47h1.93v2.47h2.66v1.46H97.57v4.32c0,.94.35,1.22,1,1.22a3.19,3.19,0,0,0,1.36-.39Z"></path><path class="cls-2" d="M107.6,294v-1.1a3.69,3.69,0,0,1-3,1.18c-2,0-3.17-1.2-3.17-2.79s1.24-2.69,3.41-2.71h2.73v-.27c0-1.14-.73-1.82-2.15-1.82a4.78,4.78,0,0,0-2.67.92l-.8-1.35a6.6,6.6,0,0,1,3.89-1.14c2.32,0,3.63,1.18,3.64,3.16V294Zm0-3.17V290h-2.44c-1.28,0-1.87.34-1.87,1.2s.66,1.34,1.75,1.34C106.4,292.56,107.47,291.83,107.58,290.85Z"></path><path class="cls-2" d="M120.76,288.41V294h-2V289a2,2,0,0,0-2.17-2.18,2.51,2.51,0,0,0-2.56,2.46V294h-2v-9h2v1.73a3.4,3.4,0,0,1,3.32-1.8A3.15,3.15,0,0,1,120.76,288.41Z"></path><path class="cls-2" d="M132.87,289.55c0,2.69-1.7,4.54-4.27,4.54a3.56,3.56,0,0,1-3.19-1.63V294h-2V281.45h2v5.11a3.54,3.54,0,0,1,3.16-1.62C131.12,284.94,132.87,286.8,132.87,289.55Zm-2-.07a2.75,2.75,0,1,0-2.74,2.95A2.73,2.73,0,0,0,130.9,289.48Z"></path><path class="cls-2" d="M143.1,285v9h-1.95v-1.76a3.33,3.33,0,0,1-3.22,1.83c-2.06,0-3.3-1.32-3.3-3.48V285h2v5.06a2,2,0,0,0,2.1,2.19,2.55,2.55,0,0,0,2.47-2.81V285Z"></path><path class="cls-2" d="M148,281.45V294h-1.95V281.45Z"></path><path class="cls-3" d="M89.36,299.61v11h9.82v-11h8.19v27.63H99.18V317H89.36v10.28h-8.2V299.61Z"></path><path class="cls-3" d="M134.61,299.61v6.31H120.22v4.34h13.05v6.3H120.22v4.38H135v6.3H112V299.61Z"></path><path class="cls-3" d="M165.89,313.41c0,8.31-6,13.83-15.13,13.83H138.93V299.61H151C160,299.61,165.89,305.1,165.89,313.41Zm-8.35.08c0-4.46-2.72-7.41-6.66-7.41h-3.75v14.74h4.14C155,320.82,157.54,317.9,157.54,313.49Z"></path><path class="cls-3" d="M191.55,299.61v6.31H177.16v4.34h13.05v6.3H177.16v4.38h14.78v6.3H169V299.61Z"></path><path class="cls-3" d="M217.32,299.61v6.31H204.08v5.52h12.29v6.3H204.08v9.5h-8.2V299.61Z"></path><path class="cls-3" d="M251.13,321.41H237.65l-2.45,5.83h-5.47l12.1-27.58h5.47l11.94,27.58h-5.67Zm-1.89-4.53-4.82-11.59-4.88,11.59Z"></path><path class="cls-3" d="M280.88,327.24l-8.59-11.82-4.42,4.89v6.93h-5.28V299.66h5.28v13.47l12.5-13.47h6.14L276,311.32l11.28,15.92Z"></path><path class="cls-3" d="M309.17,321.41H295.69l-2.44,5.83h-5.48l12.1-27.58h5.48l11.94,27.58h-5.67Zm-1.89-4.53-4.8-11.59-4.89,11.59Z"></path><path class="cls-3" d="M346.49,313.45c0,8-6.07,13.79-14.58,13.79H320.64V299.66h11.47C340.46,299.66,346.49,305.37,346.49,313.45Zm-5.4,0A8.83,8.83,0,0,0,332,304.3h-6.11v18.29h6.3C337.31,322.59,341.09,318.85,341.09,313.49Z"></path><path class="cls-3" d="M371.32,299.66v4.61H356.38v6.82h13.4v4.61h-13.4v6.93h15.41v4.61H351.1V299.66Z"></path><path class="cls-3" d="M383.26,299.66l8.67,17.69,8.63-17.69h6.07v27.58h-4.82l0-19.7-8.16,16.86h-3.43L382,307.54v19.7h-4.89V299.66Z"></path><path class="cls-3" d="M418.84,293.62a2.76,2.76,0,1,1-2.76-2.83A2.69,2.69,0,0,1,418.84,293.62Zm-.12,6v27.58h-5.28V299.66Z"></path><path class="cls-2" d="M191.26,228.58a44.56,44.56,0,0,1,58.61-32.21,4.25,4.25,0,0,1,.67.31l-3.12,7.62a3.61,3.61,0,0,1-1-.21A36.31,36.31,0,0,0,198.72,243c3,24.69,30,39.14,52.32,27.93a36.27,36.27,0,0,0,16.74-47.5,3.09,3.09,0,0,1-.35-1.29l7-4a2.89,2.89,0,0,1,.59.88,43.79,43.79,0,0,1,4.17,24.34,44.44,44.44,0,0,1-43.84,39.77,48.43,48.43,0,0,1-8.7-.72C201.38,277.26,185.7,253.7,191.26,228.58Z"></path><path class="cls-2" d="M240.71,217.71c-15.85-4.38-30.64,9.51-27,25.32a21.58,21.58,0,1,0,42.16-9.27c-.29-1.44-1.6-3-1.24-4.24l6.1-3.53a2.84,2.84,0,0,1,.77,1.3c3.94,10.46,2.86,20.33-4.15,29.1s-16.37,12.2-27.45,10.48a28.9,28.9,0,0,1,5-57.39,32.16,32.16,0,0,1,8.1,1.18,6.9,6.9,0,0,1,1.64.6l-2.71,6.6A2.87,2.87,0,0,1,240.71,217.71Z"></path><path class="cls-2" d="M81.57,336.47h2.3v1.14l-.17,2.28H81.76l-.19-2.28Zm3.07,0h2.29v1.14l-.16,2.28h-2l-.18-2.28Z"></path><path class="cls-2" d="M89.06,336.47h2.38v5.34h4.27v-5.34h2.38v12.45H95.71V344H91.44v4.93H89.06Z"></path><path class="cls-2" d="M103.43,339.82c2.61,0,3.82.29,3.82,3.29,0,1.61-.88,2.27-2.52,2.27h-2.87c0,1.62.61,1.73,1.91,1.73a17.87,17.87,0,0,0,3.31-.19v1.61a14.74,14.74,0,0,1-4.62.48c-2.3,0-3-1.33-3-4.65C99.48,340.49,100.57,339.82,103.43,339.82Zm.69,3.85c.5,0,.75-.24.75-.68,0-1.14-.17-1.35-1.31-1.35s-1.72.07-1.7,2Z"></path><path class="cls-2" d="M111.35,339.75a7.17,7.17,0,0,1,2.73.6v-4.78h2.39v13.35h-2l-.41-.91a4.83,4.83,0,0,1-2.73,1c-2.22,0-2.94-1.77-2.94-4.58S108.84,339.75,111.35,339.75ZM112,347a3.83,3.83,0,0,0,2.1-.54V342a5.67,5.67,0,0,0-2.1-.35c-.77,0-1.19.43-1.19,2.74C110.79,346.37,111.19,347,112,347Z"></path><path class="cls-2" d="M121.8,339.82c2.62,0,3.83.29,3.83,3.29,0,1.61-.88,2.27-2.52,2.27h-2.87c0,1.62.61,1.73,1.9,1.73a18.09,18.09,0,0,0,3.33-.19v1.61a14.8,14.8,0,0,1-4.63.48c-2.3,0-3-1.33-3-4.65C117.86,340.49,119,339.82,121.8,339.82Zm.7,3.85c.49,0,.75-.24.75-.68,0-1.14-.17-1.35-1.31-1.35s-1.72.07-1.7,2Z"></path><path class="cls-2" d="M126.39,340.18l1.43-.29v-.68a3.55,3.55,0,0,1,3.7-3.66,17.24,17.24,0,0,1,4,.48v1.43l-3.12-.1c-1,0-2.16.27-2.16,1.95v.58l5.9.17v8.86h-2.38v-7.21H130.2v7.21h-2.38v-7.21h-1.43Z"></path><path class="cls-2" d="M137.58,339.89h1.9l.48,1a4.34,4.34,0,0,1,2.86-1.12c2.11,0,2.7,1.44,2.7,3.16v6h-2.37v-6.05c0-.89-.41-1.23-1-1.23a3.22,3.22,0,0,0-2.18.78v6.5h-2.38Z"></path><path class="cls-2" d="M146.8,337.05c0-.28.13-.44.4-.44H149c.26,0,.38.2.38.44v1.5a.35.35,0,0,1-.38.39H147.2a.38.38,0,0,1-.4-.39Zm.08,2.84h2.38v9h-2.38Z"></path><path class="cls-2" d="M150.4,339.89h7.3v2l-3.88,5h3.88s0,2,0,2h-7v-2l4.05-5H150.4Z"></path><path class="cls-2" d="M162.66,339.82c2.62,0,3.83.29,3.83,3.29,0,1.61-.88,2.27-2.52,2.27H161.1c0,1.62.61,1.73,1.9,1.73a18.09,18.09,0,0,0,3.33-.19v1.61a14.8,14.8,0,0,1-4.63.48c-2.3,0-3-1.33-3-4.65C158.72,340.49,159.81,339.82,162.66,339.82Zm.7,3.85c.49,0,.75-.24.75-.68,0-1.14-.17-1.35-1.31-1.35s-1.72.07-1.7,2Z"></path><path class="cls-2" d="M172.28,336.47h5.14c2.57,0,3.51,1.53,3.51,3.33,0,1.14-.49,2.44-1.7,2.66a2.61,2.61,0,0,1,1.9,2.81c0,2.31-1,3.65-3.67,3.65h-5.18Zm5,4.93c.87,0,1.31-.52,1.31-1.41,0-1.15-.69-1.41-1.31-1.41h-2.6v2.82Zm.1,5.42c.72,0,1.38-.35,1.38-1.66,0-.91-.37-1.75-1.38-1.75h-2.7v3.41Z"></path><path class="cls-2" d="M182.17,337.05c0-.28.13-.44.4-.44h1.79a.39.39,0,0,1,.38.44v1.5a.35.35,0,0,1-.38.39h-1.79a.38.38,0,0,1-.4-.39Zm.08,2.84h2.38v9h-2.38Z"></path><path class="cls-2" d="M185.77,339.89h7.3v2l-3.88,5h3.88s0,2,0,2h-7v-2l4-5h-4.3Z"></path><path class="cls-2" d="M194.09,337.05c0-.28.13-.44.4-.44h1.79c.26,0,.37.2.37.44v1.5a.34.34,0,0,1-.37.39h-1.79a.38.38,0,0,1-.4-.39Zm.08,2.84h2.38v9h-2.38Z"></path><path class="cls-2" d="M198.08,339.89H200l.48,1a4.17,4.17,0,0,1,2.8-1.11,2.45,2.45,0,0,1,2.35,1.18,5.27,5.27,0,0,1,3.25-1.18c2,0,2.69,1.37,2.69,3.19v6h-2.38v-6c0-.85-.39-1.23-1-1.23a3.16,3.16,0,0,0-2.21.72c0,.07,0,.44,0,.53v6h-2.39v-6c0-.85-.41-1.23-1-1.23a3.08,3.08,0,0,0-2.12.77v6.48h-2.39Z"></path><path class="cls-2" d="M213,335.6h2.38v9.74c0,1.3.31,1.59.78,1.77,0,0,1,.35,1.15.35v1.46h-2c-1.48,0-2.33-.81-2.33-3.21Z"></path><path class="cls-2" d="M221.75,339.82c2.63,0,3.83.29,3.83,3.29,0,1.61-.89,2.27-2.52,2.27h-2.87c0,1.62.61,1.73,1.91,1.73a17.92,17.92,0,0,0,3.31-.19v1.61a14.77,14.77,0,0,1-4.63.48c-2.3,0-3-1.33-3-4.65C217.81,340.49,218.89,339.82,221.75,339.82Zm.7,3.85c.49,0,.75-.24.75-.68,0-1.14-.17-1.35-1.31-1.35s-1.72.07-1.7,2Z"></path><path class="cls-2" d="M233.5,336.47l2.44,6,2.67-6h2.58l-4.1,8.59v3.86h-2.38v-3.86l-3.8-8.59Z"></path><path class="cls-2" d="M241.29,339.89h2.38V346c0,.9.41,1.21,1,1.21a3,3,0,0,0,2.17-.79v-6.48h2.39v9h-1.93l-.46-.95a4.84,4.84,0,0,1-2.87,1.11c-2.1,0-2.69-1.45-2.69-3.18Zm1.8-3.12a1,1,0,0,1,0,2,1,1,0,0,1,0-2Zm4.34,0a1,1,0,1,1-1,1A1,1,0,0,1,247.43,336.77Z"></path><path class="cls-2" d="M250.77,339.89h2l.38,1.14a3.67,3.67,0,0,1,2.58-1.23,2.74,2.74,0,0,1,1,.11v2.29c-.24,0-.78-.05-1.31-.05a2.39,2.39,0,0,0-2.28,1v5.76h-2.39Z"></path><path class="cls-2" d="M257.73,339.89h2.38V346c0,.9.41,1.21,1,1.21a3.07,3.07,0,0,0,2.18-.79v-6.48h2.38v9h-1.91l-.47-.95a4.84,4.84,0,0,1-2.87,1.11c-2.09,0-2.69-1.45-2.69-3.18Zm1.8-3.12a1,1,0,1,1-1,1A1,1,0,0,1,259.53,336.77Zm4.34,0a1,1,0,0,1,0,2,1,1,0,0,1,0-2Z"></path><path class="cls-2" d="M269.21,339.89l1.56,6.33a.83.83,0,0,0,.91.66l1.8-7H276l-3.13,11.89-1.24,1.74h-1.7l1.28-4.6a2.63,2.63,0,0,1-2.69-2.29l-1.77-6.74Z"></path><path class="cls-2" d="M276.91,339.89h2.38V346c0,.9.41,1.21,1,1.21a3,3,0,0,0,2.17-.79v-6.48h2.39v9h-1.93l-.46-.95a4.84,4.84,0,0,1-2.87,1.11c-2.1,0-2.69-1.45-2.69-3.18Zm1.8-3.12a1,1,0,1,1-1,1A1,1,0,0,1,278.71,336.77Zm4.34,0a1,1,0,1,1-1,1A1,1,0,0,1,283.05,336.77Z"></path><path class="cls-2" d="M286.4,339.89h1.9l.48,1a4.34,4.34,0,0,1,2.86-1.12c2.11,0,2.7,1.44,2.7,3.16v6H292v-6.05c0-.89-.41-1.23-1-1.23a3.2,3.2,0,0,0-2.18.78v6.5H286.4Z"></path><path class="cls-2" d="M296.07,336.47h2.3v1.14l-.17,2.28h-1.94l-.19-2.28Zm3.06,0h2.3v1.14l-.16,2.28h-1.95l-.19-2.28Z"></path><path class="cls-4" d="M270.2,170.23l-.17.3.22-.24Z"></path><path class="cls-2" d="M300.68,198.18l24.95,12.65a4.05,4.05,0,0,0-.21-.68q-11.67-22.87-23.37-45.71a3,3,0,0,0-1.58-1.28c-6-2.09-12-4.1-18-6.16a10.78,10.78,0,0,1-2.23-1c-2-1.27-3.89-2.61-5.84-3.92-1.56-1-1.79-1-3,.32-3.06,3.54-6.09,7.12-9.21,10.61a13.36,13.36,0,0,1-2.3,1.66c-.36.28-.93.57-1,.91-.16,1.08-.9,1.45-1.67,2-1.35,1-2.44,2.32-3.75,3.39a1.34,1.34,0,0,0-.17,2.19,11.62,11.62,0,0,0,2.36,1.88c.75.49,1.33.2,1.79-.52.84-1.29,1.75-2.53,2.58-3.84a14.12,14.12,0,0,0,.84-1.94,2.12,2.12,0,0,0,2-1.83,17.16,17.16,0,0,1,1-2.39c1.33,1.84,2.39,3.31,3.52,4.84a4.75,4.75,0,0,0,.69-.73c1.84-3.24,4.86-3.65,8.26-3.21.48.05,1,.09,1.43.16a32,32,0,0,1,19.08,11A27.42,27.42,0,0,1,304,192.42a3.65,3.65,0,0,1-1,3.1C302.23,196.32,301.54,197.19,300.68,198.18Z"></path><path class="cls-2" d="M268.25,152.22c-5.7-1.92-11.18-3.76-17-5.74l9.89,14C263.53,157.68,265.81,155.05,268.25,152.22Z"></path><path class="cls-4" d="M261.79,179.74l-.21.49.39-.46Z"></path><path class="cls-5" d="M240,232.62v.1l13-14.57-5-5.58C245.41,218.76,242.57,226.49,240,232.62Z"></path><path class="cls-5" d="M262,179.77l-.39.46-.16.39q-6.1,14.56-12.23,29.1l5.45,6.56L278.89,189l1.57-1.77C274.22,182.93,267.63,180.4,262,179.77Z"></path><path class="cls-2" d="M299.81,188.63c-.07-.24-.12-.47-.19-.7-2-6.76-6.32-11.82-12.22-15.62-4.32-2.78-9-4.39-14.11-4a3.09,3.09,0,0,0-1.91.92q-1.63,1.86-3.25,3.73l-.2.22-4.68,5.41c5.66.75,12.19,3.43,18.33,7.89A42.94,42.94,0,0,1,294,200.11c1.4-1.66,2.82-3.29,4.36-4.8C300.42,193.28,300.57,191.17,299.81,188.63Z"></path><path class="cls-6" d="M293.17,200.59a43,43,0,0,0-12.71-13.33L278.89,189l-24.25,27.25,4.63,5.58,21.82-12.68,8.45-4.91,1.26-.73,3-1.77C293.64,201.38,293.4,201,293.17,200.59Z"></path><path class="cls-6" d="M240,232.72c0,.07,0,.14,0,.21a.49.49,0,0,0,0,.12l17.26-10L253,218.15Z"></path></svg>