<svg xmlns="http://www.w3.org/2000/svg" id="Layer_1" data-name="Layer 1" viewBox="0 0 500 500"><defs><style>.cls-1{fill:#01abeb;}.cls-2{fill:#fab348;}.cls-3{fill:#fdfefd;}</style></defs><path class="cls-1" d="M391.59,216.63a13.61,13.61,0,0,0-11,.83,2.91,2.91,0,0,1-2.81-.33,12.84,12.84,0,0,0-12.33.44,3.77,3.77,0,0,1-3.71.43c-6.69-3-13.15-1.68-19.34,1.57-1.56.82-2.35.94-3.92-.3-3.55-2.82-7.8-2.64-11.9-1.22a4.94,4.94,0,0,1-4.09-.22,10.24,10.24,0,0,0-8.08-.39,9.83,9.83,0,0,1-8.2-.16c-4.37-1.8-9.1-1.12-13.49.56-2.06.79-3,.67-3.89-1.55a24.63,24.63,0,0,0-9.29-11.6,35.94,35.94,0,0,1,11.19-7c2.65-1.14,3.73-2.42,3.56-5.59-.47-8.7,4.9-15,13.38-16.54,6.23-1.11,13.51,2.8,16.44,9.2.92,2,2,2.7,4,2.32a4.65,4.65,0,0,1,1.65-.13c5.52,1.08,8.84-.93,11.91-6,3.47-5.66,12.22-7,18.22-4.25a16,16,0,0,1,8.91,16.6c-.32,1.95.24,2.79,1.93,3.5a54,54,0,0,1,13.82,8.34A19.88,19.88,0,0,1,391.59,216.63Zm-50.41-25.15c0,6.05,4.49,10.12,11.37,10.23s12-4.35,11.92-10.21-5.53-11-11.91-10.88C346,180.73,341.21,185.27,341.18,191.48Zm-19.15.06c0-6.1-5.31-11-11.76-10.93s-11.44,4.81-11.47,10.85,4.88,10.35,11.72,10.26S322,197.42,322,191.54Z"></path><path class="cls-1" d="M251.83,259.76c-5.65.22-6.79-1.19-5.77-5.49a12.45,12.45,0,0,0,.29-2.93q0-17.28,0-34.55a6.65,6.65,0,0,0-.17-2.62c-1-2,.64-3.21,1.71-3.87,1.53-.94,3.94-1.41,5,.52s2.17,1.58,3.69.9c12.59-5.56,25-.15,26,14,.75,10.3-3.62,19.52-11.76,26.26C265.07,256.78,258,258.79,251.83,259.76Zm1.84-24.29c0,4.87.11,9.74-.06,14.6-.07,2.08.87,2.54,2.51,2.19A23.24,23.24,0,0,0,266.65,247c5.64-4.85,8-11.22,8.78-18.26.48-4.6-1.59-10.54-6.65-12.37-3.73-1.36-7.27-.23-10.79.75-3.88,1.09-4.79,3.9-4.4,7.72C253.94,228.36,253.67,231.93,253.67,235.47Z"></path><path class="cls-1" d="M134.85,235c0,6.32,0,12.63,0,18.95,0,1.64.42,3.53-1.7,4.48-1.6.72-3.07.92-4.59-.18-1.84-1.32-1.69-3-1.36-5,.88-5.38.19-10.82.38-16.23,0-1.3-.81-1.3-1.75-1.35-5.4-.28-10.73.76-16.11.85-1.78,0-2.09,1.12-2.06,2.67.08,5.21,0,10.41.09,15.62,0,1.75-.2,3.54-2,4s-4,.45-5.33-1.55c-.41-.59-.79-1.12-.57-1.79,1.17-3.56.07-7.26.64-10.82.73-4.56-1.71-8.92-.59-13.4s.2-9,.51-13.49a5.62,5.62,0,0,0-.19-2.94c-1.09-1.93,0-2.87,1.31-3.83a4.53,4.53,0,0,1,4.68-.3c1.3.56,1.85,1.82,1.69,3.73-.4,4.73-.17,9.52-.14,14.28,0,.77-.3,1.5,1.34,1.29,4.65-.59,9.35-.78,14-1,4.17-.17,4.56-.4,4.47-4.52-.08-3.53.42-7.07-.55-10.57-.46-1.65.19-3.27,2.09-3.47s4.37-.67,5.28,2a10,10,0,0,1,.42,3.22c0,6.43,0,12.86,0,19.28Z"></path><path class="cls-1" d="M376.92,305.3c-1.63,3-.88,4.8,2.16,4.86a3.92,3.92,0,0,1,3.73,2c.5-2,.57-3.72,1.43-5.26,1.13-2,2.63-2.89,4.45-1,.83.85.73.56,1.39-.08,1-1,2.6-.95,4.47-1.35-1.17,2.58-1.09,5.06-1.19,7.53,0,1-.75,2,1,2.58.66.23,1,1.89-.86,2.27-2.36.47-4.77.29-7.14,1.16-2.09.76-3-1.22-3.55-3.25-2.86,3.2-5.91,4.49-10,2.29-2-1.06-4.47-.16-6.47.31-4.7,1.12-5.31,1-6.05-4.63-1.28,3.17-2.91,5.23-6.92,3,1.11,3.85,1.7,7.21-3.53,6.59,1.82-4.27.4-8.84,1.22-13.2.14-.73-.33-.91-.92-1.05-.88-.21-1.26.22-1.26,1,0,3.31-1.36,6.72,1.25,10.24-2.84-.5-5.23-.34-4.23-4a7.78,7.78,0,0,0-.31-5.08c-2.81,1.69-2.47,4.15-2,6.82-.89-.08-1.73-.2-2.57-.21-1.9,0-1.67-.16-1-2.07.83-2.51.27-5.65-.28-8.4-.32-1.59-1.68-.14-1.77.37-.42,2.55-1.5,5.17.29,7.69.84,1.18,1,2-.95,2.47-2.32.52-4.71.29-7,1.14-1.7.63-2.82-.79-3-2.62a18.09,18.09,0,0,1,.5-6.91c1-3.45,2.19-4.08,5.3-2.37,1.07.6.9-.32,1.32-.46,1.85-.59,3.58-1.47,5.69-1.18,3.8.53,3.82.42,2.88,4.3,1.43,0,1.26-1.32,1.79-1.95.77-.91,1.24-2.37,2.55-2.38s.95,1.79,1.79,2.46c1.38-1.3,2.82-2.43,4.77-1.14.5.33.75,0,1.13-.11,4.3-1.21,4.6-1.06,5.88,3,1.42-2.05,2.09-5.37,5.87-2.81.72.48,2.57-.67,3.88-1.11,1.14-.39,2.07,0,1.31,1.12-1.4,2.09-.51,4.32-.9,6.44-.3,1.69.09,2.21,1.93,1.31,3.37-1.64,4.39-.94,4.65,2.73,1.63-.38,1.69-1.54,1.35-2.82s-1-2.18-2.56-2.07-3.25.07-3.34-2.16.62-4.06,2.79-4.76c1.9-.61,4-.82,5.41,1.15a1.82,1.82,0,0,1,.12,2.44,2.76,2.76,0,0,1-3.38.4c-1.26-.58-.73-1.64-.24-2.55.5-.16,1.41-.47,1.16-.82C378.4,304.54,377.53,304.65,376.92,305.3Zm-42.23,5.58c-.41-1.48-1.58-1.55-2.64-1.36-1.5.26-3.23.76-3.2,2.61,0,1.25,1.42,1.48,2.57,1.38A3.46,3.46,0,0,0,334.69,310.88Zm33.54.13c-.2-1.22-1-1.57-2.11-1.52-1.69.08-3.44.45-3.67,2.42-.16,1.37,1.2,1.63,2.34,1.61A3.58,3.58,0,0,0,368.23,311Zm-12.43-2.22a3.12,3.12,0,0,0-3.08,2.77c-.12,1.26,1.26,1.34,2.25,1.28,1.56-.08,3-.82,3.25-2.34S357.09,308.86,355.8,308.79Zm32.11.68c-1.35.27-3,.71-3,2.6,0,1.39,1.36,1.52,2.5,1.44,1.57-.11,2.87-.89,3.05-2.47S389.26,309.49,387.91,309.47Z"></path><path class="cls-1" d="M392.72,242.26c.17,3.86-.26,8.28.3,12.7.2,1.58-.26,3.27-1.82,3.86a5,5,0,0,1-5-.42c-1.43-1.13-.93-2.57-.75-4.16.75-6.82.32-13.68.22-20.53,0-1.55-1.17-2.63-3-1.18-1.42,1.14-3,2.16-4.45,3.21a7.13,7.13,0,0,0-3.26,7c.29,4.07.09,8.18.16,12.27,0,1.66-.37,3-2,3.68s-3.4.92-4.72-.17c-1.14-.95-1-2.45-.84-4.13.43-4.34.91-8.78-.31-13.11-.72-2.6,1-4.94.6-7.48-.26-1.82.37-3.69-.4-5.54a1.94,1.94,0,0,1,1.28-2.57c1.65-.68,3.24-2,5.18-.85a3,3,0,0,1,1.25,3.49c-.18.87-1.42,1.87-.18,2.57s2-.61,2.68-1.4a14.19,14.19,0,0,1,7.69-4.46c4.1-1,7.26,1.41,7.37,5.72C392.8,234.41,392.72,238.06,392.72,242.26Z"></path><path class="cls-1" d="M208.32,242a6.6,6.6,0,0,1,0-4.79c.79-2.7.4-5.49.23-8.24-.11-1.73-.18-3.38,1.71-4.22,1.41-.64,2.93-1.28,4.4-.31a3.46,3.46,0,0,1,1.32,4.51,9.16,9.16,0,0,0,0,2.61c3.21-2.52,6-5.32,9.9-6.54s7.81,1.23,7.88,5.11c.14,8.29.13,16.6,0,24.9,0,3.41-1.39,4.58-4.41,4-2.62-.5-3.23-2-3-4.89.5-6.83.26-13.71.12-20.57,0-1.85-1.22-2.47-2.92-1.21-1.39,1-2.94,1.86-4.23,3-2.06,1.8-3.81,3.63-3.52,6.91.39,4.51.12,9.07.16,13.6,0,1.5-.59,2.74-2,3-1.57.32-3.36.74-4.78-.39a2.65,2.65,0,0,1-.57-3.74C209,250.49,209.48,246.22,208.32,242Z"></path><path class="cls-1" d="M137.46,248.34c.25-8.49,3.2-15.79,10.37-20.65,5.45-3.69,15.52-3.73,17.88,5.18.78,2.95-.64,4.8-2.44,6.06a17.15,17.15,0,0,1-7.6,3.25c-3.2.33-5.94,2-9.09,2.24-2.08.18-2.44,1.72-2.38,3.61.07,2.23.07,4.64,2.48,5.49,4.09,1.45,10.1-1.43,12-5.39,1.05-2.2,3.64-3.36,5.28-2.16,1.91,1.41,1.73,2.95.54,5.11-3.32,6-13.34,10.12-19.88,8.6C139.75,258.54,137.5,255.19,137.46,248.34Zm8.85-9.35a34.69,34.69,0,0,0,12.13-3.17c1.53-.68,1.18-1.83.63-2.67a4,4,0,0,0-4.82-1.86C150.3,232.44,147.84,235.08,146.31,239Z"></path><path class="cls-1" d="M177.93,248.87c-.12-9.53,3.3-16.79,10.8-21.45S204,225.07,206,233.31a5,5,0,0,1-3.07,6.11c-4.69,2-9.57,3.78-14.74,4.25-3.57.32-3.6,2.68-3.57,5.37s.84,4.86,3.78,5.21c3.63.43,8.47-2.63,10.25-6.16.86-1.7,4-2.92,5.3-2,2.1,1.44,2.05,2.92.76,5.22-3.93,6.95-13.43,9.61-20.64,8.29-3-.54-6-4.6-6.12-8.05C177.89,250.44,177.93,249.34,177.93,248.87Zm8.49-9.69,6.91-1.52c1.26-.28,2.69-.29,3.73-.93s2.68-.6,2.38-2.48-1.5-2.77-3.26-3.16C193,230.38,188.82,233.35,186.42,239.18Z"></path><path class="cls-1" d="M281.53,246.81c-.13-9.83,6.58-19.37,15.85-21.45,6.61-1.48,11.7,2.21,13.32,8,3.13,11.09-4.68,23.15-14.35,26.26-8,2.58-14.7-2.25-14.82-10.78C281.52,248.14,281.53,247.47,281.53,246.81Zm17.72-15.74c-3.64-.28-5.21,2.57-7.28,4.59-3.38,3.29-4.75,12-2.45,15.9.68,1.16,1.48,2.95,3,2.65,3.07-.59,6.17-1.4,8.19-4.23a18.8,18.8,0,0,0,3.34-14.39C303.63,233,302.4,230.82,299.25,231.07Z"></path><path class="cls-1" d="M335.22,247.11c.37-9.6,4.09-17,13.32-21.1a11.39,11.39,0,0,1,15.59,6.72c3.74,11.15-4.73,23.8-13.8,26.83-8.61,2.88-15.31-3.24-15.11-10.46C335.24,248.44,335.22,247.77,335.22,247.11Zm22.6-7.47a22,22,0,0,0,0-3.63c-.77-4.4-4.48-6.53-7.86-4.61-5.09,2.9-9.18,12-7.94,17.67,1,4.4,2.68,5.66,6.33,4.64C354.22,252.07,357.87,246.69,357.82,239.64Z"></path><path class="cls-1" d="M335.89,232.34c.23,2.86.37,5-1.83,5.94-2.46,1.08-4.53-.36-4.7-3.24-.12-2.11-.44-2.53-2.45-1.24-3.87,2.48-6.49,5.32-5.89,10.39.42,3.61.22,7.28.37,10.93.06,1.53-.05,3.17-1.59,3.62-1.72.5-3.67,1-5.36-.41-1.36-1.11-.86-2.27-.63-3.78a47.7,47.7,0,0,0,.23-9.26c-.24-5.61.52-11.22-.49-16.84-.44-2.43,2-2.65,3.93-2.71,2.1-.06,3.7.7,3.66,3,0,.77-.93,1.65.2,2.17s1.53-.54,2.22-1.07c1.46-1.12,2.93-2.24,4.49-3.21,4.34-2.69,7.43.57,7.92,4.67C336,231.94,335.87,232.58,335.89,232.34Z"></path><path class="cls-1" d="M168,234.05c0-6.85,0-13.7,0-20.55,0-3.6,1-4.55,4.81-4.44,1.87.06,3.49,2.62,3.21,5.09-1.45,12.86-.25,25.76-.62,38.64a3,3,0,0,0,.36,1.56,2.81,2.81,0,0,1-.84,3.79,5.12,5.12,0,0,1-5.31.45,3,3,0,0,1-1.65-3.34C168.62,248.19,168,241.11,168,234.05Z"></path><path class="cls-2" d="M343.45,281.11a19.64,19.64,0,0,0,0-2.66c-.13-1,.52-2.93-.88-2.62s-3.67-2.05-4.12,1.46c-.2,1.5-2,1.8-3.52.91-.78-.45-.62-2.62-2.29-1.36-1.29,1-2.79,1.84-2.67,3.87.1,1.77-.13,3.57.1,5.31.3,2.29-.69,3-2.77,2.94S325,288,325.18,286a109.6,109.6,0,0,0,.12-11.61c0-1.19-.06-2.34,1.32-2.66s2.86-.53,3.27,1.24c.47,2,1.17.48,1.72.22,2.11-1,4.05-2.95,6.45-.33.67.72,5.46-2.25,5.32-3.32-.32-2.42,1.23-2.95,3-2.94s2.42,1,1.79,2.92c-.42,1.24.56,1.42,1.61,1.19s1.95-.34,2.93-.46c1.3-.17,2.51-.13,2.58,1.65.06,1.62-1,2-2.34,2.19-.88.09-1.76.16-2.64.19a2.1,2.1,0,0,0-2.29,2.54c.08,1.66-.07,3.33,0,5,.07,1-.68,2.48.7,2.92,1,.33,2.1-.54,2.93-1.26a25.53,25.53,0,0,0,2.27-2.38,2.15,2.15,0,0,1,3.22-.36c1.09.84.89,2,.05,2.92a17.84,17.84,0,0,1-9.47,5.73c-2.44.52-4-1.18-4.25-4.29-.1-1.32,0-2.66,0-4Z"></path><path class="cls-2" d="M296.64,285.43c-1.92,1.91-3.54,3.23-5.58,3.87-3.94,1.23-7-1.12-6.78-5.11.43-6.51,6.69-12.42,13.23-12.58,2.59-.07,3.94.9,3.89,3.66-.08,4.54.13,9.08-.06,13.61-.35,8.15-9,9.4-13.48,7.08-1.07-.56-2.14-1.46-1.32-2.92.64-1.13,1.45-1.8,3-1,4.86,2.43,7.33.77,7.28-4.77C296.79,286.82,296.73,286.4,296.64,285.43Zm-7.77-1.94c0,.65-.17,1.42.44,1.84s1.47.06,2.13-.36c2.77-1.78,3.92-4.58,4.85-7.58.64-2.1-.39-2-1.8-1.54C292.06,276.67,289,280.83,288.87,283.49Z"></path><path class="cls-2" d="M185.59,278c0,2.67-.16,5.39.07,8.07.1,1.12.19,2-.8,2.56a3.68,3.68,0,0,1-3.22.05c-1-.45-1.19-1.32-1.17-2.47.14-6.31.23-12.62.17-18.93,0-2.08.33-3.68,2.71-3.53,2.15.14,2.6,1.56,2.06,3.57a18.13,18.13,0,0,0,0,3.92c3-2.27,5.76-4.1,8.24-6.22,1.5-1.29,2.93-1.93,4.22-.24,1.39,1.84-.44,2.67-1.66,3.54-2,1.41-3.93,2.88-6,4.19-1.56,1-1.43,1.75-.17,3,3.19,3.07,6.23,6.29,9.39,9.39,1,1,2.65,1.76,1,3.37-1.42,1.37-3,1.19-4.36-.22l-9.31-9.46C186.46,278.25,186.25,277.8,185.59,278Z"></path><path class="cls-2" d="M242.76,286c-1.95,1.15-3.72,2.5-5.84,3.13s-4.16,1-5.92-.69-2-3.73-1.33-6.07c1.51-5.25,6.31-9.69,11.55-9.92,2.26-.1,2.6-1,2.41-2.77a14.14,14.14,0,0,0-.33-2.93c-.62-1.92,0-3,1.93-3.34s2.9.85,3,2.63c.09,3.09,0,6.19,0,9.28,0,3.54,0,7.07.06,10.61,0,1.32.54,2.74-1.51,3-1.67.2-3.11.1-3.49-2A3.88,3.88,0,0,0,242.76,286Zm-8.44-3.2c-.35,2.33.49,3.24,2.14,2.61a11.48,11.48,0,0,0,6.54-5.74,2.54,2.54,0,0,0-.29-2.83,2.23,2.23,0,0,0-2.77-.36C237.1,277.93,235,280.06,234.32,282.8Z"></path><path class="cls-1" d="M282.22,316.14c-3.72,2.68-7.84.05-11.75.86-2.25.47-4.65-.09-6.94.81s-4.18-.15-4.46-2.74a14.85,14.85,0,0,1,.89-7.5c.81-1.88,2-3.63,4.54-2,1.67,1.06,2.93-.71,4.48-.88s1.83.15,1.25,1.48c-.13.3-.51.55-.52.83-.08,2.35-1.35,5.41.29,6.83,1.17,1,1.48-2.64,3.1-3.39a14.83,14.83,0,0,0,1.95-1.33c-1.5-.57-3.76.23-3.43-2.19s2-2.72,3.89-2.66a7,7,0,0,1,2.58.51c1,.46,2.86-.71,3.06,1a4.53,4.53,0,0,1-2.24,4.51,4.22,4.22,0,0,1-.87.45c-2.12.68-3.75,2.29-3.42,4.27.17,1,2.74,1.33,4.66,1.08-.63-1.33-3.77-1.7-1.65-3.82a2.79,2.79,0,0,1,3.92-.1c1.43,1.1.11,2.71.63,4ZM264,309.45c-1.05.41-3,.43-3.15,2.52-.11,1.21,1.05,1.51,2.08,1.54,1.83.05,3.3-.75,3.61-2.57C266.78,309.76,265.55,309.5,264,309.45Z"></path><path class="cls-2" d="M320.84,280.77a45.6,45.6,0,0,0,.06,5.61c.17,1.29.2,2.28-1.25,2.46-1.23.15-3,.76-3.41-1s-.85-1.18-1.76-.52a11,11,0,0,1-6.1,2.22c-1.76.08-3.29-.26-4.29-1.87s-.23-3.2.67-4.6c2.12-3.33,5.63-4.4,9.12-5.44,1-.29,2.51.09,2.32-1.59-.22-1.92-1.83-1.14-2.9-1.1-1.36,0-2.4.92-3.53,1.62s-2.66.78-3.38-.73.56-2.17,1.66-2.7a22.87,22.87,0,0,1,7.9-2.11c3.09-.28,4.7,1.24,4.78,4.41,0,1.77,0,3.53,0,5.3Zm-12.93,4.86a9.72,9.72,0,0,0,8.73-4.85C312.67,281.13,310.07,282.22,307.91,285.63Z"></path><path class="cls-2" d="M358.51,283.27c0-7.27,6-12.86,12.45-11.68,2.47.45,4.08,1.88,4.43,4.25s-1.54,3.41-3.57,4a65.77,65.77,0,0,1-7,1.73c-1.51.24-1.8,1-1.73,2.21s.91,1.83,2.2,1.9a6.4,6.4,0,0,0,5.47-2.54c1.11-1.3,2.41-2.31,3.86-.79s.15,2.65-.91,3.67a12.44,12.44,0,0,1-8.94,3.58C360.45,289.53,358.5,287.53,358.51,283.27Zm6.65-5.67a18.28,18.28,0,0,0,1.86,0c1.36-.15,2.76-.23,3.76-1.33.08-.09-.3-.83-.61-1-1.62-.77-2.9.08-4.1,1A6.22,6.22,0,0,0,365.16,277.6Z"></path><path class="cls-2" d="M258.77,289.57c-5.92,0-8.48-3.21-7.45-8.07,1.45-6.81,6.32-10.7,12.31-9.91a4.87,4.87,0,0,1,4.53,4.16c.44,2.5-1.54,3.44-3.54,4-2.32.67-4.65,1.33-7,1.77-1.34.25-2,.73-1.91,2.12.1,1.59,1.08,2,2.47,2A6.42,6.42,0,0,0,263.6,283c1-1.37,2.21-2,3.59-.85,1.53,1.3.6,2.64-.49,3.67A12.7,12.7,0,0,1,258.77,289.57Zm-1.69-11.51c1.5-.24,2.13-.36,2.76-.44a6.43,6.43,0,0,0,3.61-1.23,1.49,1.49,0,0,0-.49-1.05c-1.64-.94-2.92.11-4.2.93A13.19,13.19,0,0,0,257.08,278.06Z"></path><path class="cls-2" d="M393.7,280.76c0,1.77-.08,3.54,0,5.3s-.46,2.92-2.55,2.92-2.22-1.17-2.16-2.82c.1-2.87.06-5.75,0-8.62,0-.76.23-2.33-1.08-1.74-2.08.94-4.74,1.67-4.8,4.75a27,27,0,0,0,.12,5.62c.44,2.27-.58,2.72-2.44,2.79s-2.44-.71-2.36-2.59c.18-4,.17-7.93.06-11.9,0-1.59,0-2.91,1.79-3.36,1.51-.39,2.92-.28,3.36,1.61.33,1.38,1,.76,1.64.35a23.21,23.21,0,0,1,2.86-1.64c3-1.3,5.32.09,5.49,3.36.1,2,0,4,0,6Z"></path><path class="cls-2" d="M217.13,273.57c1.84.14,2.82-1.51,4.33-2.1,3.29-1.3,5.57,0,5.65,3.45.08,3.76,0,7.53.06,11.29,0,1.76-.42,2.74-2.35,2.76s-2.47-.83-2.38-2.66c.14-2.76.08-5.54.05-8.3,0-.73.36-1.69-.41-2.14-.92-.53-1.58.43-2.36.76-4.31,1.85-2.94,5.64-3,8.89,0,1.15.83,2.49-.75,3.16a3.8,3.8,0,0,1-3.23,0c-1.55-.8-.47-2.11-.43-3.24.12-3.72-.36-7.42-.25-11.17.06-2,.56-2.94,2.28-3.25,1.94-.35,2.91.64,2.85,2.61a1.23,1.23,0,0,0-.23.11s0,.11,0,.17Z"></path><path class="cls-1" d="M289.53,314.85c.05-2.28-.64-4.63.72-6.77,1.18-1.87,2.66-3.15,5.05-3.22s3.23,1.35,3.79,3.37c2.9-3.86,5.1-4.84,7.67-3.61a2.58,2.58,0,0,1,1.67,2.91c-.28,1.4-1.58,1.29-2.7,1.27a1.5,1.5,0,0,1-1.59-.95c-.44-1.41,1.05-1.74,1.72-2.76-1.73-.56-2.85-.08-3.05,1.65-.18,1.49.21,3.18,1.92,3.36,2.38.25,4.93-.15,4.59,3.48-.28,3-2.42,4.08-5,4.47-2.83.43-5-.38-5.61-3.62,0-.06-.13-.11-.21-.17-3.16,5.13-4.6,5.22-9,.55Zm4-1.28c1.69-.32,3.89-.36,4.18-2.68.16-1.27-1.38-1.4-2.51-1.42-2,0-3.91.55-4.29,2.64C290.7,313.43,292.36,313.41,293.56,313.57Zm10.89,3c2-1.5,1.64-3.15.72-4.25-1.45-1.72-3.86-.95-5.8-1.3-.9-.16-.71,1.6-.37,2.62C303.3,312.25,303.87,312.52,304.45,316.61Z"></path><path class="cls-1" d="M314.92,317c-1.06-.08-1.92-.18-2.79-.21-1.74-.06-2.15.15-1.15-2.16,1.27-2.9.56-6.51-1.6-9.37,5.2-1.27,5.2-1.27,5.07,2.85,1.35.06,1.34-1.28,2-1.93s1.08-2,2.18-1.75,1,1.58,1.19,2.51a16.54,16.54,0,0,1,.21,1.67c1.13-.26,1.14-1.32,1.67-1.93.8-.9,1.57-2.09,3-1.66s1.92,1.66,2,3.12a7.37,7.37,0,0,1-.91,4.16c-.87,1.45-1.69,2.8.68,4-4.61.87-4.46.9-3.83-2.93.27-1.6,1.81-4.31,0-4.72-1.94-.46-2,2.62-2.56,4.26-.69,2-1.11,4.06.8,6.05-3.05.08-4.63-.64-3.53-3.75a3.49,3.49,0,0,0,.08-1.64c-.18-1.24.64-3.41-.72-3.49-1.72-.08-1.8,2.15-2,3.63A19.48,19.48,0,0,0,314.92,317Z"></path><path class="cls-1" d="M252.43,309.34c.51-.25.71-.43.87-.41,1.59.27,4-1.1,4.66.77,1.22,3.65-1.68,7.76-5.41,8.32-2.92.44-3.85-1.56-4.29-3.92a20.66,20.66,0,0,1,1.18-12.35c1.18-2.67,3.42-3.35,6.05-2.59s3.54,2.74,3.47,5.36c0,1.12-.31,2-1.5,2.21a2.94,2.94,0,0,1-3.37-1.51c-.59-1.09.11-1.86.79-2.62.48-.54,2.52-.29,1.05-1.84-.91-.95-2-.71-3,0a4.63,4.63,0,0,0-1.74,3.12c-.61,3.66.2,7.25.88,10.82.12.62.38,1.45,1.2,1.35s1.08-1,1.11-1.77C254.43,312.38,254.29,310.57,252.43,309.34Z"></path><path class="cls-2" d="M276.38,274c1.1-.68,2-1.3,3-1.81,1.31-.68,2.79-1.14,4-.09a4.61,4.61,0,0,1,1.43,4.23,2.56,2.56,0,0,1-4,1.84c-.75-.43-.31-2.84-2.1-1.4-1.25,1-2.82,1.85-2.71,3.88.1,1.87,0,3.76.16,5.63.23,2.52-1.35,2.7-3.15,2.62-2-.09-2-1.12-1.8-2.93a78.11,78.11,0,0,0,.17-10.93c-.05-1.49-.56-3,1.42-3.4S276.14,271.77,276.38,274Z"></path><path class="cls-2" d="M207.76,279.74c.12,2.19.21,4.38.37,6.57s-1.2,2.54-2.9,2.63a2,2,0,0,1-2.3-2.44c.57-3.95.26-7.9.2-11.85,0-1.84.35-3.08,2.44-3s2.48,1.34,2.35,3.15c-.12,1.65,0,3.31,0,5Z"></path><path class="cls-1" d="M289.49,314.81c.12,1.61,0,2.65-2.22,2.06a9.35,9.35,0,0,0-3.9.3c-1,.2-1.11-.3-1.15-1l0,.05c2.81-1.91,3.26-6.61.85-9.64l5.14-1.41c-.2,2.33-.52,4.48-.53,6.63,0,1.26-.46,3.13,1.89,3.08Z"></path><path class="cls-2" d="M208.33,266.79c-.44,1.65-.85,3.37-3,3.45-1.58.06-2.16-1.13-2.05-2.44.13-1.7.64-3.42,2.8-3.44C207.57,264.35,208.16,265.45,208.33,266.79Z"></path><path class="cls-1" d="M286.82,302.18c-1.52-.08-2.76-.4-2.69-2,.06-1.31,1.24-1.35,2.25-1.29,1.32.09,2.94.25,2.87,1.91C289.2,302.09,287.63,302,286.82,302.18Z"></path><path class="cls-1" d="M396.9,219.76c0-1.19,0-2.39,0-3.58s.46-1.77,1.75-1.65c1.73.16,2,1.43,1.79,2.64-.06.44.35,2.77-1.8,1.35C396.83,217.33,398.54,220.18,396.9,219.76Z"></path><path class="cls-1" d="M379.66,322.44c0,1.24-.43,2.14-1.38,2.18-1.4.05-1.29-1.29-1.32-2.17s-.08-2.26,1.32-2.09C379.38,320.5,379.34,321.82,379.66,322.44Z"></path><path class="cls-2" d="M208.32,242c1.16,4.23.72,8.5.24,12.76C208.46,250.5,208.89,246.23,208.32,242Z"></path><path class="cls-3" d="M341.18,191.48c0-6.21,4.79-10.75,11.38-10.86,6.38-.11,11.86,4.89,11.91,10.88s-5.16,10.33-11.92,10.21S341.15,197.53,341.18,191.48Zm11.46-3.84c-2.5.25-4,1.65-3.94,4.07a3.78,3.78,0,0,0,4.1,3.91,3.67,3.67,0,0,0,3.82-4.1C356.53,189,355.06,187.78,352.64,187.64Z"></path><path class="cls-3" d="M322,191.54c0,5.88-4.75,10.09-11.51,10.18s-11.75-4.22-11.72-10.26,5-10.75,11.47-10.85S322,185.44,322,191.54Zm-11.58-3.87a3.66,3.66,0,0,0-4.06,3.88,3.83,3.83,0,0,0,3.95,4.09,3.77,3.77,0,0,0,4-4A3.62,3.62,0,0,0,310.45,187.67Z"></path><path class="cls-3" d="M253.67,235.47c0-3.54.27-7.11-.08-10.61-.39-3.82.52-6.63,4.4-7.72,3.52-1,7.06-2.11,10.79-.75,5.06,1.83,7.13,7.77,6.65,12.37-.74,7-3.14,13.41-8.78,18.26a23.24,23.24,0,0,1-10.53,5.24c-1.64.35-2.58-.11-2.51-2.19C253.78,245.21,253.67,240.34,253.67,235.47Z"></path><path class="cls-3" d="M334.69,310.88a3.46,3.46,0,0,1-3.27,2.63c-1.15.1-2.55-.13-2.57-1.38,0-1.85,1.7-2.35,3.2-2.61C333.11,309.33,334.28,309.4,334.69,310.88Z"></path><path class="cls-3" d="M368.23,311a3.58,3.58,0,0,1-3.44,2.51c-1.14,0-2.5-.24-2.34-1.61.23-2,2-2.34,3.67-2.42C367.19,309.44,368,309.79,368.23,311Z"></path><path class="cls-3" d="M355.8,308.79c1.29.07,2.67.32,2.42,1.71s-1.69,2.26-3.25,2.34c-1,.06-2.37,0-2.25-1.28A3.12,3.12,0,0,1,355.8,308.79Z"></path><path class="cls-3" d="M387.91,309.47c1.35,0,2.71,0,2.53,1.57s-1.48,2.36-3.05,2.47c-1.14.08-2.51-.05-2.5-1.44C384.92,310.18,386.56,309.74,387.91,309.47Z"></path><path class="cls-3" d="M376.92,305.3c.61-.65,1.48-.76,1.94-.14.25.35-.66.66-1.16.82Z"></path><path class="cls-3" d="M146.31,239c1.53-3.91,4-6.55,7.94-7.7a4,4,0,0,1,4.82,1.86c.55.84.9,2-.63,2.67A34.69,34.69,0,0,1,146.31,239Z"></path><path class="cls-3" d="M186.42,239.18c2.4-5.83,6.62-8.8,9.76-8.09,1.76.39,3,1.25,3.26,3.16s-1.47,1.93-2.38,2.48-2.47.65-3.73.93Z"></path><path class="cls-3" d="M299.25,231.07c3.15-.25,4.38,1.89,4.8,4.52A18.8,18.8,0,0,1,300.71,250c-2,2.83-5.12,3.64-8.19,4.23-1.52.3-2.32-1.49-3-2.65-2.3-3.93-.93-12.61,2.45-15.9C294,233.64,295.61,230.79,299.25,231.07Z"></path><path class="cls-3" d="M357.82,239.64c.05,7.05-3.6,12.43-9.5,14.07-3.65,1-5.37-.24-6.33-4.64-1.24-5.67,2.85-14.77,7.94-17.67,3.38-1.92,7.09.21,7.86,4.61A22,22,0,0,1,357.82,239.64Z"></path><path class="cls-3" d="M288.87,283.49c.14-2.66,3.19-6.82,5.62-7.64,1.41-.47,2.44-.56,1.8,1.54-.93,3-2.08,5.8-4.85,7.58-.66.42-1.39.87-2.13.36S288.88,284.14,288.87,283.49Z"></path><path class="cls-3" d="M234.32,282.8c.64-2.74,2.78-4.87,5.62-6.32a2.23,2.23,0,0,1,2.77.36,2.54,2.54,0,0,1,.29,2.83,11.48,11.48,0,0,1-6.54,5.74C234.81,286,234,285.13,234.32,282.8Z"></path><path class="cls-3" d="M264,309.45c1.51.05,2.74.31,2.54,1.49-.31,1.82-1.78,2.62-3.61,2.57-1,0-2.19-.33-2.08-1.54C261.08,309.88,263,309.86,264,309.45Z"></path><path class="cls-3" d="M307.91,285.63c2.16-3.41,4.76-4.5,8.73-4.85A9.72,9.72,0,0,1,307.91,285.63Z"></path><path class="cls-3" d="M365.16,277.6a6.22,6.22,0,0,1,.91-1.28c1.2-1,2.48-1.81,4.1-1,.31.15.69.89.61,1-1,1.1-2.4,1.18-3.76,1.33A18.28,18.28,0,0,1,365.16,277.6Z"></path><path class="cls-3" d="M257.08,278.06a13.19,13.19,0,0,1,1.68-1.79c1.28-.82,2.56-1.87,4.2-.93a1.49,1.49,0,0,1,.49,1.05,6.43,6.43,0,0,1-3.61,1.23C259.21,277.7,258.58,277.82,257.08,278.06Z"></path><path class="cls-3" d="M217.13,273.57l-.18.33c0-.06,0-.14,0-.17a1.23,1.23,0,0,1,.23-.11Z"></path><path class="cls-3" d="M293.56,313.57c-1.2-.16-2.86-.14-2.62-1.46.38-2.09,2.28-2.67,4.29-2.64,1.13,0,2.67.15,2.51,1.42C297.45,313.21,295.25,313.25,293.56,313.57Z"></path><path class="cls-3" d="M304.45,316.61c-.58-4.09-1.15-4.36-5.45-2.93-.34-1-.53-2.78.37-2.62,1.94.35,4.35-.42,5.8,1.3C306.09,313.46,306.45,315.11,304.45,316.61Z"></path><path class="cls-1" d="M352.64,187.64c2.42.14,3.89,1.31,4,3.88a3.67,3.67,0,0,1-3.82,4.1,3.78,3.78,0,0,1-4.1-3.91C348.63,189.29,350.14,187.89,352.64,187.64Z"></path><path class="cls-1" d="M310.45,187.67a3.62,3.62,0,0,1,3.89,4,3.77,3.77,0,0,1-4,4,3.83,3.83,0,0,1-3.95-4.09A3.66,3.66,0,0,1,310.45,187.67Z"></path></svg>