<svg xmlns="http://www.w3.org/2000/svg" id="Layer_1" data-name="Layer 1" viewBox="0 0 500 500"><defs><style>.cls-1{font-size:45.13px;fill:#3c3c3b;}.cls-1,.cls-3{font-family:Montserrat-Thin, Montserrat;font-weight:200;}.cls-2{font-family:Montserrat-Regular, Montserrat;font-weight:400;letter-spacing:0em;}.cls-3{font-size:8.12px;}.cls-4{letter-spacing:-0.01em;}.cls-5{fill:#1d1d1b;}.cls-6{fill:#d6a824;}</style></defs><text class="cls-1" transform="translate(135.89 342.86)">HEM<tspan class="cls-2" x="110.12" y="0">DEM</tspan></text><text class="cls-3" transform="translate(362.01 342.86) rotate(-90)">G<tspan class="cls-4" x="6.28" y="0">L</tspan><tspan x="10.87" y="0">OBAL</tspan></text><path class="cls-5" d="M322.11,232.69l-44.25,44.25V162.8l44.25,44.25A18.09,18.09,0,0,1,322.11,232.69Z"></path><path class="cls-6" d="M242,148.6l18.27,18.26v106l-17.38,17.38V175.54a6.92,6.92,0,0,0-6.92-6.93h-3.79a6.94,6.94,0,0,0-6.94,6.93v114.7l-17.36-17.37V197.6a6.94,6.94,0,0,0-6.92-6.94h-3.79a6.94,6.94,0,0,0-6.94,6.94v57.63l-27.42-27.42a11.26,11.26,0,0,1,0-15.88l63.31-63.33A11.24,11.24,0,0,1,242,148.6Z"></path></svg>