<svg xmlns="http://www.w3.org/2000/svg" id="Layer_1" data-name="Layer 1" viewBox="0 0 500 500"><defs><style>.cls-1{fill:#2c2c2b;}.cls-1,.cls-2,.cls-3,.cls-4{fill-rule:evenodd;}.cls-2{fill:#243981;}.cls-3{fill:#fff;}.cls-4{fill:#e11e2b;}.cls-5{fill:#e1302a;}.cls-6{fill:#1d1d1b;}</style></defs><polygon class="cls-1" points="245.64 145.81 245.7 161.2 231.51 152.51 225.41 159.92 244.55 172.78 244.33 194.43 224.71 183.03 225.06 160.68 214.81 161.22 213.81 176.64 200.14 167.45 192.97 174.9 206.15 185.06 193.07 191.24 197.76 202.16 218.61 190.43 237.18 202.35 217.89 213.06 198.02 202.21 192.97 209.28 207.06 218.69 192.6 224.87 196 233.65 211.48 226.25 212.68 243.52 221.71 242.76 222.46 221.09 242.32 211.32 242.67 233.92 224.84 241.22 228.96 251.18 242.02 244.52 240.98 258.98 254.24 259.06 253.19 244.16 267.41 253.81 274.5 244.45 253.86 234.04 252.96 210.99 274.21 223.3 275.04 244.53 285.84 245.14 285.12 229.69 300.38 238.82 306.96 229.96 292.28 222.25 305.87 215.56 302.57 205.44 281.36 215.38 259.65 205 280.54 194.24 302.04 204.27 307.8 196.74 293.62 188.06 308.25 180.86 302.04 171.92 287.92 178.62 288.43 164.17 276.72 164.54 275.89 184.29 254.42 193.63 255.72 172.42 275.91 164.67 272.93 155.53 256.34 160.86 256.81 145.46 245.64 145.81"></polygon><polygon class="cls-2" points="242.03 145.81 242.1 161.2 227.91 152.51 221.81 159.92 240.95 172.78 240.73 194.43 221.11 183.03 221.46 160.68 211.21 161.22 210.21 176.64 196.54 167.45 189.37 174.9 202.55 185.06 189.47 191.24 194.16 202.16 215.01 190.43 233.58 202.35 214.29 213.06 194.42 202.21 189.37 209.28 203.46 218.69 189 224.87 192.39 233.65 207.88 226.25 209.08 243.52 218.11 242.76 218.86 221.09 238.72 211.32 239.07 233.92 221.24 241.22 225.36 251.18 238.41 244.52 237.38 258.98 250.63 259.06 249.59 244.16 263.81 253.81 270.9 244.45 250.26 234.04 249.36 210.99 270.61 223.3 271.44 244.53 282.24 245.14 281.51 229.69 296.78 238.82 303.36 229.96 288.68 222.25 302.27 215.56 298.97 205.44 277.76 215.38 256.05 205 276.94 194.24 298.44 204.27 304.2 196.74 290.01 188.06 304.65 180.86 298.44 171.92 284.32 178.62 284.82 164.17 273.12 164.54 272.29 184.29 250.82 193.63 252.12 172.42 272.3 164.67 269.32 155.53 252.74 160.86 253.21 145.46 242.03 145.81"></polygon><path class="cls-3" d="M265.13,219.5a3.2,3.2,0,0,0,.95,2.7,5.91,5.91,0,0,0,3.39.71,6.07,6.07,0,0,0,3.39-.73,3.14,3.14,0,0,0,1-2.68V185.05a3.09,3.09,0,0,0-1-2.67,5.55,5.55,0,0,0-3.35-.74,5.77,5.77,0,0,0-3.35.76,3.14,3.14,0,0,0-1,2.65Zm-4.87-.4V185.45a3.68,3.68,0,0,1,2-3.63c1.37-.68,3.74-1,7.17-1s5.8.34,7.18,1a3.66,3.66,0,0,1,2.07,3.62V219.1a3.62,3.62,0,0,1-2.07,3.62q-2.07,1-7.18,1c-3.39,0-5.76-.33-7.13-1A3.63,3.63,0,0,1,260.26,219.1Zm-18.52,4.21V207.59c-1.46-3.84-2.85-8.16-4.14-12.93q-.25-1-1.35-5a33.58,33.58,0,0,1-1.46-8.44h5a27.72,27.72,0,0,0,.32,4.24q.12.79,1.51,7.3c.4,1.92.85,3.89,1.37,5.92s1.07,4,1.67,6q.12-.35,1.14-4.05c.67-2.47,1.31-4.93,1.92-7.4.47-1.95.95-3.92,1.39-5.92.16-.79.6-2.83,1.29-6.13h3.22a16,16,0,0,1-.38,3.47c0,.15-.66,2.48-1.91,7s-2.81,9.59-4.72,15.2v16.4Z"></path><polygon class="cls-3" points="210.5 223.29 210.5 181.23 215.14 181.23 215.14 200.49 216.22 200.49 225.06 181.23 228.24 181.23 219.82 199.02 230.17 223.29 225.29 223.29 216.58 201.03 215.14 201.03 215.14 223.29 210.5 223.29"></polygon><path class="cls-4" d="M265.68,219.83a3.2,3.2,0,0,0,.95,2.7,5.82,5.82,0,0,0,3.39.71,6,6,0,0,0,3.39-.73,3.11,3.11,0,0,0,1-2.68V185.38a3.07,3.07,0,0,0-1-2.66A5.47,5.47,0,0,0,270,182a5.69,5.69,0,0,0-3.35.76,3.12,3.12,0,0,0-1,2.64Zm-4.87-.39V185.79a3.71,3.71,0,0,1,2-3.64c1.37-.67,3.74-1,7.17-1s5.8.34,7.18,1a3.67,3.67,0,0,1,2.07,3.63v33.65a3.64,3.64,0,0,1-2.07,3.62c-1.38.65-3.77,1-7.18,1s-5.75-.34-7.13-1A3.64,3.64,0,0,1,260.81,219.44Zm-18.52,4.21V207.93c-1.46-3.85-2.85-8.17-4.14-12.93-.16-.65-.62-2.31-1.35-5a33.52,33.52,0,0,1-1.46-8.43h5a27.59,27.59,0,0,0,.32,4.23q.12.8,1.51,7.3.6,2.89,1.37,5.92c.5,2,1.07,4,1.67,6.05.08-.24.46-1.59,1.14-4.06s1.31-4.93,1.92-7.39c.47-2,1-3.93,1.39-5.93q.25-1.17,1.29-6.12h3.22a16.49,16.49,0,0,1-.37,3.46c0,.15-.67,2.48-1.92,7s-2.8,9.59-4.72,15.2v16.4Z"></path><polygon class="cls-4" points="211.06 223.63 211.06 181.56 215.69 181.56 215.69 200.82 216.77 200.82 225.61 181.56 228.79 181.56 220.37 199.36 230.72 223.63 225.84 223.63 217.13 201.37 215.69 201.37 215.69 223.63 211.06 223.63"></polygon><path class="cls-4" d="M299.17,153.81a6.92,6.92,0,0,1,2.46.43,6.11,6.11,0,0,1,2,1.23,5.62,5.62,0,0,1,1.35,1.85,5.45,5.45,0,0,1,0,4.36,5.43,5.43,0,0,1-1.37,1.83,6.66,6.66,0,0,1-2.08,1.26,7.28,7.28,0,0,1-1.17.32,6.25,6.25,0,0,1-1.23.11,6.86,6.86,0,0,1-2.41-.42,6.48,6.48,0,0,1-2-1.25,5.64,5.64,0,0,1-1.38-1.86,5.08,5.08,0,0,1-.48-2.16,5.14,5.14,0,0,1,.49-2.18,5.74,5.74,0,0,1,1.4-1.88,5.94,5.94,0,0,1,2-1.21A6.7,6.7,0,0,1,299.17,153.81Zm5.61,5.71a4.78,4.78,0,0,0-1.61-3.6,5.3,5.3,0,0,0-1.83-1.1,6.17,6.17,0,0,0-4.29,0,5.51,5.51,0,0,0-1.81,1.09,5.43,5.43,0,0,0-1.24,1.67,4.58,4.58,0,0,0-.44,1.94,4.41,4.41,0,0,0,.43,1.92,5.13,5.13,0,0,0,1.22,1.63,5.6,5.6,0,0,0,1.82,1.12,6.24,6.24,0,0,0,4.29,0,5.92,5.92,0,0,0,1.86-1.12,4.68,4.68,0,0,0,1.19-1.59A4.55,4.55,0,0,0,304.78,159.52Zm-5.43-3.38a4.47,4.47,0,0,1,2.26.44,1.47,1.47,0,0,1,.75,1.37,1.59,1.59,0,0,1-.47,1.15,2.08,2.08,0,0,1-1.25.57l1.62,3H301l-1.54-2.88h-1.69v2.88h-1.1v-6.55Zm-.2.66h-1.36v2.36h1.36a3.67,3.67,0,0,0,1.61-.26.93.93,0,0,0,.47-.89,1,1,0,0,0-.5-.92A3.31,3.31,0,0,0,299.15,156.8Z"></path><path class="cls-5" d="M97.06,295H90.85V264.29h6.21v12.5l11.35-12.5h8l-12.13,12.58L117.14,295h-8L100,281.54l-2.9,3.08Z"></path><path class="cls-5" d="M117.72,279.66a21.46,21.46,0,0,1,.79-6.21,15.28,15.28,0,0,1,2-4.41,11.67,11.67,0,0,1,2.84-2.89,14.79,14.79,0,0,1,3.17-1.69,13.94,13.94,0,0,1,3-.79,15.51,15.51,0,0,1,4.84,0,14,14,0,0,1,3,.79,15,15,0,0,1,3.17,1.69,11.81,11.81,0,0,1,2.83,2.89,15.28,15.28,0,0,1,2,4.41,24.76,24.76,0,0,1,0,12.41,15.28,15.28,0,0,1-2,4.41,11.63,11.63,0,0,1-2.83,2.89,15,15,0,0,1-3.17,1.69,14,14,0,0,1-3,.79,15.51,15.51,0,0,1-4.84,0,13.94,13.94,0,0,1-3-.79,14.79,14.79,0,0,1-3.17-1.69,11.5,11.5,0,0,1-2.84-2.89,15.28,15.28,0,0,1-2-4.41A21.43,21.43,0,0,1,117.72,279.66Zm6.22,0a15.36,15.36,0,0,0,.78,5.3,9.2,9.2,0,0,0,2,3.3,6.75,6.75,0,0,0,2.63,1.67,7.82,7.82,0,0,0,5.34,0,6.75,6.75,0,0,0,2.63-1.67,9.2,9.2,0,0,0,2-3.3,18.21,18.21,0,0,0,0-10.61,9.2,9.2,0,0,0-2-3.3,6.72,6.72,0,0,0-2.63-1.66,7.67,7.67,0,0,0-5.34,0,6.72,6.72,0,0,0-2.63,1.66,9.2,9.2,0,0,0-2,3.3A15.42,15.42,0,0,0,123.94,279.66Z"></path><path class="cls-5" d="M162.33,295h-6.22v-11.6l-10.27-19.13h7.33l6.17,13.35,5.88-13.35h7.05l-9.94,19.22Z"></path><path class="cls-5" d="M199.81,284.28a14.57,14.57,0,0,1-.85,5.22,9.12,9.12,0,0,1-2.45,3.59,9.88,9.88,0,0,1-3.85,2.08,18,18,0,0,1-5.07.66,18.74,18.74,0,0,1-2.26-.15,12.16,12.16,0,0,1-2.48-.58,13.47,13.47,0,0,1-2.49-1.13,8.59,8.59,0,0,1-2.21-1.86,8.27,8.27,0,0,1-1.72-3.28,17.45,17.45,0,0,1-.6-4.17V264.29h6.33v19.94a8.19,8.19,0,0,0,.42,2.79,5,5,0,0,0,1.14,1.9,4.52,4.52,0,0,0,1.69,1.11,5.7,5.7,0,0,0,2.06.37q3.22,0,4.61-1.52a6.2,6.2,0,0,0,1.39-4.35V264.29h6.34Z"></path><path class="cls-5" d="M224,264.29h5.8V295h-6.21l-12.14-21.91h-.08V295h-5.8V264.29h6.55l11.8,21.4H224Z"></path><path class="cls-5" d="M254.76,274.35c-.14-.46-.31-1-.52-1.61a4.94,4.94,0,0,0-1-1.73,6.27,6.27,0,0,0-1.93-1.39,7.09,7.09,0,0,0-3.1-.58,7.33,7.33,0,0,0-2.41.45,6.11,6.11,0,0,0-2.4,1.65,9.24,9.24,0,0,0-1.84,3.29,16.79,16.79,0,0,0-.72,5.35,18.34,18.34,0,0,0,.41,4,10.7,10.7,0,0,0,1.3,3.36,7,7,0,0,0,2.28,2.31,7,7,0,0,0,7.68-.62,7.45,7.45,0,0,0,2.28-4.3H261a16.89,16.89,0,0,1-1.49,4.6,12,12,0,0,1-2.65,3.57A11.51,11.51,0,0,1,253,295a15.13,15.13,0,0,1-10.43-.2,11.52,11.52,0,0,1-4.29-3.05,14.59,14.59,0,0,1-2.82-5.05,22.21,22.21,0,0,1-1-7,21.59,21.59,0,0,1,1.05-7.06,14.69,14.69,0,0,1,2.9-5.07,11.8,11.8,0,0,1,4.35-3.06,15.13,15.13,0,0,1,11.08,0,12.51,12.51,0,0,1,3.91,2.67,10.78,10.78,0,0,1,2.32,3.51,12,12,0,0,1,.89,3.62Z"></path><path class="cls-5" d="M289.51,284.28a14.57,14.57,0,0,1-.85,5.22,9.2,9.2,0,0,1-2.44,3.59,10,10,0,0,1-3.86,2.08,18,18,0,0,1-5.07.66,18.74,18.74,0,0,1-2.26-.15,12.16,12.16,0,0,1-2.48-.58,13.78,13.78,0,0,1-2.49-1.13,8.59,8.59,0,0,1-2.21-1.86,8.39,8.39,0,0,1-1.72-3.28,17.45,17.45,0,0,1-.6-4.17V264.29h6.33v19.94a8.19,8.19,0,0,0,.42,2.79,5.18,5.18,0,0,0,1.14,1.9,4.48,4.48,0,0,0,1.7,1.11,5.64,5.64,0,0,0,2.05.37q3.22,0,4.61-1.52a6.2,6.2,0,0,0,1.39-4.35V264.29h6.34Z"></path><path class="cls-5" d="M294.27,279.66a21.46,21.46,0,0,1,.79-6.21,15,15,0,0,1,2.05-4.41,11.63,11.63,0,0,1,2.83-2.89,15,15,0,0,1,3.17-1.69,13.87,13.87,0,0,1,3-.79,15.51,15.51,0,0,1,4.84,0,13.94,13.94,0,0,1,3,.79,14.79,14.79,0,0,1,3.17,1.69A11.67,11.67,0,0,1,320,269a15.54,15.54,0,0,1,2.05,4.41,25.07,25.07,0,0,1,0,12.41,15.54,15.54,0,0,1-2.05,4.41,11.5,11.5,0,0,1-2.84,2.89,14.79,14.79,0,0,1-3.17,1.69,13.94,13.94,0,0,1-3,.79,15.51,15.51,0,0,1-4.84,0,13.87,13.87,0,0,1-3-.79,15,15,0,0,1-3.17-1.69,11.46,11.46,0,0,1-2.83-2.89,15,15,0,0,1-2.05-4.41A21.43,21.43,0,0,1,294.27,279.66Zm6.21,0a15.11,15.11,0,0,0,.79,5.3,9.06,9.06,0,0,0,2,3.3,6.68,6.68,0,0,0,2.63,1.67,7.82,7.82,0,0,0,5.34,0,6.75,6.75,0,0,0,2.63-1.67,9.2,9.2,0,0,0,2-3.3,18.43,18.43,0,0,0,0-10.61,9.2,9.2,0,0,0-2-3.3,6.72,6.72,0,0,0-2.63-1.66,7.67,7.67,0,0,0-5.34,0,6.65,6.65,0,0,0-2.63,1.66,9.06,9.06,0,0,0-2,3.3A15.17,15.17,0,0,0,300.48,279.66Z"></path><path class="cls-5" d="M341.77,278.46H354.2V295h-4.14l-.62-3.85c-.39.48-.84,1-1.35,1.54a9.57,9.57,0,0,1-1.84,1.49,10.72,10.72,0,0,1-2.57,1.16,11.91,11.91,0,0,1-3.52.47,13.51,13.51,0,0,1-5.16-1,12.57,12.57,0,0,1-4.37-3,14.3,14.3,0,0,1-3-5,20.23,20.23,0,0,1-1.12-7.08,21.47,21.47,0,0,1,.85-6.05,15.1,15.1,0,0,1,2.63-5.2,13,13,0,0,1,4.51-3.64,14.34,14.34,0,0,1,6.46-1.37H341a14.81,14.81,0,0,1,5.82,1,12.81,12.81,0,0,1,4,2.56,10.33,10.33,0,0,1,2.34,3.36,11.06,11.06,0,0,1,.89,3.41h-6.21a3.51,3.51,0,0,0-.39-1.29,6.36,6.36,0,0,0-1.2-1.69,7.48,7.48,0,0,0-2-1.45,6.24,6.24,0,0,0-2.88-.62,8.45,8.45,0,0,0-3.21.62,7.1,7.1,0,0,0-2.73,1.94,9.78,9.78,0,0,0-1.89,3.43,15.91,15.91,0,0,0-.7,5.05,15,15,0,0,0,.76,5.2,8.89,8.89,0,0,0,2,3.23,6.78,6.78,0,0,0,2.78,1.67,10.78,10.78,0,0,0,3.12.47,8.92,8.92,0,0,0,1.51-.2,6.23,6.23,0,0,0,2.12-.87,7.85,7.85,0,0,0,2.09-2,9.48,9.48,0,0,0,1.49-3.66h-6.92Zm6.38-23.5a13.44,13.44,0,0,1-.37,1.8,5.93,5.93,0,0,1-1.08,2.06,6.54,6.54,0,0,1-2.19,1.69,8.41,8.41,0,0,1-3.73.7,6.75,6.75,0,0,1-3.36-.73,5.86,5.86,0,0,1-2-1.75,6.37,6.37,0,0,1-1-2.08,11.49,11.49,0,0,1-.29-1.69h2.74a5.75,5.75,0,0,0,.25.94,2.51,2.51,0,0,0,.58,1,3.35,3.35,0,0,0,1.18.77A5.59,5.59,0,0,0,341,258a11.68,11.68,0,0,0,1.43-.09,3.81,3.81,0,0,0,1.32-.38,3.1,3.1,0,0,0,1.06-.9,3.64,3.64,0,0,0,.62-1.63Z"></path><path class="cls-5" d="M366.25,289.46H381V295H360V264.29h6.22Z"></path><path class="cls-5" d="M409.15,284.28a14.35,14.35,0,0,1-.85,5.22,9.1,9.1,0,0,1-2.44,3.59,10,10,0,0,1-3.85,2.08,18.1,18.1,0,0,1-5.07.66,18.61,18.61,0,0,1-2.26-.15,12.25,12.25,0,0,1-2.49-.58,13.39,13.39,0,0,1-2.48-1.13,8.8,8.8,0,0,1-2.22-1.86,8.38,8.38,0,0,1-1.71-3.28,18,18,0,0,1-.61-4.17V264.29h6.34v19.94a8.46,8.46,0,0,0,.41,2.79,5.32,5.32,0,0,0,1.14,1.9,4.56,4.56,0,0,0,1.7,1.11,5.64,5.64,0,0,0,2.05.37q3.22,0,4.62-1.52a6.24,6.24,0,0,0,1.39-4.35V264.29h6.33Z"></path><path class="cls-6" d="M105.07,313.36a12.5,12.5,0,0,1,.65-4.31,7.9,7.9,0,0,1,1.33-2.29,5.48,5.48,0,0,1,1.84-1.51,6.7,6.7,0,0,1,3.07-.67,6.21,6.21,0,0,1,5.05,2.3,11.72,11.72,0,0,1,0,12.75,6.69,6.69,0,0,1-10.07,0A9.55,9.55,0,0,1,105.07,313.36Zm3-.12a7.09,7.09,0,0,0,1.12,4.32,3.48,3.48,0,0,0,5.67,0,7.16,7.16,0,0,0,1.11-4.37,7.09,7.09,0,0,0-1.08-4.31,3.6,3.6,0,0,0-5.73,0A7.17,7.17,0,0,0,108,313.24Z"></path><path class="cls-6" d="M124.36,321.64V307.7h-4.23v-2.83h11.33v2.83h-4.22v13.94Z"></path><path class="cls-6" d="M132.37,313.36a12.25,12.25,0,0,1,.66-4.31,7.87,7.87,0,0,1,1.32-2.29,5.61,5.61,0,0,1,1.85-1.51,6.7,6.7,0,0,1,3.07-.67,6.22,6.22,0,0,1,5,2.3,11.72,11.72,0,0,1,0,12.75,6.14,6.14,0,0,1-5,2.29,6.21,6.21,0,0,1-5.06-2.28A9.6,9.6,0,0,1,132.37,313.36Zm3-.12a7.09,7.09,0,0,0,1.12,4.32,3.48,3.48,0,0,0,5.67,0,9.22,9.22,0,0,0,0-8.68,3.6,3.6,0,0,0-5.73,0A7.17,7.17,0,0,0,135.34,313.24Z"></path><path class="cls-6" d="M154,321.64V304.87h2.88v7.44l5.82-7.44h3.87l-5.37,6.53,5.66,10.24h-3.72l-3.92-7.87-2.34,2.8v5.07Z"></path><path class="cls-6" d="M168.46,321.64V305h2.88v13.8h7.16v2.83Z"></path><path class="cls-6" d="M180.46,321.64V304.87h2.88v16.77Zm.11-17.73v-3.05h2.69v3.05Z"></path><path class="cls-6" d="M186.05,321.64V304.87h4.31L193,316.31l2.55-11.44h4.32v16.77h-2.67v-13.2l-2.83,13.2h-2.78l-2.82-13.2v13.2Z"></path><path class="cls-6" d="M215.55,321.64h-3.14l-1.24-3.81h-5.7l-1.18,3.81h-3l5.55-16.77h3.05ZM210.24,315l-2-6.22L206.35,315Z"></path><path class="cls-6" d="M224.69,321.64l-4.16-12.15h2.87l1.94,6.2.57,2.07c.15-.53.24-.87.28-1,.09-.35.19-.69.29-1l2-6.2h2.81l-4.11,12.15Z"></path><path class="cls-6" d="M238.92,317.77l2.72.54A5.25,5.25,0,0,1,240,321a4.85,4.85,0,0,1-6.82-1.15,7.86,7.86,0,0,1-1-4.19,7.46,7.46,0,0,1,1.35-4.73,4.14,4.14,0,0,1,3.39-1.71,4.3,4.3,0,0,1,3.64,1.79c.89,1.2,1.31,3,1.28,5.49h-6.85a3.67,3.67,0,0,0,.66,2.23,2,2,0,0,0,1.57.79,1.53,1.53,0,0,0,1.08-.41A2.64,2.64,0,0,0,238.92,317.77Zm.15-3.25a3.45,3.45,0,0,0-.61-2.12,1.78,1.78,0,0,0-2.9,0,3.36,3.36,0,0,0-.58,2.08Z"></path><path class="cls-6" d="M253,321.64v-7.06l-5.22-9.71h3.38l3.35,6.63,3.29-6.63h3.32l-5.25,9.73v7Z"></path><path class="cls-6" d="M262.49,321.64V304.87h10.58v2.83h-7.69v3.72h7.16v2.83h-7.16v4.56h8v2.83Z"></path><path class="cls-6" d="M275.78,304.87H281a8.87,8.87,0,0,1,2.71.32,4.65,4.65,0,0,1,2.15,1.54,7.64,7.64,0,0,1,1.36,2.72,14,14,0,0,1,.47,4,12.53,12.53,0,0,1-.44,3.57,7.59,7.59,0,0,1-1.52,3,4.88,4.88,0,0,1-2,1.34,7.32,7.32,0,0,1-2.54.36h-5.42Zm2.87,2.83v11.11h2.16a6.59,6.59,0,0,0,1.74-.16,2.51,2.51,0,0,0,1.16-.7,3.6,3.6,0,0,0,.75-1.61,12.55,12.55,0,0,0,.3-3.08,11.35,11.35,0,0,0-.3-3,4,4,0,0,0-.81-1.63,2.56,2.56,0,0,0-1.34-.78,10.69,10.69,0,0,0-2.36-.17Z"></path><path class="cls-6" d="M290.17,321.64V304.87h10.58v2.83h-7.7v3.72h7.16v2.83h-7.16v4.56h8v2.83Z"></path><path class="cls-6" d="M303.5,321.64V304.87h2.88v7.44l5.82-7.44h3.87l-5.37,6.53,5.66,10.24h-3.72l-3.92-7.87-2.34,2.8v5.07Z"></path><path class="cls-6" d="M323.39,321.64V304.87H328a14.17,14.17,0,0,1,3.42.25,3.78,3.78,0,0,1,2.06,1.64,5.87,5.87,0,0,1,.82,3.27,6.38,6.38,0,0,1-.47,2.59,4.44,4.44,0,0,1-1.21,1.66,3.9,3.9,0,0,1-1.5.79,14,14,0,0,1-3,.24h-1.88v6.33Zm2.88-13.94v4.76h1.57a6.3,6.3,0,0,0,2.28-.26,2,2,0,0,0,.9-.82,2.55,2.55,0,0,0,.33-1.31,2.44,2.44,0,0,0-.46-1.51,2,2,0,0,0-1.16-.74,11.18,11.18,0,0,0-2.07-.12Z"></path><path class="cls-6" d="M348.06,321.64h-3.13l-1.25-3.81H338l-1.18,3.81h-3.05l5.56-16.77h3Zm-5.3-6.64-2-6.22L338.87,315Z"></path><path class="cls-6" d="M349.6,321.64V304.87h6.06a9,9,0,0,1,3.32.45,3.49,3.49,0,0,1,1.66,1.61,5.42,5.42,0,0,1,.62,2.64,5,5,0,0,1-.94,3.12,4.33,4.33,0,0,1-2.82,1.55,7,7,0,0,1,1.54,1.4,19.93,19.93,0,0,1,1.64,2.73l1.74,3.27H359L356.89,318a22.76,22.76,0,0,0-1.51-2.47,2.3,2.3,0,0,0-.87-.7,4.29,4.29,0,0,0-1.45-.18h-.58v7Zm2.88-9.68h2.13a9.28,9.28,0,0,0,2.59-.21,1.56,1.56,0,0,0,.8-.7,2.45,2.45,0,0,0,.3-1.26,2.23,2.23,0,0,0-.39-1.37,1.7,1.7,0,0,0-1.09-.66,19.45,19.45,0,0,0-2.09-.06h-2.25Z"></path><path class="cls-6" d="M373.1,315.47l2.79,1a7.62,7.62,0,0,1-2.13,4.08,5.48,5.48,0,0,1-3.79,1.33,5.72,5.72,0,0,1-4.67-2.28,9.7,9.7,0,0,1-1.83-6.24,10.18,10.18,0,0,1,1.84-6.5,5.84,5.84,0,0,1,4.83-2.32,5.47,5.47,0,0,1,4.26,1.82,7.07,7.07,0,0,1,1.45,3.09l-2.85.8a3.73,3.73,0,0,0-1.05-2.06,2.77,2.77,0,0,0-1.95-.75,3.06,3.06,0,0,0-2.58,1.33,7.44,7.44,0,0,0-1,4.34,8,8,0,0,0,1,4.53,3,3,0,0,0,2.53,1.35,2.65,2.65,0,0,0,2-.86A5.22,5.22,0,0,0,373.1,315.47Zm-6.05,10.78V324.9a15.57,15.57,0,0,0,1.84.12,1.94,1.94,0,0,0,1.28-.36.88.88,0,0,0,.32-.71.91.91,0,0,0-.3-.68,1.31,1.31,0,0,0-.93-.28,3.69,3.69,0,0,0-1.28.23l.26-1.14a4.38,4.38,0,0,1,1.63-.31,2.51,2.51,0,0,1,1.85.63,2.22,2.22,0,0,1-.07,3.17,3.89,3.89,0,0,1-2.7.86A7.52,7.52,0,0,1,367.05,326.25Z"></path><path class="cls-6" d="M391.23,321.64h-3.14l-1.24-3.81h-5.7L380,321.64h-3.05l5.55-16.77h3ZM385.92,315l-2-6.22L382,315Z"></path><path class="cls-6" d="M165.83,344.29l2.8-.32a4.35,4.35,0,0,0,1,2.44,3.34,3.34,0,0,0,4.19.08,2.18,2.18,0,0,0,.7-1.61,1.78,1.78,0,0,0-.29-1,2.41,2.41,0,0,0-1-.72c-.34-.14-1.11-.38-2.3-.73a7.33,7.33,0,0,1-3.25-1.66,4.73,4.73,0,0,1-1.32-3.38A4.87,4.87,0,0,1,167,335a4.06,4.06,0,0,1,1.78-1.7,6.2,6.2,0,0,1,2.81-.59,5.42,5.42,0,0,1,4,1.39,5.26,5.26,0,0,1,1.42,3.69l-2.88.15a3,3,0,0,0-.79-1.86,2.56,2.56,0,0,0-1.82-.56,3,3,0,0,0-2,.6,1.31,1.31,0,0,0-.45,1,1.39,1.39,0,0,0,.42,1,7,7,0,0,0,2.65,1.12,12.45,12.45,0,0,1,3.11,1.21,4.22,4.22,0,0,1,1.57,1.7,5.68,5.68,0,0,1,.57,2.68,5.46,5.46,0,0,1-.68,2.69,4.23,4.23,0,0,1-1.92,1.87,7,7,0,0,1-3.11.62,5.58,5.58,0,0,1-4.15-1.47A6.88,6.88,0,0,1,165.83,344.29Z"></path><path class="cls-6" d="M192.71,349.75h-3.14l-1.24-3.81h-5.7l-1.18,3.81h-3L184,333H187Zm-5.31-6.64-2-6.22-1.93,6.22Z"></path><path class="cls-6" d="M194.26,349.75V333h2.81l5.83,11.2V333h2.68v16.77h-2.89l-5.75-10.94v10.94Z"></path><path class="cls-6" d="M217.37,349.75V335.82h-4.23V333h11.33v2.84h-4.22v13.93Z"></path><path class="cls-6" d="M226.24,349.75V333h2.88v16.77Zm.11-17.73v-3H229v3Z"></path><path class="cls-6" d="M241,343.58l2.79,1a7.65,7.65,0,0,1-2.13,4.08,5.48,5.48,0,0,1-3.79,1.33,5.72,5.72,0,0,1-4.67-2.28,9.7,9.7,0,0,1-1.83-6.24,10.18,10.18,0,0,1,1.84-6.5,5.87,5.87,0,0,1,4.83-2.32,5.43,5.43,0,0,1,4.25,1.82,7,7,0,0,1,1.46,3.09l-2.85.8a3.76,3.76,0,0,0-1-2.06,2.77,2.77,0,0,0-2-.75,3,3,0,0,0-2.58,1.34,7.38,7.38,0,0,0-1,4.33,8,8,0,0,0,1,4.53,3,3,0,0,0,2.53,1.35,2.65,2.65,0,0,0,2-.86A5.22,5.22,0,0,0,241,343.58Z"></path><path class="cls-6" d="M246.23,349.75v-3.22H249v3.22Z"></path><path class="cls-6" d="M251.87,349.75V333.12h2.88v13.8h7.16v2.83Z"></path><path class="cls-6" d="M265.69,349.75V335.82h-4.23V333h11.33v2.84h-4.22v13.93Z"></path><path class="cls-6" d="M274.64,333h5.27a8.91,8.91,0,0,1,2.71.32,4.65,4.65,0,0,1,2.15,1.54,7.64,7.64,0,0,1,1.36,2.72,14.41,14.41,0,0,1,.47,4,12.9,12.9,0,0,1-.44,3.57,7.72,7.72,0,0,1-1.53,3,4.92,4.92,0,0,1-2,1.33,7.42,7.42,0,0,1-2.55.36h-5.42Zm2.88,2.84v11.1h2.15a6.49,6.49,0,0,0,1.74-.16,2.56,2.56,0,0,0,1.17-.69,3.71,3.71,0,0,0,.75-1.62,13,13,0,0,0,.29-3.07,11.92,11.92,0,0,0-.29-3,3.91,3.91,0,0,0-.82-1.62,2.55,2.55,0,0,0-1.33-.79,10.89,10.89,0,0,0-2.36-.16Z"></path><path class="cls-6" d="M289,349.75v-3.22h2.74v3.22Z"></path><path class="cls-6" d="M293.84,344.29l2.81-.32a4.35,4.35,0,0,0,1,2.44,2.81,2.81,0,0,0,2.09.78,2.85,2.85,0,0,0,2.1-.7,2.18,2.18,0,0,0,.7-1.61,1.71,1.71,0,0,0-.3-1,2.31,2.31,0,0,0-1-.72c-.34-.14-1.11-.38-2.31-.73a7.45,7.45,0,0,1-3.25-1.66,4.76,4.76,0,0,1-1.31-3.38A4.87,4.87,0,0,1,295,335a4,4,0,0,1,1.78-1.7,6.16,6.16,0,0,1,2.8-.59,5.45,5.45,0,0,1,4.05,1.39,5.26,5.26,0,0,1,1.42,3.69l-2.88.15a3.1,3.1,0,0,0-.79-1.86,2.56,2.56,0,0,0-1.82-.56,3,3,0,0,0-2,.6,1.32,1.32,0,0,0-.46,1,1.4,1.4,0,0,0,.43,1,6.93,6.93,0,0,0,2.65,1.12,12.45,12.45,0,0,1,3.11,1.21,4.3,4.3,0,0,1,1.57,1.7,5.68,5.68,0,0,1,.57,2.68,5.57,5.57,0,0,1-.68,2.69,4.26,4.26,0,0,1-1.93,1.87,7,7,0,0,1-3.1.62,5.56,5.56,0,0,1-4.15-1.47A6.88,6.88,0,0,1,293.84,344.29Zm3.28,10.07V353a15.57,15.57,0,0,0,1.84.12,2,2,0,0,0,1.29-.36.9.9,0,0,0,.32-.71.91.91,0,0,0-.3-.68,1.35,1.35,0,0,0-.94-.28,3.63,3.63,0,0,0-1.27.23l.25-1.14a4.43,4.43,0,0,1,1.64-.3,2.49,2.49,0,0,1,1.84.63,2.08,2.08,0,0,1,.64,1.53,2.11,2.11,0,0,1-.7,1.63,3.85,3.85,0,0,1-2.71.86A7.52,7.52,0,0,1,297.12,354.36Z"></path><path class="cls-6" d="M311.07,349.75V335.82h-4.23V333h11.34v2.84H314v13.93Z"></path><path class="cls-6" d="M320,349.75V333h2.88v16.77Zm.1-17.73v-3h2.69v3Z"></path><path class="cls-6" d="M325.55,349.75v-3.22h2.74v3.22Z"></path></svg>