<svg xmlns="http://www.w3.org/2000/svg" id="Layer_1" data-name="Layer 1" viewBox="0 0 500 500"><defs><style>.cls-1{fill:#96cfb5;}.cls-2{fill:#d9544f;}.cls-3{fill:#ffad61;}.cls-4{fill:#ffedad;}.cls-5{font-size:54.63px;font-family:Glamode-Regular, Glamode;}</style></defs><polygon class="cls-1" points="226.69 211 219.45 218.3 219.45 223.76 232.09 211 226.69 211"></polygon><path class="cls-2" d="M233.45,209.63l.07.07h15.31a32.63,32.63,0,0,0-1.45-3.91H219.45v3.91h13.93Z"></path><path class="cls-1" d="M233.91,211l-14.4,14.55a30.42,30.42,0,0,0,.63,4.81L239.31,211Z"></path><polygon class="cls-1" points="219.45 211 219.45 216.46 224.86 211 219.45 211"></polygon><path class="cls-3" d="M225.07,241.82a31.25,31.25,0,0,0,25.09,13.6v-36.6c0-.76,0-1.51-.08-2.26Z"></path><path class="cls-1" d="M241,211l.07.07-20.58,20.78a33.12,33.12,0,0,0,1.37,4.08L246.54,211Z"></path><path class="cls-1" d="M249.19,211h-.83l-25.94,26.2a32.31,32.31,0,0,0,1.92,3.52l25.58-25.84a33.2,33.2,0,0,0-.73-3.88"></path><path class="cls-1" d="M249.69,188.22c.12.33.22.66.32,1,0-.34-.07-.67-.1-1a31.52,31.52,0,0,0-30.46-27.62v5.34a32.72,32.72,0,0,1,30.24,22.29"></path><path class="cls-2" d="M244.42,200.58h-25v3.91h27.31a31.33,31.33,0,0,0-2.34-3.91"></path><path class="cls-1" d="M242.32,189.33A33,33,0,0,1,250,202.5a31.61,31.61,0,0,0-4.68-13.84,31.28,31.28,0,0,0-25.88-14.78v5.34a32.37,32.37,0,0,1,22.87,10.11"></path><path class="cls-2" d="M251.39,218.82v36.6a31.25,31.25,0,0,0,25.09-13.6l-25-25.26c-.05.75-.08,1.5-.08,2.26"></path><path class="cls-1" d="M246.72,188.46a32.8,32.8,0,0,1,3.29,7.4,31.57,31.57,0,0,0-30.56-28.63v5.34a32.61,32.61,0,0,1,27.27,15.89"></path><path class="cls-2" d="M239.85,195.37h-20.4v3.91h24a32.67,32.67,0,0,0-3.61-3.91"></path><path class="cls-2" d="M235.53,192.05a31,31,0,0,0-16.08-4.89v6.9h18.88a31,31,0,0,0-2.8-2"></path><path class="cls-1" d="M250,209.15a31.62,31.62,0,0,0-9.1-19.4,31,31,0,0,0-21.46-9.23v5.34a32.23,32.23,0,0,1,17.41,5.51A33,33,0,0,1,250,209.15"></path><path class="cls-4" d="M251.64,188.21c0,.34-.08.67-.11,1,.1-.34.21-.67.32-1a32.74,32.74,0,0,1,30.24-22.29v-5.34a31.51,31.51,0,0,0-30.45,27.62"></path><path class="cls-4" d="M251.53,209.15a33,33,0,0,1,13.16-17.78,32.22,32.22,0,0,1,17.4-5.51v-5.34a31.06,31.06,0,0,0-21.46,9.23,31.68,31.68,0,0,0-9.1,19.4"></path><path class="cls-3" d="M263.22,194.06h18.87v-6.89A31,31,0,0,0,266,192a33.19,33.19,0,0,0-2.8,2"></path><path class="cls-3" d="M258.09,199.27h24v-3.91H261.7a32.61,32.61,0,0,0-3.61,3.91"></path><path class="cls-4" d="M256.22,188.66a31.67,31.67,0,0,0-4.69,13.85,33.07,33.07,0,0,1,7.7-13.18,32.35,32.35,0,0,1,22.86-10.11v-5.35a31.31,31.31,0,0,0-25.87,14.79"></path><path class="cls-4" d="M253.2,188.29a31.75,31.75,0,0,0-1.67,7.57,33.07,33.07,0,0,1,3.3-7.4,32.58,32.58,0,0,1,27.26-15.89v-5.34a31.41,31.41,0,0,0-28.89,21.06"></path><path class="cls-4" d="M260.55,211H255l24.68,24.93a31.48,31.48,0,0,0,1.36-4.08l-20.57-20.78Z"></path><path class="cls-4" d="M262.23,211l19.18,19.36a31.63,31.63,0,0,0,.63-4.81L267.63,211Z"></path><path class="cls-4" d="M252.36,211a31.24,31.24,0,0,0-.73,3.88l25.58,25.84a32.31,32.31,0,0,0,1.92-3.52L253.18,211Z"></path><path class="cls-3" d="M254.79,204.49h27.3v-3.91h-25a31.33,31.33,0,0,0-2.34,3.91"></path><polygon class="cls-4" points="269.46 211 282.09 223.76 282.09 218.3 274.86 211 269.46 211"></polygon><path class="cls-3" d="M252.71,209.7H268l.07-.07.07.07h13.92v-3.91H254.17a32.68,32.68,0,0,0-1.46,3.91"></path><polygon class="cls-4" points="282.09 216.46 282.09 211 276.68 211 282.09 216.46"></polygon><path d="M282.09,165.93a32.73,32.73,0,0,0-30.24,22.29c-.11.33-.22.66-.32,1,0-.34.07-.67.11-1a31.51,31.51,0,0,1,30.45-27.62Zm0,6.64a32.9,32.9,0,0,0-30.56,23.29,32.12,32.12,0,0,1,1.66-7.57,31.44,31.44,0,0,1,28.9-21.06Zm0,6.65a32.39,32.39,0,0,0-22.86,10.11,33,33,0,0,0-7.7,13.18,31.67,31.67,0,0,1,4.69-13.84,31.27,31.27,0,0,1,25.87-14.79Zm0,6.64a32.22,32.22,0,0,0-17.4,5.51,33,33,0,0,0-13.16,17.78,31.63,31.63,0,0,1,9.11-19.4,31,31,0,0,1,21.45-9.23Zm0,8.2H263.21c.9-.72,1.84-1.39,2.81-2a31,31,0,0,1,16.07-4.87Zm0,5.21h-24a33.39,33.39,0,0,1,3.61-3.91h20.39Zm0,5.22h-27.3a31.33,31.33,0,0,1,2.34-3.91h25Zm0,5.21H268.17l-.07-.07-.07.07H252.71a32,32,0,0,1,1.46-3.91h27.92Zm0,6.76L276.68,211h5.41Zm0,7.3L269.46,211h5.4l7.23,7.3Zm-.68,6.6L262.24,211h5.39L282,225.55a31.63,31.63,0,0,1-.63,4.81m-1.72,5.57L255,211h5.54l-.07.07,20.57,20.78a31.48,31.48,0,0,1-1.36,4.08m-2.48,4.79-25.58-25.84a31.24,31.24,0,0,1,.73-3.88h.82l25.95,26.2a32.31,32.31,0,0,1-1.92,3.52m-25.82,14.7v-36.6c0-.76,0-1.51.08-2.26l25,25.27a31.24,31.24,0,0,1-25.09,13.59m-1.23,0a31.24,31.24,0,0,1-25.09-13.59l25-25.27c0,.75.08,1.5.08,2.26ZM222.42,237.2,248.36,211h.83a33.2,33.2,0,0,1,.73,3.88l-25.58,25.84a32.31,32.31,0,0,1-1.92-3.52m-1.93-5.35,20.58-20.78L241,211h5.53l-24.67,24.93a31.52,31.52,0,0,1-1.37-4.08m-1-6.3L233.91,211h5.4l-19.17,19.36a31.63,31.63,0,0,1-.63-4.81m-.06-7.25,7.24-7.3h5.4l-12.64,12.76Zm0-7.3h5.41l-5.41,5.46Zm0-5.21h27.93a32,32,0,0,1,1.45,3.91H233.52l-.07-.07-.07.07H219.45Zm0-5.21h25a31.33,31.33,0,0,1,2.34,3.91H219.45Zm0-5.22h20.39a33.47,33.47,0,0,1,3.62,3.91h-24Zm0-8.19A31,31,0,0,1,235.53,192a33.19,33.19,0,0,1,2.8,2H219.45Zm0-6.65a31,31,0,0,1,21.46,9.23,31.74,31.74,0,0,1,9.11,19.4,33.09,33.09,0,0,0-13.16-17.78,32.25,32.25,0,0,0-17.41-5.51Zm0-6.64a31.27,31.27,0,0,1,25.88,14.79A31.67,31.67,0,0,1,250,202.51a33.26,33.26,0,0,0-7.7-13.18,32.41,32.41,0,0,0-22.87-10.11Zm0-6.65A31.62,31.62,0,0,1,250,195.86a33.28,33.28,0,0,0-3.3-7.4,32.61,32.61,0,0,0-27.27-15.89Zm0-6.64a31.49,31.49,0,0,1,30.45,27.62l.12,1c-.11-.34-.21-.67-.33-1a32.71,32.71,0,0,0-30.24-22.29Zm31.32,25a32.76,32.76,0,0,0-32-26.28h-.65V225a40.41,40.41,0,0,0,1.44,8.45A33.06,33.06,0,0,0,230,249.13c.32.27.65.54,1,.8l.32.24a32.28,32.28,0,0,0,7.74,4.34q.57.23,1.14.42l.39.13.39.13.39.12.61.19q.87.24,1.77.45l.52.11c.43.09.85.17,1.29.24l.65.1.63.08h0l.56.07h.12l1.29.1c.22,0,.44,0,.67,0l.67,0h1.23l.67,0,.67,0,1.28-.1h.13l.56-.07h0l.63-.08.65-.1,1.29-.24.52-.11q.89-.21,1.77-.45l.61-.19.39-.12.39-.13.39-.13q.57-.19,1.14-.42a32.28,32.28,0,0,0,7.74-4.34l.32-.24,1-.8A33,33,0,0,0,282,233.44a40.68,40.68,0,0,0,1.43-8.45V159.28h-.64a32.78,32.78,0,0,0-32,26.28"></path><text class="cls-5" transform="translate(118.33 310.59) scale(1 1.01)">La</text><text class="cls-5" transform="translate(189.67 310.59) scale(1 1.01)">Liberté</text><path d="M219,328a5.87,5.87,0,0,1,3.36.88,5.29,5.29,0,0,1,1.94,2.3l-.83.5a4.82,4.82,0,0,0-1.65-2.37,4.51,4.51,0,0,0-2.82-.86,4.92,4.92,0,0,0-2.08.41,4.14,4.14,0,0,0-1.52,1.2,5.47,5.47,0,0,0-1,1.86,9,9,0,0,0,0,4.84,5.47,5.47,0,0,0,1,1.86,4.27,4.27,0,0,0,1.52,1.21,4.78,4.78,0,0,0,2.08.43,4.51,4.51,0,0,0,2.82-.86,4.86,4.86,0,0,0,1.65-2.37l.83.5a5.21,5.21,0,0,1-1.94,2.29,5.94,5.94,0,0,1-3.36.86,6.43,6.43,0,0,1-2.63-.49,5.06,5.06,0,0,1-1.84-1.36,5.63,5.63,0,0,1-1.09-2,8.86,8.86,0,0,1,0-4.93,5.68,5.68,0,0,1,1.09-2,4.92,4.92,0,0,1,1.84-1.35A6.43,6.43,0,0,1,219,328"></path><path d="M232.45,340.3a4.81,4.81,0,0,0,2.08-.43,4.26,4.26,0,0,0,1.54-1.21,5.26,5.26,0,0,0,.94-1.86,9.31,9.31,0,0,0,0-4.84,5.26,5.26,0,0,0-.94-1.86,4.13,4.13,0,0,0-1.54-1.2,5.11,5.11,0,0,0-2.08-.41,5,5,0,0,0-2.08.41,4.17,4.17,0,0,0-1.53,1.2,5.63,5.63,0,0,0-1,1.86,9,9,0,0,0,0,4.84,5.63,5.63,0,0,0,1,1.86,4.31,4.31,0,0,0,1.53,1.21,4.71,4.71,0,0,0,2.08.43m-5.92-5.92a8.22,8.22,0,0,1,.36-2.46,5.51,5.51,0,0,1,1.08-2,5.07,5.07,0,0,1,1.85-1.35,7.14,7.14,0,0,1,5.25,0,5,5,0,0,1,1.84,1.35,5.53,5.53,0,0,1,1.09,2,8.62,8.62,0,0,1,0,4.93,5.48,5.48,0,0,1-1.09,2,5,5,0,0,1-1.84,1.36,7.28,7.28,0,0,1-5.25,0,5.09,5.09,0,0,1-1.85-1.36,5.46,5.46,0,0,1-1.08-2,8.29,8.29,0,0,1-.36-2.47"></path><path d="M242,328.26v-1.9a3.52,3.52,0,0,1,.3-1.5,3.29,3.29,0,0,1,.82-1.08,3.65,3.65,0,0,1,1.22-.65,5,5,0,0,1,1.52-.22,3.57,3.57,0,0,1,2,.58,4,4,0,0,1,1.38,1.61l-.83.87a3.64,3.64,0,0,0-.88-1.92,2.54,2.54,0,0,0-1.93-.72,2.69,2.69,0,0,0-1.42.32,2.26,2.26,0,0,0-.83.85,3.3,3.3,0,0,0-.39,1.22,9.54,9.54,0,0,0-.1,1.43v1.11h7.21v-2.34a6.4,6.4,0,0,1,.32-2.08,2.91,2.91,0,0,1,1.12-1.47,4.2,4.2,0,0,1,2.42-.57,3.53,3.53,0,0,1,2,.58,4.21,4.21,0,0,1,1.4,1.64l-.84.84a3.5,3.5,0,0,0-.87-1.9,2.56,2.56,0,0,0-1.93-.72,2.9,2.9,0,0,0-1.42.31,2.16,2.16,0,0,0-.83.84,3.3,3.3,0,0,0-.39,1.22A9.54,9.54,0,0,0,251,326v2.22h4.18v.45H250a1.85,1.85,0,0,1,.75.77,2.26,2.26,0,0,1,.25,1.08v8.31a1.25,1.25,0,0,0,.16.68,1.1,1.1,0,0,0,.42.41,1.5,1.5,0,0,0,.6.18,5.27,5.27,0,0,0,.7,0h1.22v.41H248v-.41h.39q.35,0,.66,0a1.41,1.41,0,0,0,.56-.16.92.92,0,0,0,.39-.39,1.44,1.44,0,0,0,.15-.71v-8a4.61,4.61,0,0,0-.1-1.08,1.37,1.37,0,0,0-.33-.67,1.23,1.23,0,0,0-.65-.34,4.46,4.46,0,0,0-1.07-.1H241.9a1.88,1.88,0,0,1,.76.77,2.38,2.38,0,0,1,.24,1.08v8.31a1.25,1.25,0,0,0,.16.68,1.13,1.13,0,0,0,.43.41,1.5,1.5,0,0,0,.6.18,5.12,5.12,0,0,0,.69,0H246v.41h-6.19v-.41h.39c.23,0,.46,0,.67,0a1.41,1.41,0,0,0,.58-.16,1,1,0,0,0,.39-.39,1.44,1.44,0,0,0,.15-.71v-8a2.61,2.61,0,0,0-.42-1.72,2.13,2.13,0,0,0-1.64-.47h-.12v-.45Z"></path><path d="M257.44,335.62a2.79,2.79,0,0,1,1.2-.55c.5-.11,1.05-.21,1.63-.29s1.18-.18,1.77-.29a6.61,6.61,0,0,0,1.63-.49,3.24,3.24,0,0,0,1.2-.91,2.45,2.45,0,0,0,.46-1.57,2.86,2.86,0,0,0-.28-1.3,3,3,0,0,0-.76-.94,3.09,3.09,0,0,0-1.08-.6,4.26,4.26,0,0,0-1.3-.19,4.38,4.38,0,0,0-2.17.49,3.89,3.89,0,0,0-1.41,1.32,5.9,5.9,0,0,0-.76,1.89,10.42,10.42,0,0,0-.23,2.19,6.13,6.13,0,0,0,0,.62c0,.2,0,.4.07.62m-1.12-1.24a9.24,9.24,0,0,1,.33-2.54,5.58,5.58,0,0,1,1-2,4.4,4.4,0,0,1,1.73-1.32,6.28,6.28,0,0,1,2.53-.47,5.53,5.53,0,0,1,1.52.22,5,5,0,0,1,1.44.67,3.7,3.7,0,0,1,1.07,1.09,3,3,0,0,1-.15,3.3,4.07,4.07,0,0,1-1.47,1.05,9,9,0,0,1-2,.56l-2,.32a15.57,15.57,0,0,0-1.75.34,1.64,1.64,0,0,0-1,.62,5.55,5.55,0,0,0,1.57,3,4.34,4.34,0,0,0,3.12,1.12,4.55,4.55,0,0,0,2.79-.84,4.78,4.78,0,0,0,1.68-2.39l.83.5a4.82,4.82,0,0,1-2.14,2.4,6.47,6.47,0,0,1-3.16.75,6.29,6.29,0,0,1-2.54-.47,5.08,5.08,0,0,1-1.86-1.3,5.54,5.54,0,0,1-1.13-2,8,8,0,0,1-.38-2.57"></path><path d="M270.12,335.62a2.85,2.85,0,0,1,1.2-.55c.5-.11,1.05-.21,1.64-.29s1.17-.18,1.77-.29a6.66,6.66,0,0,0,1.62-.49,3.24,3.24,0,0,0,1.2-.91,2.45,2.45,0,0,0,.46-1.57,2.86,2.86,0,0,0-.28-1.3,3,3,0,0,0-.75-.94,3.23,3.23,0,0,0-1.09-.6,4.26,4.26,0,0,0-1.3-.19,4.38,4.38,0,0,0-2.17.49A3.89,3.89,0,0,0,271,330.3a5.9,5.9,0,0,0-.76,1.89,10.42,10.42,0,0,0-.23,2.19,6.13,6.13,0,0,0,0,.62c0,.2,0,.4.07.62M269,334.38a9.24,9.24,0,0,1,.33-2.54,5.75,5.75,0,0,1,1-2,4.43,4.43,0,0,1,1.74-1.32,6.19,6.19,0,0,1,2.52-.47,5.48,5.48,0,0,1,1.52.22,5,5,0,0,1,1.44.67,3.86,3.86,0,0,1,1.08,1.09,2.72,2.72,0,0,1,.41,1.5,2.66,2.66,0,0,1-.57,1.8,4.07,4.07,0,0,1-1.47,1.05,9,9,0,0,1-1.95.56l-2,.32a15.57,15.57,0,0,0-1.75.34,1.67,1.67,0,0,0-1,.62,5.56,5.56,0,0,0,1.58,3,4.32,4.32,0,0,0,3.11,1.12,4.55,4.55,0,0,0,2.79-.84,4.78,4.78,0,0,0,1.68-2.39l.83.5a4.82,4.82,0,0,1-2.14,2.4,6.47,6.47,0,0,1-3.16.75,6.29,6.29,0,0,1-2.54-.47,5.25,5.25,0,0,1-1.86-1.3,5.54,5.54,0,0,1-1.13-2,8,8,0,0,1-.38-2.57"></path></svg>