<svg xmlns="http://www.w3.org/2000/svg" id="Layer_1" data-name="Layer 1" viewBox="0 0 500 500"><defs><style>.cls-1,.cls-2{fill:#3b4c3c;}.cls-2{font-size:65.28px;font-family:Glamode-Regular, Glamode;letter-spacing:-0.09em;}.cls-3{letter-spacing:-0.02em;}.cls-4{letter-spacing:-0.04em;}.cls-5{letter-spacing:-0.02em;}</style></defs><path class="cls-1" d="M255.68,260.36l-4.16-1.15a38.16,38.16,0,0,0-36.83-48.32h-.61a38.27,38.27,0,0,0-9.53,1.36l-1.14-4.16A42.67,42.67,0,0,1,214,206.58h.67a42.55,42.55,0,0,1,41,53.78Z"></path><path class="cls-1" d="M242.32,260.62l-4-1.67a25.61,25.61,0,0,0,2-9.87c0-.53,0-1.07-.05-1.6a25.65,25.65,0,0,0-35.44-22l-1.67-4a30,30,0,0,1,41.41,25.77c0,.61.06,1.24.06,1.86A29.93,29.93,0,0,1,242.32,260.62Z"></path><path class="cls-1" d="M286.42,219.91a42.49,42.49,0,0,1-42.56-42.51v-.66a42.38,42.38,0,0,1,1.58-10.88L249.6,167a38.26,38.26,0,0,0-1.42,9.77v.6a38.18,38.18,0,0,0,38.19,38.2,38.57,38.57,0,0,0,10.37-1.43l1.17,4.15A42.66,42.66,0,0,1,286.42,219.91Z"></path><path class="cls-1" d="M286.37,207.33c-.63,0-1.25,0-1.87-.05a29.84,29.84,0,0,1-28-28.6c0-.42,0-.85,0-1.28a29.69,29.69,0,0,1,2.43-11.81l4,1.71a25.29,25.29,0,0,0-2.07,10.1c0,.37,0,.73,0,1.09A25.63,25.63,0,0,0,296.47,201l1.7,4A29.79,29.79,0,0,1,286.37,207.33Z"></path><path class="cls-1" d="M219.69,210.71a14.93,14.93,0,0,1-.92-5.11,15.1,15.1,0,0,1,1.18-5.85c2.38-5.71,8.14-10.16,15.42-11.92a29.61,29.61,0,0,1,6.87-.8h.37a29,29,0,0,1,5.91.67l-.64,3a26,26,0,0,0-5.31-.6h-.33a26.28,26.28,0,0,0-6.16.72c-6.35,1.52-11.33,5.32-13.34,10.14a12,12,0,0,0-1,4.66,12.23,12.23,0,0,0,.73,4.11Z"></path><path class="cls-1" d="M227,210.93a10.87,10.87,0,0,1-1.41-5.36c0-.28,0-.57,0-.86.54-6.76,7.37-12.09,15.89-12.36h.7a20.34,20.34,0,0,1,6.44,1l-1,2.86a17.62,17.62,0,0,0-5.49-.87h-.59c-6.88.23-12.58,4.44-13,9.6,0,.21,0,.41,0,.61a7.93,7.93,0,0,0,1,3.9Z"></path><path class="cls-1" d="M259.77,239.73h-.36a29.84,29.84,0,0,1-5.93-.67l.65-2.95a27.33,27.33,0,0,0,5.31.6h.33a26.28,26.28,0,0,0,6.16-.72c6.34-1.53,11.33-5.32,13.34-10.15a12.05,12.05,0,0,0,.22-8.77l2.83-1a15,15,0,0,1-.26,11c-2.38,5.71-8.15,10.17-15.42,11.92A29.09,29.09,0,0,1,259.77,239.73Z"></path><path class="cls-1" d="M259.77,234.42a20.3,20.3,0,0,1-6.44-1l.95-2.86a17.25,17.25,0,0,0,5.49.87h.59c6.88-.22,12.58-4.44,13-9.6,0-.21,0-.41,0-.61a8,8,0,0,0-1-3.89l2.64-1.47a11,11,0,0,1,1.41,5.36,8.12,8.12,0,0,1,0,.86c-.53,6.77-7.36,12.09-15.89,12.37Z"></path><path class="cls-1" d="M289.74,261.94H211.56a9.74,9.74,0,0,1-9.73-9.73V174a9.74,9.74,0,0,1,9.73-9.73h78.18a9.75,9.75,0,0,1,9.74,9.73v78.19A9.75,9.75,0,0,1,289.74,261.94ZM211.56,168.6a5.42,5.42,0,0,0-5.42,5.42v78.19a5.43,5.43,0,0,0,5.42,5.42h78.18a5.44,5.44,0,0,0,5.43-5.42V174a5.43,5.43,0,0,0-5.43-5.42Z"></path><path class="cls-1" d="M250.65,278.13a9.7,9.7,0,0,1-6.88-2.85L188.49,220a9.74,9.74,0,0,1,0-13.77L243.77,151a9.74,9.74,0,0,1,13.77,0l55.28,55.28a9.76,9.76,0,0,1,0,13.77l-55.28,55.28A9.72,9.72,0,0,1,250.65,278.13Zm0-125.72a5.39,5.39,0,0,0-3.83,1.59l-55.28,55.28a5.42,5.42,0,0,0,0,7.67l55.28,55.28a5.44,5.44,0,0,0,7.67,0L309.77,217a5.44,5.44,0,0,0,0-7.67L254.49,154A5.41,5.41,0,0,0,250.65,152.41Z"></path><text class="cls-2" transform="translate(121.66 335.12)">L<tspan class="cls-3" x="32.9" y="0">umiè</tspan><tspan class="cls-4" x="188.13" y="0">r</tspan><tspan class="cls-5" x="215.68" y="0">E</tspan></text></svg>