<svg xmlns="http://www.w3.org/2000/svg" xmlns:xlink="http://www.w3.org/1999/xlink" id="Layer_1" data-name="Layer 1" viewBox="0 0 500 500"><defs><style>.cls-1{fill:url(#linear-gradient);}.cls-2{fill:url(#linear-gradient-2);}.cls-3{fill:url(#linear-gradient-3);}.cls-4{font-size:57px;font-family:Montserrat-Regular, Montserrat;}.cls-4,.cls-7{fill:#1d1d1b;}.cls-5{letter-spacing:-0.01em;}.cls-6{letter-spacing:-0.03em;}</style><linearGradient id="linear-gradient" x1="220.73" y1="256.48" x2="437.98" y2="256.48" gradientUnits="userSpaceOnUse"><stop offset="0" stop-color="#af7829"></stop><stop offset="0.17" stop-color="#fdec9b"></stop><stop offset="0.34" stop-color="#c29340"></stop><stop offset="0.52" stop-color="#f5e08e"></stop><stop offset="0.68" stop-color="#cfa754"></stop><stop offset="0.84" stop-color="#f5e08e"></stop><stop offset="0.98" stop-color="#c79b48"></stop><stop offset="0.99" stop-color="#ca9e4b"></stop></linearGradient><linearGradient id="linear-gradient-2" x1="62.02" y1="243.86" x2="399.31" y2="243.86" xlink:href="#linear-gradient"></linearGradient><linearGradient id="linear-gradient-3" x1="271.09" y1="292.54" x2="435.04" y2="292.54" xlink:href="#linear-gradient"></linearGradient></defs><path class="cls-1" d="M438,304.07H220.73V208.89H438Zm-213.21-4H434V212.92H224.77Z"></path><path class="cls-2" d="M399.31,291.79H62V195.93H399.31Zm-333.26-4H395.28V200H66.05Z"></path><rect class="cls-3" x="271.09" y="281.26" width="163.94" height="22.56"></rect><text class="cls-4" transform="translate(72.28 264.75)">N<tspan class="cls-5" x="46.34" y="0">E</tspan><tspan x="83.9" y="0">W </tspan><tspan class="cls-6" x="162.16" y="0">F</tspan><tspan class="cls-5" x="196.36" y="0">A</tspan><tspan x="236.66" y="0">CE</tspan></text><path class="cls-7" d="M287.17,292.9h-4.11l-.95,2.44a3.62,3.62,0,0,0-.25.89.44.44,0,0,0,.3.44,3.74,3.74,0,0,0,1.09.16l0,.45-1,0h-2.07l-.94,0,0-.42a5.57,5.57,0,0,0,.79-.12,1.11,1.11,0,0,0,.54-.3,2.2,2.2,0,0,0,.43-.59,11.17,11.17,0,0,0,.48-1l3.55-8.36c.09-.25.18-.46.25-.65s.14-.38.23-.6l.78-.1a9,9,0,0,0,.29,1.09c.1.33.19.63.29.9l2.78,8.06a7.67,7.67,0,0,0,.33.85,1.46,1.46,0,0,0,.34.47,1.05,1.05,0,0,0,.5.23,6.22,6.22,0,0,0,.79.1l0,.45-1.14,0H288l-1,0,0-.42a3.91,3.91,0,0,0,1-.17.43.43,0,0,0,.29-.44,1.25,1.25,0,0,0,0-.31l-.13-.41Zm-3.83-.71h3.6l-1.66-4.9Z"></path><path class="cls-7" d="M291.58,297.39h-1.25c-.76,0-1.52,0-2.3,0h-1.16l-.05-.64h.11a3.82,3.82,0,0,0,1-.15.34.34,0,0,0,.22-.34,1.17,1.17,0,0,0,0-.29c0-.11-.08-.24-.13-.39l-.85-2.55h-3.95l-.93,2.36a3.34,3.34,0,0,0-.24.85.35.35,0,0,0,.24.34,3.77,3.77,0,0,0,1,.15h.12l-.06.67h-1.13c-.69,0-1.34,0-2.07,0h-1.05l0-.64h.1a4.41,4.41,0,0,0,.78-.11,1.09,1.09,0,0,0,.48-.27,2,2,0,0,0,.41-.56c.14-.25.3-.59.48-1l3.54-8.36c.1-.25.18-.46.25-.65l.07-.17c.05-.13.1-.28.16-.43l0-.06.94-.12,0,.1c.09.37.19.74.29,1.08s.2.62.29.9l2.78,8.05a7.39,7.39,0,0,0,.33.84,1.29,1.29,0,0,0,.32.44.85.85,0,0,0,.45.2,5.42,5.42,0,0,0,.77.1h.11Zm-2.5-.25h2.29l0-.23a5.32,5.32,0,0,1-.69-.09,1.21,1.21,0,0,1-.55-.25,1.46,1.46,0,0,1-.37-.51,8.89,8.89,0,0,1-.34-.87l-2.78-8c-.09-.28-.19-.58-.29-.91s-.19-.65-.27-1l-.61.07c-.05.13-.1.25-.14.37l-.07.17c-.07.19-.15.4-.25.65l-3.55,8.37a11.17,11.17,0,0,1-.48,1,2.26,2.26,0,0,1-.45.62,1.33,1.33,0,0,1-.59.33,4.93,4.93,0,0,1-.7.11v.2h.84c.72,0,1.38,0,2.07,0h.92l0-.22a3.19,3.19,0,0,1-1-.17.54.54,0,0,1-.37-.54,3.75,3.75,0,0,1,.25-.93l1-2.51h4.27l.91,2.71c0,.15.09.28.12.41a1.16,1.16,0,0,1,.05.34.53.53,0,0,1-.36.54,3.5,3.5,0,0,1-.91.17l0,.2h2Zm-2-4.84h-3.91l2.11-5.33Zm-3.58-.23h3.27l-1.51-4.45Z"></path><path class="cls-7" d="M298.33,295.92a4.61,4.61,0,0,1-.82.83,4.43,4.43,0,0,1-.8.49,3.55,3.55,0,0,1-.7.23,2.41,2.41,0,0,1-.51.07,3.45,3.45,0,0,1-1.41-.29,3.24,3.24,0,0,1-1.1-.78,3.5,3.5,0,0,1-.72-1.15,4.08,4.08,0,0,1,.05-2.94,4.07,4.07,0,0,1,.8-1.24,3.56,3.56,0,0,1,1.16-.84,3.15,3.15,0,0,1,1.34-.3,3.11,3.11,0,0,1,1.06.18,2.7,2.7,0,0,1,.87.51,2.35,2.35,0,0,1,.59.8,2.46,2.46,0,0,1,.23,1.06v.17l0,.17c0,.22-.15.33-.34.33h-4.67a3.93,3.93,0,0,0,.26,1.46,2.72,2.72,0,0,0,.63,1,2.4,2.4,0,0,0,.87.56,2.76,2.76,0,0,0,1,.18,2.85,2.85,0,0,0,1-.17,3,3,0,0,0,1-.68Zm-1.83-3.25a.42.42,0,0,0,.32-.09.54.54,0,0,0,.08-.32,1.9,1.9,0,0,0-.11-.63,1.65,1.65,0,0,0-.33-.52,1.35,1.35,0,0,0-.52-.34,1.67,1.67,0,0,0-.69-.13,1.45,1.45,0,0,0-.59.14,2,2,0,0,0-.56.39,2.81,2.81,0,0,0-.45.64,3.1,3.1,0,0,0-.26.86Z"></path><path class="cls-7" d="M295.5,297.65a3.48,3.48,0,0,1-1.45-.3,3.45,3.45,0,0,1-1.15-.8,3.92,3.92,0,0,1-.74-1.19,4.08,4.08,0,0,1-.26-1.44,4,4,0,0,1,.32-1.59,4.2,4.2,0,0,1,.82-1.27,3.9,3.9,0,0,1,1.19-.86,3.37,3.37,0,0,1,2.49-.13,2.85,2.85,0,0,1,.91.54,2.6,2.6,0,0,1,.61.84,2.42,2.42,0,0,1,.24,1.09v.36c-.08.38-.32.44-.46.44h-4.56a3.8,3.8,0,0,0,.25,1.3,2.73,2.73,0,0,0,.61.95,2.5,2.5,0,0,0,2.67.54,2.75,2.75,0,0,0,.92-.65l.08-.08.5.51-.06.08a4.24,4.24,0,0,1-.84.85,4.63,4.63,0,0,1-.82.5,3.25,3.25,0,0,1-.73.24A2.56,2.56,0,0,1,295.5,297.65Zm.12-7.54a3.15,3.15,0,0,0-1.3.29,3.86,3.86,0,0,0-1.12.81,4.33,4.33,0,0,0-.78,1.21,4,4,0,0,0-.05,2.86,3.59,3.59,0,0,0,.7,1.12,3.18,3.18,0,0,0,1.07.75,3.37,3.37,0,0,0,1.36.27,2.68,2.68,0,0,0,.48-.06,3,3,0,0,0,.68-.22,4.07,4.07,0,0,0,.79-.48,4.19,4.19,0,0,0,.73-.73l-.2-.21a2.92,2.92,0,0,1-.92.62,2.78,2.78,0,0,1-2,0,2.59,2.59,0,0,1-.92-.59,3.1,3.1,0,0,1-.66-1,3.9,3.9,0,0,1-.26-1.49v-.12H298c.09,0,.19,0,.23-.24v-.33a2.36,2.36,0,0,0-.21-1,2.54,2.54,0,0,0-.56-.77,2.9,2.9,0,0,0-.84-.49A3.12,3.12,0,0,0,295.62,290.11Zm.88,2.67h-3.24l0-.13a3,3,0,0,1,.27-.89,2.61,2.61,0,0,1,.48-.67,1.87,1.87,0,0,1,.58-.41,1.74,1.74,0,0,1,1.38,0,1.66,1.66,0,0,1,.55.37,1.71,1.71,0,0,1,.35.56,1.89,1.89,0,0,1,.12.67.61.61,0,0,1-.1.39A.5.5,0,0,1,296.5,292.78Zm-3-.22h3c.18,0,.23-.05.23-.05a.43.43,0,0,0,0-.25,1.63,1.63,0,0,0-.1-.59,1.39,1.39,0,0,0-.3-.48,1.27,1.27,0,0,0-.48-.32,1.45,1.45,0,0,0-1.19,0,2,2,0,0,0-.53.37,2.55,2.55,0,0,0-.43.61A2.88,2.88,0,0,0,293.52,292.56Z"></path><path class="cls-7" d="M304,292.35a2.08,2.08,0,0,0-.2-.71,1.78,1.78,0,0,0-.4-.57,2.08,2.08,0,0,0-.59-.36,1.88,1.88,0,0,0-.72-.13,1.76,1.76,0,0,0-.45.07,1.11,1.11,0,0,0-.65.55,1.16,1.16,0,0,0-.09.47,1,1,0,0,0,.15.54,1.57,1.57,0,0,0,.41.4,2.91,2.91,0,0,0,.58.32l.67.27.76.34a3.18,3.18,0,0,1,.67.42,1.87,1.87,0,0,1,.48.57,1.67,1.67,0,0,1,.18.79,1.88,1.88,0,0,1-.25,1,2.19,2.19,0,0,1-.64.68,2.74,2.74,0,0,1-.9.41,4.29,4.29,0,0,1-1,.13,4.74,4.74,0,0,1-.65-.05l-.61-.11-.5-.12a2.81,2.81,0,0,0-.53-.08c0-.14,0-.32,0-.53s0-.44-.07-.66,0-.43-.08-.63a4.71,4.71,0,0,0-.09-.48l.42-.11a7.49,7.49,0,0,0,.38.81,3,3,0,0,0,.5.7,2.41,2.41,0,0,0,.66.49,2,2,0,0,0,.88.19,1.41,1.41,0,0,0,.85-.27.93.93,0,0,0,.37-.81,1,1,0,0,0-.14-.55,1.53,1.53,0,0,0-.38-.43,2.65,2.65,0,0,0-.55-.32c-.2-.1-.41-.19-.63-.28l-.76-.34a3.54,3.54,0,0,1-.68-.42,2.21,2.21,0,0,1-.48-.57,1.7,1.7,0,0,1-.18-.81,1.86,1.86,0,0,1,.24-1,2.1,2.1,0,0,1,.61-.68,3.06,3.06,0,0,1,.86-.39,4.09,4.09,0,0,1,1-.12,4.59,4.59,0,0,1,1,.1,7,7,0,0,0,1.11.12,6.74,6.74,0,0,0-.05.75c0,.23,0,.49,0,.76v.61Z"></path><path class="cls-7" d="M302.05,297.65a5,5,0,0,1-.67,0c-.21,0-.42-.07-.62-.12l-.5-.11a3.89,3.89,0,0,0-.51-.08h-.09v-.1c0-.13,0-.31,0-.52s-.05-.43-.07-.66-.05-.43-.08-.63-.06-.34-.09-.46l0-.11.62-.16,0,.09a8.46,8.46,0,0,0,.38.8,3,3,0,0,0,.48.67,2.41,2.41,0,0,0,.63.47,1.78,1.78,0,0,0,.83.17,1.34,1.34,0,0,0,.79-.24.84.84,0,0,0,.32-.72.9.9,0,0,0-.13-.49,1.31,1.31,0,0,0-.35-.4,3,3,0,0,0-.52-.31l-.64-.28-.76-.34a3.74,3.74,0,0,1-.7-.43,2.51,2.51,0,0,1-.51-.61,1.79,1.79,0,0,1-.19-.86,2,2,0,0,1,.25-1,2.45,2.45,0,0,1,.65-.71,2.85,2.85,0,0,1,.9-.41,4.46,4.46,0,0,1,2,0,8.25,8.25,0,0,0,1.09.12h.12v.12c0,.28,0,.52-.05.74s0,.49,0,.76v.71l-.63,0v-.1a2.22,2.22,0,0,0-.19-.68,1.52,1.52,0,0,0-.38-.52,1.84,1.84,0,0,0-.55-.35,1.63,1.63,0,0,0-1.09-.05,1.31,1.31,0,0,0-.35.19.76.76,0,0,0-.23.3.93.93,0,0,0-.09.42.81.81,0,0,0,.13.47,1.71,1.71,0,0,0,.38.38,2.69,2.69,0,0,0,.56.3l.67.28c.28.11.53.23.77.34a3.74,3.74,0,0,1,.7.43,2.27,2.27,0,0,1,.5.61,1.74,1.74,0,0,1,.19.84,2.11,2.11,0,0,1-.26,1.06,2.34,2.34,0,0,1-.68.72,2.8,2.8,0,0,1-.93.41A4.06,4.06,0,0,1,302.05,297.65Zm-2.18-.58.44.08.5.12.6.11a4.15,4.15,0,0,0,1.61-.08,2.76,2.76,0,0,0,.87-.39,2.23,2.23,0,0,0,.61-.65,1.84,1.84,0,0,0,.23-.94,1.51,1.51,0,0,0-.17-.73,1.67,1.67,0,0,0-.45-.54,2.78,2.78,0,0,0-.65-.41l-.75-.34L302,293a2.89,2.89,0,0,1-.6-.33,1.76,1.76,0,0,1-.43-.43,1,1,0,0,1-.18-.6,1.21,1.21,0,0,1,.11-.52,1.07,1.07,0,0,1,.3-.37,1.22,1.22,0,0,1,.42-.23,1.82,1.82,0,0,1,1.24.06,2,2,0,0,1,.62.38,2,2,0,0,1,.44.6,2.78,2.78,0,0,1,.19.64h.19v-.5c0-.27,0-.53,0-.77s0-.4,0-.63a7,7,0,0,1-1-.12,4.21,4.21,0,0,0-1.9,0,2.67,2.67,0,0,0-.82.37,2.12,2.12,0,0,0-.59.64,1.87,1.87,0,0,0-.22.92,1.54,1.54,0,0,0,.17.75,1.84,1.84,0,0,0,.46.54,3.18,3.18,0,0,0,.64.41l.76.34c.22.09.44.18.64.28a3.3,3.3,0,0,1,.57.34,1.58,1.58,0,0,1,.41.45,1.25,1.25,0,0,1,.15.61,1.05,1.05,0,0,1-.41.9,1.57,1.57,0,0,1-.92.29,2.09,2.09,0,0,1-.93-.2,2.47,2.47,0,0,1-.69-.51,3.15,3.15,0,0,1-.52-.72c-.12-.24-.24-.48-.35-.74l-.22.06a2.9,2.9,0,0,1,.07.38c0,.2.06.42.08.64s.05.44.07.66S299.86,297,299.87,297.07Z"></path><path class="cls-7" d="M308.19,287.65c0,.2,0,.43-.05.69l0,.78c0,.26,0,.5,0,.73v.55l2.11,0,.1.08,0,.63h-2.17v4a2.86,2.86,0,0,0,.09.79,1.31,1.31,0,0,0,.26.5.82.82,0,0,0,.39.25,1.51,1.51,0,0,0,.48.07,2.91,2.91,0,0,0,.57-.06l.58-.13.09.45a7.49,7.49,0,0,1-1,.4,3.79,3.79,0,0,1-1.08.17,2,2,0,0,1-.66-.1,1.24,1.24,0,0,1-.53-.31,1.46,1.46,0,0,1-.37-.59,2.57,2.57,0,0,1-.13-.89v-.34c0-.15,0-.38,0-.71v-3.48h-1.11l-.08-.08.05-.48,1.14-.09v-1.66c0-.21,0-.42,0-.61l.38-.16.39-.15.32-.14.22-.12Z"></path><path class="cls-7" d="M308.43,297.6a2.17,2.17,0,0,1-.69-.1,1.48,1.48,0,0,1-.58-.34,1.54,1.54,0,0,1-.39-.63,2.57,2.57,0,0,1-.14-.93v-.34c0-.15,0-.39,0-.72v-3.35h-1l-.16-.16.06-.63,1.14-.08v-1.55c0-.22,0-.42,0-.62v-.08l.5-.2.34-.14.32-.13.2-.11.06,0,.26.14v.07c0,.2,0,.43-.05.68s0,.52,0,.78,0,.5,0,.73,0,.31,0,.43l2,0,.18.15-.05.79H308.2v3.86a2.63,2.63,0,0,0,.09.76,1.06,1.06,0,0,0,.23.45.71.71,0,0,0,.34.22,2.09,2.09,0,0,0,1,0l.58-.13.11,0,.12.64-.07,0a7.06,7.06,0,0,1-1.06.41A4,4,0,0,1,308.43,297.6ZM305.69,291h1.18v2.26c0,.56,0,1,0,1.33s0,.56,0,.71v.34a2.53,2.53,0,0,0,.13.85,1.42,1.42,0,0,0,.33.55,1.36,1.36,0,0,0,.49.29,3.05,3.05,0,0,0,1.68-.08,6.55,6.55,0,0,0,.94-.36l-.05-.24-.47.1a2.26,2.26,0,0,1-1.1,0,.92.92,0,0,1-.44-.29,1.26,1.26,0,0,1-.29-.54,3.1,3.1,0,0,1-.09-.82V291h2.18l0-.47,0,0-2.18,0v-.67c0-.22,0-.47,0-.73l0-.78c0-.23,0-.43,0-.61h0l-.18.09-.33.14-.33.14-.37.14c0,.18,0,.36,0,.54s0,.43,0,.63v1.13l-1.16.09,0,.34Z"></path><path class="cls-7" d="M313.83,284c0,.21-.06.45-.08.73s0,.56-.05.84,0,.55,0,.79,0,.45,0,.6v4a7.1,7.1,0,0,1,1.37-.71,4.07,4.07,0,0,1,1.45-.29,2.64,2.64,0,0,1,.84.14,1.78,1.78,0,0,1,.69.43,2.27,2.27,0,0,1,.47.79,3.81,3.81,0,0,1,.17,1.2v3.32a3,3,0,0,0,0,.48.38.38,0,0,0,.16.27.75.75,0,0,0,.37.14c.16,0,.38.05.66.06l0,.46h-.91l-1.1,0-.92,0h-.78l0-.4a3,3,0,0,0,.62-.1.7.7,0,0,0,.37-.2.74.74,0,0,0,.17-.41,4.44,4.44,0,0,0,.05-.73v-2.61a1.91,1.91,0,0,0-.45-1.43,1.56,1.56,0,0,0-1.15-.43,3.4,3.4,0,0,0-1,.16,5,5,0,0,0-1.06.48v4.26a2.09,2.09,0,0,0,0,.48.41.41,0,0,0,.16.27.75.75,0,0,0,.36.14c.16,0,.38.05.65.06l0,.46H314l-1.08,0-.94,0h-.8l0-.4a2.88,2.88,0,0,0,.65-.11.77.77,0,0,0,.38-.23.81.81,0,0,0,.18-.43,4.94,4.94,0,0,0,0-.75v-9.2a2.73,2.73,0,0,0,0-.56.56.56,0,0,0-.18-.32.9.9,0,0,0-.38-.17l-.68-.14,0-.35.73-.15.75-.18c.24-.06.46-.12.67-.19a3.82,3.82,0,0,0,.52-.18Z"></path><path class="cls-7" d="M320,297.4H316l-.06-.61h.11a3.48,3.48,0,0,0,.61-.09.74.74,0,0,0,.32-.17.66.66,0,0,0,.14-.36,4.45,4.45,0,0,0,0-.71v-2.61a1.8,1.8,0,0,0-.41-1.35,1.43,1.43,0,0,0-1.07-.4,3.11,3.11,0,0,0-1,.16,5.3,5.3,0,0,0-1,.43v4.2a1.82,1.82,0,0,0,0,.45.36.36,0,0,0,.12.22.65.65,0,0,0,.31.11l.64.06H315l-.05.67H311l0-.61h.11a3.46,3.46,0,0,0,.63-.1.77.77,0,0,0,.33-.2.74.74,0,0,0,.14-.38,4.53,4.53,0,0,0,.05-.73v-9.2a3.51,3.51,0,0,0,0-.54.47.47,0,0,0-.14-.25.9.9,0,0,0-.34-.15l-.67-.14H311l0-.55h.1l.73-.15.74-.18.67-.18a3,3,0,0,0,.5-.18l.06,0,.24.17v.07c0,.19-.05.42-.08.72s0,.56-.05.84,0,.54,0,.79,0,.44,0,.59v3.81a6.62,6.62,0,0,1,1.22-.61,3.43,3.43,0,0,1,2.36-.16,1.87,1.87,0,0,1,.74.47,2.18,2.18,0,0,1,.49.83,3.71,3.71,0,0,1,.18,1.23v3.32a2.77,2.77,0,0,0,0,.46.32.32,0,0,0,.12.21.65.65,0,0,0,.31.11l.66.06H320Zm-7.08-.25H314l.78,0,0-.24-.55-.06a.82.82,0,0,1-.41-.16.59.59,0,0,1-.2-.34,2.29,2.29,0,0,1,0-.5v-4.33l.05,0a5.18,5.18,0,0,1,1.09-.48,3.29,3.29,0,0,1,1-.18,1.7,1.7,0,0,1,1.23.47,2,2,0,0,1,.48,1.51v2.61a4.81,4.81,0,0,1-.05.75.92.92,0,0,1-.2.47.78.78,0,0,1-.42.23,3,3,0,0,1-.53.09l0,.19.67,0h2l.8,0,0-.24-.57-.06a.82.82,0,0,1-.42-.16.54.54,0,0,1-.2-.34,3.34,3.34,0,0,1,0-.5v-3.32a3.59,3.59,0,0,0-.17-1.16,2.1,2.1,0,0,0-.44-.75,1.84,1.84,0,0,0-.65-.41,3.29,3.29,0,0,0-2.21.15,7.83,7.83,0,0,0-1.35.7l-.17.12V287c0-.15,0-.35,0-.6s0-.51,0-.79,0-.57.05-.85,0-.48.07-.67l0,0a4,4,0,0,1-.46.16l-.68.19-.75.18-.64.13,0,.17.6.12a1.06,1.06,0,0,1,.44.2.74.74,0,0,1,.21.38,3,3,0,0,1,0,.58v9.2a5.32,5.32,0,0,1,0,.77.85.85,0,0,1-.64.75,3,3,0,0,1-.56.1v.19l.7,0Z"></path><path class="cls-7" d="M327.1,295.92a4.58,4.58,0,0,1-.81.83,4.85,4.85,0,0,1-.81.49,3.35,3.35,0,0,1-.7.23,2.33,2.33,0,0,1-.51.07,3.39,3.39,0,0,1-2.51-1.07,3.5,3.5,0,0,1-.72-1.15,4.08,4.08,0,0,1,0-2.94,4.07,4.07,0,0,1,.8-1.24,3.67,3.67,0,0,1,1.16-.84,3.2,3.2,0,0,1,1.35-.3,3,3,0,0,1,1.05.18,2.55,2.55,0,0,1,1.47,1.31,2.61,2.61,0,0,1,.22,1.06v.34c-.05.22-.16.33-.35.33h-4.67a3.93,3.93,0,0,0,.26,1.46,2.61,2.61,0,0,0,.64,1,2.32,2.32,0,0,0,.87.56,2.66,2.66,0,0,0,.95.18,2.77,2.77,0,0,0,1-.17,2.88,2.88,0,0,0,1-.68Zm-1.83-3.25c.17,0,.27,0,.32-.09a.54.54,0,0,0,.08-.32,1.9,1.9,0,0,0-.11-.63,1.82,1.82,0,0,0-.32-.52,1.51,1.51,0,0,0-.52-.34,1.75,1.75,0,0,0-.7-.13,1.45,1.45,0,0,0-.59.14,1.85,1.85,0,0,0-.55.39,2.56,2.56,0,0,0-.46.64,3.1,3.1,0,0,0-.26.86Z"></path><path class="cls-7" d="M324.27,297.65a3.48,3.48,0,0,1-1.45-.3,3.31,3.31,0,0,1-1.14-.8,3.56,3.56,0,0,1-.74-1.19,3.87,3.87,0,0,1-.26-1.44,4,4,0,0,1,.31-1.59,4.2,4.2,0,0,1,.82-1.27,4,4,0,0,1,1.19-.86,3.32,3.32,0,0,1,2.49-.13,2.85,2.85,0,0,1,.91.54,2.78,2.78,0,0,1,.62.84,2.56,2.56,0,0,1,.23,1.09v.36a.46.46,0,0,1-.46.44h-4.56a3.8,3.8,0,0,0,.25,1.3,2.88,2.88,0,0,0,.61.95,2.52,2.52,0,0,0,2.67.54,2.88,2.88,0,0,0,.93-.65l.08-.08.49.51-.06.08a4.24,4.24,0,0,1-.84.85,4.63,4.63,0,0,1-.82.5,3.1,3.1,0,0,1-.73.24A2.56,2.56,0,0,1,324.27,297.65Zm.13-7.54a3.12,3.12,0,0,0-1.3.29,3.78,3.78,0,0,0-1.13.81,4.33,4.33,0,0,0-.78,1.21,3.89,3.89,0,0,0-.29,1.5,3.69,3.69,0,0,0,.25,1.36,3.26,3.26,0,0,0,3.12,2.14,2.77,2.77,0,0,0,.49-.06,3.32,3.32,0,0,0,.68-.22,4,4,0,0,0,.78-.48,4.19,4.19,0,0,0,.73-.73l-.2-.21a2.66,2.66,0,0,1-2.91.62,2.55,2.55,0,0,1-.91-.59,3,3,0,0,1-.66-1,3.93,3.93,0,0,1-.27-1.49v-.12h4.78c.09,0,.2,0,.24-.24v-.33a2.22,2.22,0,0,0-.22-1,2.54,2.54,0,0,0-.56-.77,2.48,2.48,0,0,0-.84-.49A3.1,3.1,0,0,0,324.4,290.11Zm.87,2.67H322l0-.13a3,3,0,0,1,.27-.89,2.87,2.87,0,0,1,.48-.67,1.8,1.8,0,0,1,.59-.41,1.76,1.76,0,0,1,1.37,0,1.71,1.71,0,0,1,.56.37,1.79,1.79,0,0,1,.34.56,1.85,1.85,0,0,1,.12.67.61.61,0,0,1-.1.39A.49.49,0,0,1,325.27,292.78Zm-3-.22h3a.4.4,0,0,0,.24-.05.43.43,0,0,0,.05-.25,1.63,1.63,0,0,0-.11-.59,1.34,1.34,0,0,0-.3-.48,1.19,1.19,0,0,0-.48-.32,1.49,1.49,0,0,0-1.19,0,1.84,1.84,0,0,0-.52.37,2.58,2.58,0,0,0-.44.61A2.74,2.74,0,0,0,322.29,292.56Z"></path><path class="cls-7" d="M330.51,287.65c0,.2,0,.43,0,.69s0,.52,0,.78,0,.5,0,.73,0,.41,0,.55l2.11,0,.1.08,0,.63h-2.18v4a2.86,2.86,0,0,0,.09.79,1.47,1.47,0,0,0,.26.5.87.87,0,0,0,.39.25,1.53,1.53,0,0,0,.49.07,2.74,2.74,0,0,0,.56-.06l.58-.13.09.45a7.49,7.49,0,0,1-1,.4,3.78,3.78,0,0,1-1.07.17,2,2,0,0,1-.66-.1,1.27,1.27,0,0,1-.54-.31,1.46,1.46,0,0,1-.37-.59,2.86,2.86,0,0,1-.12-.89v-1.05c0-.33,0-.77,0-1.33v-2.15H328l-.09-.08.05-.48,1.15-.09v-1c0-.2,0-.41,0-.63v-.61l.38-.16.38-.15.33-.14.22-.12Z"></path><path class="cls-7" d="M330.76,297.6a2.24,2.24,0,0,1-.7-.1,1.48,1.48,0,0,1-.58-.34,1.54,1.54,0,0,1-.39-.63,2.8,2.8,0,0,1-.14-.93v-.34c0-.15,0-.39,0-.72s0-.76,0-1.32v-2h-1.05l-.16-.16.07-.63,1.14-.08v-.93c0-.2,0-.4,0-.61s0-.43,0-.63v-.08l.46-.18.38-.16a3.37,3.37,0,0,0,.32-.14l.2-.1.06,0,.26.14v.07c0,.2,0,.43,0,.68l0,.78c0,.26,0,.5,0,.73s0,.31,0,.43l2.05,0,.17.15-.05.79h-2.17v3.86a2.63,2.63,0,0,0,.09.76,1.2,1.2,0,0,0,.24.45.69.69,0,0,0,.34.22,2.06,2.06,0,0,0,1,0l.58-.13.11,0,.13.64-.08,0a6.94,6.94,0,0,1-1.05.41A4,4,0,0,1,330.76,297.6ZM328,291h1.18v2.26c0,.56,0,1,0,1.33v1.05a2.55,2.55,0,0,0,.12.85,1.32,1.32,0,0,0,.34.55,1.28,1.28,0,0,0,.49.29,3,3,0,0,0,1.67-.08,6.55,6.55,0,0,0,.94-.36l0-.24-.47.1a2.3,2.3,0,0,1-1.11,0,.92.92,0,0,1-.44-.29,1.25,1.25,0,0,1-.28-.54,2.65,2.65,0,0,1-.1-.82V291h2.18l0-.47,0,0-2.18,0v-.11c0-.14,0-.33,0-.56s0-.47,0-.73l0-.78c0-.23,0-.43,0-.61h0l-.17.09-.34.14-.38.16-.31.12v.54c0,.23,0,.43,0,.63v1.13l-1.16.09,0,.34Z"></path><path class="cls-7" d="M337.4,297.29h-.95l-1.15,0-.93,0h-.81l0-.4a3.76,3.76,0,0,0,.64-.1.72.72,0,0,0,.38-.23.89.89,0,0,0,.18-.44,4.72,4.72,0,0,0,.05-.75v-3.25a3.51,3.51,0,0,0,0-.54.61.61,0,0,0-.16-.31.77.77,0,0,0-.34-.17q-.22-.06-.6-.12l0-.36.77-.16.73-.16.61-.16a2.88,2.88,0,0,0,.4-.14l.12.1c0,.2,0,.42-.06.65s0,.46,0,.69,0,.44,0,.64v3.8a2.09,2.09,0,0,0,0,.48.41.41,0,0,0,.16.27.89.89,0,0,0,.39.14c.18,0,.41.05.72.06ZM334.53,287a.85.85,0,0,1,.9-.92,1,1,0,0,1,.68.25,1,1,0,0,1,0,1.33,1,1,0,0,1-.68.25.84.84,0,0,1-.9-.91Z"></path><path class="cls-7" d="M337.51,297.4h-1.06c-.67,0-1.41,0-2.08,0h-.91l0-.61h.11a3.48,3.48,0,0,0,.62-.1.67.67,0,0,0,.33-.19.78.78,0,0,0,.15-.39,4.57,4.57,0,0,0,0-.73v-3.25a3.36,3.36,0,0,0,0-.52.45.45,0,0,0-.12-.25.7.7,0,0,0-.3-.14l-.59-.12-.08,0-.06-.54.1,0,.77-.16c.26-.05.5-.1.72-.16l.61-.16a2.66,2.66,0,0,0,.38-.13l.06,0,.23.18v.06c0,.21,0,.42-.06.65s0,.46,0,.68,0,.44,0,.64,0,.38,0,.53v3.27a1.82,1.82,0,0,0,0,.45.31.31,0,0,0,.12.21.64.64,0,0,0,.34.12l.7.06h.12Zm-2.21-.25h1.16l.84,0v-.24l-.61-.06a1,1,0,0,1-.45-.16.56.56,0,0,1-.2-.34,2.35,2.35,0,0,1,0-.5v-3.8c0-.2,0-.42,0-.65s0-.45,0-.68a5.54,5.54,0,0,1,.06-.6l0,0-.35.11c-.18.05-.38.11-.61.16s-.47.12-.73.17l-.68.14,0,.17c.21,0,.39.07.53.11a.89.89,0,0,1,.39.2.66.66,0,0,1,.19.37,3.82,3.82,0,0,1,0,.56v3.25a5,5,0,0,1,0,.77,1,1,0,0,1-.2.49.84.84,0,0,1-.43.27,3.45,3.45,0,0,1-.56.09v.19l.69,0Zm.13-9.09a1,1,0,1,1,0-2.05,1,1,0,0,1,.76.28,1.1,1.1,0,0,1,0,1.49A1.08,1.08,0,0,1,335.43,288.06Zm0-1.83a.76.76,0,0,0-.58.22.81.81,0,0,0-.21.58.82.82,0,0,0,.21.59.76.76,0,0,0,.58.22.79.79,0,0,0,.6-.22.78.78,0,0,0,.22-.59.78.78,0,0,0-.22-.58A.83.83,0,0,0,335.43,286.23Z"></path><path class="cls-7" d="M344.64,295.72a3,3,0,0,1-.54.77,3.35,3.35,0,0,1-.74.56,3.13,3.13,0,0,1-.84.36,3.42,3.42,0,0,1-.89.13,3.22,3.22,0,0,1-1.36-.29,3.6,3.6,0,0,1-1.06-.78,3.35,3.35,0,0,1-.69-1.11,3.63,3.63,0,0,1-.25-1.35,3.68,3.68,0,0,1,.34-1.58,4.28,4.28,0,0,1,.91-1.27,4.2,4.2,0,0,1,1.33-.85,4.07,4.07,0,0,1,1.6-.31,4.62,4.62,0,0,1,.82.07,2.93,2.93,0,0,1,.81.29.54.54,0,0,1,.24.23.68.68,0,0,1,.07.27.79.79,0,0,1-.18.47,1.5,1.5,0,0,1-.57.44h-.06a3.49,3.49,0,0,0-.88-.7,2.13,2.13,0,0,0-1-.22,1.88,1.88,0,0,0-.91.21,2,2,0,0,0-.65.56,2.49,2.49,0,0,0-.39.8,2.91,2.91,0,0,0-.14.93,3.75,3.75,0,0,0,.18,1.16,3.15,3.15,0,0,0,.51,1,2.55,2.55,0,0,0,.82.67,2.4,2.4,0,0,0,1.12.25,2.66,2.66,0,0,0,1.14-.25,2.08,2.08,0,0,0,.88-.76Z"></path><path class="cls-7" d="M341.63,297.65a3.3,3.3,0,0,1-1.41-.3,3.5,3.5,0,0,1-1.09-.8,3.61,3.61,0,0,1-.72-1.15,3.81,3.81,0,0,1-.25-1.39,3.66,3.66,0,0,1,.35-1.62,4.25,4.25,0,0,1,.94-1.31,4.17,4.17,0,0,1,1.36-.87,4.42,4.42,0,0,1,2.48-.25,2.83,2.83,0,0,1,.84.3.66.66,0,0,1,.29.28.8.8,0,0,1,.08.33.9.9,0,0,1-.2.52,1.63,1.63,0,0,1-.61.48h-.16l0,0a3.7,3.7,0,0,0-.85-.67,1.92,1.92,0,0,0-.92-.21,1.79,1.79,0,0,0-.86.2,1.92,1.92,0,0,0-.61.52,2.77,2.77,0,0,0-.38.77,3.26,3.26,0,0,0-.13.9,3.46,3.46,0,0,0,.18,1.12,3,3,0,0,0,.49.95,2.55,2.55,0,0,0,.78.64,2.31,2.31,0,0,0,1.07.24,2.58,2.58,0,0,0,1.09-.24,1.92,1.92,0,0,0,.83-.72l.07-.11.52.46,0,.08a2.81,2.81,0,0,1-.56.8,3.92,3.92,0,0,1-.76.58,3.51,3.51,0,0,1-.87.37A3.3,3.3,0,0,1,341.63,297.65Zm.82-7.54a4.09,4.09,0,0,0-1.56.3,4.14,4.14,0,0,0-1.29.83,4.08,4.08,0,0,0-.89,1.24,3.56,3.56,0,0,0-.33,1.53,3.49,3.49,0,0,0,.24,1.3,3.38,3.38,0,0,0,.67,1.09,3.19,3.19,0,0,0,1,.74,3.08,3.08,0,0,0,2.17.16,3.65,3.65,0,0,0,.82-.34,3.46,3.46,0,0,0,.71-.55,2.53,2.53,0,0,0,.48-.66l-.19-.18a2.26,2.26,0,0,1-.86.7,2.81,2.81,0,0,1-1.18.25,2.58,2.58,0,0,1-1.17-.26,2.91,2.91,0,0,1-.86-.7,3.53,3.53,0,0,1-.53-1,3.9,3.9,0,0,1-.18-1.19,3.45,3.45,0,0,1,.14-1,2.58,2.58,0,0,1,.41-.83,2.08,2.08,0,0,1,.69-.59,2.06,2.06,0,0,1,1-.22,2.15,2.15,0,0,1,1,.24,3.48,3.48,0,0,1,.86.67,1.4,1.4,0,0,0,.5-.39.69.69,0,0,0,.15-.39.64.64,0,0,0,0-.23.42.42,0,0,0-.19-.18,2.72,2.72,0,0,0-.78-.28A5.52,5.52,0,0,0,342.45,290.11Z"></path><path class="cls-7" d="M362.24,290.67a5.28,5.28,0,0,0-.87.14,1.87,1.87,0,0,0-.59.25,1.45,1.45,0,0,0-.42.4,4.79,4.79,0,0,0-.4.6c-.18.31-.36.62-.55.93a8.57,8.57,0,0,1-.63.94l.56.67.49.6c.19.24.37.46.55.66a4.61,4.61,0,0,0,.58.51,2.77,2.77,0,0,0,.69.34,2.81,2.81,0,0,0,.86.15l0,.44h-2.91a9.72,9.72,0,0,0-.81-1.23q-.4-.54-.84-1c-.27.35-.55.67-.84,1a6.72,6.72,0,0,1-.93.79,4.71,4.71,0,0,1-1,.53,3.68,3.68,0,0,1-1.2.2,3.18,3.18,0,0,1-1.21-.23,2.9,2.9,0,0,1-1-.63,2.84,2.84,0,0,1-.65-.93,2.65,2.65,0,0,1-.24-1.12,3.2,3.2,0,0,1,.21-1.14,4.15,4.15,0,0,1,.55-1,6.06,6.06,0,0,1,.8-.88,6.21,6.21,0,0,1,1-.68,4.77,4.77,0,0,1-.89-1.11,2.62,2.62,0,0,1-.34-1.36,2.42,2.42,0,0,1,.24-1.09,2.57,2.57,0,0,1,.65-.84A2.84,2.84,0,0,1,354,286a3.4,3.4,0,0,1,1.11-.19,2.68,2.68,0,0,1,.93.16,2.49,2.49,0,0,1,.8.44,2.18,2.18,0,0,1,.55.69,2,2,0,0,1,.21.92,2.21,2.21,0,0,1-.18.91,2.69,2.69,0,0,1-.5.71,4,4,0,0,1-.72.6l-.84.55c.51.4,1,.84,1.56,1.3s1,.94,1.45,1.41a13.89,13.89,0,0,0,.8-1.24,2.1,2.1,0,0,0,.3-1,.42.42,0,0,0-.1-.3.74.74,0,0,0-.25-.17l-.36-.08-.43,0,0-.42h3.89Zm-4.77,3.88c-.25-.28-.5-.54-.76-.78s-.54-.5-.84-.76-.61-.53-.95-.81l-1.12-.92a3.45,3.45,0,0,0-1.18,1.16,2.9,2.9,0,0,0-.44,1.54,2.41,2.41,0,0,0,.18.93,2.47,2.47,0,0,0,.49.77,2.51,2.51,0,0,0,.75.52,2.43,2.43,0,0,0,.94.19,2.51,2.51,0,0,0,.86-.15,3.52,3.52,0,0,0,.8-.4,4.23,4.23,0,0,0,.7-.58A7.38,7.38,0,0,0,357.47,294.55Zm-2.68-4.2a3.08,3.08,0,0,0,1.11-.86,2,2,0,0,0,.41-1.29,2.12,2.12,0,0,0-.11-.66,1.94,1.94,0,0,0-.3-.57,1.35,1.35,0,0,0-.49-.4,1.38,1.38,0,0,0-.65-.15,1.24,1.24,0,0,0-.58.13,1.39,1.39,0,0,0-.44.36,1.51,1.51,0,0,0-.27.52,2.1,2.1,0,0,0-.09.61,2,2,0,0,0,.11.72,2.11,2.11,0,0,0,.3.6,3.17,3.17,0,0,0,.45.52C354.41,290,354.59,290.19,354.79,290.35Z"></path><path class="cls-7" d="M353.9,297.66a3.29,3.29,0,0,1-1.26-.24,2.93,2.93,0,0,1-1-.65,3,3,0,0,1-.67-1,2.7,2.7,0,0,1-.25-1.17,3.41,3.41,0,0,1,.21-1.18,4.4,4.4,0,0,1,.57-1.07,6.27,6.27,0,0,1,.82-.89,5.59,5.59,0,0,1,.85-.62,5.38,5.38,0,0,1-.81-1,2.75,2.75,0,0,1-.35-1.42,2.51,2.51,0,0,1,.25-1.14,2.75,2.75,0,0,1,.67-.88,3.06,3.06,0,0,1,1-.56,3.27,3.27,0,0,1,2.12,0,2.69,2.69,0,0,1,.83.46,2.18,2.18,0,0,1,.58.73,2,2,0,0,1,.23,1,2.18,2.18,0,0,1-.2.95,2.59,2.59,0,0,1-.52.75,4.08,4.08,0,0,1-.74.61l-.71.47c.48.38,1,.78,1.44,1.21s.95.87,1.37,1.31a11.63,11.63,0,0,0,.71-1.11,2.05,2.05,0,0,0,.29-.91.34.34,0,0,0-.07-.22.49.49,0,0,0-.21-.14,1.45,1.45,0,0,0-.34-.07l-.41,0h-.12l0-.64h.11l.87,0h3.12l.06.64h-.11a4.83,4.83,0,0,0-.85.14,1.93,1.93,0,0,0-.56.23,1.52,1.52,0,0,0-.39.37c-.12.16-.25.37-.39.6l-.55.93c-.18.29-.37.58-.59.87.19.22.36.42.5.6l.49.61c.2.25.38.46.55.65a3.78,3.78,0,0,0,.57.5,2.51,2.51,0,0,0,1.48.46h.12l0,.66H362l-1.07,0H359.5l0-.05a11.49,11.49,0,0,0-.79-1.23c-.25-.31-.5-.62-.75-.9-.25.3-.51.6-.77.88a7.07,7.07,0,0,1-1,.8,5,5,0,0,1-1.08.55A3.82,3.82,0,0,1,353.9,297.66Zm1.16-11.79a3.23,3.23,0,0,0-1.08.19,2.87,2.87,0,0,0-.9.52,2.58,2.58,0,0,0-.62.81,2.34,2.34,0,0,0-.23,1,2.58,2.58,0,0,0,.32,1.3,5.14,5.14,0,0,0,.88,1.09l.11.11-.13.07a5,5,0,0,0-.94.67,5.31,5.31,0,0,0-.79.85,4.29,4.29,0,0,0-.54,1,3.25,3.25,0,0,0-.2,1.11,2.65,2.65,0,0,0,.23,1.08,3,3,0,0,0,.62.89,2.8,2.8,0,0,0,.94.6,3.33,3.33,0,0,0,2.33,0,4.42,4.42,0,0,0,1-.51A6,6,0,0,0,357,296c.29-.3.57-.63.84-1l.08-.1.09.1c.28.32.57.66.84,1a10.24,10.24,0,0,1,.78,1.19H360l.57,0h1.84V297a2.64,2.64,0,0,1-.78-.14,2.79,2.79,0,0,1-.71-.36,3.74,3.74,0,0,1-.6-.53c-.18-.19-.36-.41-.56-.66l-.49-.6-.56-.67-.06-.07.06-.07a10.87,10.87,0,0,0,.63-.93l.55-.92a5.17,5.17,0,0,1,.4-.62,1.83,1.83,0,0,1,.45-.43,2.36,2.36,0,0,1,.62-.26,4.37,4.37,0,0,1,.77-.13v-.21h-3.69v.2l.32,0a1.63,1.63,0,0,1,.38.09.69.69,0,0,1,.3.2.51.51,0,0,1,.13.37,2.09,2.09,0,0,1-.32,1,9.78,9.78,0,0,1-.8,1.25l-.08.11-.09-.1c-.44-.46-.93-.93-1.45-1.39s-1-.9-1.55-1.3l-.13-.1,1-.64a3.66,3.66,0,0,0,.7-.58,2.47,2.47,0,0,0,.48-.68,2.13,2.13,0,0,0,.17-.86,1.92,1.92,0,0,0-.2-.87,2.12,2.12,0,0,0-.52-.66A2.49,2.49,0,0,0,356,286,2.68,2.68,0,0,0,355.06,285.87Zm-.52,10.63a2.54,2.54,0,0,1-1-.2,2.4,2.4,0,0,1-.78-.55,2.29,2.29,0,0,1-.51-.8,2.43,2.43,0,0,1-.19-1,3,3,0,0,1,.45-1.6,3.57,3.57,0,0,1,1.22-1.19l.07,0,.06.05,1.12.91,1,.81.83.77c.27.25.53.51.77.78l.06.07-.05.07a5.71,5.71,0,0,1-.58.72,3.76,3.76,0,0,1-.72.61,3.9,3.9,0,0,1-.82.4A2.51,2.51,0,0,1,354.54,296.5Zm-.75-5.08a3.38,3.38,0,0,0-1.08,1.08,2.76,2.76,0,0,0-.42,1.48,2.33,2.33,0,0,0,.64,1.62,2.14,2.14,0,0,0,.72.49,2.37,2.37,0,0,0,1.72,0,3.25,3.25,0,0,0,.77-.38,4,4,0,0,0,.68-.57,7.14,7.14,0,0,0,.5-.62c-.22-.25-.45-.48-.69-.71s-.54-.5-.83-.76l-.95-.81Zm1-.94,0-.05a6.62,6.62,0,0,1-.56-.47,2.87,2.87,0,0,1-.46-.53,3.11,3.11,0,0,1-.32-.63,2.53,2.53,0,0,1-.11-.76,2.25,2.25,0,0,1,.09-.64,2,2,0,0,1,.29-.56,1.44,1.44,0,0,1,1.81-.37,1.57,1.57,0,0,1,.53.43,2.08,2.08,0,0,1,.32.61,2.26,2.26,0,0,1,.11.69,2.17,2.17,0,0,1-.43,1.36,3.21,3.21,0,0,1-1.15.89Zm0-4a1.15,1.15,0,0,0-.53.12,1.44,1.44,0,0,0-.4.33,1.38,1.38,0,0,0-.25.48,1.9,1.9,0,0,0-.09.58,2.12,2.12,0,0,0,.11.69,2.16,2.16,0,0,0,.28.57,3.35,3.35,0,0,0,.43.49c.15.14.32.28.49.42a3,3,0,0,0,1-.79,1.93,1.93,0,0,0,.37-1.22,1.83,1.83,0,0,0-.1-.62,1.79,1.79,0,0,0-.28-.55,1.36,1.36,0,0,0-.45-.37A1.32,1.32,0,0,0,354.76,286.53Z"></path><path class="cls-7" d="M375.62,292.9H371.5l-.95,2.44a3.62,3.62,0,0,0-.25.89.44.44,0,0,0,.31.44,3.59,3.59,0,0,0,1.08.16l0,.45-1,0h-2.07l-.94,0,0-.42a5.81,5.81,0,0,0,.79-.12,1.13,1.13,0,0,0,.53-.3,2.2,2.2,0,0,0,.43-.59,11.17,11.17,0,0,0,.48-1l3.55-8.36c.1-.25.18-.46.25-.65s.15-.38.23-.6l.78-.1c.09.4.18.76.29,1.09s.2.63.29.9l2.78,8.06a7.67,7.67,0,0,0,.33.85,1.34,1.34,0,0,0,.35.47,1,1,0,0,0,.5.23,5.81,5.81,0,0,0,.78.1l0,.45-1.14,0h-2.3l-1.05,0,0-.42a3.91,3.91,0,0,0,1-.17.43.43,0,0,0,.3-.44,1.32,1.32,0,0,0-.05-.31l-.13-.41Zm-3.83-.71h3.59l-1.65-4.9Z"></path><path class="cls-7" d="M380,297.39h-1.25c-.76,0-1.52,0-2.3,0h-1.16l-.05-.64h.11a3.82,3.82,0,0,0,1-.15.34.34,0,0,0,.22-.34,1.17,1.17,0,0,0,0-.29q-.06-.16-.12-.39l-.86-2.55h-3.95l-.93,2.36a4,4,0,0,0-.24.85.35.35,0,0,0,.24.34,3.77,3.77,0,0,0,1,.15h.12l-.06.67h-1.13c-.69,0-1.35,0-2.06,0H367.5l0-.64h.11a4.42,4.42,0,0,0,.77-.11,1.09,1.09,0,0,0,.48-.27,2,2,0,0,0,.42-.56c.13-.25.29-.59.47-1l3.54-8.36c.1-.25.18-.46.25-.65l.26-.66.94-.12,0,.1c.08.37.18.73.28,1.08s.2.62.29.9l2.78,8.05q.2.54.33.84a1.29,1.29,0,0,0,.32.44.85.85,0,0,0,.45.2,5.85,5.85,0,0,0,.77.1h.11Zm-2.5-.25h2.29l0-.23a5.32,5.32,0,0,1-.69-.09,1.21,1.21,0,0,1-.55-.25,1.46,1.46,0,0,1-.37-.51,8.42,8.42,0,0,1-.34-.87l-2.78-8c-.09-.28-.19-.58-.29-.91s-.19-.65-.27-1l-.61.07-.21.54-.25.65-3.55,8.37a11.17,11.17,0,0,1-.48,1,2.42,2.42,0,0,1-.45.62,1.33,1.33,0,0,1-.59.33,4.49,4.49,0,0,1-.7.11l0,.2h.83c.72,0,1.38,0,2.08,0h.92v-.22a3.19,3.19,0,0,1-1-.17.54.54,0,0,1-.37-.54,3.75,3.75,0,0,1,.25-.93l1-2.51h4.28l.9,2.71c0,.15.09.29.12.41a1.16,1.16,0,0,1,.06.34.54.54,0,0,1-.37.54,3,3,0,0,1-.91.17l0,.2h2Zm-2-4.84h-3.92l2.11-5.33Zm-3.59-.23h3.27l-1.5-4.45Z"></path><path class="cls-7" d="M386.86,295.72a2.78,2.78,0,0,1-.55.77,3.3,3.3,0,0,1-.73.56,3.58,3.58,0,0,1-1.74.49,3.22,3.22,0,0,1-1.36-.29,3.6,3.6,0,0,1-1.06-.78,3.35,3.35,0,0,1-.69-1.11,3.63,3.63,0,0,1-.25-1.35,3.83,3.83,0,0,1,.34-1.58,4.23,4.23,0,0,1,3.84-2.43,4.62,4.62,0,0,1,.82.07,2.82,2.82,0,0,1,.81.29.54.54,0,0,1,.24.23.54.54,0,0,1,.07.27.85.85,0,0,1-.17.47,1.59,1.59,0,0,1-.57.44h-.07a3.47,3.47,0,0,0-.87-.7,2.18,2.18,0,0,0-1-.22,1.91,1.91,0,0,0-.91.21,2.06,2.06,0,0,0-.65.56,2.49,2.49,0,0,0-.39.8,3.22,3.22,0,0,0-.14.93,3.75,3.75,0,0,0,.18,1.16,3,3,0,0,0,.52,1,2.44,2.44,0,0,0,.82.67,2.37,2.37,0,0,0,1.12.25,2.62,2.62,0,0,0,1.13-.25,2,2,0,0,0,.88-.76Z"></path><path class="cls-7" d="M383.84,297.65a3.23,3.23,0,0,1-1.4-.3,3.43,3.43,0,0,1-1.1-.8,3.79,3.79,0,0,1-.72-1.15,4,4,0,0,1-.25-1.39,3.8,3.8,0,0,1,.35-1.62,4.25,4.25,0,0,1,.94-1.31,4.39,4.39,0,0,1,1.36-.87,4.44,4.44,0,0,1,2.48-.25,2.83,2.83,0,0,1,.84.3.61.61,0,0,1,.29.28.8.8,0,0,1,.08.33,1,1,0,0,1-.19.52,1.63,1.63,0,0,1-.61.48h-.16l0,0a3.7,3.7,0,0,0-.85-.67,1.92,1.92,0,0,0-.92-.21,1.85,1.85,0,0,0-.86.2,1.93,1.93,0,0,0-.61.53,2.34,2.34,0,0,0-.37.76,2.92,2.92,0,0,0-.13.9,3.45,3.45,0,0,0,.17,1.12,3,3,0,0,0,.49.95,2.48,2.48,0,0,0,.79.64,2.25,2.25,0,0,0,1.07.24,2.54,2.54,0,0,0,1.08-.24,1.87,1.87,0,0,0,.83-.72l.08-.11.51.46,0,.08a2.85,2.85,0,0,1-.57.79,3.61,3.61,0,0,1-.76.59,3.35,3.35,0,0,1-.87.37A3.2,3.2,0,0,1,383.84,297.65Zm.82-7.54a4,4,0,0,0-1.55.3,4.19,4.19,0,0,0-1.3.83,4.08,4.08,0,0,0-.89,1.24,3.6,3.6,0,0,0-.33,1.53,3.49,3.49,0,0,0,.24,1.3,3.44,3.44,0,0,0,.67,1.09,3.3,3.3,0,0,0,1,.74,3.08,3.08,0,0,0,2.17.16,3.37,3.37,0,0,0,1.53-.89,2.83,2.83,0,0,0,.49-.66l-.2-.18a2.21,2.21,0,0,1-.85.7,2.88,2.88,0,0,1-1.18.25,2.63,2.63,0,0,1-1.18-.26,2.75,2.75,0,0,1-.85-.7,3.31,3.31,0,0,1-.54-1,3.94,3.94,0,0,1-.18-1.19,3.39,3.39,0,0,1,.14-1,2.58,2.58,0,0,1,.41-.83A2.3,2.3,0,0,1,383,291a2.12,2.12,0,0,1,1-.22,2.15,2.15,0,0,1,1,.24,3.51,3.51,0,0,1,.87.67,1.61,1.61,0,0,0,.5-.39.74.74,0,0,0,.14-.39.46.46,0,0,0-.05-.23.37.37,0,0,0-.19-.18,2.72,2.72,0,0,0-.78-.28A5.52,5.52,0,0,0,384.66,290.11Z"></path><path class="cls-7" d="M391.92,293.3a1.34,1.34,0,0,0,0-.21v-.9a1.76,1.76,0,0,0-.3-1.05,1.13,1.13,0,0,0-1-.41,1.25,1.25,0,0,0-1,.47,1.57,1.57,0,0,0-.25.48,2.12,2.12,0,0,0-.08.57.81.81,0,0,1-.54.16,1.13,1.13,0,0,1-.54-.13.42.42,0,0,1-.25-.39.72.72,0,0,1,.15-.41,2.27,2.27,0,0,1,.41-.41,4.63,4.63,0,0,1,.56-.39,6.23,6.23,0,0,1,.63-.32,4.08,4.08,0,0,1,1.63-.36,2.61,2.61,0,0,1,.75.11,1.54,1.54,0,0,1,.6.33,1.6,1.6,0,0,1,.41.59,2.15,2.15,0,0,1,.15.85q0,.74,0,1.71c0,.65,0,1.36,0,2.15a1.36,1.36,0,0,0,.18.76.61.61,0,0,0,.52.27,1.24,1.24,0,0,0,.64-.21l.23.33a2.48,2.48,0,0,1-.7.45,2.29,2.29,0,0,1-.84.17,1.46,1.46,0,0,1-.79-.23,1.19,1.19,0,0,1-.49-.81l-.38.26a4.75,4.75,0,0,1-.6.35,5.1,5.1,0,0,1-.71.32,2.24,2.24,0,0,1-.73.14,1.78,1.78,0,0,1-.74-.15,1.87,1.87,0,0,1-.58-.4,2,2,0,0,1-.37-.58,1.85,1.85,0,0,1-.13-.7,1.63,1.63,0,0,1,.37-1.08,2.34,2.34,0,0,1,1-.7,8.81,8.81,0,0,1,1.16-.35A11.23,11.23,0,0,1,391.92,293.3Zm0,2.58c0-.35,0-.68,0-1s0-.67,0-1l-.67.1a4.54,4.54,0,0,0-.66.14,3.66,3.66,0,0,0-.61.22,1.91,1.91,0,0,0-.48.32.89.89,0,0,0-.31.71,1.39,1.39,0,0,0,.27.87.94.94,0,0,0,.82.36,2.18,2.18,0,0,0,.83-.18A3.33,3.33,0,0,0,391.9,295.88Z"></path><path class="cls-7" d="M389.54,297.65a1.9,1.9,0,0,1-1.79-1.2,2,2,0,0,1-.14-.74,1.76,1.76,0,0,1,.39-1.15,2.41,2.41,0,0,1,1-.73,8.84,8.84,0,0,1,1.17-.36,10.71,10.71,0,0,1,1.65-.27v-1a1.6,1.6,0,0,0-.28-1,1,1,0,0,0-.88-.37,1.22,1.22,0,0,0-.56.12,1.15,1.15,0,0,0-.38.31,1.42,1.42,0,0,0-.23.44,1.91,1.91,0,0,0-.08.54v.05l0,0a1,1,0,0,1-.61.18,1.35,1.35,0,0,1-.59-.14.55.55,0,0,1-.31-.49.85.85,0,0,1,.17-.47,2.53,2.53,0,0,1,.43-.44,6.55,6.55,0,0,1,.58-.4,3.82,3.82,0,0,1,.64-.32,4.07,4.07,0,0,1,1.67-.37,2.54,2.54,0,0,1,.78.11,1.64,1.64,0,0,1,1.08,1,2.29,2.29,0,0,1,.16.9c0,.47,0,1,0,1.71s0,1.31,0,2.15a1.21,1.21,0,0,0,.16.69c.2.3.58.3,1,0l.09,0,.33.5-.07.07a2.33,2.33,0,0,1-.73.46,1.82,1.82,0,0,1-1.73-.07,1.22,1.22,0,0,1-.5-.71l-.25.17-.6.35a5.53,5.53,0,0,1-.74.33A2.36,2.36,0,0,1,389.54,297.65Zm1.12-7a1.21,1.21,0,0,1,1.06.46,1.81,1.81,0,0,1,.33,1.11v.9a1.27,1.27,0,0,1,0,.22v.09h-.09a12.84,12.84,0,0,0-1.71.27,9.87,9.87,0,0,0-1.13.35,2.27,2.27,0,0,0-.92.67,1.6,1.6,0,0,0-.34,1,1.75,1.75,0,0,0,.12.65,1.84,1.84,0,0,0,.35.55,1.75,1.75,0,0,0,.54.38,1.85,1.85,0,0,0,1.39,0,4.91,4.91,0,0,0,.7-.3c.22-.12.42-.24.58-.35l.39-.26.13-.09,0,.16a1.06,1.06,0,0,0,.44.73,1.63,1.63,0,0,0,1.52.06,2.51,2.51,0,0,0,.6-.36l-.11-.17c-.51.27-1,.22-1.22-.15a1.4,1.4,0,0,1-.21-.82c0-.85,0-1.55,0-2.15s0-1.24,0-1.71a2,2,0,0,0-.14-.81,1.57,1.57,0,0,0-.37-.55,1.66,1.66,0,0,0-.57-.31,2.71,2.71,0,0,0-.71-.1,4,4,0,0,0-1.58.35,5.12,5.12,0,0,0-.62.31,4.51,4.51,0,0,0-.55.39,2.05,2.05,0,0,0-.39.39.63.63,0,0,0-.13.34.31.31,0,0,0,.19.29,1,1,0,0,0,.92,0,2.43,2.43,0,0,1,.08-.54,1.61,1.61,0,0,1,.27-.52,1.39,1.39,0,0,1,.46-.37A1.37,1.37,0,0,1,390.66,290.62Zm-.38,6.06a1.05,1.05,0,0,1-.91-.4,1.55,1.55,0,0,1-.29-.94,1,1,0,0,1,.35-.79,1.91,1.91,0,0,1,.5-.34,3.38,3.38,0,0,1,.63-.23,5.32,5.32,0,0,1,.67-.14l.68-.1H392v.12c0,.35,0,.69,0,1s0,.67,0,1v.05l0,0a3.11,3.11,0,0,1-.82.53A2.21,2.21,0,0,1,390.28,296.68Zm1.53-2.7-.54.08a4.69,4.69,0,0,0-.65.14,3,3,0,0,0-.59.21,2,2,0,0,0-.45.3.79.79,0,0,0-.28.63,1.28,1.28,0,0,0,.25.81.83.83,0,0,0,.73.31,2,2,0,0,0,.78-.18,2.56,2.56,0,0,0,.72-.45c0-.33,0-.65,0-1S391.81,294.28,391.81,294Z"></path><path class="cls-7" d="M402.43,284c0,.21,0,.45-.06.73s0,.56-.05.84,0,.55,0,.79,0,.45,0,.6v8.45a3.94,3.94,0,0,0,0,.56.53.53,0,0,0,.17.31.93.93,0,0,0,.4.17l.72.12,0,.34-.81.13-.76.14-.62.15-.38.1-.13-.1v-.8a4.29,4.29,0,0,1-1.22.74,3.46,3.46,0,0,1-1.22.22,3,3,0,0,1-2.21-.94,3.09,3.09,0,0,1-.67-1.08,3.73,3.73,0,0,1-.25-1.41,3.88,3.88,0,0,1,.34-1.64,4,4,0,0,1,.93-1.29,4.23,4.23,0,0,1,1.36-.85,4.43,4.43,0,0,1,1.67-.31l.54,0a4.45,4.45,0,0,1,.73.12v-4.1a3.91,3.91,0,0,0,0-.55.53.53,0,0,0-.18-.32,1,1,0,0,0-.41-.18l-.72-.14,0-.34.9-.17.82-.16.64-.15.38-.11ZM401,291.4a2,2,0,0,0-.8-.57,2.44,2.44,0,0,0-.95-.19,2,2,0,0,0-1,.25,2.11,2.11,0,0,0-.71.65,3.23,3.23,0,0,0-.43.94,4.48,4.48,0,0,0-.14,1.1,4.15,4.15,0,0,0,.15,1.12,3,3,0,0,0,.47.95,2.27,2.27,0,0,0,.76.65,2,2,0,0,0,1,.25,2.52,2.52,0,0,0,.93-.16A2.41,2.41,0,0,0,401,296Z"></path><path class="cls-7" d="M398.51,297.64a3.15,3.15,0,0,1-2.29-1,3.33,3.33,0,0,1-.7-1.12,4.16,4.16,0,0,1-.25-1.45,4,4,0,0,1,.35-1.68,4.09,4.09,0,0,1,.95-1.33,4.68,4.68,0,0,1,1.4-.88,4.63,4.63,0,0,1,1.71-.31l.55,0c.2,0,.41.05.61.09v-4a3.7,3.7,0,0,0,0-.53.4.4,0,0,0-.15-.26.87.87,0,0,0-.36-.15c-.16,0-.4-.09-.71-.14h-.09l-.05-.54.1,0c.3,0,.6-.1.9-.16l.82-.16.64-.15.37-.1.05,0,.22.17v.07c0,.2-.05.44-.07.72s0,.56-.05.84,0,.54,0,.79,0,.44,0,.59v8.45a3.75,3.75,0,0,0,0,.54.41.41,0,0,0,.14.25.77.77,0,0,0,.35.14l.7.12h.09l.07.54h-.11l-.8.13-.75.14-.62.15-.38.1-.06,0-.21-.17v-.63a4,4,0,0,1-1.07.61A3.52,3.52,0,0,1,398.51,297.64Zm1.17-7.53a4.41,4.41,0,0,0-1.63.3,4.33,4.33,0,0,0-1.33.83,3.92,3.92,0,0,0-.9,1.26,3.8,3.8,0,0,0-.33,1.59,3.68,3.68,0,0,0,.24,1.37,3.27,3.27,0,0,0,.65,1.05,2.89,2.89,0,0,0,1,.66,3.15,3.15,0,0,0,2.36,0,4.16,4.16,0,0,0,1.18-.72l.18-.15v1l0,0,.34-.09a5.32,5.32,0,0,1,.62-.14c.23-.06.49-.1.76-.15l.7-.11,0-.15-.64-.11a1.11,1.11,0,0,1-.45-.19.62.62,0,0,1-.21-.38,3.09,3.09,0,0,1,0-.58V287c0-.15,0-.35,0-.6s0-.51,0-.79,0-.57.05-.85,0-.47.07-.67l0,0-.33.09-.65.15-.82.16c-.26.06-.53.1-.8.15l0,.15.64.13a1,1,0,0,1,.46.2.63.63,0,0,1,.22.39,4.24,4.24,0,0,1,0,.57v4.24l-.13,0a4.58,4.58,0,0,0-.71-.12Zm-.38,6.55a2.28,2.28,0,0,1-1.09-.26,2.38,2.38,0,0,1-.79-.69,2.91,2.91,0,0,1-.49-1,4.37,4.37,0,0,1-.15-1.15,4.32,4.32,0,0,1,.14-1.13,3.19,3.19,0,0,1,.44-1,2.28,2.28,0,0,1,.76-.69,2.18,2.18,0,0,1,1.08-.26,2.68,2.68,0,0,1,1,.19,2.23,2.23,0,0,1,.85.6l0,0V296l0,0a2.5,2.5,0,0,1-.75.43A2.74,2.74,0,0,1,399.3,296.66Zm-.1-5.91a1.86,1.86,0,0,0-1,.24,2,2,0,0,0-.68.62,2.75,2.75,0,0,0-.41.9,4.3,4.3,0,0,0-.14,1.07,3.93,3.93,0,0,0,.15,1.09,2.77,2.77,0,0,0,.45.91,2.05,2.05,0,0,0,.72.62,2,2,0,0,0,1,.24,2.48,2.48,0,0,0,.89-.15,2.72,2.72,0,0,0,.65-.36v-4.49a2,2,0,0,0-.73-.51A2.46,2.46,0,0,0,399.2,290.75Z"></path><path class="cls-7" d="M410.7,295.92a4.94,4.94,0,0,1-.81.83,4.85,4.85,0,0,1-.81.49,3.35,3.35,0,0,1-.7.23,2.41,2.41,0,0,1-.51.07,3.45,3.45,0,0,1-1.41-.29,3.34,3.34,0,0,1-1.1-.78,3.5,3.5,0,0,1-.72-1.15,4.08,4.08,0,0,1,.05-2.94,4.07,4.07,0,0,1,.8-1.24,3.67,3.67,0,0,1,1.16-.84A3.15,3.15,0,0,1,408,290a3.11,3.11,0,0,1,1.06.18,2.7,2.7,0,0,1,.87.51,2.51,2.51,0,0,1,.6.8,2.61,2.61,0,0,1,.22,1.06v.17l0,.17c0,.22-.15.33-.34.33h-4.67a3.93,3.93,0,0,0,.26,1.46,2.72,2.72,0,0,0,.63,1,2.36,2.36,0,0,0,.88.56,2.66,2.66,0,0,0,.95.18,2.46,2.46,0,0,0,1.92-.85Zm-1.83-3.25c.17,0,.27,0,.32-.09a.54.54,0,0,0,.08-.32,1.9,1.9,0,0,0-.11-.63,1.65,1.65,0,0,0-.33-.52,1.39,1.39,0,0,0-.51-.34,1.75,1.75,0,0,0-.7-.13,1.45,1.45,0,0,0-.59.14,2,2,0,0,0-.56.39,2.81,2.81,0,0,0-.45.64,3.1,3.1,0,0,0-.26.86Z"></path><path class="cls-7" d="M407.87,297.65a3.48,3.48,0,0,1-1.45-.3,3.45,3.45,0,0,1-1.15-.8,3.71,3.71,0,0,1-.73-1.19,3.88,3.88,0,0,1-.27-1.44,4,4,0,0,1,.32-1.59,4.2,4.2,0,0,1,.82-1.27,3.9,3.9,0,0,1,1.19-.86,3.37,3.37,0,0,1,2.49-.13,2.85,2.85,0,0,1,.91.54,2.78,2.78,0,0,1,.62.84,2.56,2.56,0,0,1,.23,1.09v.36c-.08.38-.32.44-.46.44h-4.56a3.8,3.8,0,0,0,.25,1.3,2.88,2.88,0,0,0,.61.95,2.5,2.5,0,0,0,2.67.54,2.75,2.75,0,0,0,.92-.65l.09-.08.49.51-.06.08a4.24,4.24,0,0,1-.84.85,5,5,0,0,1-.82.5,3.1,3.1,0,0,1-.73.24A2.56,2.56,0,0,1,407.87,297.65Zm.12-7.54a3.11,3.11,0,0,0-1.29.29,3.78,3.78,0,0,0-1.13.81,4.33,4.33,0,0,0-.78,1.21,4,4,0,0,0-.05,2.86,3.59,3.59,0,0,0,.7,1.12,3.23,3.23,0,0,0,1.07.75,3.37,3.37,0,0,0,1.36.27,3,3,0,0,0,.49-.06,3.07,3.07,0,0,0,.67-.22,4.07,4.07,0,0,0,.79-.48,4.19,4.19,0,0,0,.73-.73l-.2-.21a2.92,2.92,0,0,1-.92.62,2.78,2.78,0,0,1-2,0,2.68,2.68,0,0,1-.92-.59,3.1,3.1,0,0,1-.66-1,3.93,3.93,0,0,1-.26-1.49v-.12h4.79c.09,0,.19,0,.23-.24v-.33a2.36,2.36,0,0,0-.21-1,2.54,2.54,0,0,0-.56-.77,2.69,2.69,0,0,0-.84-.49A3.12,3.12,0,0,0,408,290.11Zm.88,2.67h-3.24l0-.13a3,3,0,0,1,.27-.89,2.78,2.78,0,0,1,.47-.66,1.89,1.89,0,0,1,.59-.42,1.74,1.74,0,0,1,1.38,0,1.71,1.71,0,0,1,.56.37,1.79,1.79,0,0,1,.34.56,1.89,1.89,0,0,1,.12.67.61.61,0,0,1-.1.39A.5.5,0,0,1,408.87,292.78Zm-3-.22h3a.4.4,0,0,0,.24-.05.61.61,0,0,0,0-.25,1.63,1.63,0,0,0-.1-.59,1.5,1.5,0,0,0-.3-.48,1.27,1.27,0,0,0-.48-.32,1.53,1.53,0,0,0-1.19,0,2,2,0,0,0-.53.37,2.55,2.55,0,0,0-.43.61A2.74,2.74,0,0,0,405.89,292.56Z"></path><path class="cls-7" d="M415.53,297.29h-.89l-1.09,0-.95,0h-.82l0-.4a3.21,3.21,0,0,0,.67-.11.83.83,0,0,0,.4-.23.81.81,0,0,0,.18-.43,4.94,4.94,0,0,0,0-.75v-3.2a3.75,3.75,0,0,0,0-.54.58.58,0,0,0-.16-.31.73.73,0,0,0-.34-.18c-.16,0-.35-.09-.6-.13l0-.34.66-.15.69-.18.62-.18.48-.16.15.1c0,.17,0,.34-.07.51s0,.34,0,.51a5.19,5.19,0,0,1,1.36-.82,3.5,3.5,0,0,1,1.37-.3,2,2,0,0,1,1.1.3,1.86,1.86,0,0,1,.74,1,6.13,6.13,0,0,1,1.46-.94,3.63,3.63,0,0,1,1.47-.33,2.3,2.3,0,0,1,.79.14,1.65,1.65,0,0,1,.65.45,2.39,2.39,0,0,1,.44.79,3.8,3.8,0,0,1,.16,1.15v3.35a3,3,0,0,0,0,.48.46.46,0,0,0,.16.27.71.71,0,0,0,.35.14c.16,0,.37.05.63.06l0,.46h-.87l-1.05,0-.92,0h-.79l0-.4a2.75,2.75,0,0,0,.61-.1.63.63,0,0,0,.36-.2.74.74,0,0,0,.16-.41,4.65,4.65,0,0,0,0-.73v-2.61a2.09,2.09,0,0,0-.41-1.43,1.4,1.4,0,0,0-1.06-.43,2.62,2.62,0,0,0-1,.21,5.8,5.8,0,0,0-1,.56c0,.12,0,.24,0,.36s0,.24,0,.37v3.4a3,3,0,0,0,0,.48.46.46,0,0,0,.16.27.71.71,0,0,0,.35.14c.16,0,.37.05.63.06l0,.46h-.88l-1.05,0-.92,0h-.79l0-.4a3,3,0,0,0,.62-.1.64.64,0,0,0,.35-.2.74.74,0,0,0,.16-.41,4.65,4.65,0,0,0,0-.73v-2.61a2.09,2.09,0,0,0-.41-1.43,1.4,1.4,0,0,0-1.06-.43,2.62,2.62,0,0,0-.94.19,4.91,4.91,0,0,0-1,.53v4.18a3,3,0,0,0,0,.48.4.4,0,0,0,.15.27.84.84,0,0,0,.37.14c.16,0,.38.05.65.06Z"></path><path class="cls-7" d="M425.16,297.4h-3.84l-.06-.61h.11a3.21,3.21,0,0,0,.6-.09.7.7,0,0,0,.31-.17.75.75,0,0,0,.13-.35,4.59,4.59,0,0,0,0-.72v-2.61a1.93,1.93,0,0,0-.39-1.35,1.25,1.25,0,0,0-1-.4,2.56,2.56,0,0,0-.93.2,5,5,0,0,0-1,.52l0,.29c0,.12,0,.25,0,.38v3.4a2.64,2.64,0,0,0,0,.45.36.36,0,0,0,.12.22.61.61,0,0,0,.3.11l.62.06h.11l0,.67h-3.84l-.05-.61h.11a3.5,3.5,0,0,0,.6-.09.72.72,0,0,0,.3-.17.66.66,0,0,0,.13-.35,4.59,4.59,0,0,0,0-.72v-2.61a2,2,0,0,0-.38-1.35,1.64,1.64,0,0,0-1.88-.22,5.29,5.29,0,0,0-.94.49v4.12a2.77,2.77,0,0,0,0,.46.36.36,0,0,0,.11.21.7.7,0,0,0,.31.11l.64.06h.12l-.06.67h-1c-.6,0-1.34,0-2,0h-.93l-.06-.61h.12a3,3,0,0,0,.65-.11.74.74,0,0,0,.34-.19.67.67,0,0,0,.16-.38,4.73,4.73,0,0,0,0-.73v-3.2a3.64,3.64,0,0,0,0-.52.4.4,0,0,0-.13-.25.61.61,0,0,0-.29-.16l-.59-.12h-.08l-.06-.53.1,0,.65-.15.69-.18.62-.18c.19-.05.35-.11.46-.15l.06,0,.26.17v.07c0,.18-.05.35-.07.51s0,.18,0,.27a5.61,5.61,0,0,1,1.2-.7,2.79,2.79,0,0,1,2.57,0,1.9,1.9,0,0,1,.73.88,5.94,5.94,0,0,1,1.36-.86,3.1,3.1,0,0,1,2.35-.19,1.76,1.76,0,0,1,.7.48,2.39,2.39,0,0,1,.45.82,3.79,3.79,0,0,1,.17,1.19v3.35a2.64,2.64,0,0,0,0,.45.36.36,0,0,0,.12.22.61.61,0,0,0,.3.11l.62.06h.11Zm-11.61-.25h1.09l.79,0,0-.24-.55-.06a.9.9,0,0,1-.42-.16.58.58,0,0,1-.19-.34,3.34,3.34,0,0,1,0-.5v-4.23l.05,0a5.16,5.16,0,0,1,1-.55,1.86,1.86,0,0,1,2.12.28,2.17,2.17,0,0,1,.44,1.5v2.61a5,5,0,0,1,0,.75.84.84,0,0,1-.18.46.86.86,0,0,1-.42.24,2.76,2.76,0,0,1-.52.09l0,.19.67,0h2l.76,0v-.24l-.53-.06a.78.78,0,0,1-.4-.16.59.59,0,0,1-.2-.34,3.43,3.43,0,0,1,0-.5v-3.4c0-.12,0-.24,0-.36s0-.24-.05-.35v-.07l.05,0a5.56,5.56,0,0,1,1.06-.58,1.86,1.86,0,0,1,2.16.26,2.17,2.17,0,0,1,.44,1.5v2.61a5,5,0,0,1,0,.75.88.88,0,0,1-.18.46.86.86,0,0,1-.42.24,2.91,2.91,0,0,1-.52.09v.19l.68,0h2l.76,0v-.24l-.53-.06a.86.86,0,0,1-.41-.16.63.63,0,0,1-.19-.34,3.26,3.26,0,0,1,0-.5v-3.35a3.7,3.7,0,0,0-.15-1.12,2.1,2.1,0,0,0-.41-.74,1.35,1.35,0,0,0-.61-.42,2.86,2.86,0,0,0-2.18.19,5.5,5.5,0,0,0-1.43.92l-.12.1-.05-.15a1.74,1.74,0,0,0-.7-.91,2.56,2.56,0,0,0-2.37,0,5.27,5.27,0,0,0-1.33.81l-.18.15v-.24a4.27,4.27,0,0,1,0-.52c0-.15,0-.3.05-.45l0,0-.43.14-.62.18-.69.18-.57.13,0,.16a4,4,0,0,1,.53.11.81.81,0,0,1,.39.21.66.66,0,0,1,.19.37,3.94,3.94,0,0,1,0,.56v3.2a5.1,5.1,0,0,1,0,.77.83.83,0,0,1-.66.75,3.27,3.27,0,0,1-.58.1l0,.19.71,0Z"></path><path class="cls-7" d="M433.93,290.63a4.39,4.39,0,0,0-.6.11,1.18,1.18,0,0,0-.39.19,1.49,1.49,0,0,0-.3.35c-.09.15-.2.35-.32.6s-.4.82-.62,1.31-.45,1-.68,1.59-.48,1.14-.72,1.74l-.69,1.76c-.16.4-.33.81-.51,1.24s-.36.82-.55,1.2a9.51,9.51,0,0,1-.58,1,3,3,0,0,1-.59.69,2,2,0,0,1-1.25.52.85.85,0,0,1-.56-.2.66.66,0,0,1-.24-.54.78.78,0,0,1,.15-.48,1.21,1.21,0,0,1,.4-.34l.25,0a.75.75,0,0,0,.21,0,1.61,1.61,0,0,0,.54-.08,1,1,0,0,0,.45-.28,5.48,5.48,0,0,0,.87-1.32c.28-.57.57-1.23.86-2l0-.1,0-.18-.54-1.41-.57-1.48c-.19-.49-.39-1-.58-1.44s-.38-.91-.55-1.31a5.74,5.74,0,0,0-.29-.6,1.26,1.26,0,0,0-.3-.34,1,1,0,0,0-.39-.17,3.67,3.67,0,0,0-.59-.08l0-.46.92,0h1.94l.77,0,0,.41a2.58,2.58,0,0,0-.69.15.31.31,0,0,0-.2.3.85.85,0,0,0,0,.24l.11.31,1.64,4.28,1.8-4.3a2.46,2.46,0,0,0,.14-.5.36.36,0,0,0-.21-.34,2.19,2.19,0,0,0-.77-.13l0-.42.75,0h1.71l.64,0Z"></path><path class="cls-7" d="M426.13,303.06a1,1,0,0,1-.63-.22.79.79,0,0,1-.29-.63.89.89,0,0,1,.18-.55,1.34,1.34,0,0,1,.44-.37l0,0h0l.25,0a1.31,1.31,0,0,0,.69-.06.88.88,0,0,0,.41-.25,5.32,5.32,0,0,0,.85-1.29,21.19,21.19,0,0,0,.85-2l0-.06,0-.15c-.17-.43-.34-.9-.53-1.39l-.1-.25c-.15-.41-.31-.83-.48-1.24s-.38-1-.58-1.44l-.54-1.31a6.17,6.17,0,0,0-.29-.58,1,1,0,0,0-.27-.31.75.75,0,0,0-.35-.15,3.23,3.23,0,0,0-.57-.08h-.11l0-.68h1c.63,0,1.36,0,1.94,0H429l0,.62h-.11a2.83,2.83,0,0,0-.66.14.2.2,0,0,0-.13.2.68.68,0,0,0,0,.21l.1.31,1.54,4,1.7-4.05a2.63,2.63,0,0,0,.13-.45.26.26,0,0,0-.15-.24,2,2,0,0,0-.72-.11h-.11l0-.64h.87l.93,0,.76,0H434l0,.61h-.1a4.32,4.32,0,0,0-.58.11,1.27,1.27,0,0,0-.35.17,1.24,1.24,0,0,0-.27.32,6.68,6.68,0,0,0-.32.59c-.18.36-.39.79-.62,1.31s-.46,1.06-.68,1.58-.47,1.14-.71,1.74-.47,1.18-.69,1.76l-.52,1.24c-.17.42-.36.83-.55,1.21a10.48,10.48,0,0,1-.59,1,3.27,3.27,0,0,1-.61.72A2.07,2.07,0,0,1,426.13,303.06Zm-.23-1.55a1,1,0,0,0-.33.29.63.63,0,0,0-.13.41.53.53,0,0,0,.2.45.72.72,0,0,0,.49.17,1.83,1.83,0,0,0,1.18-.49,3,3,0,0,0,.57-.66,10.12,10.12,0,0,0,.57-1c.19-.38.37-.78.55-1.19s.34-.84.51-1.24q.33-.87.69-1.77l.71-1.73c.22-.53.45-1.05.69-1.59s.43-1,.62-1.32a5.14,5.14,0,0,1,.33-.61,1.5,1.5,0,0,1,.32-.38,1.44,1.44,0,0,1,.43-.21l.51-.1v-.18h-2.9v.2a2,2,0,0,1,.7.13.47.47,0,0,1,.27.44,2.14,2.14,0,0,1-.14.53l-1.91,4.57-1.75-4.54c0-.12-.08-.22-.11-.32a.93.93,0,0,1,0-.27.4.4,0,0,1,.26-.4,2.78,2.78,0,0,1,.62-.15v-.19h-3.41v.24a4.08,4.08,0,0,1,.49.07,1.16,1.16,0,0,1,.44.19,1.22,1.22,0,0,1,.32.38,4.73,4.73,0,0,1,.3.6c.18.41.36.85.55,1.31s.39,1,.58,1.45.32.83.48,1.24l.1.24c.19.5.36,1,.53,1.41l.05.22,0,.12c-.3.77-.59,1.43-.87,2a5.52,5.52,0,0,1-.89,1.35,1.27,1.27,0,0,1-.5.31,1.52,1.52,0,0,1-.8.06Z"></path></svg>