<svg xmlns="http://www.w3.org/2000/svg" id="Layer_1" data-name="Layer 1" viewBox="0 0 500 500"><defs><style>.cls-1{fill:#1f282f;}.cls-2{fill:#f0be7d;}</style></defs><path class="cls-1" d="M274.68,255c-.95,0-1.49,0-1.49,0h-.1s-.55,0-1.41,0-1.6,0-2.44,0h-.1l-.1,0h-.19l-.55,0c-8.24-.42-23.71-2.57-35.19-12.19l-.26-.22c-.82-.7-1.56-1.38-2.27-2.1-15.27-15.26-14.65-40.56-14.57-42.53v-2l2.09-.14h.06c.05,0,.57,0,1.41,0a76.69,76.69,0,0,1,11.14.88l.3,0a66.07,66.07,0,0,1,14.82,4.05,34.12,34.12,0,0,1,54.53.07,66,66,0,0,1,15-4.12l.27,0a77,77,0,0,1,11.2-.89c.94,0,1.48,0,1.48,0l2,.13.13,1.9c0,1.16.86,27.21-14.58,42.64-.68.69-1.43,1.38-2.26,2.09l-.28.23a50.16,50.16,0,0,1-18.9,9.57A75.79,75.79,0,0,1,278,254.86h-.34l-.54,0C276.28,254.94,275.45,255,274.68,255Z"></path><path class="cls-1" d="M328.35,197.85v-.15h-.15s-.51,0-1.4,0a73.66,73.66,0,0,0-10.85.86l-.17,0-.14,0a63.06,63.06,0,0,0-15.78,4.53l-.17.08h0l0-.05a32.13,32.13,0,0,0-53.07-.1l-.06.08h0a62.86,62.86,0,0,0-15.77-4.53l-.14,0-.18,0a73.46,73.46,0,0,0-10.84-.86c-.89,0-1.4,0-1.41,0H218v.15c0,.26-1.06,26.05,14,41.09.7.7,1.42,1.36,2.16,2l.14.12.1.09c11,9.25,26.08,11.32,34.06,11.72h0c.28,0,.56,0,.85,0,.82,0,1.62,0,2.37,0s1.4,0,1.41,0h.18s.51,0,1.41,0c.75,0,1.55,0,2.38,0h.27c.26,0,.3,0,.58,0a72.94,72.94,0,0,0,15.88-2.54A48.59,48.59,0,0,0,312,241.14l.11-.09.14-.12c.74-.63,1.46-1.29,2.15-2C329.41,223.9,328.36,198.11,328.35,197.85Zm-64,54h0l.07-.29h0Zm17.61,0-.07-.29h0l.08.29Z"></path><path class="cls-1" d="M229.62,321.89a5.23,5.23,0,0,1,0-10.45,5.41,5.41,0,0,1,4.32,2.14l3.29-3a9.69,9.69,0,0,0-7.87-3.45c-5.8,0-10.06,4-10.06,9.52s4.26,9.51,10.06,9.51a9.69,9.69,0,0,0,7.87-3.45l-3.29-3A5.44,5.44,0,0,1,229.62,321.89Z"></path><path class="cls-1" d="M248.36,307.15c-5.85,0-10.16,4-10.16,9.52s4.31,9.51,10.16,9.51,10.17-4,10.17-9.51S254.22,307.15,248.36,307.15Zm0,14.74a5.23,5.23,0,1,1,4.94-5.22A4.89,4.89,0,0,1,248.36,321.89Z"></path><path class="cls-1" d="M275.6,311.51v-4H261.24v18.29h5.18v-6.27h8.08v-4h-8.08v-4Z"></path><path class="cls-1" d="M292.37,311.51v-4H278v18.29h5.17v-6.27h8.08v-4H283.2v-4Z"></path><path class="cls-1" d="M299.93,321.82v-3.35h8.13V314.6h-8.13v-3.09h9.22v-4H294.81v18.29H309.5v-4Z"></path><path class="cls-1" d="M317.49,321.82v-3.35h8.13V314.6h-8.13v-3.09h9.23v-4H312.37v18.29h14.69v-4Z"></path><path class="cls-2" d="M189.71,287.27a11.26,11.26,0,0,0,6.64-10.71c0-7.75-5.82-12.55-15.08-12.55h-15.5v7.56h14.92c4,0,6,1.84,6,5s-2,4.95-6,4.95h-5.33v-5.79h-9.59v22.21h9.59v-9h5.24l6.15,9H197Z"></path><path class="cls-2" d="M336.4,287.27A11.25,11.25,0,0,0,343,276.56C343,268.81,337.22,264,328,264H312.46v7.56h14.93c4,0,5.95,1.84,5.95,5s-2,4.95-5.95,4.95h-5.34v-5.79h-9.59v22.21h9.59v-9h5.24l6.15,9h10.28Z"></path><path class="cls-2" d="M201.63,264v7.41h26.6V264Zm9.5,26.51v-6.2H226.2v-7.18H211.13V274h-9.5v24h27.23v-7.41Z"></path><path class="cls-2" d="M260.27,280.25a8,8,0,0,0,4.55-7.37c0-5.24-4.36-8.87-13.28-8.87H234.19v33.92h9.5v-27h6.59c3.2,0,4.85,1.11,4.85,3.25s-1.65,3.29-4.85,3.29h-4.23v6.64h5.69c3.29,0,5,1.12,5,3.44s-1.75,3.44-5,3.44h-5.69v6.93h6.46c9.11,0,14-3.44,14-9.3C266.47,284.51,264.1,281.6,260.27,280.25Z"></path><path class="cls-2" d="M302.73,269l-6.46,6.47a10.47,10.47,0,0,1,1.45,5.5c0,5.86-4,9.7-9.15,9.7a9.08,9.08,0,0,1-5.63-1.87L276.75,295a20,20,0,0,0,11.82,3.62c10.85,0,18.85-7.46,18.85-17.64A17.05,17.05,0,0,0,302.73,269Zm-23.32,12c0-5.86,4-9.69,9.16-9.69a9.1,9.1,0,0,1,5.62,1.86l6.2-6.19a20.07,20.07,0,0,0-11.82-3.62c-10.86,0-18.86,7.46-18.86,17.64a17.05,17.05,0,0,0,4.69,12l6.46-6.46A10.48,10.48,0,0,1,279.41,281Z"></path><path class="cls-2" d="M371.19,264v18.07l-5.76-6.95v14l7.27,8.77h7.89V264Zm-22.87,0v33.92h9.4V279.86l5.76,6.95v-14L356.22,264Z"></path><path class="cls-2" d="M328.35,197.84v-.15h-.15s-.51,0-1.4,0a72.65,72.65,0,0,0-10.85.87l-.17,0-.14,0a62.64,62.64,0,0,0-15.78,4.53l-.17.07h0l0-.05a32.14,32.14,0,0,0-53.07-.11l0,.08h0a62.44,62.44,0,0,0-15.77-4.53l-.14,0-.18,0a72.45,72.45,0,0,0-10.84-.87c-.89,0-1.4,0-1.41,0H218v.15c0,.26-1.06,26.06,14,41.1.7.69,1.42,1.36,2.16,2l.14.13.1.09c11,9.25,26.08,11.31,34.06,11.72h0c.28,0,.56,0,.85,0,.82,0,1.62,0,2.37,0s1.4,0,1.41,0h.18s.51,0,1.41,0c.75,0,1.55,0,2.38,0h.27c.26,0,.3,0,.58,0h0c8-.41,23-2.47,34-11.72l.11-.09h0l.14-.13c.74-.62,1.46-1.29,2.15-2C329.41,223.9,328.36,198.1,328.35,197.84Zm-12.82,1.09a43.7,43.7,0,0,1,1.16,10,43.07,43.07,0,0,1-8.37,25.63,44.68,44.68,0,0,0-4.18-4.75,32.18,32.18,0,0,0-4-26.5A62.75,62.75,0,0,1,315.53,198.93Zm-7.61,36.19a43.53,43.53,0,0,1-22.5,15.59,32.59,32.59,0,0,0,18.51-20.17A43.49,43.49,0,0,1,307.92,235.12Zm-8.5-31.45.14-.07a31.5,31.5,0,0,1,4.05,25.72,44,44,0,0,0-21.27-11.23,37.34,37.34,0,0,1,10.44-10.68l.38-.25,1-.66c.28-.18.57-.35.86-.52s.42-.25.63-.37c.39-.22.78-.44,1.18-.65l.4-.22q.69-.36,1.38-.69l.7-.34Zm-26.35-13.93a31.55,31.55,0,0,1,25.8,13.45l-.7.33h0a42.74,42.74,0,0,0-11.78,8.3,40.26,40.26,0,0,0-5.06,6.33l-1,1.51-.24.42h0c-.18.31-.36.61-.53.92l-.08.16a46.59,46.59,0,0,0-3.86,11.28,71.56,71.56,0,0,0-2,10.13l0,.2h0c-.07.55-.12,1.08-.18,1.6s-.17,1.12-.24,1.64c-.15-1-.31-2-.49-3.1,0,0,0-.09,0-.14h0l0-.2a70.8,70.8,0,0,0-2.08-10.38,49.7,49.7,0,0,0-4.33-12.12h0l-1.18-1.92h0a40.84,40.84,0,0,0-5.06-6.33,42.74,42.74,0,0,0-11.81-8.32v0l-.89-.4h0A31.58,31.58,0,0,1,273.07,189.74Zm7.35,31.58a11.81,11.81,0,0,1-6,21.05A105.66,105.66,0,0,1,278,226.61,51.13,51.13,0,0,1,280.42,221.32ZM272,242.39a11.82,11.82,0,0,1-6.06-21.11,49.84,49.84,0,0,1,2.21,4.69A105.44,105.44,0,0,1,272,242.39ZM246.79,203.6A41.54,41.54,0,0,1,259,211.91a39,39,0,0,1,5,6.18,44.12,44.12,0,0,0-21.28,11.23,31.86,31.86,0,0,1-1.13-8.41A31.38,31.38,0,0,1,246.79,203.6Zm14.15,47.11a43.53,43.53,0,0,1-22.5-15.59,42.51,42.51,0,0,1,4-4.58A32.56,32.56,0,0,0,260.94,250.71Zm-30.11-51.78a62.75,62.75,0,0,1,15.36,4.4,32.18,32.18,0,0,0-4,26.5,45,45,0,0,0-4.19,4.75A43.14,43.14,0,0,1,229.66,209,43.64,43.64,0,0,1,230.83,198.93Zm3.38,41.61c-.68-.58-1.34-1.2-2-1.84-14.33-14.33-14-38.54-13.9-40.69l1.24,0a72.44,72.44,0,0,1,10.61.84A44.44,44.44,0,0,0,229,209a43.78,43.78,0,0,0,8.61,26.17A45.48,45.48,0,0,0,234.21,240.54Zm.5.43a44,44,0,0,1,3.32-5.3,44.47,44.47,0,0,0,26.15,16.52C255.9,251.29,243.92,248.63,234.71,241Zm29.66,10.91h0l.07-.29h0ZM243,230a43.47,43.47,0,0,1,21.44-11.36c.44.71.84,1.37,1.21,2a12.46,12.46,0,0,0,6.48,22.35c.3,1.84.55,3.52.75,4.89V248c.12,2.13.1,3.68.08,4.43-.58,0-1.49,0-1.77,0A31.69,31.69,0,0,1,243,230Zm32.26,22.39-1.78,0c0-.55,0-1.82,0-3.63l.23-1.53c.19-1.25.39-2.69.64-4.25a12.47,12.47,0,0,0,6.4-22.3c.38-.69.79-1.38,1.22-2.07A43.5,43.5,0,0,1,303.41,230,31.69,31.69,0,0,1,275.21,252.42Zm6.77-.54-.07-.29h0l.08.29Zm.19.31a44.49,44.49,0,0,0,26.16-16.52,43.67,43.67,0,0,1,3.32,5.3C302.44,248.63,290.45,251.3,282.17,252.19Zm32-13.49c-.64.64-1.3,1.26-2,1.84a44,44,0,0,0-3.42-5.42,44,44,0,0,0,7.44-36.29,72.55,72.55,0,0,1,10.62-.84l1.23,0C328.09,200.16,328.47,224.37,314.13,238.7Z"></path></svg>