<svg xmlns="http://www.w3.org/2000/svg" id="Layer_1" data-name="Layer 1" viewBox="0 0 500 500"><defs><style>.cls-1{fill:#291770;}.cls-1,.cls-2{fill-rule:evenodd;}.cls-2{fill:#e87817;}</style></defs><path class="cls-1" d="M257.82,191.16A58.5,58.5,0,0,1,286,198.35a118.46,118.46,0,0,1-4.53,34.94,109.8,109.8,0,0,1-5.7,14.77,82.7,82.7,0,0,1-12.4,19.28A249.88,249.88,0,0,1,202,268.69a58.83,58.83,0,0,1,55.79-77.53"></path><path class="cls-1" d="M133.25,248.62c0-1.17,0-1.93,0-3.1-.08-2.92,2.54-7.41,6.86-7.5,3.17-.06,5.89-1.08,5.87-4.82,0-4.64-2.91-5.5-5.89-5.37-6.26.27-9.56,3-12.48,6a17,17,0,0,0-4.69,11.37v28a5.17,5.17,0,1,0,10.33,0"></path><path class="cls-1" d="M68.24,238H55.43v19.84c0,1.16,0,1.93,0,3.09-.08,2.93,2.54,7.41,6.87,7.5,3.17.07,5.88,1.09,5.87,4.83,0,4.64-2.91,5.49-5.9,5.36-6.26-.27-9.56-3-12.47-6a17,17,0,0,1-4.69-11.37V238h-4a5.17,5.17,0,0,1,0-10.33h4v-8.38a5.16,5.16,0,0,1,10.32,0v8.38H68.24a5.17,5.17,0,0,1,0,10.33"></path><path class="cls-1" d="M75.12,249.76v-17a4.95,4.95,0,1,1,9.89,0V255.9c0,5.64,4.92,12.45,11.8,12.51s12-4.66,12-13V232.66a4.53,4.53,0,0,1,5-4.64c2.55.09,5.13.34,5.13,5v23.59a20.82,20.82,0,0,1-6.2,15.25c-5.25,5-10.26,6.67-15.61,6.56-5.83-.13-11.26-1.63-15.84-6.44-5.07-5.32-6.2-11.1-6.2-17"></path><path class="cls-2" d="M330.31,256.44v17a4.95,4.95,0,0,0,9.89,0V250.3c0-5.64,4.92-12.45,11.8-12.51s12,4.66,12,13v22.76a4.53,4.53,0,0,0,5,4.64c2.54-.09,5.12-.33,5.12-5V249.59a20.82,20.82,0,0,0-6.2-15.25c-5.25-5-10.26-6.67-15.6-6.55-5.84.12-11.27,1.62-15.85,6.43-5.07,5.32-6.2,11.1-6.2,17"></path><path class="cls-2" d="M458.85,238H446v19.84c0,1.16,0,1.93,0,3.09-.07,2.93,2.54,7.41,6.87,7.5,3.17.07,5.89,1.09,5.87,4.83,0,4.64-2.91,5.49-5.9,5.36-6.26-.27-9.56-3-12.47-6a17,17,0,0,1-4.69-11.37V238h-4a5.17,5.17,0,0,1,0-10.33h4v-8.38a5.16,5.16,0,0,1,10.32,0v8.38h12.81a5.17,5.17,0,0,1,0,10.33"></path><path class="cls-2" d="M249.82,227.52l1.75,6.7,8.07-2.12c1.38-.37,2,.36,2,1.59a2.57,2.57,0,0,1-1.22,2.28l-6.54,4.95,2.67,6a2.6,2.6,0,0,1-3.8,3.11l-5.49-3.33L240.85,253a2.4,2.4,0,0,1-3,.15c-.87-.63-.63-1.65-.3-2.43l2.89-7-6.24-2.36c-.94-.36-1.84-.9-1.67-2.06s1.13-2.35,3.19-2.59l7.68-.92,2.13-8.15a2.15,2.15,0,0,1,2.36-1.52,1.73,1.73,0,0,1,1.9,1.45"></path><path class="cls-1" d="M154.72,214a5,5,0,0,1,4.95,5v26.68l15.22-16.5a4.91,4.91,0,0,1,7,0,5,5,0,0,1,0,7l-12.69,13.75,17.63,20.77a4.92,4.92,0,0,1-.85,7,5.06,5.06,0,0,1-7-.86l-16.58-19.53-2.78,3v13.61a5,5,0,1,1-9.91,0V219a5,5,0,0,1,5-5"></path><path class="cls-2" d="M421.38,259.18c2,.29,4.18,1.24,4.32,5.15.12,3.06-2.87,6.22-6.63,9.17-4.67,3.67-9.89,4.83-15.42,4.84a23.72,23.72,0,0,1-17-6.69c-6.48-6.14-7.8-12-8.24-17.52A23.17,23.17,0,0,1,383,238.37a24.94,24.94,0,0,1,20.81-10.78,24.52,24.52,0,0,1,19.37,8.51,9.45,9.45,0,0,1,2.68,6.28,4.75,4.75,0,0,1-2.68,3.92c-9.83,5.93-19.85,11.54-29.78,17.31a13.22,13.22,0,0,0,10.2,4.53c4.42-.07,8.87-1.06,12.78-6.18,1.08-1.42,2.17-3.19,5.05-2.78M389,254.34l23.39-13.72a13.81,13.81,0,0,0-9.33-2.63,14.94,14.94,0,0,0-11.46,6A13.83,13.83,0,0,0,389,254.34Z"></path><path class="cls-2" d="M206.75,279.17a60.29,60.29,0,0,1-3-6c18.07,1.45,36.16,2,54.18-.58l.44-.06A97.24,97.24,0,0,1,238.2,288l-.4.23a128.86,128.86,0,0,1-31.05-9.1M221.21,296a60.1,60.1,0,0,1-9.37-9.36,173.18,173.18,0,0,0,19.56,5C228,293.31,224.59,294.72,221.21,296Zm42.26,12.56c-1.86.18-3.74.27-5.65.27a58.39,58.39,0,0,1-31.72-9.32q6.63-3.13,12.64-6.63a159.41,159.41,0,0,0,19.92,1.65,114.21,114.21,0,0,0,19.18-1.27A123.17,123.17,0,0,1,263.47,308.57Zm40.22-21.79A58.94,58.94,0,0,1,272,307.1a188.73,188.73,0,0,0,12.08-14.93A153.5,153.5,0,0,0,303.69,286.78Zm-22.05,1.35a118.53,118.53,0,0,1-22,1.84,140.48,140.48,0,0,1-14.82-.77q6.8-4.33,12.89-9.11c2.92-2.8,5.73-5.72,8.37-8.77a161.15,161.15,0,0,0,28.27-7.64c-.39,1-.79,2.06-1.2,3.08A106.36,106.36,0,0,1,281.64,288.13Zm35-35.87a58.5,58.5,0,0,1-7.22,26,96.59,96.59,0,0,1-21.56,8.48,119.33,119.33,0,0,0,8.77-15.66q2.34-5.08,4.06-10A99.9,99.9,0,0,0,316.62,252.26ZM306.3,216.71a58.47,58.47,0,0,1,10.25,29.73,82.16,82.16,0,0,1-14,8.78A112.42,112.42,0,0,0,306.3,216.71Zm-15.45-15.36a58.69,58.69,0,0,1,9.84,8.42c3.2,16.92.77,32.93-4.35,48.28a138.16,138.16,0,0,1-25.68,7.6,90.32,90.32,0,0,0,11.6-20.22C288.24,230.78,290,216,290.85,201.35Z"></path><path class="cls-2" d="M239.86,201.65l1.28,2.77,4.84-2c1.37-.55,2.47.65,1.53,1.32l-4.67,3.36,1.4,1.87c1.12,1.49-1,2.92-3,2.41l-3-.75-4.62,4c-1.38,1.18-2.39.06-2-.76l2-3.75h-4.26c-1.4,0-1.18-1.86.39-2.29l6.16-1.7.87-3.67c.28-1.19,2.52-1.85,3-.8"></path><path class="cls-2" d="M218.88,238,217,236.1l1.72-4.65c.36-1-.65-1.78-1.3-.92l-2.17,2.89-1.88-2.77c-.53-.78-1.59.19-1.38,1.38l.71,4.15-2.8,2.6a1.12,1.12,0,0,0,.71,2.05l2.38-.13.33,4.23a.74.74,0,0,0,1.47-.12l1-4.48h3.18c.79,0,.64-1.71,0-2.35"></path></svg>