<svg xmlns="http://www.w3.org/2000/svg" id="Layer_1" data-name="Layer 1" viewBox="0 0 500 500"><defs><style>.cls-1{fill:#fff;}</style></defs><path d="M381.06,253.91a131.21,131.21,0,0,1-133.64,127.2c-71.73-1.35-130.12-61.06-128.5-134.87,1.56-70.93,62-129,133.89-127.34A131.13,131.13,0,0,1,381.06,253.91ZM192.37,308.74c10.71,0,20.73.22,30.73-.11,4.09-.13,7.23-2.8,9.53-6.25q17.42-26.07,34.89-52.11c1-1.55,1.16-2.62.05-4.27-11.53-17-22.95-34.11-34.42-51.18a15.61,15.61,0,0,0-13.75-7.29c-8,0-15.94,0-23.91,0a27.19,27.19,0,0,0-2.87.32c.68,1.14,1.09,1.94,1.59,2.69C206.44,208.76,218.63,227,231,245.15c1.58,2.32,1.47,3.8-.07,6-5.23,7.48-10.21,15.12-15.27,22.71C208,285.29,200.4,296.71,192.37,308.74Zm47.91.41a7.83,7.83,0,0,0,1.42.4c14.43.08,28.86.23,43.29.18,4.95,0,8.76-2.54,11.55-6.61s5.61-8.18,8.41-12.28c2-3,4.07-6,6.44-9.51-17.66.4-34.6.76-51.54,1.23a4,4,0,0,0-2.83,1.5C251.45,292.25,246,300.54,240.28,309.15ZM309.6,187.53c-12.19,0-23.46,0-34.74.07a3.71,3.71,0,0,0-2.42,1.59q-5.85,8.58-11.51,17.3a7.79,7.79,0,0,0,.17,9.11c2,3.09,4.1,6.15,6.14,9.22,2.8,4.2,5.58,8.4,8.65,13Z"></path><path class="cls-1" d="M192.37,308.74c8-12,15.64-23.45,23.27-34.87,5.06-7.59,10-15.23,15.27-22.71,1.54-2.21,1.65-3.69.07-6-12.35-18.14-24.54-36.39-36.77-54.61-.5-.75-.91-1.55-1.59-2.69a27.19,27.19,0,0,1,2.87-.32c8,0,15.94,0,23.91,0a15.61,15.61,0,0,1,13.75,7.29C244.62,211.89,256,229,267.57,246c1.11,1.65,1,2.72-.05,4.27q-17.5,26-34.89,52.11c-2.3,3.45-5.44,6.12-9.53,6.25C213.1,309,203.08,308.74,192.37,308.74Z"></path><path class="cls-1" d="M240.28,309.15c5.72-8.61,11.17-16.9,16.74-25.09a4,4,0,0,1,2.83-1.5c16.94-.47,33.88-.83,51.54-1.23-2.37,3.5-4.4,6.51-6.44,9.51q-4.2,6.15-8.41,12.28c-2.79,4.07-6.6,6.59-11.55,6.61-14.43,0-28.86-.1-43.29-.18A7.83,7.83,0,0,1,240.28,309.15Z"></path><path class="cls-1" d="M309.6,187.53l-33.71,50.31c-3.07-4.62-5.85-8.82-8.65-13-2-3.07-4.12-6.13-6.14-9.22a7.79,7.79,0,0,1-.17-9.11q5.65-8.72,11.51-17.3a3.71,3.71,0,0,1,2.42-1.59C286.14,187.5,297.41,187.53,309.6,187.53Z"></path></svg>