<svg xmlns="http://www.w3.org/2000/svg" id="Layer_1" data-name="Layer 1" viewBox="0 0 500 500"><defs><style>.cls-1{fill:#00abc8;}</style></defs><polyline class="cls-1" points="85.92 225.87 111.26 225.87 111.22 225.99 85.98 258.3 85.92 258.4 85.92 260.59 114.89 260.59 114.89 258.16 89.55 258.16 114.81 225.94 114.89 225.84 114.89 223.57 85.92 223.57"></polyline><path class="cls-1" d="M160.39,236.62a16.27,16.27,0,0,1,.74,5.92,17.12,17.12,0,0,1-1.38,5.87,17.62,17.62,0,0,1-3.47,5.19,18.83,18.83,0,0,1-5.51,3.91,13,13,0,0,1-4.73,1.3,16.09,16.09,0,0,1-1.69.09,16.43,16.43,0,0,1-3.25-.32,17.23,17.23,0,0,1-8.46-4.24,17.62,17.62,0,0,1-5-8.09,14.56,14.56,0,0,1-.36-6.82,24.5,24.5,0,0,1,2.27-6.53,14.12,14.12,0,0,1,4.89-5.24,20.09,20.09,0,0,1,6.83-2.76,15.18,15.18,0,0,1,2.94-.28,16.84,16.84,0,0,1,2.81.24,15.83,15.83,0,0,1,5.35,1.92,18.5,18.5,0,0,1,5.13,4.38,17.14,17.14,0,0,1,2.92,5.46m1.26-3.82a31.06,31.06,0,0,0-5.07-6.07,17.78,17.78,0,0,0-8.25-4.11,21.73,21.73,0,0,0-4.65-.52,18.12,18.12,0,0,0-3.86.41,18.71,18.71,0,0,0-7,3.09,19.5,19.5,0,0,0-5.08,5.43,19.74,19.74,0,0,0-2.73,7,20.4,20.4,0,0,0,3.43,15.5,17.29,17.29,0,0,0,5.72,5.2,19.73,19.73,0,0,0,7.31,2.52,23.45,23.45,0,0,0,2.85.18,18.05,18.05,0,0,0,9.46-2.53,23.38,23.38,0,0,0,7.88-8v9.76H164v-38h-2.3"></path><path class="cls-1" d="M189.06,257.4,172.2,223.3h-2.43v.49a1.38,1.38,0,0,0,.18.58.64.64,0,0,1,.1.25v.08l17.67,35.9h2.36l20-37.3h-2.87"></path><rect class="cls-1" x="218.58" y="229.96" width="2.29" height="30.64"></rect><rect class="cls-1" x="218.58" y="222.86" width="2.29" height="4.7"></rect><path class="cls-1" d="M333.26,242.31a17.11,17.11,0,0,1-1.37,5.87,17.4,17.4,0,0,1-3.48,5.19,18.75,18.75,0,0,1-5.5,3.92,13.53,13.53,0,0,1-4.73,1.3,16.44,16.44,0,0,1-1.71.08,17.36,17.36,0,0,1-11.7-4.56,17.47,17.47,0,0,1-5-8.09,14.53,14.53,0,0,1-.37-6.81,24.13,24.13,0,0,1,2.26-6.53,14.07,14.07,0,0,1,4.9-5.24,20,20,0,0,1,6.83-2.77,15.18,15.18,0,0,1,2.94-.28,16.84,16.84,0,0,1,8.16,2.16,18.23,18.23,0,0,1,5.13,4.39,17.32,17.32,0,0,1,2.93,5.45,16.48,16.48,0,0,1,.73,5.92m.52-19.93v10.18a31,31,0,0,0-5.08-6.06,17.65,17.65,0,0,0-8.24-4.11,22.44,22.44,0,0,0-4.64-.52,17.59,17.59,0,0,0-3.87.42,18.78,18.78,0,0,0-7,3.08,19.5,19.5,0,0,0-5.08,5.43,19.85,19.85,0,0,0-2.73,7,20.58,20.58,0,0,0,.07,7.74,20.84,20.84,0,0,0,3.36,7.77,17.16,17.16,0,0,0,5.72,5.19A19.54,19.54,0,0,0,313.6,261a23,23,0,0,0,2.84.18,18.05,18.05,0,0,0,9.46-2.53,23.32,23.32,0,0,0,7.88-8v9.77h2.29v-38"></path><polygon class="cls-1" points="230.07 226.12 262.63 260.66 265.97 260.66 265.97 242.64 263.74 240.28 263.74 258.16 230.56 223.38 227.83 223.38 227.83 260.6 230.07 260.6 230.07 226.12"></polygon><polygon class="cls-1" points="253.74 226.12 286.3 260.66 289.64 260.66 289.64 219.76 287.41 219.76 287.41 258.57 254.23 223.38 251.5 223.38 251.5 241.66 253.74 244.03 253.74 226.12"></polygon><path class="cls-1" d="M198.81,269.39a3.14,3.14,0,0,1,2.24-.87c1.47,0,2.93.61,2.93,3.11v5.19h-1.55v-5.19c0-1.73-1-2.33-1.9-2.33a2.43,2.43,0,0,0-1.72.91v6.61h-1.55v-9.33c0-1-.18-1.73-1.21-1.73h-.35v-.35h1.56c1.2,0,1.55.35,1.55,2.08"></path><path class="cls-1" d="M210.8,272.84h-.52c-1.73,0-2.76.69-2.76,1.73a1.54,1.54,0,0,0,1.64,1.64,1.88,1.88,0,0,0,1.64-1Zm.69,4-.61-.78h-.08a3,3,0,0,1-2.42.95,2.35,2.35,0,0,1-2.5-2.42c0-1.9,2.08-2.42,4.4-2.42h.52c0-2.42-.78-2.94-1.81-2.94a1.71,1.71,0,0,0-1.9,1.47h-.77a2,2,0,0,1,.43-1.55,4.25,4.25,0,0,1,2.59-.61c1.54,0,3,.52,3,3.63v4.67"></path><path class="cls-1" d="M214.94,270.76c0-1-.18-1.72-1.21-1.72h-.35v-.35h1.56c.86,0,1.29.26,1.46.69h.09a3.17,3.17,0,0,1,2.24-.87c1.47,0,2.93.61,2.93,3.12v5.18h-1.55v-5.18c0-1.73-1-2.34-1.9-2.33a2.4,2.4,0,0,0-1.72.91v6.6h-1.55"></path><path class="cls-1" d="M229,269.72a4,4,0,0,0-1.63-.52c-1.55,0-2.16,1.56-2.16,3.55s.61,3.54,2,3.54a1.94,1.94,0,0,0,1.81-1Zm1.56,7.09h-.86l-.61-.78H229a2.67,2.67,0,0,1-2.33,1c-2.07,0-3.1-1.9-3.1-4.23s1-4.24,3.28-4.24A4.58,4.58,0,0,1,229,269v-1.55c0-1-.17-1.73-1.2-1.73h-.34v-.34H229c1.21,0,1.56.34,1.56,2.07"></path><path class="cls-1" d="M234.86,276.81h-1.55v-9.33c0-1.05-.18-1.73-1.21-1.73h-.35v-.35h1.56c1.21,0,1.55.35,1.55,2.07"></path><path class="cls-1" d="M242.19,272.31c0-1.9-.61-3-1.82-3-1,0-1.81,1.3-1.81,3Zm1.51.69h-5.14c0,1.9.86,3.28,2.33,3.28a2.78,2.78,0,0,0,2.42-1.38l.34.26a3.41,3.41,0,0,1-3.11,1.82c-2.41,0-3.62-1.9-3.62-4.24s1.21-4.23,3.37-4.23c2.33,0,3.45,1.38,3.45,3.8"></path><path class="cls-1" d="M248.23,277a3.85,3.85,0,0,1-2.68-.69c-.43-.43-.43-.95-.43-1.81h.35c.16,1.12.95,1.81,2.41,1.81,1.29,0,1.9-.52,1.9-1.21s-.52-1.12-1.55-1.55l-1-.44c-1.29-.53-2.07-1.2-2.07-2.33,0-1.47,1.21-2.24,2.85-2.24a3.71,3.71,0,0,1,2.58.68c.44.44.44,1,.44,1.81h-.35a2.09,2.09,0,0,0-2.33-1.82c-1.12,0-1.72.53-1.72,1.22s.51,1.1,1.38,1.47l1,.43c1.47.6,2.24,1.2,2.24,2.42,0,1.47-1.29,2.24-3,2.24"></path><path class="cls-1" d="M260.56,269.19c-1.3,0-2.16,1.56-2.16,3.54s.86,3.54,2.16,3.54,2.15-1.55,2.15-3.54-.86-3.54-2.15-3.54m0-.69c2.41,0,3.79,1.9,3.79,4.23S263,277,260.56,277s-3.8-1.9-3.8-4.23,1.38-4.24,3.8-4.24"></path><path class="cls-1" d="M268,268.15v.52h2.41v.69H268v7.44h-1.56v-7.44h-1.21v-.69h1.21v-.52c0-2.42,1.56-2.93,3-2.94a3,3,0,0,1,1.47.26,1.87,1.87,0,0,1,.6.78l-.51.43a1.81,1.81,0,0,0-1.64-.78c-.78,0-1.38.53-1.38,2.25"></path><path class="cls-1" d="M281.43,272.3c0-1.91-.6-3-1.81-3-1,0-1.81,1.3-1.81,3ZM283,273h-5.14c0,1.9.85,3.28,2.33,3.28a2.76,2.76,0,0,0,2.41-1.38l.35.26a3.4,3.4,0,0,1-3.11,1.81c-2.42,0-3.62-1.9-3.62-4.23s1.2-4.23,3.36-4.24c2.33,0,3.45,1.39,3.45,3.81"></path><path class="cls-1" d="M286.6,276.79h-1.55v-9.34c0-1-.17-1.72-1.21-1.72h-.34v-.35h1.55c1.21,0,1.55.35,1.55,2.07"></path><path class="cls-1" d="M293.93,272.29c0-1.9-.6-3-1.81-3-1,0-1.81,1.29-1.81,3Zm1.52.69h-5.14c0,1.9.86,3.28,2.33,3.28a2.75,2.75,0,0,0,2.41-1.38l.35.26a3.39,3.39,0,0,1-3.11,1.82c-2.42,0-3.62-1.91-3.62-4.23s1.2-4.24,3.36-4.24c2.33,0,3.45,1.38,3.45,3.8"></path><path class="cls-1" d="M300.31,269.09c-.95,0-1.72.52-1.72,2s.77,2,1.72,2,1.73-.51,1.73-2-.78-2-1.73-2m-.78,6.4a2.07,2.07,0,0,0-1.46,2.07c0,1.38.95,2,2.24,2s2.25-.61,2.25-2c0-1.13-.69-1.82-2.07-2Zm.78-7h3.19v.43l-1.12.17v.08a2.14,2.14,0,0,1,1.21,1.91c0,2-1.47,2.59-3.28,2.59-1.21,0-1.8.18-1.8.6s.59.61,1.8.61c2.07,0,3.8.78,3.8,2.68s-1.64,2.68-3.8,2.68-3.79-.69-3.79-2.68a2.45,2.45,0,0,1,1.89-2.24,1.19,1.19,0,0,1-.68-1.05,1.1,1.1,0,0,1,.6-.94,2.46,2.46,0,0,1-1.3-2.25c0-2,1.48-2.59,3.28-2.59"></path><path class="cls-1" d="M310.06,272.8h-.52c-1.73,0-2.76.69-2.76,1.73a1.53,1.53,0,0,0,1.64,1.64,1.88,1.88,0,0,0,1.64-1Zm.69,4-.61-.77h-.08a3.05,3.05,0,0,1-2.42,1,2.35,2.35,0,0,1-2.5-2.43c0-1.9,2.07-2.42,4.4-2.42h.52c0-2.42-.78-2.94-1.82-2.94a1.71,1.71,0,0,0-1.89,1.47h-.78a1.93,1.93,0,0,1,.44-1.55,4.22,4.22,0,0,1,2.58-.61c1.55,0,3,.52,3,3.63v4.66"></path><path class="cls-1" d="M314.2,270.73c0-1-.18-1.73-1.21-1.73h-.35v-.34h1.56c.86,0,1.29.26,1.47.69h.08a3.18,3.18,0,0,1,2.24-.87c1.47,0,2.93.61,2.93,3.11v5.18h-1.55v-5.18c0-1.73-.95-2.33-1.89-2.33a2.41,2.41,0,0,0-1.73.92v6.59H314.2"></path><path class="cls-1" d="M328.94,269.08c.44.43.44.95.44,2.25H329a2.11,2.11,0,0,0-2.25-2.16c-1.72,0-2.5,1.56-2.5,3.54s.78,3.54,2.5,3.54a2.79,2.79,0,0,0,2.5-1.38l.34.26a3.4,3.4,0,0,1-3.18,1.82c-2.59,0-3.8-1.9-3.8-4.24s1.21-4.23,3.8-4.23a3.64,3.64,0,0,1,2.49.6"></path><path class="cls-1" d="M335.94,272.28c0-1.9-.61-3-1.82-3-1,0-1.81,1.3-1.81,3Zm1.51.69h-5.14c0,1.9.87,3.28,2.33,3.28a2.75,2.75,0,0,0,2.41-1.38l.35.26a3.37,3.37,0,0,1-3.1,1.81c-2.42,0-3.63-1.9-3.63-4.23s1.21-4.23,3.37-4.23c2.33,0,3.45,1.38,3.45,3.79"></path><path class="cls-1" d="M373.2,225c.94-.26,5.79-1.13,6.85-1.26A113,113,0,0,1,392,224c1.51.31,5.4,1,6.22,1.32s.87,1.19-.25,1.19-5.85-.43-6.47-.43L379.74,226c-.94,0-5.65.19-6.6,0s-.63-.82.06-1"></path><path class="cls-1" d="M362.22,231c-.37.74-2.21,5.6-2.46,6.48s-.12,2.26,1,4.39,5,8.67,5.72,9.93.25,1.51-.95.76-7.53-8.93-8.41-10a4.55,4.55,0,0,1-.94-4.39c.63-1.51,2.95-6,4.2-7.29s2.33-.88,1.83.12"></path><path class="cls-1" d="M366.61,231.08a46.76,46.76,0,0,0-3,5.65,5.44,5.44,0,0,0,.63,4.72c1.25,2.19,14.43,25.7,16,28.21,1.06,1.75,1.8,2.64,2.38,2.63.37,0,.58-.59.5-1.26-.18-1.7-2.57-27.63-2.76-29.83a30,30,0,0,1,.88-7.23c.32-1.45-.25-3.21-2.39-4.9-1.78-1.42-3.08-1.76-4.58-1.51a33.41,33.41,0,0,0-5.09,1.45,5.53,5.53,0,0,0-2.51,2.07"></path><path class="cls-1" d="M384.21,233.91a49,49,0,0,0-.89,5.53,17.59,17.59,0,0,0,.06,4.39c.2,1.89,2.2,25.76,2.4,27.51s1.56,1.64,2.57.07,13.69-28.08,14.13-29a8.68,8.68,0,0,0,.89-5.85c-.7-2.51-1.51-4.77-3.15-5.78s-4.58-2.44-5.4-2.82a5.53,5.53,0,0,0-3.4-.38,26.82,26.82,0,0,0-5.21,2.7,5.81,5.81,0,0,0-2,3.65"></path><path class="cls-1" d="M404.74,230.83c.31,1.15,1.67,5.78,1.75,6.47a10.79,10.79,0,0,1-1.32,5.4c-1.07,2.07-7.92,16.21-8.79,18s-.44,3.58,1.57,1.07,13.26-17.66,14.5-19.6,2.71-4.34.45-7.73a20.91,20.91,0,0,0-5.72-6c-1.26-.81-3.33-.87-2.44,2.33"></path></svg>