<?xml version="1.0" encoding="UTF-8"?>
<svg id="katman_1" data-name="katman 1" xmlns="http://www.w3.org/2000/svg" viewBox="0 0 547.69 368.46">
  <defs>
    <style>
      .cls-1 {
        fill: #efe7d6;
      }
      .cls-2 {
        fill: #9db5ad;
      }
    </style>
  </defs>
  <path class="cls-2" d="M530.33,111.91c-44.7,45.58-100.36,69.71-161.7,70.26,49.89,42.03,111.43,62.23,179.06,58.87-50.47-46.85,13.34-97.71-5.31-142.32-3.9,4.55-7.94,8.96-12.05,13.19"/>
  <path class="cls-1" d="M293.34,14.3c45.58,44.7,69.72,100.36,70.26,161.71,42.03-49.91,60.97-67.25,57.6-134.88-53.85,47.45-96.44-57.53-141.05-38.88,4.56,3.9,8.96,7.94,13.19,12.05"/>
  <path class="cls-2" d="M352.01,188.49c-42.99,48.09-64.6,111.34-61.52,179.98,65.6-53.77,102.94,13.62,149.29-7.48-38.16-34.52-81.94-91.25-87.78-172.5"/>
  <path class="cls-1" d="M62.31,87.64c0-2.97-.52-5.77-1.55-8.39-1.04-2.61-2.45-4.88-4.23-6.81-1.78-1.93-3.87-3.46-6.27-4.59-2.4-1.12-4.98-1.69-7.72-1.69h-9.11c-2.74,0-5.31.57-7.72,1.69-2.4,1.13-4.5,2.66-6.28,4.59-1.78,1.93-3.18,4.2-4.22,6.81-1.04,2.62-1.56,5.42-1.56,8.39v57.45c0,2.97.52,5.77,1.56,8.39,1.04,2.61,2.45,4.89,4.22,6.82,1.78,1.93,3.87,3.46,6.28,4.59s4.98,1.69,7.72,1.69h9.11c2.75,0,5.32-.57,7.72-1.69s4.5-2.65,6.27-4.59c1.78-1.93,3.19-4.2,4.23-6.82,1.04-2.61,1.55-5.41,1.55-8.39v-57.45ZM73.36,158.37c-1.74,4.42-4.13,8.29-7.16,11.59-3.03,3.3-6.59,5.9-10.66,7.79-4.07,1.89-8.4,2.83-13,2.83h-9.11c-4.59,0-8.92-.94-12.99-2.83-4.08-1.89-7.63-4.49-10.66-7.79-3.04-3.3-5.43-7.16-7.17-11.59-1.74-4.42-2.61-9.13-2.61-14.12V0h13.66v64.95c3.11-4.02,6.85-7.16,11.22-9.41,4.37-2.25,9.11-3.38,14.21-3.38h3.44c4.59,0,8.92.95,13,2.83,4.07,1.89,7.63,4.48,10.66,7.79,3.04,3.3,5.43,7.16,7.16,11.59,1.74,4.42,2.61,9.13,2.61,14.12v55.76c0,4.99-.87,9.7-2.61,14.12"/>
  <path class="cls-1" d="M142.86,118.3h-28.88c-2.74,0-5.31.57-7.72,1.69-2.41,1.13-4.5,2.68-6.28,4.65-1.78,1.97-3.18,4.26-4.22,6.88-1.04,2.61-1.56,5.42-1.56,8.39v5.2c0,2.97.52,5.77,1.56,8.39,1.04,2.61,2.44,4.89,4.22,6.82,1.78,1.93,3.87,3.46,6.28,4.59,2.4,1.12,4.98,1.69,7.72,1.69h9.11c2.74,0,5.31-.57,7.72-1.69s4.5-2.65,6.28-4.59c1.77-1.93,3.18-4.21,4.22-6.82,1.03-2.61,1.55-5.41,1.55-8.39v-26.8ZM151.96,178.16l-7.55-12.31c-3.11,4.43-7,7.99-11.67,10.68-4.67,2.69-9.77,4.04-15.33,4.04h-3.44c-4.59,0-8.92-.95-12.99-2.84-4.08-1.89-7.63-4.48-10.66-7.78-3.04-3.3-5.43-7.16-7.17-11.59-1.74-4.42-2.6-9.13-2.6-14.12v-1.21c0-4.98.87-9.69,2.6-14.12,1.74-4.42,4.13-8.28,7.17-11.59,3.04-3.3,6.59-5.89,10.66-7.78,4.07-1.89,8.4-2.84,12.99-2.84h28.88v-19.07c0-2.97-.52-5.77-1.55-8.39-1.04-2.61-2.45-4.88-4.22-6.81-1.78-1.93-3.87-3.46-6.28-4.59-2.4-1.12-4.98-1.69-7.72-1.69h-8c-2.74,0-5.31.56-7.72,1.69-2.41,1.13-4.5,2.66-6.27,4.59-1.78,1.93-3.19,4.2-4.23,6.81-1.03,2.62-1.56,5.42-1.56,8.39v4.46l-13.66-2.41v-1.21c0-4.98.87-9.7,2.61-14.12,1.74-4.43,4.13-8.29,7.16-11.59,3.04-3.3,6.6-5.89,10.67-7.79,4.07-1.89,8.4-2.84,12.99-2.84h8c4.59,0,8.92.95,12.99,2.84,4.07,1.89,7.63,4.48,10.67,7.79,3.03,3.3,5.42,7.16,7.16,11.59,1.74,4.42,2.61,9.13,2.61,14.12v89.67h-4.55Z"/>
  <path class="cls-1" d="M223.41,178.16v-90.52c0-2.97-.52-5.77-1.56-8.39-1.04-2.61-2.45-4.88-4.23-6.81-1.78-1.93-3.86-3.46-6.27-4.59-2.41-1.12-4.98-1.69-7.72-1.69h-9.11c-2.74,0-5.31.56-7.72,1.69-2.4,1.13-4.5,2.66-6.27,4.59-1.78,1.93-3.19,4.2-4.22,6.81-1.04,2.62-1.56,5.42-1.56,8.39v90.52h-13.66V54.58h4.55l7.44,12.55c3.11-4.59,7.01-8.23,11.72-10.92,4.7-2.7,9.83-4.05,15.38-4.05h3.44c4.59,0,8.92.95,13,2.84,4.08,1.89,7.63,4.48,10.66,7.79,3.03,3.3,5.43,7.16,7.16,11.59,1.74,4.42,2.61,9.13,2.61,14.12v89.67h-13.66Z"/>
  <path class="cls-1" d="M305.73,192.52c0-2.97-.52-5.65-1.56-8.03-1.04-2.38-2.45-4.37-4.22-5.97-1.78-1.61-3.87-2.86-6.28-3.74-2.4-.89-4.98-1.33-7.72-1.33h-7c-2.74,0-5.31.44-7.72,1.33-2.41.89-4.5,2.14-6.28,3.74-1.78,1.61-3.19,3.6-4.22,5.97-1.04,2.37-1.56,5.05-1.56,8.03v1.93c0,2.98.52,5.64,1.56,7.97,1.04,2.33,2.45,4.32,4.22,5.97,1.78,1.65,3.87,2.91,6.28,3.8,2.4.88,4.98,1.33,7.72,1.33h7c2.74,0,5.31-.45,7.72-1.33,2.41-.89,4.5-2.15,6.28-3.8,1.78-1.65,3.18-3.64,4.22-5.97,1.04-2.34,1.56-4.99,1.56-7.97v-1.93ZM306.29,87.64c0-2.97-.52-5.77-1.56-8.39-1.04-2.61-2.46-4.88-4.27-6.82-1.82-1.93-3.93-3.46-6.33-4.59-2.4-1.12-4.98-1.69-7.72-1.69h-11.33c-2.74,0-5.31.57-7.72,1.69-2.41,1.13-4.5,2.66-6.28,4.59-1.78,1.93-3.18,4.21-4.22,6.82-1.04,2.61-1.56,5.42-1.56,8.39v10.99c0,2.97.52,5.77,1.56,8.39,1.04,2.61,2.45,4.88,4.22,6.82,1.78,1.93,3.87,3.46,6.28,4.59,2.4,1.12,4.98,1.69,7.72,1.69h11.33c2.74,0,5.32-.56,7.72-1.69,2.41-1.13,4.52-2.66,6.33-4.59,1.81-1.93,3.24-4.2,4.27-6.82,1.04-2.62,1.56-5.42,1.56-8.39v-10.99ZM316.11,207.48c-1.74,4.19-4.13,7.76-7.16,10.74-3.03,2.98-6.59,5.29-10.66,6.94-4.07,1.65-8.4,2.47-12.99,2.47h-5.66c-4.6,0-8.92-.82-13-2.47-4.07-1.65-7.63-3.96-10.66-6.94-3.03-2.98-5.42-6.55-7.16-10.74-1.74-4.18-2.6-8.77-2.6-13.75v-.48c0-4.83.81-9.25,2.44-13.28,1.63-4.02,3.85-7.52,6.66-10.5-3.55-2.33-6.39-5.49-8.49-9.47-2.11-3.99-3.17-8.39-3.17-13.22,0-4.34.85-8.39,2.56-12.13,1.7-3.74,4.03-6.78,6.99-9.11-3.55-3.38-6.37-7.44-8.44-12.19-2.07-4.75-3.11-9.94-3.11-15.57v-9.29c0-4.98.87-9.7,2.6-14.12,1.74-4.43,4.13-8.29,7.17-11.59,3.03-3.3,6.59-5.89,10.66-7.79,4.08-1.88,8.4-2.83,13-2.83h5.66c5.56,0,10.68,1.35,15.39,4.04,4.7,2.7,8.61,6.33,11.72,10.92l7.45-12.55h4.55v43.2c0,4.99-.88,9.7-2.61,14.12-1.74,4.43-4.13,8.29-7.16,11.59-3.04,3.3-6.59,5.9-10.67,7.79-4.07,1.89-8.4,2.83-13,2.83h-19.77c-1.55,0-3.03.34-4.44,1.03-1.41.68-2.65,1.59-3.72,2.71-1.08,1.13-1.91,2.47-2.51,4.04-.59,1.57-.89,3.2-.89,4.89s.3,3.3.89,4.83c.6,1.53,1.43,2.88,2.51,4.04,1.07,1.17,2.31,2.07,3.72,2.72,1.41.64,2.89.96,4.44.96h18.66c4.59,0,8.92.83,12.99,2.48s7.63,3.96,10.66,6.94c3.04,2.98,5.43,6.56,7.16,10.74s2.61,8.77,2.61,13.76v.48c0,4.99-.87,9.57-2.61,13.75"/>
  <path class="cls-1" d="M62.31,273.58c0-2.98-.52-5.78-1.55-8.39-1.04-2.61-2.45-4.89-4.23-6.82-1.78-1.93-3.87-3.46-6.27-4.59-2.4-1.12-4.98-1.69-7.72-1.69h-9.11c-2.74,0-5.31.56-7.72,1.69-2.4,1.13-4.5,2.66-6.28,4.59-1.78,1.93-3.18,4.2-4.22,6.82-1.04,2.61-1.56,5.41-1.56,8.39v57.44c0,2.98.52,5.78,1.56,8.39,1.04,2.62,2.45,4.89,4.22,6.82s3.87,3.46,6.28,4.59c2.4,1.13,4.98,1.69,7.72,1.69h9.11c2.75,0,5.32-.56,7.72-1.69,2.4-1.13,4.5-2.66,6.27-4.59,1.78-1.93,3.19-4.2,4.23-6.82,1.04-2.61,1.55-5.41,1.55-8.39v-57.44ZM73.36,344.3c-1.74,4.43-4.13,8.29-7.16,11.59-3.03,3.3-6.59,5.89-10.66,7.78-4.07,1.89-8.4,2.84-13,2.84h-9.11c-4.59,0-8.92-.95-12.99-2.84-4.08-1.89-7.63-4.48-10.66-7.78-3.04-3.3-5.43-7.16-7.17-11.59-1.74-4.43-2.61-9.13-2.61-14.12v-139.15h13.66v59.86c3.11-4.02,6.85-7.16,11.22-9.42,4.37-2.25,9.11-3.38,14.21-3.38h3.44c4.59,0,8.92.95,13,2.83,4.07,1.9,7.63,4.49,10.66,7.79,3.04,3.3,5.43,7.16,7.16,11.59,1.74,4.43,2.61,9.13,2.61,14.13v55.76c0,4.99-.87,9.69-2.61,14.12"/>
  <path class="cls-1" d="M151.96,364.09l-7.55-12.55c-3.11,4.59-7,8.23-11.67,10.93-4.67,2.69-9.77,4.04-15.33,4.04h-3.44c-4.59,0-8.92-.95-12.99-2.84-4.08-1.89-7.63-4.48-10.66-7.78-3.04-3.3-5.43-7.16-7.17-11.59-1.74-4.43-2.6-9.13-2.6-14.13v-89.66h13.66v90.51c0,2.98.52,5.77,1.56,8.39,1.04,2.62,2.44,4.89,4.22,6.82,1.78,1.93,3.87,3.46,6.28,4.59,2.4,1.12,4.98,1.69,7.72,1.69h9.11c2.74,0,5.31-.56,7.72-1.69,2.4-1.13,4.5-2.66,6.28-4.59,1.77-1.93,3.18-4.2,4.22-6.82,1.03-2.61,1.55-5.41,1.55-8.39v-90.51h13.66v123.58h-4.55Z"/>
  <rect class="cls-2" x="165.65" y="191.03" width="13.66" height="173.06"/>
  <path class="cls-1" d="M250.75,273.58c0-2.98-.52-5.78-1.56-8.39-1.04-2.61-2.45-4.89-4.22-6.82-1.78-1.93-3.87-3.46-6.27-4.59-2.41-1.12-4.98-1.69-7.72-1.69h-9.11c-2.74,0-5.32.56-7.72,1.69-2.41,1.13-4.5,2.66-6.28,4.59-1.78,1.93-3.18,4.2-4.22,6.82-1.04,2.61-1.56,5.41-1.56,8.39v57.44c0,2.98.52,5.78,1.56,8.39,1.04,2.62,2.45,4.89,4.22,6.82s3.87,3.46,6.28,4.59c2.4,1.13,4.98,1.69,7.72,1.69h9.11c2.74,0,5.31-.56,7.72-1.69,2.4-1.13,4.5-2.66,6.27-4.59s3.19-4.2,4.22-6.82c1.04-2.61,1.56-5.41,1.56-8.39v-57.44ZM261.8,344.3c-1.74,4.43-4.13,8.29-7.16,11.59-3.04,3.3-6.59,5.89-10.67,7.78-4.08,1.89-8.4,2.84-12.99,2.84h-9.11c-4.59,0-8.92-.95-13-2.84-4.07-1.89-7.63-4.48-10.66-7.78-3.04-3.3-5.43-7.16-7.17-11.59-1.74-4.43-2.6-9.13-2.6-14.12v-139.15h13.66v59.86c3.11-4.02,6.85-7.16,11.22-9.42,4.37-2.25,9.1-3.38,14.21-3.38h3.45c4.59,0,8.92.95,12.99,2.83,4.08,1.9,7.63,4.49,10.67,7.79,3.03,3.3,5.42,7.16,7.16,11.59,1.74,4.43,2.61,9.13,2.61,14.13v55.76c0,4.99-.87,9.69-2.61,14.12"/>
</svg>
