<?xml version="1.0" encoding="UTF-8"?>
<svg id="katman_1" data-name="katman 1" xmlns="http://www.w3.org/2000/svg" viewBox="0 0 759.27 1066.68">
  <defs>
    <style>
      .cls-1 {
        fill: #233d3c;
      }

      .cls-2 {
        fill: #8fa8a0;
      }
    </style>
  </defs>
  <path class="cls-2" d="M385.86,626.75c-34.59-16.93-67.79-36.95-99.34-59.15-7.56-5.71-28.91-18.73-26.44-28.26.24-.74.71-1.45,1.26-2.03,2.28-2.45,7.25-4.02,13.67-4.94,29.8-2.61,60.54-5.44,89.87-11.5,63.3-13.27,125.15-34.55,181.85-65.95,64.98-35.12,125.23-79.71,176.05-133.3,4.19-4.38,8.86-9.34,13-13.1,6.56-5.69,11.49-9.38,16.35-6.55,10.23,8.03,6.78,47.32,5.75,62.15-1.63,20.04-6.31,39.08-12.29,58.15-6.18,20.3-12.89,40.59-19.28,60.62-8.43,28.15-16.13,56.8-18.29,86.21-1.73,28.33,4.61,56.93,17.15,82.29,4.25,9.05,10.08,17.39,15.66,25.7,8.94,13.56,11.81,23.75-8.51,25.62-62.54,2.05-124.97-4.61-185.81-18.53-25.08-5.59-47.84-12.35-71.97-20.66-30.04-10.24-59.99-22.44-88.5-36.67l-.18-.09Z"/>
  <path class="cls-2" d="M267.85,1034.65c-20.47-7.32-40.81-12.76-62.38-16.45-12.93-2.19-26.15-3.95-39.28-3.78-37.21.71-74.07,11.64-106.41,29.71-10.79,5.67-22.26,14.49-32.81,18.87-5.5,2.07-9.74,1.48-12-3.25-1.74-3.52-2.55-9.33-2.98-16.49-.89-15.49.39-36.99,1.48-53.15,1.18-18.57,3.34-35.78,5.86-54.12,1.71-13.09,3.42-26.52,5.86-39.45,2.6-14.88,6.34-29.68,10.01-44.3,4.14-17.6,8.81-35.03,14.14-52.29,16.03-50.06,37.18-97.88,63.86-143.26,14.39-24.77,29.86-48.39,47.18-71.3,6.31-7.88,24.26-34.61,31.58-17.8,3.58,9.76,3.93,20.55,5.73,30.7,2.88,18.06,6.56,36,10.55,54.07,21.46,97.19,64.93,188.57,122.85,269.61,29.14,41.57,64.09,79.78,99.26,116.37,4.55,5.45,7.66,10.5,7.29,14.67-2.38,17.73-50.57,13.67-64.23,12.18-16.37-1.9-31.46-5.39-46.76-10.55-19.02-6.3-39.39-13.49-58.61-19.93l-.19-.06Z"/>
  <path class="cls-1" d="M349.83,359.44c-21.04,35.5-48.72,68.3-75.01,100.46-6.88,8.16-13.62,16.76-20.82,24.57-4.53,4.53-10.96,12.26-17.04,10.88-5.21-1.97-6.83-11.86-7.74-18.07-1.86-16.6-2.54-33.96-5.24-50.47-4.82-28.04-9.16-58.13-17.38-85.65-10.34-32.34-21.54-62.18-35.19-93.33-26.74-57.15-60.76-110.53-101.95-158.87-17.17-20.16-35.3-39.72-54.73-57.95C8.76,25.43-.29,15.81,0,9.27.1-.2,15.01-.61,23.18.35c41.3,5.24,83.04,37.54,117.34,64.7,39.8,30.95,79.18,65.92,127.23,83.53,30.84,11.45,57.93,12.74,88.53-.55,9.74-3.66,26.13-14.62,34.43-10.9,10.44,4.41,7.26,39.2,7.18,50.48-2.83,60-16.33,120.2-47.95,171.65l-.1.17Z"/>
</svg>