<svg xmlns="http://www.w3.org/2000/svg" viewBox="0 0 200 200" fill="none">
  
  
  <path d="M100 100 C 130 50, 145 30, 150 18 C 152 38, 145 70, 130 90 C 120 100, 110 102, 100 100 Z" fill="#1e3a36"></path>
  
  <path d="M100 100 C 150 70, 175 75, 188 80 C 175 100, 150 122, 125 122 C 112 122, 103 112, 100 100 Z" fill="#9db5ad"></path>
  
  <path d="M100 100 C 70 130, 55 152, 50 165 C 38 150, 35 122, 50 105 C 65 95, 85 95, 100 100 Z" fill="#9db5ad"></path>
  
  <path d="M100 100 C 70 90, 50 78, 38 70 C 50 60, 78 58, 92 75 C 100 85, 102 95, 100 100 Z" fill="#1e3a36"></path>
</svg>